<?xml version="1.0" standalone="no"?>
<!DOCTYPE svg PUBLIC "-//W3C//DTD SVG 1.1//EN" "http://www.w3.org/Graphics/SVG/1.1/DTD/svg11.dtd">
<svg xmlns="http://www.w3.org/2000/svg"><metadata>This SVG WebFont was generated by YouWorkForThem.
Copyright (c) 2016 by Ufuk Aracâºoâ¬lu. All rights reserved.</metadata><defs><font horiz-adv-x="1241" id="ywftsvg"><font-face ascent="1638" bbox="-83.3571 -771.556 2501 2429.7" cap-height="1434" descent="-410" font-family="" font-stretch="normal" font-weight="300" panose-1="2 0 5 5 0 0 0 2 0 4" underline-position="0" underline-thickness="0" unicode-range="U+000D-FB03" units-per-em="2048" x-height="1042"/><missing-glyph horiz-adv-x="518"/><glyph d="M256 893h125v-864q0 -29 -27 -29h-71q-27 0 -27 29v864zM926 893h127v-864q0 -16 -6.5 -22.5t-22.5 -6.5h-70q-29 0 -28 29v864zM1440 934h-1346q-16 0 -22 5t-6 24v51q0 29 28 28h162v60q0 225 84 341t278 116q100 0 175 -37q16 -12 12 -37l-12 -51q-4 -29 -35 -15 q-59 23 -127 23q-133 0 -191.5 -80t-58.5 -270v-50h545v60q0 225 85 341t279 116q98 0 172 -37q18 -12 15 -37l-13 -51q-4 -16 -11 -19.5t-23 4.5q-57 23 -130 23q-133 0 -190 -79t-57 -271v-50h387q16 0 22 -6t6 -22v-51q0 -18 -6 -23.5t-22 -5.5z" glyph-name="uniFB00" horiz-adv-x="1515" unicode="ff"/><glyph d="M256 895h125v-866q0 -29 -27 -29h-71q-27 0 -27 29v866zM975 895h127v-866q0 -29 -29 -29h-72q-27 0 -26 29v866zM1102 934h-1008q-29 0 -28 29v51q0 29 28 28h162v60q0 225 84 341t278 116q100 0 175 -37q16 -12 12 -37l-12 -51q-4 -16 -11.5 -19.5t-23.5 4.5 q-59 23 -127 23q-133 0 -191.5 -80t-58.5 -270v-50h692q29 0 29 -28v-80zM940 1389q0 41 27.5 68.5t68.5 27.5q39 0 66.5 -29t27.5 -67.5t-27.5 -66.5t-66.5 -28t-67.5 28t-28.5 67z" glyph-name="uniFB01" horiz-adv-x="1351" unicode="fi"/><glyph d="M256 895h125v-866q0 -29 -27 -29h-71q-27 0 -27 29v866zM926 895h127v-866q0 -16 -6.5 -22.5t-22.5 -6.5h-70q-29 0 -28 29v866zM1645 885h127v-856q0 -29 -27 -29h-72q-16 0 -22 6t-6 23v856zM1772 934h-1678q-29 0 -28 29v51q0 29 28 28h162v60q0 225 84 341t278 116 q100 0 175 -37q16 -12 12 -37l-12 -51q-4 -16 -11.5 -19.5t-23.5 4.5q-59 23 -127 23q-133 0 -191.5 -80t-58.5 -270v-50h545v60q0 225 85 341t279 116q98 0 172 -37q18 -12 15 -37l-13 -51q-4 -16 -11 -19.5t-23 4.5q-59 23 -127 23q-133 0 -191.5 -80t-58.5 -270v-50h692 q27 0 27 -28v-80zM1612 1388.5q0 38.5 27.5 67.5t66.5 29t67.5 -27.5t28.5 -68.5q0 -39 -28.5 -67t-67.5 -28t-66.5 28t-27.5 66.5z" glyph-name="uniFB03" horiz-adv-x="2023" unicode="ffi"/><glyph d="M1028 895h127v-922q0 -225 -86 -340.5t-281 -115.5q-119 0 -202 53q-18 10 -11 35l11 51q6 20 12 22.5t23 -6.5q63 -39 157 -39q133 0 191.5 80t58.5 271v911zM1155 934h-1061q-29 0 -28 29v51q0 29 28 28h162v60q0 225 84 341t278 116q100 0 175 -37q16 -12 12 -37 l-12 -51q-4 -16 -11.5 -19.5t-23.5 4.5q-59 23 -127 23q-133 0 -191.5 -80t-58.5 -270v-50h745q29 0 29 -28v-80zM256 895h125v-866q0 -29 -27 -29h-71q-27 0 -27 29v866zM991 1389q0 41 29 68.5t67.5 27.5t66.5 -29t28 -67.5t-28 -66.5t-66.5 -28t-67.5 28t-29 67z" glyph-name="f_j.liga" horiz-adv-x="1386" unicode="fj"/><glyph d="M256 895h125v-866q0 -29 -27 -29h-71q-27 0 -27 29v866zM926 895h127v-866q0 -16 -6.5 -22.5t-22.5 -6.5h-70q-29 0 -28 29v866zM1700 895h125v-922q0 -225 -85 -340.5t-280 -115.5q-121 0 -203 53q-18 10 -12 35l12 51q4 20 11.5 23.5t23.5 -7.5q63 -39 158 -39 q133 0 191.5 80t58.5 271v911zM1825 934h-1731q-29 0 -28 29v51q0 29 28 28h162v60q0 225 84 341t278 116q100 0 175 -37q16 -12 12 -37l-12 -51q-4 -16 -11.5 -19.5t-23.5 4.5q-59 23 -127 23q-133 0 -191.5 -80t-58.5 -270v-50h545v60q0 225 85 341t279 116q98 0 172 -37 q18 -12 15 -37l-13 -51q-4 -16 -11 -19.5t-23 4.5q-59 23 -127 23q-133 0 -191.5 -80t-58.5 -270v-50h745q27 0 27 -28v-80zM1661 1389q0 41 27.5 68.5t68.5 27.5q39 0 66.5 -29t27.5 -67.5t-27.5 -66.5t-66.5 -28t-67.5 28t-28.5 67z" glyph-name="f_f_j.liga" horiz-adv-x="2056" unicode="ffj"/><glyph glyph-name=".notdef" horiz-adv-x="518"/><glyph glyph-name="glyph1" horiz-adv-x="0"/><glyph glyph-name="glyph2" horiz-adv-x="681"/><glyph glyph-name="glyph3" horiz-adv-x="0"/><glyph glyph-name="glyph3" horiz-adv-x="0"/><glyph glyph-name="space" horiz-adv-x="518" unicode=" "/><glyph d="M287 510l-13 895q0 29 27 29h94q29 0 29 -29l-14 -895q0 -29 -27 -29h-68q-28 0 -28 29zM244 82q0 45 30.5 74.5t73.5 29.5q45 0 76 -29.5t31 -74.5q0 -43 -31 -74t-76 -31q-43 0 -73.5 31t-30.5 74z" glyph-name="exclam" horiz-adv-x="696" unicode="!"/><glyph d="M137 936v469q0 29 27 29h65q33 0 27 -33l-33 -473q-2 -20 -26 -21h-33q-27 0 -27 29zM500 936v469q0 16 6 22.5t22 6.5h64q33 0 26 -33l-32 -473q-2 -20 -27 -21h-31q-16 0 -22 6.5t-6 22.5z" glyph-name="quotedbl" horiz-adv-x="749" unicode="&quot;"/><glyph d="M236 1044h374l92 365q8 25 37 25h47q31 0 23 -29l-92 -361h432l94 365q10 25 37 25h47q35 0 23 -29l-90 -361h344q29 0 28 -28v-47q0 -16 -5 -22.5t-23 -6.5h-371l-113 -438h359q27 0 26 -29v-47q0 -29 -26 -29h-385l-95 -372q-10 -25 -36 -25h-50q-31 0 -22 29l94 368 h-434l-94 -372q-10 -25 -37 -25h-49q-29 0 -21 29l92 368h-331q-29 0 -29 29v47q0 16 6 22.5t23 6.5h360l113 438h-348q-16 0 -22.5 6t-6.5 23v47q0 28 29 28zM692 940l-114 -438h434l112 438h-432z" glyph-name="numbersign" horiz-adv-x="1695" unicode="#"/><glyph d="M707 1333v119q201 -16 419 -152q20 -14 9 -40l-33 -52q-16 -29 -39 -12q-182 121 -356 137zM543 100v-118q-248 20 -443 153q-25 14 -8 41l33 53q14 25 41 9q170 -118 377 -138zM707 651v125q457 -59 456 -379q0 -162 -117.5 -282.5t-338.5 -132.5v120q143 14 235 84 t92 207q0 109 -81.5 169t-245.5 89zM543 803v-123q-434 61 -434 354q0 147 114.5 274.5t319.5 143.5v-123q-160 -18 -232.5 -107t-72.5 -184q0 -98 90 -156.5t215 -78.5zM584 -158v1735q0 27 26 27h29q29 0 29 -27v-1735q0 -29 -29 -28h-29q-26 -1 -26 28z" glyph-name="dollar" horiz-adv-x="1259" unicode="$"/><glyph d="M403 1460v-88q-111 -6 -167 -82t-56 -196.5t57.5 -197.5t165.5 -83v-86q-154 6 -238.5 104.5t-84.5 262t85.5 262t237.5 104.5zM438 1372v88q152 -8 238 -105.5t86 -261t-86 -262t-238 -104.5v86q111 8 167.5 84t56.5 196.5t-57.5 197.5t-166.5 81zM1427 1405l-970 -1382 q-16 -23 -37 -23h-60q-39 0 -18 29l969 1382q16 23 37 23h61q36 0 18 -29zM1315 725v-88q-109 -6 -165 -82t-56 -196.5t55 -196.5t166 -84v-86q-152 6 -237 104.5t-85 262t85 262t237 104.5zM1350 637v88q154 -6 239.5 -104.5t85.5 -262t-86 -262t-239 -104.5v86 q111 8 168 84t57 196.5t-57 197.5t-168 81z" glyph-name="percent" horiz-adv-x="1767" unicode="%"/><glyph d="M549 -27v117q43 2 86 18.5t72.5 34t67.5 55.5t53.5 56t51 65.5t44.5 55.5l-334 332l-62 57q-70 66 -105.5 103.5t-79.5 116.5t-44 153q0 72 35 140.5t121 123.5t207 59v-112q-113 -6 -173.5 -71t-60.5 -157q0 -123 215 -311l4 -4q113 37 212 126t99 189q0 90 -70.5 154.5 t-185.5 73.5v112q178 -6 281.5 -108.5t103.5 -214.5q0 -80 -36.5 -153t-98 -123t-114 -81.5t-105.5 -54.5l273 -262q98 104 348 276q20 14 37 -4l45 -51q16 -23 -11 -41q-246 -170 -333 -264l360 -348q27 -31 -10 -31h-113q-25 0 -55 31l-273 260q-6 -6 -42.5 -50t-47 -56.5 t-46.5 -49.5t-54 -51t-54 -40t-63.5 -37t-66.5 -21.5t-78 -12.5zM508 92v-119q-193 8 -300.5 120t-107.5 286q0 254 383 371l92 -86q-338 -98 -337 -283q0 -127 74.5 -203t195.5 -86z" glyph-name="ampersand" horiz-adv-x="1540" unicode="&amp;"/><glyph d="M129 936v469q0 16 6 22.5t23 6.5h63q33 0 29 -33l-35 -473q-2 -20 -25 -21h-32q-16 0 -22.5 6.5t-6.5 22.5z" glyph-name="quotesingle" horiz-adv-x="380" unicode="'"/><glyph d="M76 590q0 293 140 512t382 348q29 14 41 -12l33 -56q18 -29 -15 -45q-205 -96 -329.5 -296.5t-124.5 -450.5t125 -450.5t329 -297.5q33 -16 15 -45l-33 -55q-12 -27 -41 -12q-240 123 -381 345t-141 515z" glyph-name="parenleft" horiz-adv-x="786" unicode="("/><glyph d="M770 590q0 -293 -141.5 -515t-380.5 -345q-29 -14 -41 12l-33 55q-18 29 14 45q203 96 328 297t125 451t-125 450.5t-328 296.5q-33 16 -14 45l33 56q12 27 41 12q242 -129 382 -348t140 -512z" glyph-name="parenright" horiz-adv-x="786" unicode=")"/><glyph d="M102 928l256 125l-249 118q-27 10 -15 37l19 37q14 27 41 12l254 -133l-7 285q-2 29 29 29h41q27 0 27 -29l-9 -283l252 140q25 12 39 -13l19 -36q14 -27 -11 -39l-245 -123l254 -117q27 -12 12 -39l-18 -37q-14 -25 -39 -14l-263 139l9 -301q0 -29 -29 -29h-39 q-31 0 -29 29l7 299l-261 -145q-27 -12 -38 12l-17 35q-15 29 10 41z" glyph-name="asterisk" horiz-adv-x="894" unicode="*"/><glyph d="M555 995v-313h315q27 0 27 -27v-55q0 -27 -27 -27h-315v-317q0 -29 -29 -29h-51q-16 0 -22.5 6.5t-6.5 22.5v317h-315q-29 0 -29 29v51q0 16 6.5 22.5t22.5 6.5h315v313q0 29 27 29h55q27 0 27 -29z" glyph-name="plus" horiz-adv-x="999" unicode="+"/><glyph d="M283 -10h-17q-45 2 -74.5 31.5t-29.5 74.5t30.5 77t75.5 32q47 0 79 -37t32 -100q0 -268 -221 -392q-16 -8 -21 2l-24 37q-6 12 6 21q150 98 164 254z" glyph-name="comma" horiz-adv-x="540" unicode=","/><glyph d="M721 530h-565q-27 0 -27 29v47q0 29 27 29h565q29 0 29 -27v-51q0 -27 -29 -27z" glyph-name="hyphen" horiz-adv-x="878" unicode="-"/><glyph d="M162 84q0 45 30.5 77t75.5 32t76 -32t31 -77t-31 -76t-76 -31t-75.5 31t-30.5 76z" glyph-name="period" horiz-adv-x="536" unicode="."/><glyph d="M676 1405l-475 -1380q-10 -25 -35 -25h-72q-29 0 -20 29l473 1380q10 25 37 25h67q33 0 25 -29z" glyph-name="slash" horiz-adv-x="739" unicode="/"/><glyph d="M645 92v-119q-268 8 -405.5 217t-137.5 527q0 205 55.5 366.5t180.5 266t307 110.5v-119q-143 -4 -239.5 -101t-133 -229t-36.5 -294q0 -119 21.5 -222.5t67.5 -194.5t127.5 -146.5t192.5 -61.5zM686 -27v119q111 6 193 61.5t127 146.5t66.5 194.5t21.5 222.5 q0 160 -37 292t-132.5 229t-238.5 103v119q180 -6 305 -110.5t181.5 -266t56.5 -366.5t-55.5 -366t-180.5 -266.5t-307 -111.5z" glyph-name="zero" horiz-adv-x="1331" unicode="0"/><glyph d="M78 1241l295 170q41 23 57 23h49q29 0 29 -29v-1376q0 -16 -6 -22.5t-23 -6.5h-76q-16 0 -22 6t-6 23v1241l-285 -129q-27 -6 -27 20v51q1 19 15 29z" glyph-name="one" horiz-adv-x="747" unicode="1"/><glyph d="M266 0l101 117h665q29 0 29 -27v-61q0 -16 -6 -22.5t-23 -6.5h-766zM559 1460v-119q-219 -10 -371 -176q-20 -20 -41 0l-45 49q-20 20 0 37q201 201 457 209zM600 1341v119q152 -4 260.5 -65.5t151.5 -152.5t23.5 -202.5t-107.5 -210.5l-715 -829h-100q-16 0 -17 16v19 q0 16 17 39l721 827q76 86 78.5 186.5t-79 175t-233.5 78.5z" glyph-name="two" horiz-adv-x="1148" unicode="2"/><glyph d="M545 1460v-119q-190 -8 -344 -174q-20 -23 -39 0l-45 47q-16 20 0 37q98 98 198.5 152.5t229.5 56.5zM586 -27v119q379 6 379 316q0 115 -99.5 190.5t-253.5 75.5h-219q-16 0 -22 6t-6 22v58q0 27 28 26h225q160 0 232 78t72 160q0 141 -93.5 226t-242.5 91v119 q190 -6 328.5 -115.5t138.5 -310.5q0 -111 -72 -194.5t-160 -108.5v-2q102 -27 189.5 -109.5t87.5 -220.5q0 -207 -138 -314.5t-374 -111.5zM545 92v-119q-250 6 -457 209q-18 18 2 37l43 47q20 20 41 0q158 -166 371 -174z" glyph-name="three" horiz-adv-x="1196" unicode="3"/><glyph d="M969 483h-127v787l-692 -936h-31q-25 0 -25 28v58q0 27 21 55l694 942q12 16 33 17h100q27 0 27 -29v-922zM281 442h931q27 0 27 -26v-54q0 -29 -27 -28h-243v-305q0 -29 -27 -29h-72q-29 0 -28 29v305h-641z" glyph-name="four" horiz-adv-x="1325" unicode="4"/><glyph d="M274 727h-88q-35 0 -28 29l90 649q2 16 7 22.5t19 6.5h691q29 0 28 -29v-62q0 -29 -28 -28h-609zM575 -27v119q375 6 375 340q0 295 -383 295h-254l17 119h241q233 0 372.5 -96.5t139.5 -313.5q0 -227 -137.5 -343t-370.5 -120zM537 92v-119q-256 8 -459 211q-16 16 2 33 l45 49q18 18 37 2q172 -172 375 -176z" glyph-name="five" horiz-adv-x="1185" unicode="5"/><glyph d="M668 1341v119q244 0 434 -166q20 -16 -2 -39l-43 -49q-25 -25 -45 0q-84 78 -162 106.5t-182 28.5zM668 823v113q205 4 341 -117t136 -332q0 -215 -129 -363.5t-348 -150.5v117q164 4 255 118t91 273q0 150 -101.5 244t-244.5 98zM627 934v-109q-150 -14 -260.5 -123.5 t-110.5 -242.5q0 -35 7 -74t31.5 -92t63.5 -95t109 -73t160 -35v-117q-518 14 -518 645q0 819 518 842v-119q-135 -8 -224.5 -105t-125 -240.5t-35.5 -336.5q47 109 142.5 185t242.5 90z" glyph-name="six" horiz-adv-x="1245" unicode="6"/><glyph d="M129 27l850 1407h104q25 0 25 -23v-10q0 -16 -18 -47l-807 -1329q-16 -25 -39 -25h-94q-35 0 -21 27zM92 1434h840l-76 -125h-764q-29 2 -29 28v68q0 29 29 29z" glyph-name="seven" horiz-adv-x="1148" unicode="7"/><glyph d="M635 1343v117q209 -4 332 -114.5t123 -276.5q0 -233 -267 -334v-4q31 -8 72 -28.5t97.5 -60.5t94 -109.5t37.5 -155.5q0 -174 -120.5 -287t-368.5 -117v117q184 4 272 87t88 206q0 129 -113.5 209t-265.5 90q-154 -10 -268.5 -90t-114.5 -209q0 -121 91.5 -206t269.5 -87 v-117q-246 4 -369 118t-123 286q0 86 38 155.5t94.5 110.5t98.5 61.5t75 28.5v4q-33 10 -67 27.5t-86 55.5t-85 102.5t-33 146.5q0 164 124 275.5t333 115.5v-117q-143 -4 -234.5 -84.5t-91.5 -195.5q0 -121 100.5 -194.5t247.5 -82.5q145 8 245 82t100 195 q0 117 -91.5 196.5t-234.5 83.5z" glyph-name="eight" horiz-adv-x="1228" unicode="8"/><glyph d="M580 92v-119q-250 0 -453 177q-20 18 2 40l43 48q25 25 45 2q175 -148 363 -148zM580 610v-112q-207 -4 -343.5 116.5t-136.5 331.5q0 215 130 363.5t350 150.5v-117q-166 -6 -257.5 -118.5t-91.5 -272.5q0 -152 102 -245t247 -97zM621 500v108q147 14 258.5 124 t111.5 243q0 33 -7 72.5t-31.5 92t-63.5 94.5t-108.5 73.5t-159.5 35.5v117q516 -14 516 -645q0 -811 -516 -840v119q385 25 385 680q-45 -109 -142.5 -183.5t-242.5 -90.5z" glyph-name="nine" horiz-adv-x="1243" unicode="9"/><glyph d="M162 84q0 43 30.5 76t75.5 33q43 0 75 -33t32 -76q0 -45 -32 -76t-75 -31q-47 0 -76.5 30t-29.5 77zM162 780q0 47 29.5 79t74.5 32t77 -32t32 -79q0 -45 -31 -74.5t-78 -29.5q-45 0 -74.5 29.5t-29.5 74.5z" glyph-name="colon" horiz-adv-x="536" unicode=":"/><glyph d="M162 782q0 45 30.5 77t75.5 32t76 -32t31 -77t-31 -75.5t-76 -30.5t-75.5 30.5t-30.5 75.5zM283 -23h-17q-45 0 -74.5 31t-29.5 76q0 43 30.5 76t75.5 33q47 0 79 -37t32 -101q0 -268 -221 -391q-14 -10 -21 2l-24 37q-6 12 6 21q150 95 164 253z" glyph-name="semicolon" horiz-adv-x="540" unicode=";"/><glyph d="M35 719v4q0 18 22 31l920 524q29 14 29 -12v-70q0 -25 -29 -39l-764 -436l764 -438q29 -12 29 -39v-68q0 -27 -29 -12l-920 522q-22 13 -22 33z" glyph-name="less" horiz-adv-x="1107" unicode="&lt;"/><glyph d="M817 774h-661q-27 0 -27 27v49q0 29 27 29h661q27 0 27 -29v-49q0 -27 -27 -27zM817 369h-661q-27 0 -27 28v47q0 31 27 31h661q27 0 27 -29v-51q0 -26 -27 -26z" glyph-name="equal" horiz-adv-x="972" unicode="="/><glyph d="M1073 723v-4q-4 -23 -22 -33l-920 -522q-29 -12 -29 12v68q0 27 29 39l764 438l-764 436q-29 14 -29 39v70q0 25 29 12l920 -524q20 -11 22 -31z" glyph-name="greater" horiz-adv-x="1107" unicode=">"/><glyph d="M532 1335v119q244 -10 371 -141t127 -291q0 -176 -132 -271.5t-359 -144.5v-166q0 -29 -29 -28h-64q-27 0 -26 28v222q0 23 20 24q461 90 461 330q0 123 -99.5 214t-269.5 105zM494 1456v-119q-168 4 -394 -145q-23 -16 -39 12l-32 53q-16 25 8 39q242 162 457 160z M477 -25q-45 0 -75.5 31t-30.5 76t30.5 75.5t75.5 30.5t76 -30.5t31 -75.5t-31 -76t-76 -31z" glyph-name="question" horiz-adv-x="1050" unicode="?"/><glyph d="M1440 172l-29 76v670l16 100q6 25 27 24h53q27 0 27 -28v-766q0 -203 174 -203q63 0 107.5 39t66 112.5t29.5 152.5t8 181q0 258 -120 451t-311.5 287t-424.5 96q-354 0 -599 -248t-245 -594t243 -595t585 -249q156 0 268 54q31 14 39 -8l12 -52q8 -29 -14 -41 q-129 -61 -305 -61q-399 0 -671 277.5t-272 674.5q0 395 274.5 673t684.5 278q203 0 379 -63.5t308 -181.5t209 -297t77 -401q0 -106 -14.5 -201.5t-47 -189.5t-99.5 -148t-161 -52q-113 0 -184.5 60t-89.5 173zM1370 326v-172q-131 -176 -352 -177q-211 0 -340 158 t-129 387q0 231 129 387t340 156q221 0 352 -184v-166q-45 109 -134 171t-196 62q-164 0 -266 -126t-102 -300q0 -184 100 -307t268 -123q106 0 193.5 61.5t136.5 172.5z" glyph-name="at" horiz-adv-x="2140" unicode="@"/><glyph d="M1163 555h-133l-303 680h-2l-537 -1206q-12 -29 -36 -29h-97q-27 0 -16 29l661 1417q10 25 23 24h6q10 0 21 -24zM451 516h733l227 -487q14 -29 -18 -29h-95q-20 0 -36 29l-168 370h-697z" glyph-name="A" horiz-adv-x="1443" unicode="A"/><glyph d="M377 0v117h385q377 0 377 291q0 113 -102.5 191.5t-252.5 78.5h-407v113h391q139 0 229 64.5t90 168.5q0 147 -100 220t-274 73h-336v117h346q94 0 178 -20.5t159 -64.5t119 -124t44 -189q0 -123 -76 -194.5t-168 -102.5v-2q37 -8 80 -29.5t95 -59.5t87 -104.5t35 -148.5 q0 -203 -140.5 -299t-361.5 -96h-397zM336 1434v-1434h-105q-16 0 -22 5t-6 24v1376q0 29 28 29h105z" glyph-name="B" horiz-adv-x="1368" unicode="B"/><glyph d="M819 92v-119q-299 8 -507 226.5t-208 517.5t208 517t507 226v-119q-240 -8 -409.5 -197.5t-169.5 -426.5q0 -240 168.5 -428.5t410.5 -196.5zM860 -27v119q250 8 428 191q20 20 39 -2l49 -54q18 -23 -2 -43q-94 -94 -231.5 -150.5t-282.5 -60.5zM860 1341v119 q143 -4 282.5 -61.5t231.5 -149.5q18 -20 0 -39l-49 -55q-23 -20 -43 0q-72 76 -182.5 129t-239.5 57z" glyph-name="C" horiz-adv-x="1474" unicode="C"/><glyph d="M344 1434v-1434h-104q-29 0 -29 29v1376q0 29 29 29h104zM383 0v117h354q252 0 414 176t162 424q0 250 -162 425t-414 175h-354v117h356q303 0 505 -206t202 -511t-202 -511t-505 -206h-356z" glyph-name="D" horiz-adv-x="1552" unicode="D"/><glyph d="M377 1315v119h764q27 0 26 -29v-62q0 -29 -26 -28h-764zM377 666v116h727q27 0 26 -26v-62q0 -29 -26 -28h-727zM377 0v117h764q27 0 26 -27v-61q0 -29 -26 -29h-764zM336 1434v-1434h-105q-29 0 -28 29v1376q0 29 28 29h105z" glyph-name="E" horiz-adv-x="1296" unicode="E"/><glyph d="M383 1315v119h762q29 0 29 -29v-62q0 -29 -29 -28h-762zM383 666v116h745q29 0 29 -26v-62q0 -29 -29 -28h-745zM344 1434v-1405q0 -29 -27 -29h-77q-16 0 -22.5 6t-6.5 23v1376q0 29 29 29h104z" glyph-name="F" horiz-adv-x="1277" unicode="F"/><glyph d="M817 1460v-119q-240 -8 -408.5 -196.5t-168.5 -428t167.5 -428t409.5 -196.5v-119q-297 4 -505 223.5t-208 520.5q0 299 207 517t506 226zM858 1341v119q143 -6 277.5 -61.5t232.5 -147.5q18 -18 -2 -39l-51 -55q-18 -20 -41 0q-70 70 -185.5 124t-230.5 60zM858 -27v119 q248 8 426 172v357h-424q-29 0 -29 28v62q0 29 29 28h529q29 0 28 -28v-449q0 -41 -33 -74q-96 -94 -238.5 -152.5t-287.5 -62.5z" glyph-name="G" horiz-adv-x="1550" unicode="G"/><glyph d="M354 1405v-1376q0 -16 -6 -22.5t-22 -6.5h-76q-16 0 -22.5 6t-6.5 23v1376q0 16 6 22.5t23 6.5h76q16 0 22 -6.5t6 -22.5zM1331 819h-133v586q0 16 6 22.5t23 6.5h76q16 0 22 -6.5t6 -22.5v-586zM393 780h938v-751q0 -16 -6 -22.5t-22 -6.5h-76q-16 0 -22.5 6t-6.5 23 v630h-805v121z" glyph-name="H" horiz-adv-x="1552" unicode="H"/><glyph d="M221 29v1376q0 16 6 22.5t23 6.5h76q29 0 28 -29v-1376q0 -16 -6 -22.5t-22 -6.5h-76q-16 0 -22.5 6.5t-6.5 22.5z" glyph-name="I" horiz-adv-x="575" unicode="I"/><glyph d="M623 1284h133v-727q0 -317 -161 -449.5t-466 -134.5q-20 0 -27.5 6.5t-11.5 22.5l-6 64q-2 16 6 23t29 7q248 0 376 105.5t128 355.5v727zM756 1325h-473q-16 0 -22.5 6t-6.5 23v51q0 16 6 22.5t23 6.5h446q27 0 27 -29v-80z" glyph-name="J" horiz-adv-x="915" unicode="J"/><glyph d="M1212 1405l-786 -748l-31 29v115l647 604q29 29 54 29h106q14 0 18 -7.5t-8 -21.5zM453 631l90 86l714 -688q12 -16 8.5 -22.5t-16.5 -6.5h-116q-20 0 -50 29zM356 1405v-1376q0 -18 -6 -23.5t-22 -5.5h-78q-16 0 -22.5 6t-6.5 23v1376q0 16 6 22.5t23 6.5h78 q28 0 28 -29z" glyph-name="K" horiz-adv-x="1323" unicode="K"/><glyph d="M383 0v117h688q29 0 29 -27v-61q0 -29 -29 -29h-688zM344 1405v-1405h-104q-16 0 -22.5 6t-6.5 23v1376q0 16 6 22.5t23 6.5h75q16 0 22.5 -6.5t6.5 -22.5z" glyph-name="L" horiz-adv-x="1167" unicode="L"/><glyph d="M1653 1069l102 201l148 -1241q6 -29 -25 -29h-80q-27 0 -29 29zM301 1339l14 121h31q12 0 25 -18l653 -1282l653 1282q12 18 25 18h31l14 -119l-682 -1339q-16 -29 -35 -29h-14q-16 0 -35 29zM293 1268l102 -201l-116 -1038q-6 -29 -29 -29h-80q-31 0 -25 29z" glyph-name="M" horiz-adv-x="2048" unicode="M"/><glyph d="M1372 113v-123q0 -16 -16 -17h-8q-14 0 -29 17l-1102 1339v115q0 16 19 16h10q12 0 24 -12zM217 1268l133 -162v-1077q0 -29 -26 -29h-78q-29 0 -29 29v1239zM1372 174l-133 162v1069q0 29 29 29h75q29 0 29 -29v-1231z" glyph-name="N" horiz-adv-x="1589" unicode="N"/><glyph d="M819 92v-119q-299 8 -507 226.5t-208 517.5q0 195 94.5 363.5t259.5 271t361 108.5v-119q-160 -6 -294 -97t-209.5 -231.5t-75.5 -295.5q0 -238 169.5 -427.5t409.5 -197.5zM858 -27v119q242 10 410 198.5t168 426t-168 425t-410 199.5v119q297 -8 505 -227t208 -516 q0 -195 -94.5 -364t-258 -271.5t-360.5 -108.5z" glyph-name="O" horiz-adv-x="1675" unicode="O"/><glyph d="M383 559v117h324q381 0 380 330q0 133 -84.5 222t-295.5 89h-324v117h334q100 0 185 -21.5t159 -68t116 -133.5t42 -205.5t-42 -208.5t-115 -140.5t-159 -74t-186 -23.5h-334zM344 1434v-1405q0 -16 -6 -22.5t-23 -6.5h-75q-18 0 -23.5 6t-5.5 23v1376q0 18 6 23.5 t23 5.5h104z" glyph-name="P" horiz-adv-x="1269" unicode="P"/><glyph d="M856 -27v119q242 10 411 198.5t169 426t-168 425t-412 199.5v119q295 -8 505 -227t210 -516q0 -360 -330 -613l180 -251q16 -23 -6 -39l-63 -45q-25 -16 -39 8l-180 268q-150 -70 -277 -72zM817 92v-119q-297 8 -505 227.5t-208 516.5q0 299 207 517t506 226v-119 q-240 -8 -408.5 -197.5t-168.5 -427t169.5 -427t407.5 -197.5z" glyph-name="Q" horiz-adv-x="1675" unicode="Q"/><glyph d="M344 1434v-1405q0 -18 -6 -23.5t-23 -5.5h-75q-16 0 -22.5 5t-6.5 24v1376q0 29 29 29h104zM918 541l4 -6l362 -502q20 -33 -22 -33h-78q-29 0 -47 29l-361 497h27q72 1 115 15zM725 559h-342v117h332q373 0 372 328q0 160 -99 236.5t-273 76.5h-332v117h342 q94 0 177 -21.5t157 -69t117 -134.5t43 -205q0 -158 -74 -261.5t-180.5 -143.5t-239.5 -40z" glyph-name="R" horiz-adv-x="1370" unicode="R"/><glyph d="M631 96v-119q-293 10 -508 158q-20 14 -8 41l32 53q16 25 41 9q92 -61 211 -99.5t232 -42.5zM637 1456v-121q-104 -2 -181 -33.5t-115 -79.5t-55.5 -93.5t-17.5 -90.5q0 -66 34 -111.5t101.5 -73.5t134 -42t169.5 -29q109 -14 189.5 -38.5t152 -66.5t108.5 -112.5 t37 -167.5q0 -174 -135 -298t-389 -122v119q170 4 281.5 75t111.5 222q0 127 -105.5 186.5t-332.5 92.5q-98 14 -172 33.5t-153 58.5t-121 107.5t-42 162.5q0 61 24.5 128t78 135.5t157 112.5t240.5 46zM676 1337v119q139 -4 248.5 -43t230.5 -113q20 -14 8 -40l-30 -52 q-16 -29 -41 -12q-207 139 -416 141z" glyph-name="S" horiz-adv-x="1306" unicode="S"/><glyph d="M727 1311v123h465q29 0 29 -29v-66q0 -29 -29 -28h-465zM686 1434v-1405q0 -29 -27 -29h-77q-29 0 -29 29v1282h-504q-29 0 -29 28v66q0 16 6.5 22.5t22.5 6.5h637z" glyph-name="T" unicode="T"/><glyph d="M752 -27v119q186 6 302.5 130t116.5 378v805q0 16 6.5 22.5t22.5 6.5h78q16 0 21.5 -6.5t5.5 -22.5v-815q0 -295 -152.5 -453t-400.5 -164zM713 92v-119q-246 4 -400.5 164t-154.5 453v815q0 29 28 29h78q27 0 27 -29v-805q0 -260 120 -382t302 -126z" glyph-name="U" horiz-adv-x="1464" unicode="U"/><glyph d="M188 1405l607 -1331l-43 -86q-12 -25 -21 -25h-8q-6 0 -23 25l-661 1417q-10 29 16 29h97q24 0 36 -29zM817 121l-69 151l514 1133q16 29 36 29h95q14 0 19 -9.5t-1 -19.5z" glyph-name="V" horiz-adv-x="1443" unicode="V"/><glyph d="M1440 76l-35 -88q-8 -25 -21 -25h-10q-10 0 -20 25l-367 1222l-309 -1063l-60 168l334 1117q8 29 27 28h16q18 0 27 -28zM1464 139l-59 195l379 1071q10 29 37 29h100q23 0 12 -29zM659 78l-28 -90q-10 -25 -21 -25h-22q-10 0 -19 25l-528 1417q-12 29 12 29h101 q27 0 36 -29z" glyph-name="W" horiz-adv-x="1966" unicode="W"/><glyph d="M580 682l79 -100l-450 -553q-23 -29 -45 -29h-105q-33 0 -12 29zM211 1405l1108 -1376q20 -29 -12 -29h-105q-23 0 -45 29l-1108 1376q-20 29 12 29h105q25 0 45 -29zM788 752l-81 102l448 551q20 29 43 29h105q33 0 12 -29z" glyph-name="X" horiz-adv-x="1363" unicode="X"/><glyph d="M707 582l-9 -13v-540q0 -29 -26 -29h-74q-16 0 -22.5 6t-6.5 23v540l-540 836q-16 29 12 29h92q25 0 41 -29zM733 618l-74 115l437 672q18 29 39 29h92q29 0 12 -29z" glyph-name="Y" horiz-adv-x="1259" unicode="Y"/><glyph d="M1085 1434h111q16 0 16 -17v-12q0 -10 -10 -29l-1005 -1376h-109q-18 0 -18 16v11q0 10 12 28zM1032 1434l-86 -119h-784q-29 0 -29 28v62q0 29 29 29h870zM248 0l86 117h823q29 0 29 -27v-61q0 -16 -6 -22.5t-23 -6.5h-909z" glyph-name="Z" horiz-adv-x="1275" unicode="Z"/><glyph d="M643 -295v-55q0 -16 -6 -22.5t-23 -6.5h-378q-16 0 -22.5 6t-6.5 23v1780q0 16 6 22t23 6h378q16 0 22.5 -6t6.5 -22v-56q0 -29 -29 -28h-286v-1614h286q29 0 29 -27z" glyph-name="bracketleft" horiz-adv-x="784" unicode="["/><glyph d="M621 25l-478 1380q-8 29 25 29h65q25 0 33 -25l477 -1380q8 -29 -26 -29h-64q-16 0 -21 4.5t-11 20.5z" glyph-name="backslash" horiz-adv-x="880" unicode="\"/><glyph d="M135 -350v55q0 27 29 27h287v1614h-287q-29 0 -29 28v56q0 16 6 22t23 6h379q16 0 22 -6t6 -22v-1780q0 -16 -6 -22.5t-22 -6.5h-379q-16 0 -22.5 6.5t-6.5 22.5z" glyph-name="bracketright" horiz-adv-x="776" unicode="]"/><glyph d="M342 1542h43q16 0 39 -29l219 -311q18 -29 -10 -28h-53q-31 0 -48 28l-167 252l-170 -252q-16 -29 -45 -28h-54q-31 0 -12 28l219 311q19 29 39 29z" glyph-name="asciicircum" horiz-adv-x="720" unicode="^"/><glyph d="M932 -135h-815q-29 0 -29 29v53q0 16 6 22t23 6h815q27 0 26 -28v-56q1 -26 -26 -26z" glyph-name="underscore" horiz-adv-x="1040" unicode="_"/><glyph d="M279 1202l-197 187q-18 14 -6 34l33 52q18 29 36 6l254 -269q29 -29 -6 -28h-67q-27 0 -47 18z" glyph-name="grave" horiz-adv-x="471" unicode="`"/><glyph d="M879 27v544q0 209 -70 295t-238 86q-152 0 -321 -34q-18 -4 -24.5 1t-10.5 25l-12 47q-8 29 22 37q147 37 350 37q240 0 335.5 -113.5t95.5 -376.5v-546q0 -29 -27 -29h-66q-20 0 -34 27zM840 236v-115q-143 -143 -363 -144q-156 0 -261 91.5t-105 246.5q0 166 112.5 250 t313.5 84q141 0 303 -61v-101q-152 63 -279 64q-324 0 -323 -236q0 -106 73.5 -170.5t202.5 -64.5q88 0 178.5 45t147.5 111z" glyph-name="a" horiz-adv-x="1157" unicode="a"/><glyph d="M367 152v172q55 -121 145 -176.5t184 -55.5q168 0 269.5 123t101.5 307q0 174 -102.5 300t-268.5 126q-221 0 -329 -233v168q55 82 147 132t205 50q213 0 343 -155.5t130 -387t-130 -388.5t-343 -157q-113 0 -205 48.5t-147 126.5zM328 1483v-1393l-17 -65 q-16 -25 -43 -25h-41q-27 0 -26 29v1454q0 29 26 28h74q27 1 27 -28z" glyph-name="b" horiz-adv-x="1294" unicode="b"/><glyph d="M657 948v117q211 -6 359 -154q20 -20 2 -39l-39 -43q-20 -23 -39 -4q-113 117 -283 123zM616 1065v-117q-164 -8 -276.5 -133t-112.5 -295t112 -294t277 -132v-117q-219 8 -366.5 167t-147.5 376t148.5 377t365.5 168zM657 -23v117q172 8 283 123q18 16 39 -4l39 -43 q16 -20 -2 -39q-148 -148 -359 -154z" glyph-name="c" horiz-adv-x="1112" unicode="c"/><glyph d="M928 324v-172q-55 -78 -147.5 -126.5t-205.5 -48.5q-213 0 -343 157t-130 388.5t130 387t343 155.5q113 0 205 -50t148 -132v-168q-106 233 -330 233q-166 0 -267.5 -126t-101.5 -300q0 -184 100.5 -307t268.5 -123q96 0 185.5 55.5t144.5 176.5zM967 90v1393q0 29 26 28 h74q27 0 27 -28v-1454q0 -29 -27 -29h-41q-27 0 -41 25z" glyph-name="d" horiz-adv-x="1294" unicode="d"/><glyph d="M276 473q-14 47 0 92h736q-4 147 -102.5 265t-258.5 126v109q223 -6 357.5 -169t134.5 -394q0 -29 -27 -29h-840zM231 537v-33q0 -170 124 -292t298 -122q190 0 336 111q25 18 39 -2l33 -37q18 -25 -2 -41q-68 -68 -181.5 -106t-230.5 -38q-231 0 -389 159t-158 384 q0 215 148.5 376t361.5 169v-109q-162 -12 -270.5 -134.5t-108.5 -284.5z" glyph-name="e" horiz-adv-x="1232" unicode="e"/><glyph d="M256 891h125v-862q0 -29 -27 -29h-71q-27 0 -27 29v862zM770 932h-676q-16 0 -22 5t-6 24v49q0 29 28 28h162v64q0 225 84 341t278 116q100 0 175 -37q16 -12 12 -37l-12 -51q-4 -16 -11.5 -19.5t-23.5 4.5q-59 23 -127 23q-133 0 -191.5 -80t-58.5 -270v-54h389 q27 0 27 -28v-49q0 -29 -27 -29z" glyph-name="f" horiz-adv-x="843" unicode="f"/><glyph d="M967 57v953q12 33 41 32h59q27 0 27 -28v-944q0 -575 -471 -576q-205 0 -402 72q-25 10 -16 33l16 63q8 27 31 16q4 -2 28.5 -11t38 -13t40 -12.5t50 -12.5t55.5 -10t67.5 -8t74.5 -2q104 0 177 34.5t112 98t55.5 140.5t16.5 175zM926 891v-170q-106 229 -328 229 q-168 0 -268.5 -122.5t-100.5 -307.5q0 -172 101.5 -299t267.5 -127q98 0 187 57.5t141 172.5v-166q-127 -180 -351 -181q-213 0 -343 156t-130 387q0 229 130 387t343 158q113 0 204.5 -48t146.5 -126z" glyph-name="g" horiz-adv-x="1294" unicode="g"/><glyph d="M330 1483v-1454q0 -29 -27 -29h-74q-27 0 -26 29v1454q0 29 26 28h74q27 1 27 -28zM373 754v149q51 72 131 117t172 45q174 0 289.5 -114.5t115.5 -342.5v-579q0 -29 -26 -29h-74q-27 0 -27 29v540q0 182 -87 280.5t-222 98.5q-90 0 -162.5 -57t-109.5 -137z" glyph-name="h" horiz-adv-x="1232" unicode="h"/><glyph d="M254 29v985q0 16 6 22t23 6h69q29 0 29 -28v-985q0 -16 -6 -22.5t-23 -6.5h-69q-16 0 -22.5 6.5t-6.5 22.5zM221 1389q0 41 27.5 68.5t66.5 27.5t68 -29t29 -67.5t-29 -66.5t-68 -28t-66.5 28t-27.5 67z" glyph-name="i" horiz-adv-x="630" unicode="i"/><glyph d="M383 1389q0 41 27.5 68.5t68.5 27.5q39 0 66.5 -29t27.5 -67.5t-27.5 -66.5t-66.5 -28t-67.5 28t-28.5 67zM547 934h-426q-29 0 -29 29v51q0 29 29 28h399q27 0 27 -28v-80zM422 895h125v-922q0 -225 -85 -340.5t-280 -115.5q-121 0 -202 53q-18 10 -13 35l13 51 q4 20 11 23.5t21 -7.5q66 -39 160 -39q133 0 191.5 80t58.5 271v911z" glyph-name="j" horiz-adv-x="776" unicode="j"/><glyph d="M334 1483v-1454q0 -29 -27 -29h-71q-29 0 -29 29v1454q0 29 29 28h71q27 1 27 -28zM430 426l92 86l510 -483q23 -29 -8 -29h-106q-23 0 -50 29zM377 477v121l465 416q27 29 49 28h102q14 0 17.5 -9t-9.5 -19l-602 -557z" glyph-name="k" horiz-adv-x="1124" unicode="k"/><glyph d="M221 29v1454q0 16 6 22t23 6h69q29 0 29 -28v-1454q0 -16 -6 -22.5t-23 -6.5h-69q-16 0 -22.5 6.5t-6.5 22.5z" glyph-name="l" horiz-adv-x="569" unicode="l"/><glyph d="M334 961v-932q0 -29 -27 -29h-74q-27 0 -26 29v985q0 29 26 28h43q33 0 43 -20zM377 770v141q100 154 274 154q176 0 279.5 -132t103.5 -337v-567q0 -29 -26 -29h-74q-27 0 -27 29v540q0 168 -78.5 273.5t-207.5 105.5q-164 0 -244 -178zM1067 754q-16 70 -43 102 q119 209 326 209q160 0 271.5 -115.5t111.5 -341.5v-579q0 -29 -27 -29h-74q-27 0 -26 29v540q0 180 -84 279.5t-203 99.5q-74 0 -143.5 -47t-108.5 -147z" glyph-name="m" horiz-adv-x="1884" unicode="m"/><glyph d="M338 961v-932q0 -29 -27 -29h-73q-27 0 -27 29v985q0 29 27 28h43q33 0 41 -20zM379 754v149q123 162 303 162q174 0 291 -115.5t117 -341.5v-579q0 -29 -27 -29h-74q-27 0 -26 29v540q0 182 -87.5 280.5t-224.5 98.5q-82 0 -155.5 -50t-116.5 -144z" glyph-name="n" unicode="n"/><glyph d="M618 92v-115q-215 8 -365.5 167t-150.5 376q0 219 150.5 378t365.5 167v-117q-160 -8 -274.5 -131t-114.5 -297q0 -172 112.5 -296t276.5 -132zM659 -23v115q166 8 279 132t113 296q0 170 -113 295t-279 133v117q219 -8 369 -167t150 -378q0 -217 -150 -376t-369 -167z " glyph-name="o" horiz-adv-x="1280" unicode="o"/><glyph d="M367 717v174q55 78 147 126t205 48q213 0 343 -157.5t130 -387.5q0 -231 -130 -387t-343 -156q-113 0 -205 50.5t-147 132.5v168q109 -233 329 -234q166 0 268.5 126t102.5 300q0 184 -101.5 307t-269.5 123q-94 0 -184 -56t-145 -177zM328 952v-1341q0 -29 -27 -29h-74 q-27 0 -26 29v1403q0 29 26 28h41q25 0 43 -24z" glyph-name="p" horiz-adv-x="1294" unicode="p"/><glyph d="M928 891v-174q-55 121 -144.5 177t-185.5 56q-168 0 -268.5 -122.5t-100.5 -307.5q0 -174 101.5 -300t267.5 -126q221 0 330 234v-168q-55 -82 -147.5 -132.5t-205.5 -50.5q-213 0 -343 156t-130 387q0 229 130 387t343 158q113 0 205.5 -48t147.5 -126zM967 -389v1341 l18 66q16 25 41 24h41q27 0 27 -28v-1403q0 -29 -27 -29h-74q-26 0 -26 29z" glyph-name="q" horiz-adv-x="1294" unicode="q"/><glyph d="M377 725v156q127 186 389 184q31 0 25 -25l-11 -73q-4 -27 -32 -27q-262 0 -371 -215zM338 1006v-977q0 -29 -27 -29h-73q-27 0 -27 29v985q0 29 27 28h43q23 0 33 -6.5t24 -29.5z" glyph-name="r" horiz-adv-x="843" unicode="r"/><glyph d="M559 958v105q180 -10 340 -113q25 -14 10 -39l-22 -41q-12 -29 -39 -12q-158 98 -289 100zM537 -23v105q145 2 215.5 61.5t70.5 147.5q0 133 -305 178q-72 10 -119 19.5t-104 30t-91 48t-57.5 74.5t-23.5 109q0 143 106.5 230t290.5 85v-104q-135 2 -205.5 -55.5 t-70.5 -149.5q0 -84 66.5 -116t236.5 -56q397 -57 397 -287q0 -139 -108.5 -228.5t-298.5 -91.5zM496 82v-105q-209 12 -387 132q-20 12 -7 38l25 43q16 27 41 11q146 -107 328 -119z" glyph-name="s" horiz-adv-x="1038" unicode="s"/><glyph d="M748 936h-623q-16 0 -22.5 6t-6.5 23v49q0 29 29 28h108v215q0 29 29 29h70q16 0 22 -6t6 -23v-215h388q29 0 28 -28v-49q0 -16 -6 -22.5t-22 -6.5zM233 895h127v-451q0 -190 58.5 -270t191.5 -80q86 0 148 31q16 10 23 7t12 -19l12 -54q4 -23 -12 -34q-82 -47 -195 -48 q-195 0 -280 116t-85 341v461z" glyph-name="t" horiz-adv-x="894" unicode="t"/><glyph d="M903 82v932q0 29 27 28h74q27 0 26 -28v-985q0 -29 -26 -29h-43q-33 0 -41 20zM862 287v-148q-123 -162 -303 -162q-174 0 -290.5 116t-116.5 341v580q0 29 26 28h74q27 0 27 -28v-543q0 -182 87 -279.5t224 -97.5q82 0 155.5 50.5t116.5 142.5z" glyph-name="u" unicode="u"/><glyph d="M588 74l-41 -86q-12 -25 -23 -25h-8q-4 0 -20 25l-478 1026q-14 29 15 28h84q25 0 37 -28zM610 123l-65 143l340 748q12 29 37 28h82q14 0 18 -9t-2 -19z" glyph-name="v" horiz-adv-x="1038" unicode="v"/><glyph d="M1192 137l-76 189l209 688q8 29 37 28h90q27 0 12 -28zM1174 78l-25 -74q-8 -27 -25 -27h-12q-16 0 -29 27l-335 860l-271 -717l-49 160l287 742q16 25 24 24h15q10 0 26 -24zM455 86l-33 -82q-12 -27 -29 -27h-22q-16 0 -25 27l-315 1010q-12 29 14 28h88q29 0 37 -24z " glyph-name="w" horiz-adv-x="1495" unicode="w"/><glyph d="M385 494l74 -97l-279 -368q-18 -29 -41 -29h-94q-33 0 -12 29zM180 1014l764 -985q20 -29 -12 -29h-92q-23 0 -41 29l-766 985q-20 29 12 28h94q21 1 41 -28zM594 549l-76 98l281 367q18 29 41 28h92q33 0 12 -28z" glyph-name="x" horiz-adv-x="978" unicode="x"/><glyph d="M590 35l-189 -424q-14 -29 -39 -29h-83q-27 0 -15 29l189 428l-435 975q-12 29 15 28h86q25 0 37 -28zM610 86l-65 150l340 778q16 29 39 28h84q27 0 14 -28z" glyph-name="y" horiz-adv-x="1044" unicode="y"/><glyph d="M799 1042h100q18 0 19 -16v-10q0 -8 -13 -31l-715 -985h-79h-25q-16 0 -16 16v11q0 12 10 28zM743 1042l-84 -114h-505q-16 0 -22.5 6t-6.5 22v58q0 16 6 22t23 6h589zM242 0l84 115h573q29 0 29 -29v-57q0 -16 -6.5 -22.5t-22.5 -6.5h-657z" glyph-name="z" horiz-adv-x="997" unicode="z"/><glyph d="M76 477v66q0 18 28 30q70 20 125.5 81t55.5 130v162q0 131 37.5 229.5t91 150.5t127 84t130 41t115.5 9q16 0 22.5 -6t6.5 -22v-64q0 -27 -29 -27q-41 0 -84 -7t-97 -32.5t-94 -66.5t-68.5 -116t-28.5 -173v-162q0 -106 -57.5 -179t-129.5 -93v-4q72 -23 129.5 -93.5 t57.5 -178.5v-162q0 -98 28.5 -173t68.5 -116t94 -66.5t97 -33t84 -7.5q29 0 29 -26v-64q0 -29 -29 -28q-59 0 -115.5 9t-130 41t-127 84t-91 150.5t-37.5 229.5v162q0 72 -55.5 131t-125.5 79q-28 8 -28 31z" glyph-name="braceleft" horiz-adv-x="923" unicode="{"/><glyph d="M203 -174v1782q0 29 28 28h56q29 0 28 -28v-1782q0 -29 -28 -29h-56q-28 0 -28 29z" glyph-name="bar" horiz-adv-x="518" unicode="|"/><glyph d="M848 543v-66q0 -23 -29 -31q-70 -20 -125 -79.5t-55 -130.5v-162q0 -131 -38 -229.5t-91 -150.5t-127 -84t-130 -41t-116 -9q-29 0 -28 28v64q0 27 28 26q41 0 84 7.5t96.5 33t94.5 66.5t68.5 115.5t27.5 173.5v162q0 109 58.5 179t129.5 93v4q-72 23 -130 94.5 t-58 177.5v162q0 98 -27.5 173t-68.5 116t-94.5 66.5t-96.5 32.5t-84 7q-29 0 -28 27v64q0 16 6 22t22 6q59 0 115.5 -9t130.5 -41t127 -84t91 -150.5t38 -229.5v-162q0 -70 55.5 -130t124.5 -81q29 -12 29 -30z" glyph-name="braceright" horiz-adv-x="923" unicode="}"/><glyph d="M528 772q-86 80 -147 80q-55 0 -91 -27.5t-71 -91.5q-18 -27 -43 -10l-35 33q-20 18 -2 45q31 47 55.5 74.5t72.5 53t106 25.5q90 0 192 -90q49 -45 77 -60.5t67 -15.5q55 0 91 28t70 91q18 29 43 11l35 -33q23 -16 0 -45q-31 -45 -54.5 -73t-71.5 -53.5t-107 -25.5 q-97 0 -187 84z" glyph-name="asciitilde" horiz-adv-x="1089" unicode="~"/><glyph d="M274 -637l13 895q0 29 28 29h68q27 0 27 -29l14 -895q0 -29 -29 -29h-94q-27 0 -27 29zM244 686q0 43 30.5 74t73.5 31q45 0 76 -31t31 -74q0 -45 -31 -75.5t-76 -30.5q-43 0 -73.5 30.5t-30.5 75.5z" glyph-name="exclamdown" horiz-adv-x="696" unicode="¡"/><glyph d="M510 117l-16 -119q-176 45 -284 194.5t-108 327.5q0 223 162 387t375 158l-14 -119q-174 -8 -286 -134t-112 -292q0 -145 84 -255.5t199 -147.5zM664 -23l14 119q156 10 262 121q18 16 39 -4l39 -43q16 -20 -2 -39q-145 -146 -352 -154zM793 1249l-209 -1532 q-6 -31 -33 -24l-27 2q-16 4 -21 9t-3 24l209 1529q6 29 32 27l27 -4q27 -2 25 -31zM791 922l14 116q117 -33 211 -127q20 -20 2 -39l-39 -43q-20 -23 -39 -4q-45 56 -149 97z" glyph-name="cent" horiz-adv-x="1105" unicode="¢"/><glyph d="M532 1460v-119q-139 -2 -208.5 -88t-69.5 -194q0 -31 9 -64.5t27.5 -72.5t34 -66t43 -73t38.5 -64h432q29 0 28 -29v-18q0 -16 -6 -22.5t-22 -6.5h-695q-27 0 -26 29v18q0 29 26 29h127q-10 16 -42.5 68.5t-50 84t-35 88t-17.5 113.5q0 72 23.5 138.5t70.5 124t128 91 t185 33.5zM573 1339v119q176 -8 383 -145q18 -10 7 -37l-35 -55q-16 -27 -39 -9q-55 43 -147.5 80t-168.5 47zM301 602h125q2 -90 -19.5 -187.5t-53 -187.5t-36.5 -110l-47 -117h-92q-27 0 -26 29q0 27 39.5 122t76.5 220t33 231zM946 0h-631l45 117h586q29 0 29 -27v-61 q0 -16 -6.5 -22.5t-22.5 -6.5z" glyph-name="sterling" horiz-adv-x="1077" unicode="£"/><glyph d="M182 700q0 115 70 215l-139 140q-18 18 0 39l28 28q18 20 39 -2l139 -137q96 70 213 70t213 -72l142 139q18 23 39 0l28 -26q20 -20 0 -39l-143 -144q74 -94 74 -211q0 -115 -74 -213l141 -141q20 -18 0 -39l-26 -28q-20 -20 -39 0l-142 141q-96 -70 -212.5 -70 t-213.5 72l-139 -139q-20 -20 -39 0l-26 28q-20 20 0 39l137 137q-70 100 -70 213zM281 700.5q0 -108.5 68.5 -182.5t183 -74t184 74t69.5 182.5t-69.5 182t-184.5 73.5q-113 0 -182 -73.5t-69 -182z" glyph-name="currency" horiz-adv-x="1067" unicode="¤"/><glyph d="M580 276h129v-247q0 -29 -27 -29h-74q-16 0 -22 6t-6 23v247zM1128 317h-958q-16 0 -22.5 6.5t-6.5 22.5v37q0 27 29 27h958q29 0 29 -27v-37q0 -16 -6.5 -22.5t-22.5 -6.5zM709 453h-129v114l-62 95h-348q-16 0 -22.5 6t-6.5 22v37q0 27 29 27h291l-422 651 q-16 29 12 29h92q25 0 41 -29l461 -709l461 709q18 29 39 29h92q12 0 25 2h4q0 -2 -2 -4q-8 -14 -15 -27l-422 -651h301q29 0 29 -27v-37q0 -16 -6 -22t-23 -6h-350l-69 -95v-114z" glyph-name="yen" horiz-adv-x="1298" unicode="¥"/><glyph d="M217 -158v762q0 29 29 29h41q29 0 28 -29v-762q0 -16 -6 -22t-22 -6h-41q-29 -1 -29 28zM217 895v657q0 29 29 29h41q29 0 28 -29v-657q0 -16 -6 -22.5t-22 -6.5h-41q-29 0 -29 29z" glyph-name="brokenbar" horiz-adv-x="532" unicode="¦"/><glyph d="M1186 397q0 -76 -34 -157.5t-89 -128.5q123 -96 123 -263q0 -184 -134 -301.5t-386 -117.5q-307 0 -539 153q-29 18 -12 45l32 54q14 25 39 8q209 -141 459 -142q106 0 192.5 23.5t152 93.5t65.5 180q0 127 -105.5 187.5t-333.5 91.5q-80 10 -140 23.5t-128.5 40 t-114 63.5t-75 97.5t-29.5 137.5q0 164 139 295q-139 88 -139 254q0 49 14.5 102.5t52 112t93 103.5t147.5 74.5t205 29.5q150 0 263.5 -37t238.5 -116q27 -16 12 -43l-31 -52q-16 -29 -41 -12q-211 141 -421 141q-115 0 -199 -32.5t-125 -83t-59.5 -96.5t-18.5 -87 q0 -53 24.5 -93t61.5 -65.5t99.5 -45t116.5 -29.5t136 -23q109 -14 190 -38.5t152.5 -66.5t108.5 -113t37 -167zM616 672q-47 8 -223 51q-57 -35 -95 -102.5t-38 -131.5q0 -53 24.5 -93t61.5 -65.5t99.5 -45t116.5 -29.5t136 -23q61 -10 108.5 -20t66 -16.5t39 -14.5 t24.5 -10q43 18 81 80.5t38 140.5q0 127 -106 186.5t-333 92.5z" glyph-name="section" horiz-adv-x="1298" unicode="§"/><glyph d="M117 1390.5q0 34.5 24.5 59.5t59.5 25t59.5 -25t24.5 -59.5t-24.5 -60t-59.5 -25.5t-59.5 25.5t-24.5 60zM506 1390.5q0 34.5 24.5 59.5t59.5 25t59.5 -25t24.5 -59.5t-24.5 -60t-59.5 -25.5t-59.5 25.5t-24.5 60z" glyph-name="dieresis" horiz-adv-x="790" unicode="¨"/><glyph d="M102 717q0 307 217.5 525t526.5 218q231 0 400 -110.5t245 -275.5t76 -357.5t-76 -357t-245 -275.5t-400 -111q-309 0 -526.5 217.5t-217.5 526.5zM162 717q0 -285 200.5 -484.5t485.5 -199.5q160 0 290 58.5t208.5 154.5t121.5 219t43 252t-43 252t-121.5 219 t-208.5 154.5t-290 58.5q-285 0 -485.5 -200.5t-200.5 -483.5zM844 418q125 0 213 88q10 10 22 0l29 -33q10 -14 -2 -27q-104 -104 -262 -104q-154 0 -261.5 109.5t-107.5 263.5q0 156 107.5 266.5t261.5 110.5q156 0 262 -107q12 -14 2 -24l-29 -33q-12 -10 -22 0 q-88 88 -213 88q-123 0 -204 -88t-81 -213q0 -123 81 -210t204 -87z" glyph-name="copyright" horiz-adv-x="1691" unicode="©"/><glyph d="M582 813l-11 31v311q0 123 -39.5 173t-140.5 50q-74 0 -192 -24q-20 -2 -23 16l-14 43q-6 18 14 25q78 23 217 22q150 0 210.5 -70.5t60.5 -234.5v-338q0 -18 -19 -18h-41q-16 0 -22 14zM537 948v-86q-78 -78 -203 -78q-98 0 -163 57.5t-65 153.5q0 102 70 154.5 t195 52.5q94 0 166 -33v-73q-63 31 -152 30q-188 0 -188 -131q0 -61 43 -98t118 -37q95 0 179 88z" glyph-name="ordfeminine" horiz-adv-x="806" unicode="ª"/><glyph d="M106 584l347 381q20 18 36 6l54 -29q20 -14 2 -35l-334 -387l334 -387q18 -20 -2 -35l-54 -28q-18 -12 -36 6l-347 381q-29 35 -28 57v12q-1 23 28 58zM539 584l348 381q18 18 35 6l53 -29q20 -14 2 -35l-334 -387l334 -387q18 -20 -2 -35l-53 -28q-18 -12 -35 6 l-348 381q-29 35 -29 57v12q0 23 29 58z" glyph-name="guillemotleft" horiz-adv-x="1081" unicode="«"/><glyph d="M829 154v440h-698q-29 0 -29 29v49q0 16 6.5 22t22.5 6h778q27 0 27 -28v-518q0 -16 -6 -22.5t-23 -6.5h-49q-16 0 -22.5 6.5t-6.5 22.5z" glyph-name="logicalnot" horiz-adv-x="1052" unicode="¬"/><glyph d="M696 528h-565q-16 0 -22.5 6.5t-6.5 22.5v47q0 18 6.5 24.5t22.5 6.5h565q27 0 27 -29v-51q0 -27 -27 -27z" glyph-name="uni00AD" horiz-adv-x="825" unicode="­"/><glyph d="M1114 866q0 -90 -50 -148.5t-120 -74.5l207 -285q6 -16 -18 -16h-58q-16 0 -24 14l-201 279h-176v-279q0 -14 -15 -14h-57q-14 0 -14 14v721q0 14 14 15h258q109 0 181.5 -52.5t72.5 -173.5zM674 711h184q172 0 172 155q0 150 -178 150h-178v-305zM102 717 q0 307 217.5 525t526.5 218q307 0 525 -218t218 -525q0 -309 -218 -526.5t-525 -217.5q-309 0 -526.5 217.5t-217.5 526.5zM160 717q0 -285 200.5 -484.5t485.5 -199.5q283 0 483.5 199.5t200.5 484.5q0 283 -201 483.5t-483 200.5q-285 0 -485.5 -200.5t-200.5 -483.5z" glyph-name="registered" horiz-adv-x="1691" unicode="®"/><glyph d="M625 1362h-494q-29 0 -29 27v43q0 16 6.5 22t22.5 6h494q16 0 22 -6t6 -22v-43q1 -27 -28 -27z" glyph-name="macron" horiz-adv-x="755" unicode="¯"/><glyph d="M102 1147q0 131 89.5 220t220.5 89q129 0 220 -90t91 -219q0 -131 -91 -221t-220 -90q-131 0 -220.5 90t-89.5 221zM197 1147q0 -92 61 -153.5t151.5 -61.5t153 61.5t62.5 153.5q0 86 -63.5 149.5t-151.5 63.5t-150.5 -63.5t-62.5 -149.5z" glyph-name="degree" horiz-adv-x="825" unicode="°"/><glyph d="M621 1331v-313h315q29 0 29 -27v-55q0 -27 -29 -27h-315v-286q0 -29 -27 -29h-51q-31 0 -31 29v286h-313q-29 0 -29 29v51q0 16 6 22.5t23 6.5h313v313q0 29 29 29h53q27 0 27 -29zM948 190h-762q-29 0 -28 27v55q0 16 6 22.5t22 6.5h762q27 0 27 -29v-55q0 -27 -27 -27z " glyph-name="plusminus" horiz-adv-x="1132" unicode="±"/><glyph d="M424 1389l-199 -187q-18 -18 -47 -18h-67q-14 0 -16.5 7t9.5 21l256 269q18 20 35 -6l33 -52q10 -20 -4 -34z" glyph-name="acute" horiz-adv-x="524" unicode="´"/><glyph d="M895 309v-149q-115 -182 -295 -183q-82 0 -153.5 38t-108.5 112v-516q0 -29 -27 -29h-73q-27 0 -27 29v1403q0 29 27 28h73q27 0 27 -28v-539q0 -74 13.5 -138.5t44 -120.5t90 -89t139.5 -33q82 0 154.5 58.5t115.5 156.5zM952 20l-16 62v932q0 29 27 28h73q27 0 27 -28 v-985q0 -29 -27 -29h-41q-35 0 -43 20z" glyph-name="uni00B5" horiz-adv-x="1273" unicode="µ"/><glyph d="M635 -457v953q-238 0 -386.5 128t-148.5 349q0 213 135.5 337t321.5 124h879q29 0 28 -29v-64q0 -27 -28 -26h-248v-1774q0 -16 -6 -22t-23 -6h-57q-29 0 -29 28v1774h-323v-1772q0 -29 -29 -28h-57q-16 0 -22.5 6t-6.5 22z" glyph-name="paragraph" horiz-adv-x="1550" unicode="¶"/><glyph d="M109 702q0 49 34.5 83t83.5 34t84 -33.5t35 -83.5q0 -51 -35 -84.5t-84 -33.5t-83.5 33.5t-34.5 84.5z" glyph-name="periodcentered" horiz-adv-x="456" unicode="·"/><glyph d="M199 -20l69 -7l-18 -125q231 0 231 -184q0 -80 -52 -127t-140 -47q-96 0 -193 74q-18 14 -4 28l21 27q8 12 26 4q70 -53 156 -53q104 0 104 94q0 109 -143 109h-72q-20 0 -20 22z" glyph-name="cedilla" horiz-adv-x="565" unicode="¸"/><glyph d="M360 772v88q158 14 158 256t-158 256v88q125 -6 187.5 -103t62.5 -240.5t-62.5 -241t-187.5 -103.5zM326 860v-88q-123 6 -185.5 103.5t-62.5 240.5q0 145 62.5 241.5t185.5 102.5v-88q-156 -12 -156 -256t156 -256z" glyph-name="ordmasculine" horiz-adv-x="686" unicode="º"/><glyph d="M627 965l346 -381q31 -37 31 -58v-12q0 -25 -31 -57l-346 -381q-16 -18 -35 -6l-53 28q-18 14 -4 35l335 387l-335 387q-14 20 4 35l53 29q17 12 35 -6zM195 965l346 -381q31 -37 30 -58v-12q0 -25 -30 -57l-346 -381q-16 -18 -37 -6l-52 28q-18 14 -4 35l336 387 l-336 387q-14 20 4 35l52 29q19 12 37 -6z" glyph-name="guillemotright" horiz-adv-x="1081" unicode="»"/><glyph d="M1018 1405l-705 -1380q-14 -25 -37 -25h-45q-37 0 -22 29l706 1380q10 25 37 25h45q35 0 21 -29zM90 1341l143 80q20 12 37 13h39q18 0 19 -19v-598q0 -18 -19 -18h-51q-20 0 -20 18v508l-142 -63q-16 -4 -16 12v49q0 12 10 18zM1108 281h-80v251l-256 -360h-22 q-18 0 -19 21v28q0 20 17 39l253 361q10 14 27 14h62q18 0 18 -19v-335zM868 248h340q18 0 19 -21v-34q0 -20 -19 -21h-100v-154q0 -18 -18 -18h-43q-18 0 -19 18v154h-213z" glyph-name="onequarter" horiz-adv-x="1306" unicode="¼"/><glyph d="M1063 1405l-707 -1380q-10 -25 -37 -25h-45q-35 0 -22 29l706 1380q10 25 37 25h45q37 0 23 -29zM90 1341l143 80q20 12 37 13h39q18 0 19 -19v-598q0 -18 -19 -18h-51q-20 0 -20 18v508l-142 -63q-16 -4 -16 12v49q0 12 10 18zM999 0l62 84h217q18 0 18 -18v-50 q0 -16 -18 -16h-279zM1083 580v82q133 -2 174 -100.5t-28 -188.5l-271 -373h-86q-6 0 -6 6v6q0 10 8 21l273 358q55 82 31.5 133.5t-95.5 55.5zM1049 659v-79q-70 -6 -125 -62q-14 -14 -27 -2l-35 35q-10 14 2 27q85 75 185 81z" glyph-name="onehalf" horiz-adv-x="1376" unicode="½"/><glyph d="M1110 1405l-704 -1380q-10 -25 -37 -25h-45q-37 0 -23 29l707 1380q10 25 36 25h46q34 0 20 -29zM281 1462v-78q-76 -6 -136 -69q-16 -12 -28 0l-31 33q-12 12 2 24q80 84 193 90zM315 1384v78q94 -4 158 -54t64 -138q0 -57 -34 -95t-81 -53v-2q47 -14 81 -52t34 -97 q0 -88 -64.5 -136.5t-157.5 -52.5v76q141 8 142 123q0 43 -44 74.5t-112 31.5h-59q-20 0 -21 19v31q0 20 21 20h59q68 0 112 32t44 75q-1 114 -142 120zM281 860v-78q-111 6 -193 88q-12 12 -2 27l31 31q12 12 28 0q64 -64 136 -68zM1200 281h-80v251l-256 -360h-22 q-18 0 -19 21v28q0 20 17 39l254 361q10 14 26 14h62q18 0 18 -19v-335zM961 248h339q18 0 19 -21v-34q0 -20 -19 -21h-100v-154q0 -18 -18 -18h-43q-18 0 -19 18v154h-213z" glyph-name="threequarters" horiz-adv-x="1404" unicode="¾"/><glyph d="M518 -567v-119q-244 10 -371 141t-127 291q0 176 132.5 271.5t359.5 144.5v166q0 29 29 28h63q27 0 27 -28v-222q0 -23 -21 -24q-461 -90 -460 -330q0 -123 99 -214t269 -105zM557 -688v119q168 -4 393 145q23 16 39 -12l33 -53q16 -25 -8 -39q-242 -162 -457 -160z M573 793q45 0 76 -31t31 -76t-31 -75.5t-76 -30.5t-75.5 30.5t-30.5 75.5t30.5 76t75.5 31z" glyph-name="questiondown" horiz-adv-x="1050" unicode="¿"/><glyph d="M1163 555h-133l-303 680h-2l-537 -1206q-12 -29 -36 -29h-97q-27 0 -16 29l661 1417q10 25 23 24h6q10 0 21 -24zM451 516h733l227 -487q14 -29 -18 -29h-95q-20 0 -36 29l-168 370h-697zM713 1593l-199 187q-14 14 -4 35l33 51q16 27 35 6l256 -268q12 -14 10 -21.5 t-17 -7.5h-67q-29 0 -47 18z" glyph-name="Agrave" horiz-adv-x="1443" unicode="À"/><glyph d="M1163 555h-133l-303 680h-2l-537 -1206q-12 -29 -36 -29h-97q-27 0 -16 29l661 1417q10 25 23 24h6q10 0 21 -24zM451 516h733l227 -487q14 -29 -18 -29h-95q-20 0 -36 29l-168 370h-697zM967 1780l-199 -187q-18 -18 -47 -18h-68q-14 0 -16 7t10 22l256 268q18 20 35 -6 l33 -51q10 -21 -4 -35z" glyph-name="Aacute" horiz-adv-x="1443" unicode="Á"/><glyph d="M1163 555h-133l-303 680h-2l-537 -1206q-12 -29 -36 -29h-97q-27 0 -16 29l661 1417q10 25 23 24h6q10 0 21 -24zM451 516h733l227 -487q14 -29 -18 -29h-95q-20 0 -36 29l-168 370h-697zM705 1933h43q18 0 38 -28l220 -312q18 -29 -13 -28h-51q-31 0 -47 28l-168 252 l-170 -252q-16 -29 -47 -28h-51q-31 0 -13 28l220 312q19 28 39 28z" glyph-name="Acircumflex" horiz-adv-x="1443" unicode="Â"/><glyph d="M1163 555h-133l-303 680h-2l-537 -1206q-12 -29 -36 -29h-97q-27 0 -16 29l661 1417q10 25 23 24h6q10 0 21 -24zM451 516h733l227 -487q14 -29 -18 -29h-95q-20 0 -36 29l-168 370h-697zM874 1759q53 0 83 21.5t53 79.5q12 31 41 20l34 -14q25 -10 13 -43 q-68 -160 -211 -160q-96 0 -176 72q-49 43 -77 58t-63 15q-51 0 -80.5 -22.5t-54.5 -79.5q-12 -31 -41 -18l-33 14q-27 12 -12 43q66 158 211 158q88 0 180 -76q47 -41 72.5 -54.5t60.5 -13.5z" glyph-name="Atilde" horiz-adv-x="1443" unicode="Ã"/><glyph d="M1163 555h-133l-303 680h-2l-537 -1206q-12 -29 -36 -29h-97q-27 0 -16 29l661 1417q10 25 23 24h6q10 0 21 -24zM451 516h733l227 -487q14 -29 -18 -29h-95q-20 0 -36 29l-168 370h-697zM446 1782q0 35 25 59.5t59.5 24.5t59 -24.5t24.5 -59.5t-24.5 -60.5t-59 -25.5 t-59.5 25.5t-25 60.5zM836 1782q0 35 24.5 59.5t59 24.5t59.5 -24.5t25 -59.5t-25 -60.5t-59.5 -25.5t-59 25.5t-24.5 60.5z" glyph-name="Adieresis" horiz-adv-x="1443" unicode="Ä"/><glyph d="M1163 555h-133l-303 680h-2l-537 -1206q-12 -29 -36 -29h-97q-27 0 -16 29l661 1417q10 25 23 24h6q10 0 21 -24zM451 516h733l227 -487q14 -29 -18 -29h-95q-20 0 -36 29l-168 370h-697zM725 1579q-94 0 -154.5 62.5t-60.5 158.5t60.5 158.5t154.5 62.5t153.5 -62.5 t59.5 -158.5t-59.5 -158.5t-153.5 -62.5zM725 1651q63 0 100 44t37 105.5t-35.5 104.5t-99 43t-102.5 -44t-39 -103.5t38 -104.5t101 -45z" glyph-name="Aring" horiz-adv-x="1443" unicode="Å"/><glyph d="M1065 1315v119h764q27 0 26 -29v-62q0 -29 -26 -28h-764zM1065 666v116h719q27 0 26 -26v-62q0 -29 -26 -28h-719zM1065 0v117h764q27 0 26 -27v-61q0 -29 -26 -29h-764zM449 399l67 117h367v739l-695 -1226q-12 -29 -36 -29h-97q-27 0 -16 29l776 1349q31 55 49 56h160 v-1434h-113q-16 0 -22 6t-6 23v370h-434z" glyph-name="AE" horiz-adv-x="1984" unicode="Æ"/><glyph d="M858 1341v119q143 -4 282.5 -60.5t233.5 -150.5q18 -20 0 -39l-49 -55q-23 -20 -43 0q-72 76 -182.5 129t-241.5 57zM858 -25v117q254 10 430 191q20 20 39 -2l49 -54q20 -20 -2 -43q-92 -90 -229 -147.5t-287 -61.5zM817 92v-119q-289 10 -501 231.5t-212 512.5 q0 297 209 516t504 227v-119q-238 -8 -407.5 -197.5t-169.5 -426.5q0 -242 168.5 -428.5t408.5 -196.5zM711 -205l10 51q305 25 305 -182q0 -80 -52 -127t-140 -47q-94 0 -191 74q-20 16 -4 28l18 27q10 12 29 4q70 -53 156 -53q102 0 102 94q0 109 -141 109h-74 q-18 -1 -18 22z" glyph-name="Ccedilla" horiz-adv-x="1474" unicode="Ç"/><glyph d="M365 1315v119h763q27 0 27 -29v-62q0 -29 -27 -28h-763zM365 666v116h727q27 0 26 -26v-62q0 -29 -26 -28h-727zM365 0v117h763q27 0 27 -27v-61q0 -29 -27 -29h-763zM324 1434v-1434h-105q-29 0 -29 29v1376q0 29 29 29h105zM662 1593l-197 187q-18 14 -6 35l33 51 q18 29 36 6l254 -268q29 -29 -6 -29h-67q-24 0 -47 18z" glyph-name="Egrave" horiz-adv-x="1296" unicode="È"/><glyph d="M365 1315v119h763q27 0 27 -29v-62q0 -29 -27 -28h-763zM365 666v116h727q27 0 26 -26v-62q0 -29 -26 -28h-727zM365 0v117h763q27 0 27 -27v-61q0 -29 -27 -29h-763zM324 1434v-1434h-105q-29 0 -29 29v1376q0 29 29 29h105zM848 1780l-199 -187q-18 -18 -47 -18h-67 q-14 0 -16.5 7t9.5 22l256 268q18 20 35 -6l33 -51q10 -21 -4 -35z" glyph-name="Eacute" horiz-adv-x="1296" unicode="É"/><glyph d="M655 1933h43q18 0 39 -28l219 -312q18 -29 -12 -28h-51q-31 0 -47 28l-168 252l-170 -252q-16 -29 -47 -28h-51q-31 0 -13 28l219 312q19 28 39 28zM362 1315v119h764q27 0 27 -29v-62q0 -29 -27 -28h-764zM362 666v116h728q27 0 26 -26v-62q0 -29 -26 -28h-728zM362 0 v117h764q27 0 27 -27v-61q0 -29 -27 -29h-764zM322 1434v-1434h-105q-29 0 -29 29v1376q0 29 29 29h105z" glyph-name="Ecircumflex" horiz-adv-x="1265" unicode="Ê"/><glyph d="M365 1315v119h763q27 0 27 -29v-62q0 -29 -27 -28h-763zM365 666v116h727q27 0 26 -26v-62q0 -29 -26 -28h-727zM365 0v117h763q27 0 27 -27v-61q0 -29 -27 -29h-763zM324 1434v-1434h-105q-29 0 -29 29v1376q0 29 29 29h105zM403 1782q0 35 25 59.5t59.5 24.5t59 -24.5 t24.5 -59.5t-24.5 -60.5t-59 -25.5t-59.5 25.5t-25 60.5zM793 1782q0 35 24.5 59.5t59 24.5t59.5 -24.5t25 -59.5t-25 -60.5t-59.5 -25.5t-59 25.5t-24.5 60.5z" glyph-name="Edieresis" horiz-adv-x="1296" unicode="Ë"/><glyph d="M233 29v1376q0 16 6.5 22.5t22.5 6.5h76q29 0 29 -29v-1376q0 -16 -6.5 -22.5t-22.5 -6.5h-76q-16 0 -22.5 6.5t-6.5 22.5zM268 1593l-196 187q-18 14 -6 35l32 51q18 29 37 6l254 -268q29 -29 -6 -29h-68q-24 0 -47 18z" glyph-name="Igrave" horiz-adv-x="624" unicode="Ì"/><glyph d="M240 29v1376q0 16 6 22.5t22 6.5h76q29 0 29 -29v-1376q0 -16 -6.5 -22.5t-22.5 -6.5h-76q-16 0 -22 6.5t-6 22.5zM524 1780l-198 -187q-18 -18 -47 -18h-68q-14 0 -16 7t10 22l256 268q18 20 35 -6l32 -51q10 -21 -4 -35z" glyph-name="Iacute" horiz-adv-x="612" unicode="Í"/><glyph d="M240 29v1376q0 16 6 22.5t22 6.5h76q29 0 29 -29v-1376q0 -16 -6.5 -22.5t-22.5 -6.5h-76q-16 0 -22 6.5t-6 22.5zM285 1933h43q16 0 39 -28l219 -312q18 -29 -13 -28h-51q-31 0 -47 28l-168 252l-170 -252q-16 -29 -47 -28h-51q-31 0 -12 28l219 312q19 28 39 28z" glyph-name="Icircumflex" horiz-adv-x="614" unicode="Î"/><glyph d="M240 29v1376q0 16 6 22.5t22 6.5h76q29 0 29 -29v-1376q0 -16 -6.5 -22.5t-22.5 -6.5h-76q-16 0 -22 6.5t-6 22.5zM2 1782q0 35 24.5 59.5t59.5 24.5t59.5 -24.5t24.5 -59.5t-24.5 -60.5t-59.5 -25.5t-59.5 25.5t-24.5 60.5zM391 1782q0 35 24.5 59.5t59.5 24.5 t59.5 -24.5t24.5 -59.5t-24.5 -60.5t-59.5 -25.5t-59.5 25.5t-24.5 60.5z" glyph-name="Idieresis" horiz-adv-x="612" unicode="Ï"/><glyph d="M426 670v-670h-104q-29 0 -29 29v641h-219q-29 0 -29 28v58q0 29 29 28h219v621q0 29 29 29h104v-650h369q29 0 28 -28v-58q0 -29 -28 -28h-369zM467 0v117h352q252 0 414 176t162 424t-162 424t-414 176h-352v117h354q303 0 506 -206t203 -511t-203 -511t-506 -206h-354 z" glyph-name="Eth" horiz-adv-x="1634" unicode="Ð"/><glyph d="M1372 113v-123q0 -16 -16 -17h-8q-14 0 -29 17l-1102 1339v115q0 16 19 16h10q12 0 24 -12zM217 1268l133 -162v-1077q0 -29 -26 -29h-78q-29 0 -29 29v1239zM1372 174l-133 162v1069q0 29 29 29h75q29 0 29 -29v-1231zM926 1759q53 0 82.5 21.5t52.5 79.5q12 31 41 20 l35 -14q25 -10 12 -43q-68 -160 -211 -160q-96 0 -176 72q-49 43 -77 58t-62 15q-51 0 -81 -22.5t-55 -79.5q-12 -31 -41 -18l-32 14q-27 12 -13 43q66 158 211 158q88 0 181 -76q47 -41 72.5 -54.5t60.5 -13.5z" glyph-name="Ntilde" horiz-adv-x="1589" unicode="Ñ"/><glyph d="M819 92v-119q-299 8 -507 226.5t-208 517.5q0 195 94.5 363.5t259.5 271t361 108.5v-119q-160 -6 -294 -97t-209.5 -231.5t-75.5 -295.5q0 -238 169.5 -427.5t409.5 -197.5zM858 -27v119q242 10 410 198.5t168 426t-168 425t-410 199.5v119q297 -8 505 -227t208 -516 q0 -195 -94.5 -364t-258 -271.5t-360.5 -108.5zM821 1593l-196 187q-18 14 -7 35l33 51q18 29 37 6l254 -268q29 -29 -6 -29h-68q-24 0 -47 18z" glyph-name="Ograve" horiz-adv-x="1675" unicode="Ò"/><glyph d="M819 92v-119q-299 8 -507 226.5t-208 517.5q0 195 94.5 363.5t259.5 271t361 108.5v-119q-160 -6 -294 -97t-209.5 -231.5t-75.5 -295.5q0 -238 169.5 -427.5t409.5 -197.5zM858 -27v119q242 10 410 198.5t168 426t-168 425t-410 199.5v119q297 -8 505 -227t208 -516 q0 -195 -94.5 -364t-258 -271.5t-360.5 -108.5zM1061 1780l-199 -187q-18 -18 -47 -18h-67q-14 0 -16.5 7t9.5 22l256 268q18 20 35 -6l33 -51q10 -21 -4 -35z" glyph-name="Oacute" horiz-adv-x="1675" unicode="Ó"/><glyph d="M819 92v-119q-299 8 -507 226.5t-208 517.5q0 195 94.5 363.5t259.5 271t361 108.5v-119q-160 -6 -294 -97t-209.5 -231.5t-75.5 -295.5q0 -238 169.5 -427.5t409.5 -197.5zM858 -27v119q242 10 410 198.5t168 426t-168 425t-410 199.5v119q297 -8 505 -227t208 -516 q0 -195 -94.5 -364t-258 -271.5t-360.5 -108.5zM815 1933h43q18 0 39 -28l219 -312q18 -29 -12 -28h-51q-31 0 -47 28l-168 252l-170 -252q-16 -29 -47 -28h-52q-31 0 -12 28l219 312q19 28 39 28z" glyph-name="Ocircumflex" horiz-adv-x="1675" unicode="Ô"/><glyph d="M819 92v-119q-299 8 -507 226.5t-208 517.5q0 195 94.5 363.5t259.5 271t361 108.5v-119q-160 -6 -294 -97t-209.5 -231.5t-75.5 -295.5q0 -238 169.5 -427.5t409.5 -197.5zM858 -27v119q242 10 410 198.5t168 426t-168 425t-410 199.5v119q297 -8 505 -227t208 -516 q0 -195 -94.5 -364t-258 -271.5t-360.5 -108.5zM979 1759q53 0 83 21.5t52 79.5q12 31 41 20l35 -14q25 -10 12 -43q-68 -160 -211 -160q-96 0 -176 72q-49 43 -76.5 58t-62.5 15q-51 0 -81 -22.5t-54 -79.5q-12 -31 -41 -18l-33 14q-27 12 -12 43q66 158 211 158 q88 0 180 -76q47 -41 72.5 -54.5t60.5 -13.5z" glyph-name="Otilde" horiz-adv-x="1675" unicode="Õ"/><glyph d="M819 92v-119q-299 8 -507 226.5t-208 517.5q0 195 94.5 363.5t259.5 271t361 108.5v-119q-160 -6 -294 -97t-209.5 -231.5t-75.5 -295.5q0 -238 169.5 -427.5t409.5 -197.5zM858 -27v119q242 10 410 198.5t168 426t-168 425t-410 199.5v119q297 -8 505 -227t208 -516 q0 -195 -94.5 -364t-258 -271.5t-360.5 -108.5zM539 1782q0 35 24.5 59.5t59 24.5t59.5 -24.5t25 -59.5t-25 -60.5t-59.5 -25.5t-59 25.5t-24.5 60.5zM928 1782q0 35 24.5 59.5t59.5 24.5t59.5 -24.5t24.5 -59.5t-24.5 -60.5t-59.5 -25.5t-59.5 25.5t-24.5 60.5z" glyph-name="Odieresis" horiz-adv-x="1675" unicode="Ö"/><glyph d="M643 317l-225 228l-225 -228q-23 -18 -41 0l-37 37q-23 18 0 39l225 228l-225 227q-20 18 0 39l37 37q18 18 41 0l225 -228l225 228q20 20 41 0l37 -37q18 -20 0 -39l-225 -227l225 -228q18 -20 0 -39l-37 -37q-23 -23 -41 0z" glyph-name="multiply" horiz-adv-x="827" unicode="×"/><glyph d="M817 92v-119q-162 6 -289 72l-59 -111q-10 -23 -35 -22h-49q-37 0 -23 29l80 149q-152 102 -245 267t-93 362q0 299 208 516t505 225v-119q-238 -10 -409.5 -199.5t-167.5 -424.5q0 -98 29.5 -187.5t77.5 -154t85 -101t76 -67.5l561 1081q-111 49 -213 53v119 q145 -6 268 -59l54 98q10 23 34 23h50q39 0 22 -33l-74 -133q360 -240 361 -639q0 -195 -93.5 -364t-258 -271t-363.5 -109v119q242 10 411 197.5t169 427.5q0 102 -31 193t-81 157t-90 103.5t-83 68.5l-565 -1085q102 -54 231 -62z" glyph-name="Oslash" horiz-adv-x="1675" unicode="Ø"/><glyph d="M752 -27v119q186 6 302.5 130t116.5 378v805q0 16 6.5 22.5t22.5 6.5h78q16 0 21.5 -6.5t5.5 -22.5v-815q0 -295 -152.5 -453t-400.5 -164zM713 92v-119q-246 4 -400.5 164t-154.5 453v815q0 29 28 29h78q27 0 27 -29v-805q0 -260 120 -382t302 -126zM709 1593l-197 187 q-18 14 -6 35l33 51q18 29 36 6l254 -268q29 -29 -6 -29h-67q-27 0 -47 18z" glyph-name="Ugrave" horiz-adv-x="1464" unicode="Ù"/><glyph d="M752 -27v119q186 6 302.5 130t116.5 378v805q0 16 6.5 22.5t22.5 6.5h78q16 0 21.5 -6.5t5.5 -22.5v-815q0 -295 -152.5 -453t-400.5 -164zM713 92v-119q-246 4 -400.5 164t-154.5 453v815q0 29 28 29h78q27 0 27 -29v-805q0 -260 120 -382t302 -126zM909 1780l-198 -187 q-18 -18 -47 -18h-68q-14 0 -16 7t10 22l256 268q18 20 35 -6l32 -51q10 -21 -4 -35z" glyph-name="Uacute" horiz-adv-x="1464" unicode="Ú"/><glyph d="M752 -27v119q186 6 302.5 130t116.5 378v805q0 16 6.5 22.5t22.5 6.5h78q16 0 21.5 -6.5t5.5 -22.5v-815q0 -295 -152.5 -453t-400.5 -164zM713 92v-119q-246 4 -400.5 164t-154.5 453v815q0 29 28 29h78q27 0 27 -29v-805q0 -260 120 -382t302 -126zM711 1933h43 q16 0 39 -28l219 -312q18 -29 -13 -28h-51q-31 0 -47 28l-168 252l-170 -252q-16 -29 -47 -28h-51q-31 0 -12 28l219 312q19 28 39 28z" glyph-name="Ucircumflex" horiz-adv-x="1464" unicode="Û"/><glyph d="M752 -27v119q186 6 302.5 130t116.5 378v805q0 16 6.5 22.5t22.5 6.5h78q16 0 21.5 -6.5t5.5 -22.5v-815q0 -295 -152.5 -453t-400.5 -164zM713 92v-119q-246 4 -400.5 164t-154.5 453v815q0 29 28 29h78q27 0 27 -29v-805q0 -260 120 -382t302 -126zM455 1782 q0 35 24.5 59.5t59 24.5t59.5 -24.5t25 -59.5t-25 -60.5t-59.5 -25.5t-59 25.5t-24.5 60.5zM844 1782q0 35 24.5 59.5t59.5 24.5t59.5 -24.5t24.5 -59.5t-24.5 -60.5t-59.5 -25.5t-59.5 25.5t-24.5 60.5z" glyph-name="Udieresis" horiz-adv-x="1464" unicode="Ü"/><glyph d="M709 582l-9 -13v-540q0 -29 -26 -29h-74q-16 0 -22.5 6t-6.5 23v540l-540 836q-16 29 12 29h92q25 0 41 -29zM735 618l-73 115l436 672q18 29 39 29h92q29 0 12 -29zM819 1780l-198 -187q-18 -18 -48 -18h-67q-14 0 -16.5 7t10.5 22l256 268q18 20 35 -6l32 -51 q10 -21 -4 -35z" glyph-name="Yacute" horiz-adv-x="1263" unicode="Ý"/><glyph d="M334 1432v-1821q0 -29 -27 -29h-71q-29 0 -29 29v1821q0 29 29 28h71q27 1 27 -28zM375 0v117h348q160 0 272.5 110.5t112.5 292.5t-113.5 295t-271.5 113h-348v114h375q207 0 346 -149.5t139 -372.5t-139.5 -371.5t-345.5 -148.5h-375z" glyph-name="Thorn" horiz-adv-x="1325" unicode="Þ"/><glyph d="M707 1317v117q98 -2 182 -25t155.5 -68t112.5 -123.5t41 -181.5q0 -121 -75.5 -193.5t-168.5 -103.5v-2q37 -8 79 -29.5t95.5 -59.5t88 -104.5t34.5 -148.5q0 -209 -141 -302t-360 -93h-154q-16 0 -22.5 6t-6.5 23v57q0 31 29 31h141q377 0 377 291q0 113 -102.5 191.5 t-251.5 78.5h-101q-29 0 -28 29v55q0 16 6 22.5t22 6.5h84q139 0 229.5 64.5t90.5 168.5q0 141 -94 215t-262 78zM666 1434v-117q-156 0 -252.5 -71.5t-96.5 -217.5v-438v-561q0 -29 -26 -29h-76q-16 0 -22.5 6t-6.5 23v1007q0 201 139.5 299.5t340.5 98.5z" glyph-name="germandbls" horiz-adv-x="1314" unicode="ß"/><glyph d="M868 27v544q0 209 -69.5 295t-237.5 86q-152 0 -321 -34q-18 -4 -24.5 1t-10.5 25l-12 47q-8 29 22 37q147 37 350 37q240 0 335 -113.5t95 -376.5v-546q0 -29 -26 -29h-66q-23 0 -35 27zM829 236v-115q-143 -143 -362 -144q-156 0 -261.5 91.5t-105.5 246.5 q0 166 113 250t313 84q141 0 303 -61v-101q-152 63 -278 64q-324 0 -324 -236q0 -106 74 -170.5t203 -64.5q88 0 178 45t147 111zM600 1202l-197 187q-18 14 -6 34l33 52q18 29 37 6l254 -269q29 -29 -6 -28h-68q-24 0 -47 18z" glyph-name="agrave" horiz-adv-x="1146" unicode="à"/><glyph d="M868 27v544q0 209 -69.5 295t-237.5 86q-152 0 -321 -34q-18 -4 -24.5 1t-10.5 25l-12 47q-8 29 22 37q147 37 350 37q240 0 335 -113.5t95 -376.5v-546q0 -29 -26 -29h-66q-23 0 -35 27zM829 236v-115q-143 -143 -362 -144q-156 0 -261.5 91.5t-105.5 246.5 q0 166 113 250t313 84q141 0 303 -61v-101q-152 63 -278 64q-324 0 -324 -236q0 -106 74 -170.5t203 -64.5q88 0 178 45t147 111zM774 1389l-199 -187q-18 -18 -47 -18h-67q-14 0 -16.5 7t10.5 21l256 269q18 20 34 -6l33 -52q10 -20 -4 -34z" glyph-name="aacute" horiz-adv-x="1146" unicode="á"/><glyph d="M868 27v544q0 209 -69.5 295t-237.5 86q-152 0 -321 -34q-18 -4 -24.5 1t-10.5 25l-12 47q-8 29 22 37q147 37 350 37q240 0 335 -113.5t95 -376.5v-546q0 -29 -26 -29h-66q-23 0 -35 27zM829 236v-115q-143 -143 -362 -144q-156 0 -261.5 91.5t-105.5 246.5 q0 166 113 250t313 84q141 0 303 -61v-101q-152 63 -278 64q-324 0 -324 -236q0 -106 74 -170.5t203 -64.5q88 0 178 45t147 111zM551 1542h43q16 0 39 -29l219 -311q18 -29 -12 -28h-52q-31 0 -47 28l-168 252l-170 -252q-16 -29 -47 -28h-51q-31 0 -12 28l219 311 q19 29 39 29z" glyph-name="acircumflex" horiz-adv-x="1146" unicode="â"/><glyph d="M868 27v544q0 209 -69.5 295t-237.5 86q-152 0 -321 -34q-18 -4 -24.5 1t-10.5 25l-12 47q-8 29 22 37q147 37 350 37q240 0 335 -113.5t95 -376.5v-546q0 -29 -26 -29h-66q-23 0 -35 27zM829 236v-115q-143 -143 -362 -144q-156 0 -261.5 91.5t-105.5 246.5 q0 166 113 250t313 84q141 0 303 -61v-101q-152 63 -278 64q-324 0 -324 -236q0 -106 74 -170.5t203 -64.5q88 0 178 45t147 111zM723 1368q53 0 83 21.5t52 78.5q12 31 41 21l35 -14q25 -10 12 -43q-68 -160 -211 -160q-96 0 -176 71q-49 43 -76.5 58.5t-62.5 15.5 q-51 0 -81 -22.5t-54 -79.5q-12 -31 -41 -19l-33 15q-27 12 -12 43q66 158 211 157q88 0 180 -75q47 -41 72.5 -54.5t60.5 -13.5z" glyph-name="atilde" horiz-adv-x="1146" unicode="ã"/><glyph d="M868 27v544q0 209 -69.5 295t-237.5 86q-152 0 -321 -34q-18 -4 -24.5 1t-10.5 25l-12 47q-8 29 22 37q147 37 350 37q240 0 335 -113.5t95 -376.5v-546q0 -29 -26 -29h-66q-23 0 -35 27zM829 236v-115q-143 -143 -362 -144q-156 0 -261.5 91.5t-105.5 246.5 q0 166 113 250t313 84q141 0 303 -61v-101q-152 63 -278 64q-324 0 -324 -236q0 -106 74 -170.5t203 -64.5q88 0 178 45t147 111zM274 1390.5q0 34.5 25 59.5t59.5 25t59 -25t24.5 -59.5t-24.5 -60t-59 -25.5t-59.5 25.5t-25 60zM664 1390.5q0 34.5 24.5 59.5t59 25t59 -25 t24.5 -59.5t-24.5 -60t-59 -25.5t-59 25.5t-24.5 60z" glyph-name="adieresis" horiz-adv-x="1146" unicode="ä"/><glyph d="M868 27v544q0 209 -69.5 295t-237.5 86q-152 0 -321 -34q-18 -4 -24.5 1t-10.5 25l-12 47q-8 29 22 37q147 37 350 37q240 0 335 -113.5t95 -376.5v-546q0 -29 -26 -29h-66q-23 0 -35 27zM829 236v-115q-143 -143 -362 -144q-156 0 -261.5 91.5t-105.5 246.5 q0 166 113 250t313 84q141 0 303 -61v-101q-152 63 -278 64q-324 0 -324 -236q0 -106 74 -170.5t203 -64.5q88 0 178 45t147 111zM575.5 1188q-94.5 0 -155 62.5t-60.5 158.5t60.5 158.5t155 62.5t153.5 -62.5t59 -158.5t-59 -158.5t-153.5 -62.5zM575.5 1260 q63.5 0 100.5 44t37 105t-36 104t-99.5 43t-102.5 -44t-39 -103t38 -104t101.5 -45z" glyph-name="aring" horiz-adv-x="1146" unicode="å"/><glyph d="M838 236v-117q-174 -141 -371 -142q-158 0 -261.5 89.5t-103.5 246.5q0 168 111 252t309 84q156 0 316 -61v-101q-168 63 -291 64q-328 0 -328 -242q0 -102 73 -165.5t202 -63.5q90 0 184 43t160 113zM1047 473v92h657q-4 162 -97.5 274.5t-260.5 116.5v109 q102 -2 185 -36t138 -88t94 -127t55.5 -149.5t16.5 -156.5v-8q0 -27 -27 -27h-761zM1006 741v-426q33 -96 124 -160.5t211 -64.5q205 0 340 111q25 16 41 -2l33 -37q18 -23 2 -39q-68 -68 -184.5 -107t-237.5 -39q-135 0 -248.5 63.5t-162.5 145.5l-47 -36v620 q-27 102 -104 142t-208 40q-152 0 -321 -34q-27 -4 -37 24l-10 49q-8 29 20 37q35 8 145.5 22.5t208.5 14.5q283 0 369 -166q152 156 367 166v-109q-104 -8 -181 -66.5t-120 -148.5z" glyph-name="ae" horiz-adv-x="1927" unicode="æ"/><glyph d="M616 94v-117q-209 10 -361.5 161t-152.5 382q0 217 148.5 377t365.5 168v-117q-164 -8 -276.5 -133t-112.5 -295q0 -172 112.5 -295t276.5 -131zM657 -20v114q170 6 283 123q18 16 39 -4l39 -43q16 -20 -2 -39q-150 -149 -359 -151zM657 948v117q211 -6 359 -154 q20 -20 2 -39l-39 -43q-20 -23 -39 -4q-113 117 -283 123zM528 -201l11 51q305 25 305 -182q0 -80 -52.5 -127t-140.5 -47q-94 0 -190 74q-20 16 -4 29l18 26q10 12 29 4q70 -53 155 -53q102 0 103 94q0 109 -141 109h-74q-19 -1 -19 22z" glyph-name="ccedilla" horiz-adv-x="1112" unicode="ç"/><glyph d="M276 473q-14 47 0 92h736q-4 147 -102.5 265t-258.5 126v109q223 -6 357.5 -169t134.5 -394q0 -29 -27 -29h-840zM231 537v-33q0 -170 124 -292t298 -122q190 0 336 111q25 18 39 -2l33 -37q18 -25 -2 -41q-68 -68 -181.5 -106t-230.5 -38q-231 0 -389 159t-158 384 q0 215 148.5 376t361.5 169v-109q-162 -12 -270.5 -134.5t-108.5 -284.5zM614 1202l-196 187q-18 14 -6 34l32 52q18 29 37 6l254 -269q29 -29 -6 -28h-67q-28 0 -48 18z" glyph-name="egrave" horiz-adv-x="1232" unicode="è"/><glyph d="M276 473q-14 47 0 92h736q-4 147 -102.5 265t-258.5 126v109q223 -6 357.5 -169t134.5 -394q0 -29 -27 -29h-840zM231 537v-33q0 -170 124 -292t298 -122q190 0 336 111q25 18 39 -2l33 -37q18 -25 -2 -41q-68 -68 -181.5 -106t-230.5 -38q-231 0 -389 159t-158 384 q0 215 148.5 376t361.5 169v-109q-162 -12 -270.5 -134.5t-108.5 -284.5zM848 1389l-199 -187q-18 -18 -47 -18h-67q-14 0 -16.5 7t9.5 21l256 269q18 20 35 -6l33 -52q10 -20 -4 -34z" glyph-name="eacute" horiz-adv-x="1232" unicode="é"/><glyph d="M276 473q-14 47 0 92h736q-4 147 -102.5 265t-258.5 126v109q223 -6 357.5 -169t134.5 -394q0 -29 -27 -29h-840zM231 537v-33q0 -170 124 -292t298 -122q190 0 336 111q25 18 39 -2l33 -37q18 -25 -2 -41q-68 -68 -181.5 -106t-230.5 -38q-231 0 -389 159t-158 384 q0 215 148.5 376t361.5 169v-109q-162 -12 -270.5 -134.5t-108.5 -284.5zM625 1542h43q16 0 39 -29l219 -311q18 -29 -13 -28h-51q-31 0 -47 28l-168 252l-170 -252q-16 -29 -47 -28h-51q-31 0 -12 28l219 311q19 29 39 29z" glyph-name="ecircumflex" horiz-adv-x="1232" unicode="ê"/><glyph d="M276 473q-14 47 0 92h736q-4 147 -102.5 265t-258.5 126v109q223 -6 357.5 -169t134.5 -394q0 -29 -27 -29h-840zM231 537v-33q0 -170 124 -292t298 -122q190 0 336 111q25 18 39 -2l33 -37q18 -25 -2 -41q-68 -68 -181.5 -106t-230.5 -38q-231 0 -389 159t-158 384 q0 215 148.5 376t361.5 169v-109q-162 -12 -270.5 -134.5t-108.5 -284.5zM352 1390.5q0 34.5 24.5 59.5t59.5 25t59.5 -25t24.5 -59.5t-24.5 -60t-59.5 -25.5t-59.5 25.5t-24.5 60zM741 1390.5q0 34.5 25 59.5t59.5 25t59 -25t24.5 -59.5t-24.5 -60t-59 -25.5t-59.5 25.5 t-25 60z" glyph-name="edieresis" horiz-adv-x="1232" unicode="ë"/><glyph d="M236 29v985q0 29 28 28h72q27 0 26 -28v-985q0 -29 -26 -29h-72q-28 0 -28 29zM252 1202l-197 187q-18 14 -6 34l33 52q18 29 37 6l254 -269q29 -29 -6 -28h-68q-24 0 -47 18z" glyph-name="igrave" horiz-adv-x="600" unicode="ì"/><glyph d="M231 29v985q0 29 29 28h72q27 0 26 -28v-985q0 -29 -26 -29h-72q-29 0 -29 29zM537 1389l-199 -187q-18 -18 -47 -18h-68q-14 0 -16 7t10 21l256 269q18 20 35 -6l33 -52q10 -20 -4 -34z" glyph-name="iacute" horiz-adv-x="591" unicode="í"/><glyph d="M233 29v985q0 29 29 28h72q27 0 26 -28v-985q0 -29 -26 -29h-72q-29 0 -29 29zM276 1542h43q16 0 39 -29l220 -311q18 -29 -13 -28h-51q-31 0 -47 28l-168 252l-170 -252q-16 -29 -47 -28h-51q-31 0 -13 28l220 311q18 29 38 29z" glyph-name="icircumflex" horiz-adv-x="598" unicode="î"/><glyph d="M233 29v985q0 29 29 28h72q27 0 26 -28v-985q0 -29 -26 -29h-72q-29 0 -29 29zM20 1390.5q0 34.5 25 59.5t59.5 25t59 -25t24.5 -59.5t-24.5 -60t-59 -25.5t-59.5 25.5t-25 60zM410 1390.5q0 34.5 24.5 59.5t59 25t59.5 -25t25 -59.5t-25 -60t-59.5 -25.5t-59 25.5 t-24.5 60z" glyph-name="idieresis" horiz-adv-x="598" unicode="ï"/><glyph d="M561 90v-117q-221 4 -349 152.5t-128 361.5q0 211 136 332t341 117v-113q-147 -6 -246.5 -99t-99.5 -243q0 -160 90 -271.5t256 -119.5zM602 -27v117q111 4 189.5 44t115.5 100.5t52.5 116t15.5 108.5q0 135 -112.5 244.5t-260.5 119.5v109q133 -8 236.5 -84t150.5 -189 q0 487 -227 633l-125 -211q-18 -25 -39 -10l-14 8q-27 14 -13 39l121 201q-98 23 -217 16q-29 -6 -29 27v61q0 31 29 33q10 0 35 1t37 1q102 0 209 -28l65 108q14 25 37 12l16 -10q25 -14 9 -39l-60 -100q160 -90 229.5 -280.5t69.5 -502.5q0 -309 -117.5 -474t-402.5 -171z " glyph-name="eth" horiz-adv-x="1224" unicode="ð"/><glyph d="M338 961v-932q0 -29 -27 -29h-73q-27 0 -27 29v985q0 29 27 28h43q33 0 41 -20zM379 754v149q123 162 303 162q174 0 291 -115.5t117 -341.5v-579q0 -29 -27 -29h-74q-27 0 -26 29v540q0 182 -87.5 280.5t-224.5 98.5q-82 0 -155.5 -50t-116.5 -144zM795 1368 q53 0 82.5 21.5t52.5 78.5q12 31 41 21l35 -14q25 -10 12 -43q-68 -160 -211 -160q-96 0 -176 71q-49 43 -77 58.5t-62 15.5q-51 0 -81 -22.5t-55 -79.5q-12 -31 -41 -19l-32 15q-27 12 -13 43q66 158 211 157q88 0 181 -75q47 -41 72.5 -54.5t60.5 -13.5z" glyph-name="ntilde" unicode="ñ"/><glyph d="M618 92v-115q-215 8 -365.5 167t-150.5 376q0 219 150.5 378t365.5 167v-117q-160 -8 -274.5 -131t-114.5 -297q0 -172 112.5 -296t276.5 -132zM659 -23v115q166 8 279 132t113 296q0 170 -113 295t-279 133v117q219 -8 369 -167t150 -378q0 -217 -150 -376t-369 -167z M625 1202l-197 187q-18 14 -6 34l33 52q18 29 37 6l253 -269q29 -29 -6 -28h-67q-24 0 -47 18z" glyph-name="ograve" horiz-adv-x="1280" unicode="ò"/><glyph d="M618 92v-115q-215 8 -365.5 167t-150.5 376q0 219 150.5 378t365.5 167v-117q-160 -8 -274.5 -131t-114.5 -297q0 -172 112.5 -296t276.5 -132zM659 -23v115q166 8 279 132t113 296q0 170 -113 295t-279 133v117q219 -8 369 -167t150 -378q0 -217 -150 -376t-369 -167z M842 1389l-199 -187q-18 -18 -47 -18h-68q-14 0 -16 7t10 21l256 269q18 20 35 -6l33 -52q10 -20 -4 -34z" glyph-name="oacute" horiz-adv-x="1280" unicode="ó"/><glyph d="M618 92v-115q-215 8 -365.5 167t-150.5 376q0 219 150.5 378t365.5 167v-117q-160 -8 -274.5 -131t-114.5 -297q0 -172 112.5 -296t276.5 -132zM659 -23v115q166 8 279 132t113 296q0 170 -113 295t-279 133v117q219 -8 369 -167t150 -378q0 -217 -150 -376t-369 -167z M618 1542h44q18 0 38 -29l220 -311q18 -29 -13 -28h-51q-31 0 -47 28l-168 252l-170 -252q-16 -29 -47 -28h-51q-31 0 -13 28l220 311q18 29 38 29z" glyph-name="ocircumflex" horiz-adv-x="1280" unicode="ô"/><glyph d="M618 92v-115q-215 8 -365.5 167t-150.5 376q0 219 150.5 378t365.5 167v-117q-160 -8 -274.5 -131t-114.5 -297q0 -172 112.5 -296t276.5 -132zM659 -23v115q166 8 279 132t113 296q0 170 -113 295t-279 133v117q219 -8 369 -167t150 -378q0 -217 -150 -376t-369 -167z M791 1368q53 0 82.5 21.5t52.5 78.5q12 31 41 21l34 -14q25 -10 13 -43q-68 -160 -211 -160q-96 0 -176 71q-49 43 -77 58.5t-63 15.5q-51 0 -80.5 -22.5t-54.5 -79.5q-12 -31 -41 -19l-32 15q-27 12 -13 43q66 158 211 157q88 0 180 -75q47 -41 73 -54.5t61 -13.5z" glyph-name="otilde" horiz-adv-x="1280" unicode="õ"/><glyph d="M618 92v-115q-215 8 -365.5 167t-150.5 376q0 219 150.5 378t365.5 167v-117q-160 -8 -274.5 -131t-114.5 -297q0 -172 112.5 -296t276.5 -132zM659 -23v115q166 8 279 132t113 296q0 170 -113 295t-279 133v117q219 -8 369 -167t150 -378q0 -217 -150 -376t-369 -167z M358 1390.5q0 34.5 25 59.5t59.5 25t59 -25t24.5 -59.5t-24.5 -60t-59 -25.5t-59.5 25.5t-25 60zM748 1390.5q0 34.5 24.5 59.5t59 25t59 -25t24.5 -59.5t-24.5 -60t-59 -25.5t-59 25.5t-24.5 60z" glyph-name="odieresis" horiz-adv-x="1280" unicode="ö"/><glyph d="M999 578h-903q-29 0 -28 28v43q0 16 6 22.5t22 6.5h903q27 0 27 -29v-45q0 -26 -27 -26zM457 229q0 39 24.5 64.5t63.5 25.5t63.5 -25.5t24.5 -64.5t-24.5 -63.5t-63.5 -24.5t-63.5 24.5t-24.5 63.5zM457 1010q0 37 25.5 63.5t62.5 26.5q35 0 61.5 -26.5t26.5 -63.5 t-25.5 -62.5t-62.5 -25.5t-62.5 25.5t-25.5 62.5z" glyph-name="divide" horiz-adv-x="1087" unicode="÷"/><glyph d="M655 -23v115q168 10 280 133t112 295q0 213 -185 350l-389 -741q78 -33 141 -37v-115q-92 4 -194 46l-39 -86q-14 -29 -41 -29h-45q-39 0 -23 29l64 133q-109 72 -173.5 192.5t-64.5 257.5q0 217 149.5 377t366.5 168v-117q-164 -8 -276.5 -133t-112.5 -295 q0 -70 17.5 -128t52.5 -103t50 -62.5t48 -46.5l385 740q-53 25 -123 28v117q100 -4 176 -39l50 82q12 27 41 27h45q41 0 22 -29l-69 -125q115 -74 184.5 -193.5t69.5 -267.5q0 -217 -150 -376t-369 -167z" glyph-name="oslash" horiz-adv-x="1275" unicode="ø"/><glyph d="M903 82v932q0 29 27 28h74q27 0 26 -28v-985q0 -29 -26 -29h-43q-33 0 -41 20zM862 287v-148q-123 -162 -303 -162q-174 0 -290.5 116t-116.5 341v580q0 29 26 28h74q27 0 27 -28v-543q0 -182 87 -279.5t224 -97.5q82 0 155.5 50.5t116.5 142.5zM559 1202l-197 187 q-18 14 -6 34l33 52q18 29 37 6l254 -269q29 -29 -6 -28h-68q-24 0 -47 18z" glyph-name="ugrave" unicode="ù"/><glyph d="M903 82v932q0 29 27 28h74q27 0 26 -28v-985q0 -29 -26 -29h-43q-33 0 -41 20zM862 287v-148q-123 -162 -303 -162q-174 0 -290.5 116t-116.5 341v580q0 29 26 28h74q27 0 27 -28v-543q0 -182 87 -279.5t224 -97.5q82 0 155.5 50.5t116.5 142.5zM791 1389l-199 -187 q-18 -18 -47 -18h-68q-14 0 -16 7t10 21l256 269q18 20 35 -6l33 -52q10 -20 -4 -34z" glyph-name="uacute" unicode="ú"/><glyph d="M903 82v932q0 29 27 28h74q27 0 26 -28v-985q0 -29 -26 -29h-43q-33 0 -41 20zM862 287v-148q-123 -162 -303 -162q-174 0 -290.5 116t-116.5 341v580q0 29 26 28h74q27 0 27 -28v-543q0 -182 87 -279.5t224 -97.5q82 0 155.5 50.5t116.5 142.5zM575 1542h43q16 0 39 -29 l220 -311q18 -29 -13 -28h-51q-31 0 -47 28l-168 252l-170 -252q-16 -29 -47 -28h-51q-31 0 -13 28l220 311q18 29 38 29z" glyph-name="ucircumflex" unicode="û"/><glyph d="M903 82v932q0 29 27 28h74q27 0 26 -28v-985q0 -29 -26 -29h-43q-33 0 -41 20zM862 287v-148q-123 -162 -303 -162q-174 0 -290.5 116t-116.5 341v580q0 29 26 28h74q27 0 27 -28v-543q0 -182 87 -279.5t224 -97.5q82 0 155.5 50.5t116.5 142.5zM313 1390.5 q0 34.5 24.5 59.5t59.5 25t59.5 -25t24.5 -59.5t-24.5 -60t-59.5 -25.5t-59.5 25.5t-24.5 60zM702 1390.5q0 34.5 25 59.5t59.5 25t59 -25t24.5 -59.5t-24.5 -60t-59 -25.5t-59.5 25.5t-25 60z" glyph-name="udieresis" unicode="ü"/><glyph d="M590 35l-189 -424q-14 -29 -39 -29h-83q-27 0 -15 29l189 428l-435 975q-12 29 15 28h86q25 0 37 -28zM610 86l-65 150l340 778q16 29 39 28h84q27 0 14 -28zM709 1389l-199 -187q-18 -18 -47 -18h-68q-14 0 -16 7t10 21l256 269q18 20 35 -6l33 -52q10 -20 -4 -34z" glyph-name="yacute" horiz-adv-x="1044" unicode="ý"/><glyph d="M334 1432v-1821q0 -29 -27 -29h-71q-29 0 -29 29v1821q0 29 29 28h71q27 1 27 -28zM375 0v117h348q160 0 272.5 110.5t112.5 292.5t-113.5 295t-271.5 113h-348v114h375q207 0 346 -149.5t139 -372.5t-139.5 -371.5t-345.5 -148.5h-375z" glyph-name="thorn" horiz-adv-x="1337" unicode="þ"/><glyph d="M590 35l-189 -424q-14 -29 -39 -29h-83q-27 0 -15 29l189 428l-435 975q-12 29 15 28h86q25 0 37 -28zM610 86l-65 150l340 778q16 29 39 28h84q27 0 14 -28zM236 1390.5q0 34.5 24.5 59.5t59 25t59 -25t24.5 -59.5t-24.5 -60t-59 -25.5t-59 25.5t-24.5 60zM625 1390.5 q0 34.5 24.5 59.5t59 25t59.5 -25t25 -59.5t-25 -60t-59.5 -25.5t-59 25.5t-24.5 60z" glyph-name="ydieresis" horiz-adv-x="1044" unicode="ÿ"/><glyph d="M1163 555h-133l-303 680h-2l-537 -1206q-12 -29 -36 -29h-97q-27 0 -16 29l661 1417q10 25 23 24h6q10 0 21 -24zM451 516h733l227 -487q14 -29 -18 -29h-95q-20 0 -36 29l-168 370h-697zM975 1753h-494q-29 0 -28 27v43q0 16 6 22t22 6h494q16 0 22.5 -6t6.5 -22v-43 q0 -27 -29 -27z" glyph-name="Amacron" horiz-adv-x="1443" unicode="Ā"/><glyph d="M868 27v544q0 209 -69.5 295t-237.5 86q-152 0 -321 -34q-18 -4 -24.5 1t-10.5 25l-12 47q-8 29 22 37q147 37 350 37q240 0 335 -113.5t95 -376.5v-546q0 -29 -26 -29h-66q-23 0 -35 27zM829 236v-115q-143 -143 -362 -144q-156 0 -261.5 91.5t-105.5 246.5 q0 166 113 250t313 84q141 0 303 -61v-101q-152 63 -278 64q-324 0 -324 -236q0 -106 74 -170.5t203 -64.5q88 0 178 45t147 111zM823 1362h-493q-29 0 -29 27v43q0 16 6 22t23 6h493q16 0 22.5 -6t6.5 -22v-43q0 -27 -29 -27z" glyph-name="amacron" horiz-adv-x="1146" unicode="ā"/><glyph d="M1163 555h-133l-303 680h-2l-537 -1206q-12 -29 -36 -29h-97q-27 0 -16 29l661 1417q10 25 23 24h6q10 0 21 -24zM451 516h733l227 -487q14 -29 -18 -29h-95q-20 0 -36 29l-168 370h-697zM725 1659q-205 0 -283 182q-14 31 7 39l45 25q18 8 30 -15q33 -78 77 -108.5 t124 -30.5q78 0 124 30.5t79 108.5q8 23 28 15l45 -25q20 -8 7 -39q-76 -182 -283 -182z" glyph-name="Abreve" horiz-adv-x="1443" unicode="Ă"/><glyph d="M868 27v544q0 209 -69.5 295t-237.5 86q-152 0 -321 -34q-18 -4 -24.5 1t-10.5 25l-12 47q-8 29 22 37q147 37 350 37q240 0 335 -113.5t95 -376.5v-546q0 -29 -26 -29h-66q-23 0 -35 27zM829 236v-115q-143 -143 -362 -144q-156 0 -261.5 91.5t-105.5 246.5 q0 166 113 250t313 84q141 0 303 -61v-101q-152 63 -278 64q-324 0 -324 -236q0 -106 74 -170.5t203 -64.5q88 0 178 45t147 111zM580 1268q-205 0 -283 182q-14 31 6 39l45 24q18 8 31 -14q33 -78 77 -108.5t123.5 -30.5t125 30.5t77.5 108.5q8 23 29 14l45 -24 q20 -8 6 -39q-75 -182 -282 -182z" glyph-name="abreve" horiz-adv-x="1146" unicode="ă"/><glyph d="M1163 555h-133l-303 680h-2l-537 -1206q-12 -29 -36 -29h-97q-27 0 -16 29l661 1417q10 25 23 24h6q8 0 21 -20zM449 516h735l227 -487q14 -29 -18 -29h-50q-57 -6 -124.5 -53t-67.5 -125q0 -156 121 -156q23 0 92 4q27 0 27 -24v-23q0 -27 -27 -29q-49 -4 -104 -4 q-82 0 -136.5 52.5t-54.5 162.5q0 158 193 226l-168 368h-699z" glyph-name="Aogonek" horiz-adv-x="1443" unicode="Ą"/><glyph d="M856 170v401q0 209 -69.5 295t-239.5 86q-135 0 -305 -34q-18 -4 -25.5 2t-11.5 24l-12 47q-8 29 22 37q147 37 338 37q240 0 335 -113.5t95 -376.5v-546q0 -29 -25 -29q-141 -68 -141 -176q0 -78 44 -118t104 -40q23 0 92 4q29 0 28 -24v-23q0 -27 -28 -29 q-49 -4 -105 -4q-90 0 -152.5 52.5t-62.5 164.5q0 139 150 222q0 2 -4 9t-11.5 39t-15.5 93zM817 98q-158 -121 -356 -121q-147 0 -253 91.5t-106 246.5q0 164 111 249t301 85q145 0 303 -63v-101q-147 66 -280 66q-145 0 -226.5 -60.5t-81.5 -175.5q0 -106 75 -170.5 t194 -64.5q80 0 170 41t149 92v-115z" glyph-name="aogonek" horiz-adv-x="1144" unicode="ą"/><glyph d="M813 92v-119q-299 8 -507 226.5t-208 517.5t208 517t507 226v-119q-240 -8 -410 -197.5t-170 -426.5q0 -240 169 -428.5t411 -196.5zM854 -27v119q250 8 428 191q20 20 39 -2l49 -54q18 -23 -2 -43q-94 -94 -231.5 -150.5t-282.5 -60.5zM854 1341v119q143 -4 282.5 -61.5 t231.5 -149.5q20 -20 0 -39l-49 -55q-20 -20 -43 0q-72 76 -182.5 129t-239.5 57zM977 1780l-199 -187q-18 -18 -47 -18h-67q-14 0 -16.5 7t9.5 22l256 268q18 20 35 -6l33 -51q10 -21 -4 -35z" glyph-name="Cacute" horiz-adv-x="1484" unicode="Ć"/><glyph d="M653 948v117q211 -6 359 -154q20 -20 2 -39l-39 -43q-20 -23 -39 -4q-113 117 -283 123zM612 1065v-117q-164 -8 -276.5 -133t-112.5 -295t111.5 -294t277.5 -132v-117q-219 8 -366.5 167t-147.5 376t148.5 377t365.5 168zM653 -23v117q172 8 283 123q18 16 39 -4l39 -43 q16 -20 -2 -39q-148 -148 -359 -154zM834 1389l-199 -187q-18 -18 -47 -18h-68q-14 0 -16 7t10 21l256 269q18 20 35 -6l33 -52q10 -20 -4 -34z" glyph-name="cacute" horiz-adv-x="1099" unicode="ć"/><glyph d="M813 92v-119q-299 8 -507 226.5t-208 517.5t208 517t507 226v-119q-240 -8 -410 -197.5t-170 -426.5q0 -240 169 -428.5t411 -196.5zM854 -27v119q250 8 428 191q20 20 39 -2l49 -54q18 -23 -2 -43q-94 -94 -231.5 -150.5t-282.5 -60.5zM854 1341v119q143 -4 282.5 -61.5 t231.5 -149.5q20 -20 0 -39l-49 -55q-20 -20 -43 0q-72 76 -182.5 129t-239.5 57zM805 1933h43q18 0 39 -28l219 -312q18 -29 -12 -28h-52q-31 0 -47 28l-168 252l-170 -252q-16 -29 -47 -28h-51q-31 0 -12 28l219 312q19 28 39 28z" glyph-name="Ccircumflex" horiz-adv-x="1484" unicode="Ĉ"/><glyph d="M653 948v117q211 -6 359 -154q20 -20 2 -39l-39 -43q-20 -23 -39 -4q-113 117 -283 123zM612 1065v-117q-164 -8 -276.5 -133t-112.5 -295t111.5 -294t277.5 -132v-117q-219 8 -366.5 167t-147.5 376t148.5 377t365.5 168zM653 -23v117q172 8 283 123q18 16 39 -4l39 -43 q16 -20 -2 -39q-148 -148 -359 -154zM594 1542h43q18 0 39 -29l219 -311q18 -29 -12 -28h-52q-31 0 -47 28l-168 252l-170 -252q-16 -29 -47 -28h-51q-31 0 -12 28l219 311q19 29 39 29z" glyph-name="ccircumflex" horiz-adv-x="1099" unicode="ĉ"/><glyph d="M813 92v-119q-299 8 -507 226.5t-208 517.5t208 517t507 226v-119q-240 -8 -410 -197.5t-170 -426.5q0 -240 169 -428.5t411 -196.5zM854 -27v119q250 8 428 191q20 20 39 -2l49 -54q18 -23 -2 -43q-94 -94 -231.5 -150.5t-282.5 -60.5zM854 1341v119q143 -4 282.5 -61.5 t231.5 -149.5q20 -20 0 -39l-49 -55q-20 -20 -43 0q-72 76 -182.5 129t-239.5 57zM723 1780q0 41 27.5 68.5t66.5 27.5t67.5 -28.5t28.5 -67.5t-28.5 -66.5t-67.5 -27.5t-66.5 27.5t-27.5 66.5z" glyph-name="Cdotaccent" horiz-adv-x="1484" unicode="Ċ"/><glyph d="M653 948v117q211 -6 359 -154q20 -20 2 -39l-39 -43q-20 -23 -39 -4q-113 117 -283 123zM612 1065v-117q-164 -8 -276.5 -133t-112.5 -295t111.5 -294t277.5 -132v-117q-219 8 -366.5 167t-147.5 376t148.5 377t365.5 168zM653 -23v117q172 8 283 123q18 16 39 -4l39 -43 q16 -20 -2 -39q-148 -148 -359 -154zM530 1389q0 41 28 68.5t67 27.5t67.5 -29t28.5 -67.5t-28.5 -66.5t-67.5 -28t-67 28t-28 67z" glyph-name="cdotaccent" horiz-adv-x="1099" unicode="ċ"/><glyph d="M813 92v-119q-299 8 -507 226.5t-208 517.5t208 517t507 226v-119q-240 -8 -410 -197.5t-170 -426.5q0 -240 169 -428.5t411 -196.5zM854 -27v119q250 8 428 191q20 20 39 -2l49 -54q18 -23 -2 -43q-94 -94 -231.5 -150.5t-282.5 -60.5zM854 1341v119q143 -4 282.5 -61.5 t231.5 -149.5q20 -20 0 -39l-49 -55q-20 -20 -43 0q-72 76 -182.5 129t-239.5 57zM834 1565h-43q-20 0 -39 28l-220 312q-18 29 13 28h51q31 0 47 -28l170 -252l168 252q16 29 47 28h51q31 0 13 -28l-220 -312q-20 -28 -38 -28z" glyph-name="Ccaron" horiz-adv-x="1484" unicode="Č"/><glyph d="M653 948v117q211 -6 359 -154q20 -20 2 -39l-39 -43q-20 -23 -39 -4q-113 117 -283 123zM612 1065v-117q-164 -8 -276.5 -133t-112.5 -295t111.5 -294t277.5 -132v-117q-219 8 -366.5 167t-147.5 376t148.5 377t365.5 168zM653 -23v117q172 8 283 123q18 16 39 -4l39 -43 q16 -20 -2 -39q-148 -148 -359 -154zM635 1174h-43q-20 0 -39 28l-219 311q-18 29 12 29h51q31 0 47 -29l170 -251l168 251q16 29 47 29h52q31 0 12 -29l-219 -311q-23 -28 -39 -28z" glyph-name="ccaron" horiz-adv-x="1099" unicode="č"/><glyph d="M340 1434v-1434h-104q-29 0 -29 29v1376q0 29 29 29h104zM379 0v117h354q252 0 414 176t162 424q0 250 -162 425t-414 175h-354v117h356q303 0 505 -206t202 -511t-202 -511t-505 -206h-356zM737 1565h-43q-20 0 -39 28l-219 312q-18 29 13 28h51q31 0 47 -28l170 -252 l168 252q16 29 47 28h51q31 0 12 -28l-219 -312q-23 -28 -39 -28z" glyph-name="Dcaron" horiz-adv-x="1544" unicode="Ď"/><glyph d="M928 324v-172q-55 -78 -147.5 -126.5t-205.5 -48.5q-213 0 -343 157t-130 388.5t130 387t343 155.5q113 0 205 -50t148 -132v-168q-106 233 -330 233q-166 0 -267.5 -126t-101.5 -300q0 -184 100.5 -307t268.5 -123q96 0 185.5 55.5t144.5 176.5zM967 90v1393q0 29 26 28 h74q27 0 27 -28v-1454q0 -29 -27 -29h-41q-27 0 -41 25zM1487 1296h-17q-45 2 -74.5 32t-29.5 75t30.5 76.5t76.5 31.5q47 0 78.5 -35.5t31.5 -99.5q0 -266 -221 -393q-16 -8 -21 2l-24 37q-6 12 6 22q150 96 164 252z" glyph-name="dcaron" horiz-adv-x="1478" unicode="ď"/><glyph d="M426 670v-670h-104q-29 0 -29 29v641h-219q-29 0 -29 28v58q0 29 29 28h219v621q0 29 29 29h104v-650h369q29 0 28 -28v-58q0 -29 -28 -28h-369zM467 0v117h352q252 0 414 176t162 424t-162 424t-414 176h-352v117h354q303 0 506 -206t203 -511t-203 -511t-506 -206h-354 z" glyph-name="Dcroat" horiz-adv-x="1613" unicode="Đ"/><glyph d="M926 883v-168q-47 111 -135.5 172t-194.5 61q-164 0 -265.5 -126t-101.5 -300q0 -184 100.5 -307t266.5 -123q106 0 193.5 60.5t136.5 173.5v-174q-131 -174 -351 -175q-213 0 -343 157t-130 388.5t130 387t343 155.5q115 0 206.5 -51t144.5 -131zM967 557v623h-246 q-29 0 -29 26v41q0 27 29 27h246v178q0 29 26 29h74q27 0 27 -29v-178h108q29 0 29 -27v-41q0 -27 -29 -26h-108v-1151q0 -29 -27 -29h-43q-25 0 -41 25z" glyph-name="dcroat" horiz-adv-x="1282" unicode="đ"/><glyph d="M365 1315v119h763q27 0 27 -29v-62q0 -29 -27 -28h-763zM365 666v116h727q27 0 26 -26v-62q0 -29 -26 -28h-727zM365 0v117h763q27 0 27 -27v-61q0 -29 -27 -29h-763zM324 1434v-1434h-105q-29 0 -29 29v1376q0 29 29 29h105zM920 1761h-494q-29 0 -29 27v43 q0 16 6.5 22.5t22.5 6.5h494q16 0 22 -6.5t6 -22.5v-43q1 -27 -28 -27z" glyph-name="Emacron" horiz-adv-x="1296" unicode="Ē"/><glyph d="M276 473q-14 47 0 92h736q-4 147 -102.5 265t-258.5 126v109q223 -6 357.5 -169t134.5 -394q0 -29 -27 -29h-840zM231 537v-33q0 -170 124 -292t298 -122q190 0 336 111q25 18 39 -2l33 -37q18 -25 -2 -41q-68 -68 -181.5 -106t-230.5 -38q-231 0 -389 159t-158 384 q0 215 148.5 376t361.5 169v-109q-162 -12 -270.5 -134.5t-108.5 -284.5zM885 1362h-494q-29 0 -29 27v43q0 16 6.5 22t22.5 6h494q16 0 22 -6t6 -22v-43q1 -27 -28 -27z" glyph-name="emacron" horiz-adv-x="1232" unicode="ē"/><glyph d="M365 1315v119h763q27 0 27 -29v-62q0 -29 -27 -28h-763zM365 666v116h727q27 0 26 -26v-62q0 -29 -26 -28h-727zM365 0v117h763q27 0 27 -27v-61q0 -29 -27 -29h-763zM324 1434v-1434h-105q-29 0 -29 29v1376q0 29 29 29h105zM674 1659q-205 0 -283 182q-14 31 6 39 l45 25q18 8 31 -15q33 -78 77 -108.5t124 -30.5t125 30.5t78 108.5q8 23 28 15l45 -25q20 -8 6 -39q-75 -182 -282 -182z" glyph-name="Ebreve" horiz-adv-x="1296" unicode="Ĕ"/><glyph d="M276 473q-14 47 0 92h736q-4 147 -102.5 265t-258.5 126v109q223 -6 357.5 -169t134.5 -394q0 -29 -27 -29h-840zM231 537v-33q0 -170 124 -292t298 -122q190 0 336 111q25 18 39 -2l33 -37q18 -25 -2 -41q-68 -68 -181.5 -106t-230.5 -38q-231 0 -389 159t-158 384 q0 215 148.5 376t361.5 169v-109q-162 -12 -270.5 -134.5t-108.5 -284.5zM633 1268q-205 0 -283 182q-14 31 6 39l45 24q18 8 31 -14q33 -78 77 -108.5t124 -30.5t125 30.5t78 108.5q8 23 28 14l45 -24q20 -8 6 -39q-75 -182 -282 -182z" glyph-name="ebreve" horiz-adv-x="1232" unicode="ĕ"/><glyph d="M365 1315v119h763q27 0 27 -29v-62q0 -29 -27 -28h-763zM365 666v116h727q27 0 26 -26v-62q0 -29 -26 -28h-727zM365 0v117h763q27 0 27 -27v-61q0 -29 -27 -29h-763zM324 1434v-1434h-105q-29 0 -29 29v1376q0 29 29 29h105zM594 1780q0 41 27.5 68.5t66.5 27.5 t67.5 -28.5t28.5 -67.5t-28.5 -66.5t-67.5 -27.5t-66.5 27.5t-27.5 66.5z" glyph-name="Edotaccent" horiz-adv-x="1296" unicode="Ė"/><glyph d="M276 473q-14 47 0 92h736q-4 147 -102.5 265t-258.5 126v109q223 -6 357.5 -169t134.5 -394q0 -29 -27 -29h-840zM231 537v-33q0 -170 124 -292t298 -122q190 0 336 111q25 18 39 -2l33 -37q18 -25 -2 -41q-68 -68 -181.5 -106t-230.5 -38q-231 0 -389 159t-158 384 q0 215 148.5 376t361.5 169v-109q-162 -12 -270.5 -134.5t-108.5 -284.5zM535 1389q0 41 27.5 68.5t66.5 27.5t67.5 -29t28.5 -67.5t-28.5 -66.5t-67.5 -28t-66.5 28t-27.5 67z" glyph-name="edotaccent" horiz-adv-x="1232" unicode="ė"/><glyph d="M379 1315v119h764q29 0 28 -29v-62q0 -29 -28 -28h-764zM379 666v116h719q29 0 28 -26v-62q0 -16 -6 -22t-22 -6h-719zM379 0v117h764q29 0 28 -27v-61q0 -27 -16 -29q-53 -6 -117.5 -54t-64.5 -124q0 -156 119 -156q23 0 92 4q29 0 28 -24v-23q0 -27 -28 -29 q-47 -4 -103 -4q-82 0 -136 52.5t-54 162.5q0 109 117 195h-629zM340 1434v-1434h-104q-16 0 -22.5 6t-6.5 23v1376q0 29 29 29h104z" glyph-name="Eogonek" horiz-adv-x="1284" unicode="Ę"/><glyph d="M231 537v-33q0 -172 126 -293t296 -121q190 0 336 111q25 16 41 -2l33 -37q18 -25 0 -39q-68 -68 -173.5 -104.5t-211.5 -38.5q-100 -63 -100 -156q0 -78 44 -118t103 -40q23 0 92 4q29 0 29 -24v-23q0 -27 -29 -29q-43 -4 -98 -4q-90 0 -155.5 52.5t-65.5 164.5 q0 102 82 175q-199 23 -338.5 173t-139.5 365q0 217 147.5 376t362.5 169v-109q-160 -10 -270.5 -132.5t-110.5 -286.5zM272 473v92h740q-4 152 -105.5 268.5t-255.5 122.5v109q221 -4 356.5 -165t135.5 -378v-20q0 -29 -27 -29h-844z" glyph-name="eogonek" horiz-adv-x="1232" unicode="ę"/><glyph d="M365 1315v119h763q27 0 27 -29v-62q0 -29 -27 -28h-763zM365 666v116h727q27 0 26 -26v-62q0 -29 -26 -28h-727zM365 0v117h763q27 0 27 -27v-61q0 -29 -27 -29h-763zM324 1434v-1434h-105q-29 0 -29 29v1376q0 29 29 29h105zM696 1565h-43q-20 0 -39 28l-219 312 q-18 29 13 28h51q31 0 47 -28l170 -252l168 252q16 29 47 28h51q31 0 12 -28l-219 -312q-23 -28 -39 -28z" glyph-name="Ecaron" horiz-adv-x="1302" unicode="Ě"/><glyph d="M276 473q-14 47 0 92h736q-4 147 -102.5 265t-258.5 126v109q223 -6 357.5 -169t134.5 -394q0 -29 -27 -29h-840zM231 537v-33q0 -170 124 -292t298 -122q190 0 336 111q25 18 39 -2l33 -37q18 -25 -2 -41q-68 -68 -181.5 -106t-230.5 -38q-231 0 -389 159t-158 384 q0 215 148.5 376t361.5 169v-109q-162 -12 -270.5 -134.5t-108.5 -284.5zM641 1174h-43q-20 0 -39 28l-219 311q-18 29 12 29h51q31 0 48 -29l170 -251l167 251q16 29 48 29h51q31 0 12 -29l-219 -311q-21 -28 -39 -28z" glyph-name="ecaron" horiz-adv-x="1232" unicode="ě"/><glyph d="M817 1460v-119q-240 -8 -408.5 -196.5t-168.5 -428t167.5 -428t409.5 -196.5v-119q-297 4 -505 223.5t-208 520.5q0 299 207 517t506 226zM858 1341v119q143 -6 277.5 -61.5t232.5 -147.5q18 -18 -2 -39l-51 -55q-18 -20 -41 0q-70 70 -185.5 124t-230.5 60zM858 -27v119 q248 8 426 172v357h-424q-29 0 -29 28v62q0 29 29 28h529q29 0 28 -28v-449q0 -41 -33 -74q-96 -94 -238.5 -152.5t-287.5 -62.5zM784 1933h43q16 0 39 -28l219 -312q18 -29 -12 -28h-51q-31 0 -47 28l-168 252l-170 -252q-16 -29 -47 -28h-51q-31 0 -13 28l219 312 q19 28 39 28z" glyph-name="Gcircumflex" horiz-adv-x="1550" unicode="Ĝ"/><glyph d="M967 57v953q12 33 41 32h59q27 0 27 -28v-944q0 -575 -471 -576q-205 0 -402 72q-25 10 -16 33l16 63q8 27 31 16q4 -2 28.5 -11t38 -13t40 -12.5t50 -12.5t55.5 -10t67.5 -8t74.5 -2q104 0 177 34.5t112 98t55.5 140.5t16.5 175zM926 891v-170q-106 229 -328 229 q-168 0 -268.5 -122.5t-100.5 -307.5q0 -172 101.5 -299t267.5 -127q98 0 187 57.5t141 172.5v-166q-127 -180 -351 -181q-213 0 -343 156t-130 387q0 229 130 387t343 158q113 0 204.5 -48t146.5 -126zM608 1542h43q16 0 39 -29l219 -311q18 -29 -12 -28h-51q-31 0 -47 28 l-168 252l-170 -252q-16 -29 -47 -28h-52q-31 0 -12 28l219 311q19 29 39 29z" glyph-name="gcircumflex" horiz-adv-x="1294" unicode="ĝ"/><glyph d="M817 1460v-119q-240 -8 -408.5 -196.5t-168.5 -428t167.5 -428t409.5 -196.5v-119q-297 4 -505 223.5t-208 520.5q0 299 207 517t506 226zM858 1341v119q143 -6 277.5 -61.5t232.5 -147.5q18 -18 -2 -39l-51 -55q-18 -20 -41 0q-70 70 -185.5 124t-230.5 60zM858 -27v119 q248 8 426 172v357h-424q-29 0 -29 28v62q0 29 29 28h529q29 0 28 -28v-449q0 -41 -33 -74q-96 -94 -238.5 -152.5t-287.5 -62.5zM799 1659q-205 0 -283 182q-14 31 6 39l45 25q18 8 31 -15q33 -78 77 -108.5t124 -30.5q78 0 124 30.5t78 108.5q8 23 29 15l45 -25 q20 -8 6 -39q-75 -182 -282 -182z" glyph-name="Gbreve" horiz-adv-x="1550" unicode="Ğ"/><glyph d="M631 1268q-205 0 -283 182q-14 31 6 39l45 24q18 8 31 -14q33 -78 77 -108.5t124 -30.5q78 0 124 30.5t79 108.5q8 23 28 14l45 -24q20 -8 6 -39q-75 -182 -282 -182zM967 57v953q12 33 41 32h59q27 0 27 -28v-944q0 -575 -471 -576q-205 0 -402 72q-25 10 -16 33l16 63 q8 27 31 16q4 -2 28.5 -11t38 -13t40 -12.5t50 -12.5t55.5 -10t67.5 -8t74.5 -2q104 0 177 34.5t112 98t55.5 140.5t16.5 175zM926 891v-170q-106 229 -328 229q-168 0 -268.5 -122.5t-100.5 -307.5q0 -172 101.5 -299t267.5 -127q98 0 187 57.5t141 172.5v-166 q-127 -180 -351 -181q-213 0 -343 156t-130 387q0 229 130 387t343 158q113 0 204.5 -48t146.5 -126z" glyph-name="gbreve" horiz-adv-x="1294" unicode="ğ"/><glyph d="M817 1460v-119q-240 -8 -408.5 -196.5t-168.5 -428t167.5 -428t409.5 -196.5v-119q-297 4 -505 223.5t-208 520.5q0 299 207 517t506 226zM858 1341v119q143 -6 277.5 -61.5t232.5 -147.5q18 -18 -2 -39l-51 -55q-18 -20 -41 0q-70 70 -185.5 124t-230.5 60zM858 -27v119 q248 8 426 172v357h-424q-29 0 -29 28v62q0 29 29 28h529q29 0 28 -28v-449q0 -41 -33 -74q-96 -94 -238.5 -152.5t-287.5 -62.5zM707 1780q0 41 27.5 68.5t66.5 27.5t67.5 -28.5t28.5 -67.5t-28.5 -66.5t-67.5 -27.5t-66.5 27.5t-27.5 66.5z" glyph-name="Gdotaccent" horiz-adv-x="1550" unicode="Ġ"/><glyph d="M967 57v953q12 33 41 32h59q27 0 27 -28v-944q0 -575 -471 -576q-205 0 -402 72q-25 10 -16 33l16 63q8 27 31 16q4 -2 28.5 -11t38 -13t40 -12.5t50 -12.5t55.5 -10t67.5 -8t74.5 -2q104 0 177 34.5t112 98t55.5 140.5t16.5 175zM926 891v-170q-106 229 -328 229 q-168 0 -268.5 -122.5t-100.5 -307.5q0 -172 101.5 -299t267.5 -127q98 0 187 57.5t141 172.5v-166q-127 -180 -351 -181q-213 0 -343 156t-130 387q0 229 130 387t343 158q113 0 204.5 -48t146.5 -126zM522 1389q0 41 28 68.5t66.5 27.5t67.5 -29t29 -67.5t-29 -66.5 t-67.5 -28t-66.5 28t-28 67z" glyph-name="gdotaccent" horiz-adv-x="1294" unicode="ġ"/><glyph d="M858 -455h-16q-45 2 -75 33t-30 74q0 45 31 76.5t76 31.5q47 0 78.5 -35.5t31.5 -99.5q0 -266 -221 -393q-16 -8 -20 2l-25 37q-8 10 6 22q150 96 164 252zM817 1460v-119q-240 -8 -408.5 -196.5t-168.5 -428t167.5 -428t409.5 -196.5v-119q-297 4 -505 223.5t-208 520.5 q0 299 207 517t506 226zM858 1341v119q143 -6 277.5 -61.5t232.5 -147.5q18 -18 -2 -39l-51 -55q-18 -20 -41 0q-70 70 -185.5 124t-230.5 60zM858 -27v119q248 8 426 172v357h-424q-29 0 -29 28v62q0 29 29 28h529q29 0 28 -28v-449q0 -41 -33 -74q-96 -94 -238.5 -152.5 t-287.5 -62.5z" glyph-name="Gcommaaccent" horiz-adv-x="1550" unicode="Ģ"/><glyph d="M621 1440h16q45 0 75.5 -31t30.5 -76q0 -43 -30.5 -74.5t-75.5 -31.5q-49 0 -81 35.5t-32 99.5q0 266 221 393q16 8 21 -2l25 -37q6 -12 -7 -22q-149 -96 -163 -254zM967 57v953q12 33 41 32h59q27 0 27 -28v-944q0 -575 -471 -576q-205 0 -402 72q-25 10 -16 33l16 63 q8 27 31 16q4 -2 28.5 -11t38 -13t40 -12.5t50 -12.5t55.5 -10t67.5 -8t74.5 -2q104 0 177 34.5t112 98t55.5 140.5t16.5 175zM926 891v-170q-106 229 -328 229q-168 0 -268.5 -122.5t-100.5 -307.5q0 -172 101.5 -299t267.5 -127q98 0 187 57.5t141 172.5v-166 q-127 -180 -351 -181q-213 0 -343 156t-130 387q0 229 130 387t343 158q113 0 204.5 -48t146.5 -126z" glyph-name="gcommaaccent" horiz-adv-x="1294" unicode="ģ"/><glyph d="M354 1405v-1376q0 -16 -6 -22.5t-22 -6.5h-76q-16 0 -22.5 6t-6.5 23v1376q0 16 6 22.5t23 6.5h76q16 0 22 -6.5t6 -22.5zM1331 819h-133v586q0 16 6 22.5t23 6.5h76q16 0 22 -6.5t6 -22.5v-586zM393 780h938v-751q0 -16 -6 -22.5t-22 -6.5h-76q-16 0 -22.5 6t-6.5 23 v630h-805v121zM756 1933h43q18 0 39 -28l219 -312q18 -29 -13 -28h-51q-31 0 -47 28l-168 252l-170 -252q-16 -29 -47 -28h-51q-31 0 -12 28l219 312q19 28 39 28z" glyph-name="Hcircumflex" horiz-adv-x="1552" unicode="Ĥ"/><glyph d="M330 1483v-1454q0 -29 -27 -29h-74q-27 0 -26 29v1454q0 29 26 28h74q27 1 27 -28zM373 754v149q51 72 131 117t172 45q174 0 289.5 -114.5t115.5 -342.5v-579q0 -29 -26 -29h-74q-27 0 -27 29v540q0 182 -87 280.5t-222 98.5q-90 0 -162.5 -57t-109.5 -137zM246 1933h43 q18 0 39 -28l219 -312q18 -29 -12 -28h-52q-31 0 -47 28l-168 252l-170 -252q-16 -29 -47 -28h-51q-31 0 -12 28l219 312q19 28 39 28z" glyph-name="hcircumflex" horiz-adv-x="1232" unicode="ĥ"/><glyph d="M377 659v121h938v-751q0 -29 -29 -29h-78q-27 0 -26 29v630h-805zM336 1051v-1022q0 -29 -27 -29h-78q-29 0 -28 29v1022h-174q-29 0 -29 26v37q0 16 6 22.5t23 6.5h174v262q0 29 28 29h78q27 0 27 -29v-262h846v262q0 29 26 29h78q29 0 29 -29v-262h176q27 0 27 -29v-37 q0 -27 -27 -26h-176v-232h-133v232h-846z" glyph-name="Hbar" horiz-adv-x="1517" unicode="Ħ"/><glyph d="M393 727v166q121 172 295 172q182 0 286.5 -117t104.5 -352v-567q0 -29 -26 -29h-74q-27 0 -27 29v530q0 190 -76.5 289.5t-209.5 99.5q-70 0 -145 -50t-128 -171zM352 1178v-1149q0 -29 -26 -29h-74q-27 0 -27 29v1149h-121q-29 0 -28 26v39q0 27 28 27h121v182 q0 29 27 29h74q27 0 26 -29v-182h275q29 0 28 -27v-39q0 -27 -28 -26h-275z" glyph-name="hbar" horiz-adv-x="1224" unicode="ħ"/><glyph d="M227 29v1376q0 16 6.5 22.5t22.5 6.5h76q29 0 28 -29v-1376q0 -16 -6 -22.5t-22 -6.5h-76q-16 0 -22.5 6.5t-6.5 22.5zM446 1759q53 0 83 21.5t53 79.5q12 31 41 20l34 -14q25 -10 13 -43q-68 -160 -211 -160q-96 0 -176 72q-49 43 -77 58t-63 15q-51 0 -80.5 -22.5 t-54.5 -79.5q-12 -31 -41 -18l-33 14q-27 12 -12 43q66 158 211 158q88 0 180 -76q47 -41 72.5 -54.5t60.5 -13.5z" glyph-name="Itilde" horiz-adv-x="589" unicode="Ĩ"/><glyph d="M233 29v985q0 29 29 28h72q27 0 26 -28v-985q0 -29 -26 -29h-72q-29 0 -29 29zM451 1368q53 0 82.5 21.5t52.5 78.5q12 31 41 21l35 -14q25 -10 12 -43q-68 -160 -211 -160q-96 0 -176 71q-49 43 -77 58.5t-63 15.5q-51 0 -80.5 -22.5t-54.5 -79.5q-12 -31 -41 -19 l-32 15q-27 12 -13 43q66 158 211 157q88 0 180 -75q47 -41 73 -54.5t61 -13.5z" glyph-name="itilde" horiz-adv-x="598" unicode="ĩ"/><glyph d="M240 29v1376q0 16 6 22.5t22 6.5h76q29 0 29 -29v-1376q0 -16 -6.5 -22.5t-22.5 -6.5h-76q-16 0 -22 6.5t-6 22.5zM553 1753h-494q-29 0 -28 27v43q0 16 6 22t22 6h494q16 0 22.5 -6t6.5 -22v-43q0 -27 -29 -27z" glyph-name="Imacron" horiz-adv-x="612" unicode="Ī"/><glyph d="M233 29v985q0 29 29 28h72q27 0 26 -28v-985q0 -29 -26 -29h-72q-29 0 -29 29zM547 1362h-494q-29 0 -28 27v43q0 16 6 22t22 6h494q16 0 22 -6t6 -22v-43q1 -27 -28 -27z" glyph-name="imacron" horiz-adv-x="598" unicode="ī"/><glyph d="M221 29v1376q0 16 6 22.5t23 6.5h76q29 0 28 -29v-1376q0 -16 -6 -22.5t-22 -6.5h-76q-16 0 -22.5 6.5t-6.5 22.5zM287 1659q-205 0 -283 182q-14 31 6 39l45 25q18 8 31 -15q33 -78 77 -108.5t124 -30.5q78 0 124 30.5t78 108.5q8 23 29 15l45 -25q20 -8 6 -39 q-75 -182 -282 -182z" glyph-name="Ibreve" horiz-adv-x="575" unicode="Ĭ"/><glyph d="M217 29v985q0 29 29 28h71q27 0 27 -28v-985q0 -29 -27 -29h-71q-29 0 -29 29zM281 1268q-205 0 -283 182q-14 31 6 39l45 24q18 8 31 -14q33 -78 77 -108.5t123.5 -30.5t125 30.5t77.5 108.5q8 23 29 14l45 -24q20 -8 6 -39q-75 -182 -282 -182z" glyph-name="ibreve" horiz-adv-x="563" unicode="ĭ"/><glyph d="M240 47v1358q0 16 6 22.5t22 6.5h76q29 0 29 -29v-1376q0 -16 -6.5 -22.5t-22.5 -6.5h-4q-53 -6 -116.5 -54t-63.5 -124q0 -156 119 -156q23 0 92 4q29 0 28 -24v-23q0 -27 -28 -29q-49 -4 -105 -4q-80 0 -134 52.5t-54 162.5q0 156 188 220h-10q-16 -1 -16 22z" glyph-name="Iogonek" horiz-adv-x="612" unicode="Į"/><glyph d="M238 47v967q0 16 6 22t22 6h70q29 0 29 -28v-985q0 -29 -25 -29q-53 -6 -117.5 -54t-64.5 -124q0 -156 118 -156q23 0 93 4q29 0 28 -24v-23q0 -27 -28 -29q-47 -4 -103 -4q-82 0 -136 52.5t-54 162.5q0 86 56 139.5t132 80.5h-10q-16 -1 -16 22zM207 1389 q0 41 27.5 68.5t66.5 27.5t66.5 -29t27.5 -67.5t-27.5 -66.5t-66.5 -28t-66.5 28t-27.5 67z" glyph-name="iogonek" horiz-adv-x="587" unicode="į"/><glyph d="M250 29v1376q0 16 6 22.5t23 6.5h75q29 0 29 -29v-1376q0 -16 -6 -22.5t-23 -6.5h-75q-16 0 -22.5 6.5t-6.5 22.5zM221 1782q0 41 27.5 68.5t66.5 27.5t68 -28.5t29 -67.5t-29 -66.5t-68 -27.5t-66.5 27.5t-27.5 66.5z" glyph-name="Idotaccent" horiz-adv-x="630" unicode="İ"/><glyph d="M217 29v985q0 29 29 28h71q27 0 27 -28v-985q0 -29 -27 -29h-71q-29 0 -29 29z" glyph-name="dotlessi" horiz-adv-x="563" unicode="ı"/><glyph d="M221 29v1376q0 16 6 22.5t23 6.5h76q29 0 28 -29v-1376q0 -16 -6 -22.5t-22 -6.5h-76q-16 0 -22.5 6.5t-6.5 22.5zM1192 1284h133v-727q0 -317 -160.5 -449.5t-466.5 -134.5q-20 0 -27 6.5t-12 22.5l-6 64q-2 16 6.5 23t28.5 7q248 0 376 105.5t128 355.5v727zM1325 1325 h-473q-16 0 -22.5 6t-6.5 23v51q0 16 6.5 22.5t22.5 6.5h446q27 0 27 -29v-80z" glyph-name="IJ" horiz-adv-x="1484" unicode="Ĳ"/><glyph d="M254 29v985q0 16 6 22t23 6h69q29 0 29 -28v-985q0 -16 -6 -22.5t-23 -6.5h-69q-16 0 -22.5 6.5t-6.5 22.5zM221 1389q0 41 27.5 68.5t66.5 27.5t68 -29t29 -67.5t-29 -66.5t-68 -28t-66.5 28t-27.5 67zM1036 1389q0 41 29 68.5t67.5 27.5t66.5 -29t28 -67.5t-28 -66.5 t-66.5 -28t-67.5 28t-29 67zM1200 934h-426q-29 0 -29 29v51q0 29 29 28h400q27 0 26 -28v-80zM1075 895h125v-922q0 -225 -85 -340.5t-279 -115.5q-121 0 -203 53q-18 10 -12 35l12 51q4 20 11 23.5t22 -7.5q66 -39 159 -39q133 0 191.5 80t58.5 271v911z" glyph-name="ij" horiz-adv-x="1431" unicode="ĳ"/><glyph d="M623 1284h133v-727q0 -317 -161 -449.5t-466 -134.5q-20 0 -27.5 6.5t-11.5 22.5l-6 64q-2 16 6 23t29 7q248 0 376 105.5t128 355.5v727zM756 1325h-473q-16 0 -22.5 6t-6.5 23v51q0 16 6 22.5t23 6.5h446q27 0 27 -29v-80zM485 1933h43q16 0 39 -28l219 -312 q18 -29 -12 -28h-51q-31 0 -47 28l-168 252l-170 -252q-16 -29 -47 -28h-51q-31 0 -13 28l219 312q19 28 39 28z" glyph-name="Jcircumflex" horiz-adv-x="954" unicode="Ĵ"/><glyph d="M547 934h-426q-29 0 -29 29v51q0 29 29 28h399q27 0 27 -28v-80zM422 895h125v-922q0 -225 -85 -340.5t-280 -115.5q-121 0 -202 53q-18 10 -13 35l13 51q4 20 11 23.5t21 -7.5q66 -39 160 -39q133 0 191.5 80t58.5 271v911zM317 1542h43q16 0 39 -29l219 -311 q18 -29 -12 -28h-51q-31 0 -47 28l-168 252l-170 -252q-16 -29 -47 -28h-51q-31 0 -13 28l220 311q18 29 38 29z" glyph-name="jcircumflex" horiz-adv-x="829" unicode="ĵ"/><glyph d="M721 -455h-19q-45 2 -74.5 33t-29.5 74q0 45 30.5 76.5t76.5 31.5q49 0 79.5 -35.5t30.5 -99.5q0 -268 -221 -393q-12 -8 -21 2l-24 37q-6 12 6 22q152 96 166 252zM1212 1405l-786 -748l-31 29v115l647 604q29 29 54 29h106q14 0 18 -7.5t-8 -21.5zM453 631l90 86 l714 -688q12 -16 8.5 -22.5t-16.5 -6.5h-116q-20 0 -50 29zM356 1405v-1376q0 -18 -6 -23.5t-22 -5.5h-78q-16 0 -22.5 6t-6.5 23v1376q0 16 6 22.5t23 6.5h78q28 0 28 -29z" glyph-name="Kcommaaccent" horiz-adv-x="1323" unicode="Ķ"/><glyph d="M608 -455h-16q-45 2 -76 33t-31 74q0 45 31 76.5t76 31.5q49 0 81 -35.5t32 -99.5q0 -266 -222 -393q-14 -8 -22 2l-23 37q-8 12 6 22q150 96 164 252zM334 1483v-1454q0 -29 -27 -29h-71q-29 0 -29 29v1454q0 29 29 28h71q27 1 27 -28zM430 426l92 86l510 -483 q23 -29 -8 -29h-106q-23 0 -50 29zM377 477v121l465 416q27 29 49 28h102q14 0 17.5 -9t-9.5 -19l-602 -557z" glyph-name="kcommaaccent" horiz-adv-x="1118" unicode="ķ"/><glyph d="M334 1014v-985q0 -29 -27 -29h-71q-29 0 -29 29v985q0 29 29 28h71q27 1 27 -28zM430 426l92 86l510 -483q23 -29 -8 -29h-106q-23 0 -50 29zM377 477v121l465 416q27 29 49 28h102q14 0 17.5 -9t-9.5 -19l-602 -557z" glyph-name="kgreenlandic" horiz-adv-x="1118" unicode="ĸ"/><glyph d="M383 0v117h688q29 0 29 -27v-61q0 -29 -29 -29h-688zM344 1405v-1405h-104q-16 0 -22.5 6t-6.5 23v1376q0 16 6 22.5t23 6.5h75q16 0 22.5 -6.5t6.5 -22.5zM584 1780l-199 -187q-18 -18 -47 -18h-68q-14 0 -16 7t10 22l256 268q18 20 35 -6l33 -51q10 -21 -4 -35z" glyph-name="Lacute" horiz-adv-x="1167" unicode="Ĺ"/><glyph d="M244 29v1454q0 16 6 22t22 6h70q29 0 29 -28v-1454q0 -16 -6.5 -22.5t-22.5 -6.5h-70q-16 0 -22 6.5t-6 22.5zM547 1780l-199 -187q-18 -18 -47 -18h-68q-14 0 -16 7t10 22l256 268q18 20 35 -6l33 -51q10 -21 -4 -35z" glyph-name="lacute" horiz-adv-x="581" unicode="ĺ"/><glyph d="M686 -455h-16q-45 2 -75 33t-30 74q0 45 31 76.5t76 31.5q47 0 78.5 -35.5t31.5 -99.5q0 -266 -221 -393q-16 -8 -20 2l-25 37q-6 12 6 22q150 96 164 252zM383 0v117h688q29 0 29 -27v-61q0 -29 -29 -29h-688zM344 1405v-1405h-104q-16 0 -22.5 6t-6.5 23v1376 q0 16 6 22.5t23 6.5h75q16 0 22.5 -6.5t6.5 -22.5z" glyph-name="Lcommaaccent" horiz-adv-x="1167" unicode="Ļ"/><glyph d="M289 -455h-17q-45 2 -75.5 33t-30.5 74q0 45 30.5 76.5t75.5 31.5q49 0 81 -35.5t32 -99.5q0 -266 -221 -393q-14 -8 -23 2l-22 37q-8 12 6 22q150 96 164 252zM213 29v1454q0 16 6 22t23 6h69q29 0 29 -28v-1454q0 -16 -6 -22.5t-23 -6.5h-69q-16 0 -22.5 6.5t-6.5 22.5 z" glyph-name="lcommaaccent" horiz-adv-x="550" unicode="ļ"/><glyph d="M1028 1225h-18q-45 2 -75 31.5t-30 74.5t31 77t76 32q49 0 79.5 -36t30.5 -99q0 -268 -221 -394q-12 -8 -20 2l-25 37q-6 12 6 23q152 96 166 252zM383 0v117h688q29 0 29 -27v-61q0 -29 -29 -29h-688zM344 1405v-1405h-104q-16 0 -22.5 6t-6.5 23v1376q0 16 6 22.5 t23 6.5h75q16 0 22.5 -6.5t6.5 -22.5z" glyph-name="Lcaron" horiz-adv-x="1196" unicode="Ľ"/><glyph d="M737 1296h-18q-45 2 -75 32t-30 75t31 76.5t76 31.5q49 0 79.5 -35.5t30.5 -99.5q0 -268 -221 -393q-12 -8 -20 2l-25 37q-6 12 6 22q152 96 166 252zM211 29v1454q0 16 6 22t23 6h69q29 0 29 -28v-1454q0 -16 -6 -22.5t-23 -6.5h-69q-16 0 -22.5 6.5t-6.5 22.5z" glyph-name="lcaron" horiz-adv-x="727" unicode="ľ"/><glyph d="M383 0v117h688q29 0 29 -27v-61q0 -29 -29 -29h-688zM344 1405v-1405h-104q-16 0 -22.5 6t-6.5 23v1376q0 16 6 22.5t23 6.5h75q16 0 22.5 -6.5t6.5 -22.5zM911 709q0 41 28 68.5t66.5 27.5t67.5 -28.5t29 -67.5t-29 -67t-67.5 -28t-66.5 28t-28 67z" glyph-name="Ldot" horiz-adv-x="1175" unicode="Ŀ"/><glyph d="M221 29v1454q0 16 6 22t23 6h69q29 0 29 -28v-1454q0 -16 -6 -22.5t-23 -6.5h-69q-16 0 -22.5 6.5t-6.5 22.5zM641 735q0 41 27.5 68.5t66.5 27.5t67.5 -28.5t28.5 -67.5t-28.5 -66.5t-67.5 -27.5t-66.5 27.5t-27.5 66.5z" glyph-name="ldot" horiz-adv-x="892" unicode="ŀ"/><glyph d="M406 0v117h700q27 0 27 -27v-61q0 -29 -27 -29h-700zM367 0h-105q-16 0 -22.5 6t-6.5 23v514l-141 -51q-27 -8 -37 18l-10 33q-10 27 16 35l172 61v766q0 16 6.5 22.5t22.5 6.5h76q16 0 22.5 -6.5t6.5 -22.5v-719l426 156q25 8 34 -19l11 -32q10 -27 -17 -35l-454 -166 v-590z" glyph-name="Lslash" horiz-adv-x="1202" unicode="Ł"/><glyph d="M289 29v567l-215 -78q-27 -8 -35 19l-12 32q-6 27 18 35l244 90v758q0 29 26 29h72q29 0 29 -29v-715l219 80q27 8 37 -18l10 -33q8 -27 -16 -35l-250 -90v-612q0 -29 -29 -29h-72q-26 0 -26 29z" glyph-name="lslash" horiz-adv-x="708" unicode="ł"/><glyph d="M1372 113v-123q0 -16 -16 -17h-8q-14 0 -29 17l-1102 1339v115q0 16 19 16h10q12 0 24 -12zM217 1268l133 -162v-1077q0 -29 -26 -29h-78q-29 0 -29 29v1239zM1372 174l-133 162v1069q0 29 29 29h75q29 0 29 -29v-1231zM993 1780l-198 -187q-18 -18 -47 -18h-68 q-14 0 -16 7t10 22l256 268q18 20 35 -6l32 -51q10 -21 -4 -35z" glyph-name="Nacute" horiz-adv-x="1589" unicode="Ń"/><glyph d="M338 961v-932q0 -29 -27 -29h-73q-27 0 -27 29v985q0 29 27 28h43q33 0 41 -20zM379 754v149q123 162 303 162q174 0 291 -115.5t117 -341.5v-579q0 -29 -27 -29h-74q-27 0 -26 29v540q0 182 -87.5 280.5t-224.5 98.5q-82 0 -155.5 -50t-116.5 -144zM805 1389l-199 -187 q-18 -18 -47 -18h-67q-14 0 -16.5 7t9.5 21l256 269q18 20 35 -6l33 -52q10 -20 -4 -34z" glyph-name="nacute" unicode="ń"/><glyph d="M825 -455h-16q-45 2 -74.5 33t-29.5 74q0 45 30.5 76.5t75.5 31.5q47 0 79 -35.5t32 -99.5q0 -266 -222 -393q-16 -8 -20 2l-25 37q-6 12 7 22q153 96 163 252zM1372 113v-123q0 -16 -16 -17h-8q-14 0 -29 17l-1102 1339v115q0 16 19 16h10q12 0 24 -12zM217 1268 l133 -162v-1077q0 -29 -26 -29h-78q-29 0 -29 29v1239zM1372 174l-133 162v1069q0 29 29 29h75q29 0 29 -29v-1231z" glyph-name="Ncommaaccent" horiz-adv-x="1589" unicode="Ņ"/><glyph d="M682 -455h-18q-45 2 -75 33t-30 74q0 45 31 76.5t76 31.5q49 0 79.5 -35.5t30.5 -99.5q0 -268 -221 -393q-12 -8 -20 2l-25 37q-6 12 6 22q152 96 166 252zM338 961v-932q0 -29 -27 -29h-73q-27 0 -27 29v985q0 29 27 28h43q33 0 41 -20zM379 754v149q123 162 303 162 q174 0 291 -115.5t117 -341.5v-579q0 -29 -27 -29h-74q-27 0 -26 29v540q0 182 -87.5 280.5t-224.5 98.5q-82 0 -155.5 -50t-116.5 -144z" glyph-name="ncommaaccent" unicode="ņ"/><glyph d="M1372 113v-123q0 -16 -16 -17h-8q-14 0 -29 17l-1102 1339v115q0 16 19 16h10q12 0 24 -12zM217 1268l133 -162v-1077q0 -29 -26 -29h-78q-29 0 -29 29v1239zM1372 174l-133 162v1069q0 29 29 29h75q29 0 29 -29v-1231zM809 1565h-43q-20 0 -39 28l-219 312q-18 29 12 28 h51q31 0 47 -28l170 -252l168 252q16 29 48 28h51q31 0 12 -28l-219 -312q-21 -28 -39 -28z" glyph-name="Ncaron" horiz-adv-x="1589" unicode="Ň"/><glyph d="M338 961v-932q0 -29 -27 -29h-73q-27 0 -27 29v985q0 29 27 28h43q33 0 41 -20zM379 754v149q123 162 303 162q174 0 291 -115.5t117 -341.5v-579q0 -29 -27 -29h-74q-27 0 -26 29v540q0 182 -87.5 280.5t-224.5 98.5q-82 0 -155.5 -50t-116.5 -144zM666 1174h-43 q-20 0 -39 28l-219 311q-18 29 12 29h51q31 0 47 -29l170 -251l168 251q16 29 47 29h51q31 0 13 -29l-219 -311q-21 -28 -39 -28z" glyph-name="ncaron" unicode="ň"/><glyph d="M156 1524h-17q-45 0 -75.5 30.5t-30.5 75.5q0 43 30.5 75t75.5 32q49 0 81 -36t32 -99q0 -266 -221 -394q-14 -8 -23 2l-22 37q-8 12 6 23q150 96 164 254zM315 961v-932q0 -29 -26 -29h-74q-27 0 -27 29v985q0 29 27 28h43q33 0 41 -20zM356 754v149q123 162 303 162 q174 0 291 -115.5t117 -341.5v-579q0 -29 -27 -29h-73q-27 0 -27 29v540q0 182 -87 280.5t-224 98.5q-82 0 -156 -50t-117 -144z" glyph-name="napostrophe" horiz-adv-x="1218" unicode="ŉ"/><glyph d="M1372 113v-74v-41q-16 -258 -172 -378t-452 -120q-20 0 -27.5 6.5t-11.5 22.5l-7 63q-2 16 6.5 24.5t28.5 8.5q260 0 372 99.5t126 341.5l-1018 1263v115q0 16 19 16h10q12 0 24 -12zM1372 174l-133 162v1069q0 16 6 22.5t23 6.5h75q16 0 22.5 -6.5t6.5 -22.5v-1231z M217 1268l133 -162v-1077q0 -29 -26 -29h-78q-29 0 -29 29v1239z" glyph-name="Eng" horiz-adv-x="1589" unicode="Ŋ"/><glyph d="M322 1022l16 -59v-934q0 -29 -27 -29h-73q-27 0 -27 29v985q0 29 27 28h43q33 0 41 -20zM399 793v139q121 133 283 133q174 0 291 -115.5t117 -341.5v-635q0 -225 -85 -340.5t-280 -115.5q-121 0 -203 53q-18 10 -12 35l12 51q4 20 10.5 22.5t22.5 -6.5q63 -39 158 -39 q133 0 191.5 80t58.5 271v585q0 182 -87.5 280.5t-224.5 98.5q-154 1 -252 -155z" glyph-name="eng" unicode="ŋ"/><glyph d="M819 92v-119q-299 8 -507 226.5t-208 517.5q0 195 94.5 363.5t259.5 271t361 108.5v-119q-160 -6 -294 -97t-209.5 -231.5t-75.5 -295.5q0 -238 169.5 -427.5t409.5 -197.5zM858 -27v119q242 10 410 198.5t168 426t-168 425t-410 199.5v119q297 -8 505 -227t208 -516 q0 -195 -94.5 -364t-258 -271.5t-360.5 -108.5zM1085 1753h-493q-29 0 -29 27v43q0 16 6 22t23 6h493q16 0 22.5 -6t6.5 -22v-43q0 -27 -29 -27z" glyph-name="Omacron" horiz-adv-x="1675" unicode="Ō"/><glyph d="M618 92v-115q-215 8 -365.5 167t-150.5 376q0 219 150.5 378t365.5 167v-117q-160 -8 -274.5 -131t-114.5 -297q0 -172 112.5 -296t276.5 -132zM659 -23v115q166 8 279 132t113 296q0 170 -113 295t-279 133v117q219 -8 369 -167t150 -378q0 -217 -150 -376t-369 -167z M887 1362h-494q-29 0 -28 27v43q0 16 6 22t22 6h494q16 0 22 -6t6 -22v-43q1 -27 -28 -27z" glyph-name="omacron" horiz-adv-x="1280" unicode="ō"/><glyph d="M819 92v-119q-299 8 -507 226.5t-208 517.5q0 195 94.5 363.5t259.5 271t361 108.5v-119q-160 -6 -294 -97t-209.5 -231.5t-75.5 -295.5q0 -238 169.5 -427.5t409.5 -197.5zM858 -27v119q242 10 410 198.5t168 426t-168 425t-410 199.5v119q297 -8 505 -227t208 -516 q0 -195 -94.5 -364t-258 -271.5t-360.5 -108.5zM838 1659q-205 0 -283 182q-14 31 6 39l45 25q18 8 31 -15q33 -78 77 -108.5t124 -30.5t125 30.5t77 108.5q8 23 29 15l45 -25q20 -8 6 -39q-75 -182 -282 -182z" glyph-name="Obreve" horiz-adv-x="1675" unicode="Ŏ"/><glyph d="M618 92v-115q-215 8 -365.5 167t-150.5 376q0 219 150.5 378t365.5 167v-117q-160 -8 -274.5 -131t-114.5 -297q0 -172 112.5 -296t276.5 -132zM659 -23v115q166 8 279 132t113 296q0 170 -113 295t-279 133v117q219 -8 369 -167t150 -378q0 -217 -150 -376t-369 -167z M639 1268q-205 0 -283 182q-14 31 6 39l46 24q18 8 30 -14q33 -78 77 -108.5t124 -30.5q78 0 124 30.5t79 108.5q8 23 28 14l45 -24q20 -8 7 -39q-76 -182 -283 -182z" glyph-name="obreve" horiz-adv-x="1280" unicode="ŏ"/><glyph d="M819 92v-119q-299 8 -507 226.5t-208 517.5q0 195 94.5 363.5t259.5 271t361 108.5v-119q-160 -6 -294 -97t-209.5 -231.5t-75.5 -295.5q0 -238 169.5 -427.5t409.5 -197.5zM858 -27v119q242 10 410 198.5t168 426t-168 425t-410 199.5v119q297 -8 505 -227t208 -516 q0 -195 -94.5 -364t-258 -271.5t-360.5 -108.5zM930 1800l-178 -211q-18 -25 -54 -24h-59q-33 0 -4 30l250 291q20 23 37 -6l16 -25q17 -24 -8 -55zM1198 1800l-178 -211q-18 -25 -53 -24h-60q-31 0 -4 30l250 291q20 23 37 -6l16 -25q17 -24 -8 -55z" glyph-name="Ohungarumlaut" horiz-adv-x="1675" unicode="Ő"/><glyph d="M618 92v-115q-215 8 -365.5 167t-150.5 376q0 219 150.5 378t365.5 167v-117q-160 -8 -274.5 -131t-114.5 -297q0 -172 112.5 -296t276.5 -132zM659 -23v115q166 8 279 132t113 296q0 170 -113 295t-279 133v117q219 -8 369 -167t150 -378q0 -217 -150 -376t-369 -167z M729 1409l-178 -211q-18 -25 -53 -24h-60q-33 0 -4 30l250 291q20 23 37 -6l16 -25q17 -24 -8 -55zM997 1409l-178 -211q-18 -25 -53 -24h-59q-31 0 -5 30l250 291q20 23 37 -6l17 -25q16 -24 -9 -55z" glyph-name="ohungarumlaut" horiz-adv-x="1280" unicode="ő"/><glyph d="M1550 715q0 -283 -196.5 -502t-495.5 -240v119q236 14 394.5 200.5t158.5 424t-158.5 424t-394.5 200.5v119q193 -10 352.5 -117.5t249.5 -274.5t90 -353zM1589 666v116h488q29 0 28 -26v-62q0 -16 -6 -22t-22 -6h-488zM1296 117h828q29 0 28 -27v-61q0 -29 -28 -29h-994 q107 47 166 117zM817 92v-119q-299 4 -506 221.5t-207 520.5t208 523t505 222v-119q-240 -6 -406.5 -194.5t-166.5 -432t165.5 -430t407.5 -192.5zM2124 1315l-828 2q-66 72 -163 117h991q29 0 28 -29v-62q1 -28 -28 -28z" glyph-name="OE" horiz-adv-x="2279" unicode="Œ"/><glyph d="M1124 473v92h645q-4 160 -103 271.5t-255 117.5v111q160 -2 274.5 -90t165 -211t50.5 -262q0 -29 -27 -29h-750zM1083 760v-477q35 -88 132.5 -140.5t195.5 -52.5q195 0 336 111q25 16 41 -2l33 -37q18 -25 0 -39q-72 -70 -184.5 -108t-231.5 -38q-229 0 -387 154 q-152 -147 -359 -154v115q98 6 177 58.5t122 132.5v475q-43 80 -122.5 133t-176.5 57v117q207 -6 359 -154q147 141 352 154v-111q-92 -4 -169 -59t-118 -135zM618 92v-115q-217 8 -366.5 167t-149.5 376t147.5 376t368.5 169v-117q-166 -8 -277.5 -132t-111.5 -296 t111.5 -296t277.5 -132z" glyph-name="oe" horiz-adv-x="1990" unicode="œ"/><glyph d="M344 1434v-1405q0 -18 -6 -23.5t-23 -5.5h-75q-16 0 -22.5 5t-6.5 24v1376q0 29 29 29h104zM918 541l4 -6l362 -502q20 -33 -22 -33h-78q-29 0 -47 29l-361 497h27q72 1 115 15zM725 559h-342v117h332q373 0 372 328q0 160 -99 236.5t-273 76.5h-332v117h342 q94 0 177 -21.5t157 -69t117 -134.5t43 -205q0 -158 -74 -261.5t-180.5 -143.5t-239.5 -40zM856 1780l-199 -187q-18 -18 -47 -18h-67q-14 0 -16.5 7t10.5 22l256 268q18 20 34 -6l33 -51q10 -21 -4 -35z" glyph-name="Racute" horiz-adv-x="1370" unicode="Ŕ"/><glyph d="M377 725v156q127 186 389 184q31 0 25 -25l-11 -73q-4 -27 -32 -27q-262 0 -371 -215zM338 1006v-977q0 -29 -27 -29h-73q-27 0 -27 29v985q0 29 27 28h43q23 0 33 -6.5t24 -29.5zM717 1389l-199 -187q-18 -18 -47 -18h-68q-14 0 -16 7t10 21l256 269q18 20 35 -6l33 -52 q10 -20 -4 -34z" glyph-name="racute" horiz-adv-x="843" unicode="ŕ"/><glyph d="M733 -455h-16q-45 2 -76 33t-31 74q0 45 31 76.5t76 31.5q49 0 80.5 -35.5t31.5 -99.5q0 -266 -221 -393q-14 -8 -22 2l-23 37q-10 12 6 22q150 96 164 252zM344 1434v-1405q0 -18 -6 -23.5t-23 -5.5h-75q-16 0 -22.5 5t-6.5 24v1376q0 29 29 29h104zM918 541l4 -6 l362 -502q20 -33 -22 -33h-78q-29 0 -47 29l-361 497h27q72 1 115 15zM725 559h-342v117h332q373 0 372 328q0 160 -99 236.5t-273 76.5h-332v117h342q94 0 177 -21.5t157 -69t117 -134.5t43 -205q0 -158 -74 -261.5t-180.5 -143.5t-239.5 -40z" glyph-name="Rcommaaccent" horiz-adv-x="1370" unicode="Ŗ"/><glyph d="M276 -455h-16q-45 2 -74.5 33t-29.5 74q0 45 30.5 76.5t75.5 31.5q47 0 79 -35.5t32 -99.5q0 -266 -221 -393q-16 -8 -21 2l-25 37q-6 12 7 22q149 96 163 252zM344 725v156q127 186 389 184q31 0 25 -25l-10 -73q-4 -27 -33 -27q-262 0 -371 -215zM305 1006v-977 q0 -29 -26 -29h-74q-27 0 -27 29v985q0 29 27 28h43q23 0 33 -6.5t24 -29.5z" glyph-name="rcommaaccent" horiz-adv-x="808" unicode="ŗ"/><glyph d="M344 1434v-1405q0 -18 -6 -23.5t-23 -5.5h-75q-16 0 -22.5 5t-6.5 24v1376q0 29 29 29h104zM918 541l4 -6l362 -502q20 -33 -22 -33h-78q-29 0 -47 29l-361 497h27q72 1 115 15zM725 559h-342v117h332q373 0 372 328q0 160 -99 236.5t-273 76.5h-332v117h342 q94 0 177 -21.5t157 -69t117 -134.5t43 -205q0 -158 -74 -261.5t-180.5 -143.5t-239.5 -40zM684 1565h-43q-20 0 -39 28l-219 312q-18 29 12 28h51q31 0 48 -28l170 -252l167 252q16 29 48 28h51q31 0 12 -28l-219 -312q-23 -28 -39 -28z" glyph-name="Rcaron" horiz-adv-x="1370" unicode="Ř"/><glyph d="M287 725v156q127 186 389 184q31 0 24 -25l-10 -73q-4 -27 -33 -27q-261 0 -370 -215zM248 1006v-977q0 -29 -27 -29h-74q-27 0 -26 29v985q0 29 26 28h43q23 0 33.5 -6.5t24.5 -29.5zM424 1174h-43q-20 0 -39 28l-219 311q-18 29 12 29h51q31 0 47 -29l170 -251l168 251 q16 29 47 29h52q31 0 12 -29l-219 -311q-21 -28 -39 -28z" glyph-name="rcaron" horiz-adv-x="749" unicode="ř"/><glyph d="M631 96v-119q-293 10 -508 158q-20 14 -8 41l32 53q16 25 41 9q92 -61 211 -99.5t232 -42.5zM637 1456v-121q-104 -2 -181 -33.5t-115 -79.5t-55.5 -93.5t-17.5 -90.5q0 -66 34 -111.5t101.5 -73.5t134 -42t169.5 -29q109 -14 189.5 -38.5t152 -66.5t108.5 -112.5 t37 -167.5q0 -174 -135 -298t-389 -122v119q170 4 281.5 75t111.5 222q0 127 -105.5 186.5t-332.5 92.5q-98 14 -172 33.5t-153 58.5t-121 107.5t-42 162.5q0 61 24.5 128t78 135.5t157 112.5t240.5 46zM676 1337v119q139 -4 248.5 -43t230.5 -113q20 -14 8 -40l-30 -52 q-16 -29 -41 -12q-207 139 -416 141zM866 1780l-198 -187q-18 -18 -47 -18h-68q-14 0 -16 7t10 22l256 268q18 20 35 -6l32 -51q10 -21 -4 -35z" glyph-name="Sacute" horiz-adv-x="1306" unicode="Ś"/><glyph d="M559 958v105q180 -10 340 -113q25 -14 10 -39l-22 -41q-12 -29 -39 -12q-158 98 -289 100zM537 -23v105q145 2 215.5 61.5t70.5 147.5q0 133 -305 178q-72 10 -119 19.5t-104 30t-91 48t-57.5 74.5t-23.5 109q0 143 106.5 230t290.5 85v-104q-135 2 -205.5 -55.5 t-70.5 -149.5q0 -84 66.5 -116t236.5 -56q397 -57 397 -287q0 -139 -108.5 -228.5t-298.5 -91.5zM496 82v-105q-209 12 -387 132q-20 12 -7 38l25 43q16 27 41 11q146 -107 328 -119zM737 1389l-198 -187q-18 -18 -47 -18h-68q-14 0 -16 7t10 21l256 269q18 20 35 -6l32 -52 q10 -20 -4 -34z" glyph-name="sacute" horiz-adv-x="1038" unicode="ś"/><glyph d="M631 96v-119q-293 10 -508 158q-20 14 -8 41l32 53q16 25 41 9q92 -61 211 -99.5t232 -42.5zM637 1456v-121q-104 -2 -181 -33.5t-115 -79.5t-55.5 -93.5t-17.5 -90.5q0 -66 34 -111.5t101.5 -73.5t134 -42t169.5 -29q109 -14 189.5 -38.5t152 -66.5t108.5 -112.5 t37 -167.5q0 -174 -135 -298t-389 -122v119q170 4 281.5 75t111.5 222q0 127 -105.5 186.5t-332.5 92.5q-98 14 -172 33.5t-153 58.5t-121 107.5t-42 162.5q0 61 24.5 128t78 135.5t157 112.5t240.5 46zM676 1337v119q139 -4 248.5 -43t230.5 -113q20 -14 8 -40l-30 -52 q-16 -29 -41 -12q-207 139 -416 141zM631 1933h43q18 0 39 -28l219 -312q18 -29 -12 -28h-52q-31 0 -47 28l-168 252l-170 -252q-16 -29 -47 -28h-51q-31 0 -12 28l219 312q19 28 39 28z" glyph-name="Scircumflex" horiz-adv-x="1306" unicode="Ŝ"/><glyph d="M559 958v105q180 -10 340 -113q25 -14 10 -39l-22 -41q-12 -29 -39 -12q-158 98 -289 100zM537 -23v105q145 2 215.5 61.5t70.5 147.5q0 133 -305 178q-72 10 -119 19.5t-104 30t-91 48t-57.5 74.5t-23.5 109q0 143 106.5 230t290.5 85v-104q-135 2 -205.5 -55.5 t-70.5 -149.5q0 -84 66.5 -116t236.5 -56q397 -57 397 -287q0 -139 -108.5 -228.5t-298.5 -91.5zM496 82v-105q-209 12 -387 132q-20 12 -7 38l25 43q16 27 41 11q146 -107 328 -119zM500 1542h43q18 0 39 -29l219 -311q18 -29 -13 -28h-51q-31 0 -47 28l-168 252l-170 -252 q-16 -29 -47 -28h-51q-31 0 -12 28l219 311q19 29 39 29z" glyph-name="scircumflex" horiz-adv-x="1038" unicode="ŝ"/><glyph d="M668 1337v119q236 -4 475 -153q27 -16 12 -43l-31 -52q-16 -29 -41 -12q-200 135 -415 141zM662 -23v119q172 4 282.5 75t110.5 222q0 127 -104.5 186.5t-332.5 92.5q-100 14 -173.5 33.5t-152.5 58.5t-121 107.5t-42 162.5q0 61 25.5 128t79 134.5t157 112.5t238.5 47 v-121q-104 -2 -181 -33.5t-115 -79.5t-55.5 -93.5t-17.5 -90.5q0 -66 34 -111.5t101.5 -73.5t134 -42t168.5 -29q109 -14 190 -38.5t152.5 -66.5t108.5 -112.5t37 -167.5q0 -174 -130 -296t-394 -124zM623 96v-116q-279 4 -496 151q-29 18 -12 45l32 53q14 25 39 9 q193 -132 437 -142zM547 -201l10 51q305 25 305 -182q0 -80 -52 -127t-140 -47q-94 0 -191 74q-20 16 -4 29l19 26q10 12 28 4q70 -53 156 -53q102 0 102 94q0 109 -141 109h-74q-18 -1 -18 22z" glyph-name="Scedilla" horiz-adv-x="1298" unicode="Ş"/><glyph d="M496 82v-105q-227 23 -387 132q-20 12 -7 38l25 43q16 27 41 11q144 -105 328 -119zM537 -23v105q145 2 215.5 61.5t70.5 147.5q0 133 -305 178q-72 10 -119 19.5t-104 30t-91 48t-57.5 74.5t-23.5 109q0 143 105.5 230t291.5 85v-104q-137 0 -206.5 -56.5t-69.5 -148.5 q0 -84 66.5 -116t236.5 -56q193 -29 295 -91.5t102 -195.5q0 -139 -105 -228.5t-302 -91.5zM559 958v105q180 -10 348 -117q20 -12 11 -41l-23 -41q-14 -27 -39 -12q-166 98 -297 106zM428 -199l10 52q305 25 305 -183q0 -80 -52 -127t-140 -47q-94 0 -191 74q-20 16 -4 29 l19 26q10 12 28 4q70 -53 156 -53q102 0 103 94q0 109 -142 109h-74q-18 -1 -18 22z" glyph-name="scedilla" horiz-adv-x="1038" unicode="ş"/><glyph d="M645 96v-119q-293 10 -508 158q-23 14 -8 41l33 53q16 25 41 9q92 -61 210.5 -99.5t231.5 -42.5zM651 1456v-121q-104 -2 -181 -33.5t-115 -79.5t-55 -93.5t-17 -90.5q0 -66 33.5 -111.5t101 -73.5t134 -42t169.5 -29q109 -14 189.5 -38.5t152.5 -66.5t108.5 -112.5 t36.5 -167.5q0 -174 -135 -298t-389 -122v119q170 4 281.5 75t111.5 222q0 127 -105.5 186.5t-332.5 92.5q-98 14 -172 33.5t-152.5 58.5t-120.5 107.5t-42 162.5q0 61 24.5 128t77.5 135.5t156.5 112.5t240.5 46zM690 1337v119q139 -4 249 -43t230 -113q20 -14 9 -40 l-31 -52q-16 -29 -41 -12q-207 139 -416 141zM690 1565h-43q-20 0 -39 28l-219 312q-18 29 12 28h52q31 0 47 -28l170 -252l168 252q16 29 47 28h51q31 0 12 -28l-219 -312q-21 -28 -39 -28z" glyph-name="Scaron" horiz-adv-x="1320" unicode="Š"/><glyph d="M559 958v105q180 -10 340 -113q25 -14 10 -39l-22 -41q-12 -29 -39 -12q-158 98 -289 100zM537 -23v105q145 2 215.5 61.5t70.5 147.5q0 133 -305 178q-72 10 -119 19.5t-104 30t-91 48t-57.5 74.5t-23.5 109q0 143 106.5 230t290.5 85v-104q-135 2 -205.5 -55.5 t-70.5 -149.5q0 -84 66.5 -116t236.5 -56q397 -57 397 -287q0 -139 -108.5 -228.5t-298.5 -91.5zM496 82v-105q-209 12 -387 132q-20 12 -7 38l25 43q16 27 41 11q146 -107 328 -119zM537 1174h-43q-20 0 -39 28l-219 311q-18 29 12 29h51q31 0 47 -29l170 -251l168 251 q16 29 47 29h51q31 0 13 -29l-220 -311q-22 -28 -38 -28z" glyph-name="scaron" horiz-adv-x="1038" unicode="š"/><glyph d="M631 -455h-17q-45 2 -75.5 33t-30.5 74q0 45 30.5 76.5t75.5 31.5q49 0 81 -35.5t32 -99.5q0 -266 -221 -393q-14 -8 -23 2l-22 37q-10 12 6 22q150 96 164 252zM727 1311v123h465q29 0 29 -29v-66q0 -29 -29 -28h-465zM686 1434v-1405q0 -29 -27 -29h-77q-29 0 -29 29 v1282h-504q-29 0 -29 28v66q0 16 6.5 22.5t22.5 6.5h637z" glyph-name="Tcommaaccent" unicode="Ţ"/><glyph d="M397 -455h-18q-45 2 -75 33t-30 74q0 45 31 76.5t76 31.5q47 0 79 -35.5t32 -99.5q0 -268 -222 -393q-14 -6 -20 2l-25 37q-6 12 6 22q152 96 166 252zM748 936h-623q-16 0 -22.5 6t-6.5 23v49q0 29 29 28h108v215q0 29 29 29h70q16 0 22 -6t6 -23v-215h388q29 0 28 -28 v-49q0 -16 -6 -22.5t-22 -6.5zM233 895h127v-451q0 -190 58.5 -270t191.5 -80q86 0 148 31q16 10 23 7t12 -19l12 -54q4 -23 -12 -34q-82 -47 -195 -48q-195 0 -280 116t-85 341v461z" glyph-name="tcommaaccent" horiz-adv-x="894" unicode="ţ"/><glyph d="M727 1311v123h465q29 0 29 -29v-66q0 -29 -29 -28h-465zM686 1434v-1405q0 -29 -27 -29h-77q-29 0 -29 29v1282h-504q-29 0 -29 28v66q0 16 6.5 22.5t22.5 6.5h637zM641 1565h-43q-20 0 -39 28l-219 312q-18 29 12 28h51q31 0 48 -28l170 -252l167 252q16 29 48 28h51 q31 0 12 -28l-219 -312q-21 -28 -39 -28z" glyph-name="Tcaron" unicode="Ť"/><glyph d="M1090 1522h-17q-45 2 -75.5 31.5t-30.5 74.5t30.5 77t75.5 32q49 0 81 -36t32 -99q0 -266 -221 -394q-16 -8 -21 2l-24 37q-8 10 6 23q150 96 164 252zM750 936h-623q-16 0 -22.5 6t-6.5 23v49q0 29 29 28h109v215q0 29 28 29h70q16 0 22 -6t6 -23v-215h388q29 0 28 -28 v-49q0 -16 -6 -22.5t-22 -6.5zM236 895h126v-451q0 -190 58.5 -270t191.5 -80q86 0 148 31q16 10 23.5 7t11.5 -19l12 -54q4 -23 -12 -34q-82 -47 -195 -48q-195 0 -279.5 116t-84.5 341v461z" glyph-name="tcaron" horiz-adv-x="966" unicode="ť"/><glyph d="M737 1311v123h477q29 0 29 -29v-66q0 -29 -29 -28h-477zM737 725v113h445q27 0 26 -27v-57q0 -29 -26 -29h-445zM698 1434v-1405q0 -29 -28 -29h-76q-29 0 -29 29v696h-483q-29 0 -29 29v57q0 27 29 27h483v473h-516q-29 0 -29 28v66q0 16 6.5 22.5t22.5 6.5h649z" glyph-name="Tbar" horiz-adv-x="1263" unicode="Ŧ"/><glyph d="M805 936h-676q-16 0 -22.5 6t-6.5 23v49q0 29 29 28h160v195q0 29 28 29h70q29 0 29 -29v-195h389q27 0 26 -28v-49q1 -29 -26 -29zM289 895h127v-238h389q27 0 26 -28v-49q0 -29 -26 -29h-389q0 -41 4 -139q6 -174 62.5 -246t183.5 -72q25 0 78 12.5t77 24.5 q16 8 23.5 6t11.5 -20l12 -51q6 -25 -12 -35q-82 -53 -203 -54q-182 0 -264 101.5t-94 304.5q-6 94 -6 168h-160q-16 0 -22.5 6t-6.5 23v49q0 29 29 28h160v238z" glyph-name="tbar" horiz-adv-x="962" unicode="ŧ"/><glyph d="M752 -27v119q186 6 302.5 130t116.5 378v805q0 16 6.5 22.5t22.5 6.5h78q16 0 21.5 -6.5t5.5 -22.5v-815q0 -295 -152.5 -453t-400.5 -164zM713 92v-119q-246 4 -400.5 164t-154.5 453v815q0 29 28 29h78q27 0 27 -29v-805q0 -260 120 -382t302 -126zM883 1759 q53 0 82.5 21.5t52.5 79.5q12 31 41 20l35 -14q25 -10 12 -43q-68 -160 -211 -160q-96 0 -176 72q-49 43 -77 58t-62 15q-51 0 -81 -22.5t-55 -79.5q-12 -31 -41 -18l-32 14q-27 12 -13 43q66 158 211 158q88 0 181 -76q47 -41 72.5 -54.5t60.5 -13.5z" glyph-name="Utilde" horiz-adv-x="1464" unicode="Ũ"/><glyph d="M903 82v932q0 29 27 28h74q27 0 26 -28v-985q0 -29 -26 -29h-43q-33 0 -41 20zM862 287v-148q-123 -162 -303 -162q-174 0 -290.5 116t-116.5 341v580q0 29 26 28h74q27 0 27 -28v-543q0 -182 87 -279.5t224 -97.5q82 0 155.5 50.5t116.5 142.5zM748 1368q53 0 82.5 21.5 t52.5 78.5q12 31 41 21l34 -14q25 -10 13 -43q-68 -160 -211 -160q-96 0 -176 71q-49 43 -77 58.5t-63 15.5q-51 0 -80.5 -22.5t-54.5 -79.5q-12 -31 -41 -19l-32 15q-27 12 -13 43q66 158 211 157q88 0 180 -75q47 -41 73 -54.5t61 -13.5z" glyph-name="utilde" unicode="ũ"/><glyph d="M752 -27v119q186 6 302.5 130t116.5 378v805q0 16 6.5 22.5t22.5 6.5h78q16 0 21.5 -6.5t5.5 -22.5v-815q0 -295 -152.5 -453t-400.5 -164zM713 92v-119q-246 4 -400.5 164t-154.5 453v815q0 29 28 29h78q27 0 27 -29v-805q0 -260 120 -382t302 -126zM979 1753h-494 q-29 0 -28 27v43q0 16 6 22t22 6h494q16 0 22.5 -6t6.5 -22v-43q0 -27 -29 -27z" glyph-name="Umacron" horiz-adv-x="1464" unicode="Ū"/><glyph d="M903 82v932q0 29 27 28h74q27 0 26 -28v-985q0 -29 -26 -29h-43q-33 0 -41 20zM862 287v-148q-123 -162 -303 -162q-174 0 -290.5 116t-116.5 341v580q0 29 26 28h74q27 0 27 -28v-543q0 -182 87 -279.5t224 -97.5q82 0 155.5 50.5t116.5 142.5zM836 1362h-494 q-29 0 -29 27v43q0 16 6.5 22t22.5 6h494q16 0 22 -6t6 -22v-43q1 -27 -28 -27z" glyph-name="umacron" unicode="ū"/><glyph d="M752 -27v119q186 6 302.5 130t116.5 378v805q0 16 6.5 22.5t22.5 6.5h78q16 0 21.5 -6.5t5.5 -22.5v-815q0 -295 -152.5 -453t-400.5 -164zM713 92v-119q-246 4 -400.5 164t-154.5 453v815q0 29 28 29h78q27 0 27 -29v-805q0 -260 120 -382t302 -126zM731 1659 q-205 0 -282 182q-14 31 6 39l45 25q18 8 30 -15q33 -78 77 -108.5t124 -30.5t125 30.5t78 108.5q8 23 29 15l45 -25q20 -8 6 -39q-76 -182 -283 -182z" glyph-name="Ubreve" horiz-adv-x="1464" unicode="Ŭ"/><glyph d="M903 82v932q0 29 27 28h74q27 0 26 -28v-985q0 -29 -26 -29h-43q-33 0 -41 20zM862 287v-148q-123 -162 -303 -162q-174 0 -290.5 116t-116.5 341v580q0 29 26 28h74q27 0 27 -28v-543q0 -182 87 -279.5t224 -97.5q82 0 155.5 50.5t116.5 142.5zM596 1268 q-205 0 -283 182q-14 31 6 39l46 24q18 8 30 -14q33 -78 77 -108.5t124 -30.5t125 30.5t78 108.5q8 23 28 14l45 -24q20 -8 7 -39q-76 -182 -283 -182z" glyph-name="ubreve" unicode="ŭ"/><glyph d="M752 -27v119q186 6 302.5 130t116.5 378v805q0 16 6.5 22.5t22.5 6.5h78q16 0 21.5 -6.5t5.5 -22.5v-815q0 -295 -152.5 -453t-400.5 -164zM713 92v-119q-246 4 -400.5 164t-154.5 453v815q0 29 28 29h78q27 0 27 -29v-805q0 -260 120 -382t302 -126zM731 1579 q-94 0 -154.5 62.5t-60.5 158.5t60.5 158.5t154.5 62.5t153.5 -62.5t59.5 -158.5t-59.5 -158.5t-153.5 -62.5zM731.5 1651q63.5 0 100 44t36.5 105.5t-35.5 104.5t-99 43t-102.5 -44t-39 -103.5t38 -104.5t101.5 -45z" glyph-name="Uring" horiz-adv-x="1464" unicode="Ů"/><glyph d="M903 82v932q0 29 27 28h74q27 0 26 -28v-985q0 -29 -26 -29h-43q-33 0 -41 20zM862 287v-148q-123 -162 -303 -162q-174 0 -290.5 116t-116.5 341v580q0 29 26 28h74q27 0 27 -28v-543q0 -182 87 -279.5t224 -97.5q82 0 155.5 50.5t116.5 142.5zM598 1188 q-94 0 -154.5 62.5t-60.5 158.5t60.5 158.5t154.5 62.5t153.5 -62.5t59.5 -158.5t-59.5 -158.5t-153.5 -62.5zM598.5 1260q63.5 0 100 44t36.5 105t-35.5 104t-99 43t-102.5 -44t-39 -103t38 -104t101.5 -45z" glyph-name="uring" unicode="ů"/><glyph d="M752 -27v119q186 6 302.5 130t116.5 378v805q0 16 6.5 22.5t22.5 6.5h78q16 0 21.5 -6.5t5.5 -22.5v-815q0 -295 -152.5 -453t-400.5 -164zM713 92v-119q-246 4 -400.5 164t-154.5 453v815q0 29 28 29h78q27 0 27 -29v-805q0 -260 120 -382t302 -126zM795 1800l-179 -211 q-18 -25 -53 -24h-59q-33 0 -4 30l250 291q20 23 36 -6l17 -25q17 -24 -8 -55zM1063 1800l-178 -211q-18 -25 -54 -24h-59q-31 0 -4 30l250 291q20 23 37 -6l16 -25q17 -24 -8 -55z" glyph-name="Uhungarumlaut" horiz-adv-x="1464" unicode="Ű"/><glyph d="M903 82v932q0 29 27 28h74q27 0 26 -28v-985q0 -29 -26 -29h-43q-33 0 -41 20zM862 287v-148q-123 -162 -303 -162q-174 0 -290.5 116t-116.5 341v580q0 29 26 28h74q27 0 27 -28v-543q0 -182 87 -279.5t224 -97.5q82 0 155.5 50.5t116.5 142.5zM668 1409l-179 -211 q-18 -25 -53 -24h-59q-33 0 -4 30l250 291q20 23 36 -6l17 -25q17 -24 -8 -55zM936 1409l-178 -211q-18 -25 -53 -24h-60q-31 0 -4 30l250 291q20 23 37 -6l16 -25q17 -24 -8 -55z" glyph-name="uhungarumlaut" unicode="ű"/><glyph d="M762 -27v119q188 10 298.5 136t110.5 372v805q0 16 6.5 22.5t22.5 6.5h78q16 0 21.5 -6.5t5.5 -22.5v-815q0 -281 -147.5 -445t-395.5 -172zM727 92v-86l-2 -78q-57 -45 -66 -96q-2 -8 -2 -29q0 -156 119 -155q23 0 92 4q29 0 29 -25v-22q0 -27 -29 -29q-49 -4 -104 -4 q-82 0 -136.5 52t-54.5 163q0 109 111 188h-6q-244 18 -382 180t-138 435v815q0 29 28 29h78q27 0 27 -29v-805q0 -258 118.5 -382t317.5 -126z" glyph-name="Uogonek" horiz-adv-x="1464" unicode="Ų"/><glyph d="M862 287v-148q-119 -162 -303 -162q-174 0 -290.5 116t-116.5 341v580q0 29 26 28h74q25 0 27 -28v-543q0 -182 87 -279.5t224 -97.5q72 0 147.5 45.5t124.5 147.5zM903 43v971q0 29 27 28h74q27 0 26 -28v-985q0 -29 -24 -29q-59 -10 -121 -53t-62 -125q0 -78 35 -117 t86 -39q18 0 45 2t47 2q27 0 27 -24v-23q0 -27 -27 -29q-49 -4 -104 -4q-82 0 -136.5 52.5t-54.5 162.5q0 90 65.5 149.5t127.5 74.5z" glyph-name="uogonek" horiz-adv-x="1273" unicode="ų"/><glyph d="M1440 76l-35 -88q-8 -25 -21 -25h-10q-10 0 -20 25l-367 1222l-309 -1063l-60 168l334 1117q8 29 27 28h16q18 0 27 -28zM1464 139l-59 195l379 1071q10 29 37 29h100q23 0 12 -29zM659 78l-28 -90q-10 -25 -21 -25h-22q-10 0 -19 25l-528 1417q-12 29 12 29h101 q27 0 36 -29zM965 1933h43q18 0 39 -28l219 -312q18 -29 -13 -28h-51q-31 0 -47 28l-168 252l-170 -252q-16 -29 -47 -28h-51q-31 0 -12 28l219 312q19 28 39 28z" glyph-name="Wcircumflex" horiz-adv-x="1966" unicode="Ŵ"/><glyph d="M1192 137l-76 189l209 688q8 29 37 28h90q27 0 12 -28zM1174 78l-25 -74q-8 -27 -25 -27h-12q-16 0 -29 27l-335 860l-271 -717l-49 160l287 742q16 25 24 24h15q10 0 26 -24zM455 86l-33 -82q-12 -27 -29 -27h-22q-16 0 -25 27l-315 1010q-12 29 14 28h88q29 0 37 -24z M731 1542h43q18 0 39 -29l219 -311q18 -29 -12 -28h-51q-31 0 -47 28l-168 252l-170 -252q-16 -29 -47 -28h-52q-31 0 -12 28l219 311q19 29 39 29z" glyph-name="wcircumflex" horiz-adv-x="1495" unicode="ŵ"/><glyph d="M707 582l-9 -13v-540q0 -29 -26 -29h-74q-16 0 -22.5 6t-6.5 23v540l-540 836q-16 29 12 29h92q25 0 41 -29zM733 618l-74 115l437 672q18 29 39 29h92q29 0 12 -29zM618 1933h44q18 0 38 -28l220 -312q18 -29 -13 -28h-51q-31 0 -47 28l-168 252l-170 -252 q-16 -29 -47 -28h-51q-31 0 -13 28l220 312q18 28 38 28z" glyph-name="Ycircumflex" horiz-adv-x="1259" unicode="Ŷ"/><glyph d="M590 35l-189 -424q-14 -29 -39 -29h-83q-27 0 -15 29l189 428l-435 975q-12 29 15 28h86q25 0 37 -28zM610 86l-65 150l340 778q16 29 39 28h84q27 0 14 -28zM508 1542h43q18 0 39 -29l219 -311q18 -29 -12 -28h-52q-31 0 -47 28l-168 252l-170 -252q-16 -29 -47 -28h-51 q-31 0 -12 28l219 311q19 29 39 29z" glyph-name="ycircumflex" horiz-adv-x="1044" unicode="ŷ"/><glyph d="M707 582l-9 -13v-540q0 -29 -26 -29h-74q-16 0 -22.5 6t-6.5 23v540l-540 836q-16 29 12 29h92q25 0 41 -29zM733 618l-74 115l437 672q18 29 39 29h92q29 0 12 -29zM330 1782q0 35 24.5 59.5t59.5 24.5t59.5 -24.5t24.5 -59.5t-24.5 -60.5t-59.5 -25.5t-59.5 25.5 t-24.5 60.5zM719 1782q0 35 24.5 59.5t59.5 24.5t59.5 -24.5t24.5 -59.5t-24.5 -60.5t-59.5 -25.5t-59.5 25.5t-24.5 60.5z" glyph-name="Ydieresis" horiz-adv-x="1259" unicode="Ÿ"/><glyph d="M1085 1434h111q16 0 16 -17v-12q0 -10 -10 -29l-1005 -1376h-109q-18 0 -18 16v11q0 10 12 28zM1032 1434l-86 -119h-784q-29 0 -29 28v62q0 29 29 29h870zM248 0l86 117h823q29 0 29 -27v-61q0 -16 -6 -22.5t-23 -6.5h-909zM866 1780l-198 -187q-18 -18 -47 -18h-68 q-14 0 -16 7t10 22l256 268q18 20 35 -6l32 -51q10 -21 -4 -35z" glyph-name="Zacute" horiz-adv-x="1275" unicode="Ź"/><glyph d="M799 1042h100q18 0 19 -16v-10q0 -8 -13 -31l-715 -985h-79h-25q-16 0 -16 16v11q0 12 10 28zM743 1042l-84 -114h-505q-16 0 -22.5 6t-6.5 22v58q0 16 6 22t23 6h589zM242 0l84 115h573q29 0 29 -29v-57q0 -16 -6.5 -22.5t-22.5 -6.5h-657zM731 1389l-199 -187 q-18 -18 -47 -18h-67q-14 0 -16.5 7t10.5 21l256 269q18 20 34 -6l33 -52q10 -20 -4 -34z" glyph-name="zacute" horiz-adv-x="997" unicode="ź"/><glyph d="M1085 1434h111q16 0 16 -17v-12q0 -10 -10 -29l-1005 -1376h-109q-18 0 -18 16v11q0 10 12 28zM1032 1434l-86 -119h-784q-29 0 -29 28v62q0 29 29 29h870zM248 0l86 117h823q29 0 29 -27v-61q0 -16 -6 -22.5t-23 -6.5h-909zM569 1780q0 41 28 68.5t66.5 27.5t67.5 -28.5 t29 -67.5t-29 -66.5t-67.5 -27.5t-66.5 27.5t-28 66.5z" glyph-name="Zdotaccent" horiz-adv-x="1275" unicode="Ż"/><glyph d="M799 1042h100q18 0 19 -16v-10q0 -8 -13 -31l-715 -985h-79h-25q-16 0 -16 16v11q0 12 10 28zM743 1042l-84 -114h-505q-16 0 -22.5 6t-6.5 22v58q0 16 6 22t23 6h589zM242 0l84 115h573q29 0 29 -29v-57q0 -16 -6.5 -22.5t-22.5 -6.5h-657zM434 1389q0 41 27.5 68.5 t66.5 27.5t68 -29t29 -67.5t-29 -66.5t-68 -28t-66.5 28t-27.5 67z" glyph-name="zdotaccent" horiz-adv-x="997" unicode="ż"/><glyph d="M1085 1434h111q16 0 16 -17v-12q0 -10 -10 -29l-1005 -1376h-109q-18 0 -18 16v11q0 10 12 28zM1032 1434l-86 -119h-784q-29 0 -29 28v62q0 29 29 29h870zM248 0l86 117h823q29 0 29 -27v-61q0 -16 -6 -22.5t-23 -6.5h-909zM680 1565h-43q-20 0 -39 28l-219 312 q-18 29 12 28h51q31 0 47 -28l170 -252l168 252q16 29 47 28h52q31 0 12 -28l-219 -312q-23 -28 -39 -28z" glyph-name="Zcaron" horiz-adv-x="1275" unicode="Ž"/><glyph d="M799 1042h100q18 0 19 -16v-10q0 -8 -13 -31l-715 -985h-79h-25q-16 0 -16 16v11q0 12 10 28zM743 1042l-84 -114h-505q-16 0 -22.5 6t-6.5 22v58q0 16 6 22t23 6h589zM242 0l84 115h573q29 0 29 -29v-57q0 -16 -6.5 -22.5t-22.5 -6.5h-657zM547 1174h-43q-20 0 -39 28 l-219 311q-18 29 12 29h51q31 0 47 -29l170 -251l168 251q16 29 47 29h52q31 0 12 -29l-219 -311q-21 -28 -39 -28z" glyph-name="zcaron" horiz-adv-x="997" unicode="ž"/><glyph d="M256 891h125v-862q0 -29 -27 -29h-71q-27 0 -27 29v862zM381 932h-287q-16 0 -22 5t-6 24v49q0 29 28 28h162v64q0 225 84 341t278 116q100 0 175 -37q16 -12 12 -37l-12 -51q-4 -16 -11.5 -19.5t-23.5 4.5q-59 23 -127 23q-133 0 -191.5 -80t-58.5 -270v-160z" glyph-name="longs" horiz-adv-x="843" unicode="ſ"/><glyph d="M362 891h127v-918q0 -240 -69.5 -348t-220.5 -108q-121 0 -203 53q-18 10 -12 35l12 51q4 20 10 22.5t23 -6.5q63 -39 157 -39q176 0 176 351v907zM877 932h-699q-16 0 -22 5t-6 24v49q0 29 28 28h184v64q0 225 85 341t280 116q121 0 203 -54q18 -10 12 -35l-12 -51 q-4 -18 -11.5 -21t-23.5 7q-63 37 -158 37q-133 0 -190.5 -80t-57.5 -270v-54h388q29 0 28 -28v-49q0 -18 -6 -23.5t-22 -5.5z" glyph-name="florin" horiz-adv-x="980" unicode="ƒ"/><glyph d="M1163 555h-133l-303 680h-2l-537 -1206q-12 -29 -36 -29h-97q-27 0 -16 29l661 1417q10 25 23 24h6q10 0 21 -24zM451 516h733l227 -487q14 -29 -18 -29h-95q-20 0 -36 29l-168 370h-697zM721 1579q-94 0 -154.5 62.5t-60.5 158.5t60.5 158.5t154.5 62.5t153.5 -62.5 t59.5 -158.5t-59.5 -158.5t-153.5 -62.5zM720.5 1651q63.5 0 100.5 44t37 105.5t-36 104.5t-99.5 43t-102 -44t-38.5 -103.5t37.5 -104.5t101 -45zM938 2329l-199 -187q-18 -18 -47 -18h-67q-14 0 -16.5 7t9.5 21l256 269q18 20 35 -6l33 -52q10 -20 -4 -34z" glyph-name="Aringacute" horiz-adv-x="1443" unicode="Ǻ"/><glyph d="M868 27v544q0 209 -69.5 295t-237.5 86q-152 0 -321 -34q-18 -4 -24.5 1t-10.5 25l-12 47q-8 29 22 37q147 37 350 37q240 0 335 -113.5t95 -376.5v-546q0 -29 -26 -29h-66q-23 0 -35 27zM829 236v-115q-143 -143 -362 -144q-156 0 -261.5 91.5t-105.5 246.5 q0 166 113 250t313 84q141 0 303 -61v-101q-152 63 -278 64q-324 0 -324 -236q0 -106 74 -170.5t203 -64.5q88 0 178 45t147 111zM573.5 1188q-94.5 0 -155 62.5t-60.5 158.5t60.5 158.5t155 62.5t153.5 -62.5t59 -158.5t-59 -158.5t-153.5 -62.5zM573.5 1260 q63.5 0 100.5 44t37 105t-36 104t-99.5 43t-102.5 -44t-39 -103t38 -104t101.5 -45zM791 1952l-199 -187q-18 -18 -47 -18h-68q-14 0 -16 7t10 22l256 268q18 20 35 -6l33 -51q10 -21 -4 -35z" glyph-name="aringacute" horiz-adv-x="1146" unicode="ǻ"/><glyph d="M1065 1315v119h764q27 0 26 -29v-62q0 -29 -26 -28h-764zM1065 666v116h719q27 0 26 -26v-62q0 -29 -26 -28h-719zM1065 0v117h764q27 0 26 -27v-61q0 -29 -26 -29h-764zM449 399l67 117h367v739l-695 -1226q-12 -29 -36 -29h-97q-27 0 -16 29l776 1349q31 55 49 56h160 v-1434h-113q-16 0 -22 6t-6 23v370h-434zM1346 1780l-199 -187q-18 -18 -47 -18h-68q-14 0 -16 7t10 22l256 268q18 20 35 -6l33 -51q10 -21 -4 -35z" glyph-name="AEacute" horiz-adv-x="1984" unicode="Ǽ"/><glyph d="M838 236v-117q-174 -141 -371 -142q-158 0 -261.5 89.5t-103.5 246.5q0 168 111 252t309 84q156 0 316 -61v-101q-168 63 -291 64q-328 0 -328 -242q0 -102 73 -165.5t202 -63.5q90 0 184 43t160 113zM1047 473v92h657q-4 162 -97.5 274.5t-260.5 116.5v109 q102 -2 185 -36t138 -88t94 -127t55.5 -149.5t16.5 -156.5v-8q0 -27 -27 -27h-761zM1006 741v-426q33 -96 124 -160.5t211 -64.5q205 0 340 111q25 16 41 -2l33 -37q18 -23 2 -39q-68 -68 -184.5 -107t-237.5 -39q-135 0 -248.5 63.5t-162.5 145.5l-47 -36v620 q-27 102 -104 142t-208 40q-152 0 -321 -34q-27 -4 -37 24l-10 49q-8 29 20 37q35 8 145.5 22.5t208.5 14.5q283 0 369 -166q152 156 367 166v-109q-104 -8 -181 -66.5t-120 -148.5zM1145 1389l-199 -187q-18 -18 -47 -18h-68q-14 0 -16 7t10 21l256 269q18 20 35 -6l33 -52 q10 -20 -4 -34z" glyph-name="aeacute" horiz-adv-x="1927" unicode="ǽ"/><glyph d="M817 92v-119q-162 6 -289 72l-59 -111q-10 -23 -35 -22h-49q-37 0 -23 29l80 149q-152 102 -245 267t-93 362q0 299 208 516t505 225v-119q-238 -10 -409.5 -199.5t-167.5 -424.5q0 -98 29.5 -187.5t77.5 -154t85 -101t76 -67.5l561 1081q-111 49 -213 53v119 q145 -6 268 -59l54 98q10 23 34 23h50q39 0 22 -33l-74 -133q360 -240 361 -639q0 -195 -93.5 -364t-258 -271t-363.5 -109v119q242 10 411 197.5t169 427.5q0 102 -31 193t-81 157t-90 103.5t-83 68.5l-565 -1085q102 -54 231 -62zM1059 1780l-199 -187q-18 -18 -47 -18 h-68q-14 0 -16 7t10 22l256 268q18 20 35 -6l33 -51q10 -21 -4 -35z" glyph-name="Oslashacute" horiz-adv-x="1675" unicode="Ǿ"/><glyph d="M655 -23v115q168 10 280 133t112 295q0 213 -185 350l-389 -741q78 -33 141 -37v-115q-92 4 -194 46l-39 -86q-14 -29 -41 -29h-45q-39 0 -23 29l64 133q-109 72 -173.5 192.5t-64.5 257.5q0 217 149.5 377t366.5 168v-117q-164 -8 -276.5 -133t-112.5 -295 q0 -70 17.5 -128t52.5 -103t50 -62.5t48 -46.5l385 740q-53 25 -123 28v117q100 -4 176 -39l50 82q12 27 41 27h45q41 0 22 -29l-69 -125q115 -74 184.5 -193.5t69.5 -267.5q0 -217 -150 -376t-369 -167zM844 1389l-199 -187q-18 -18 -47 -18h-68q-14 0 -16 7t10 21l256 269 q18 20 35 -6l33 -52q10 -20 -4 -34z" glyph-name="oslashacute" horiz-adv-x="1280" unicode="ǿ"/><glyph d="M698 -455h-16q-45 2 -74.5 33t-29.5 74q0 45 30.5 76.5t75.5 31.5q47 0 79 -35.5t32 -99.5q0 -266 -222 -393q-16 -8 -20 2l-25 37q-8 10 7 22q149 96 163 252zM631 96v-119q-293 10 -508 158q-20 14 -8 41l32 53q16 25 41 9q92 -61 211 -99.5t232 -42.5zM637 1456v-121 q-104 -2 -181 -33.5t-115 -79.5t-55.5 -93.5t-17.5 -90.5q0 -66 34 -111.5t101.5 -73.5t134 -42t169.5 -29q109 -14 189.5 -38.5t152 -66.5t108.5 -112.5t37 -167.5q0 -174 -135 -298t-389 -122v119q170 4 281.5 75t111.5 222q0 127 -105.5 186.5t-332.5 92.5 q-98 14 -172 33.5t-153 58.5t-121 107.5t-42 162.5q0 61 24.5 128t78 135.5t157 112.5t240.5 46zM676 1337v119q139 -4 248.5 -43t230.5 -113q20 -14 8 -40l-30 -52q-16 -29 -41 -12q-207 139 -416 141z" glyph-name="Scommaaccent" horiz-adv-x="1306" unicode="Ș"/><glyph d="M559 -455h-16q-45 2 -76 33t-31 74q0 45 31 76.5t76 31.5q49 0 80.5 -35.5t31.5 -99.5q0 -266 -221 -393q-14 -8 -22 2l-23 37q-8 10 6 22q150 96 164 252zM559 958v105q180 -10 340 -113q25 -14 10 -39l-22 -41q-12 -29 -39 -12q-158 98 -289 100zM537 -23v105 q145 2 215.5 61.5t70.5 147.5q0 133 -305 178q-72 10 -119 19.5t-104 30t-91 48t-57.5 74.5t-23.5 109q0 143 106.5 230t290.5 85v-104q-135 2 -205.5 -55.5t-70.5 -149.5q0 -84 66.5 -116t236.5 -56q397 -57 397 -287q0 -139 -108.5 -228.5t-298.5 -91.5zM496 82v-105 q-209 12 -387 132q-20 12 -7 38l25 43q16 27 41 11q146 -107 328 -119z" glyph-name="scommaaccent" horiz-adv-x="1038" unicode="ș"/><glyph d="M631 -455h-17q-45 2 -75.5 33t-30.5 74q0 45 30.5 76.5t75.5 31.5q49 0 81 -35.5t32 -99.5q0 -266 -221 -393q-14 -8 -23 2l-22 37q-10 12 6 22q150 96 164 252zM727 1311v123h465q29 0 29 -29v-66q0 -29 -29 -28h-465zM686 1434v-1405q0 -29 -27 -29h-77q-29 0 -29 29 v1282h-504q-29 0 -29 28v66q0 16 6.5 22.5t22.5 6.5h637z" glyph-name="uni021A" unicode="Ț"/><glyph d="M385 -455h-16q-45 2 -75 33t-30 74q0 45 31 76.5t76 31.5q47 0 78.5 -35.5t31.5 -99.5q0 -266 -221 -393q-16 -8 -20 2l-25 37q-6 12 6 22q150 96 164 252zM748 936h-623q-16 0 -22.5 6t-6.5 23v49q0 29 29 28h108v215q0 29 29 29h70q16 0 22 -6t6 -23v-215h388 q29 0 28 -28v-49q0 -16 -6 -22.5t-22 -6.5zM233 895h127v-451q0 -190 58.5 -270t191.5 -80q86 0 148 31q16 10 23 7t12 -19l12 -54q4 -23 -12 -34q-82 -47 -195 -48q-195 0 -280 116t-85 341v461z" glyph-name="uni021B" horiz-adv-x="894" unicode="ț"/><glyph d="M360 1542h43q18 0 39 -29l220 -311q18 -29 -13 -28h-51q-31 0 -47 28l-168 252l-170 -252q-16 -29 -47 -28h-51q-31 0 -13 28l220 311q18 29 38 29z" glyph-name="circumflex" horiz-adv-x="763" unicode="ˆ"/><glyph d="M403 1174h-43q-20 0 -38 28l-220 311q-18 29 13 29h51q31 0 47 -29l170 -251l168 251q16 29 47 29h51q31 0 13 -29l-220 -311q-21 -28 -39 -28z" glyph-name="caron" horiz-adv-x="763" unicode="ˇ"/><glyph d="M651 1362h-495q-27 0 -27 27v43q0 29 27 28h495q29 0 29 -28v-43q0 -27 -29 -27z" glyph-name="uni02C9" horiz-adv-x="806" unicode="ˉ"/><glyph d="M354 1268q-205 0 -282 182q-14 31 6 39l45 24q18 8 31 -14q33 -78 76.5 -108.5t123.5 -30.5t125 30.5t78 108.5q8 23 29 14l45 -24q20 -8 6 -39q-76 -182 -283 -182z" glyph-name="breve" horiz-adv-x="710" unicode="˘"/><glyph d="M68 1389q0 41 27.5 68.5t66.5 27.5t67.5 -29t28.5 -67.5t-28.5 -66.5t-67.5 -28t-66.5 28t-27.5 67z" glyph-name="dotaccent" horiz-adv-x="323" unicode="˙"/><glyph d="M295 1188q-94 0 -154.5 62.5t-60.5 158.5t60.5 158.5t154.5 62.5t153.5 -62.5t59.5 -158.5t-59.5 -158.5t-153.5 -62.5zM294.5 1260q63.5 0 100.5 44t37 105t-36 104t-99.5 43t-102 -44t-38.5 -103t37.5 -104t101 -45z" glyph-name="ring" horiz-adv-x="589" unicode="˚"/><glyph d="M258 31l82 -31q-57 -6 -125 -53t-68 -125q0 -156 121 -156q23 0 92 4q27 0 27 -24v-23q0 -27 -27 -29q-49 -4 -104 -4q-82 0 -136 52.5t-54 162.5q-1 158 192 226z" glyph-name="ogonek" horiz-adv-x="452" unicode="˛"/><glyph d="M602 1368q53 0 83 21.5t52 78.5q12 31 41 21l35 -14q25 -10 12 -43q-68 -160 -211 -160q-96 0 -176 71q-49 43 -76.5 58.5t-62.5 15.5q-51 0 -81 -22.5t-54 -79.5q-12 -31 -41 -19l-33 15q-27 12 -12 43q66 158 211 157q88 0 180 -75q47 -41 72.5 -54.5t60.5 -13.5z" glyph-name="tilde" horiz-adv-x="894" unicode="˜"/><glyph d="M373 1409l-178 -211q-18 -25 -54 -24h-59q-31 0 -4 30l250 291q20 23 37 -6l16 -25q17 -24 -8 -55zM641 1409l-178 -211q-18 -25 -53 -24h-60q-33 0 -4 30l250 291q20 23 37 -6l16 -25q17 -24 -8 -55z" glyph-name="hungarumlaut" horiz-adv-x="716" unicode="˝"/><glyph d="M207 0l59 117h1098l-571 1122l-633 -1239h-94q-29 0 -34 11.5t9 43.5l702 1350q4 8 10.5 19.5t9.5 15.5t7 10t8 8t10 2h7q6 0 10 -2t8 -8t7 -10t9.5 -15.5t10.5 -19.5l702 -1350q14 -33 8 -44t-34 -11h-1309z" glyph-name="Delta" horiz-adv-x="1589" unicode="Δ"/><glyph d="M891 1341v119q293 -10 503 -228t210 -515q0 -174 -113 -334t-270 -266h387q29 0 28 -27v-61q0 -29 -28 -29h-529q-16 0 -22 6t-6 23v37q0 27 43 77q375 274 374 574q0 236 -169.5 423t-407.5 201zM852 1460v-119q-240 -12 -412 -200.5t-168 -423.5q2 -129 62.5 -251 t128 -193.5t145.5 -129.5q43 -51 43 -77v-37q0 -16 -6 -22.5t-22 -6.5h-478q-16 0 -22 6t-6 23v61q0 27 28 27h336q-147 100 -245.5 261t-98.5 339q0 297 209 516t506 227z" glyph-name="Omega" horiz-adv-x="1744" unicode="Ω"/><glyph d="M895 309v-149q-115 -182 -295 -183q-82 0 -153.5 38t-108.5 112v-516q0 -29 -27 -29h-73q-27 0 -27 29v1403q0 29 27 28h73q27 0 27 -28v-539q0 -74 13.5 -138.5t44 -120.5t90 -89t139.5 -33q82 0 154.5 58.5t115.5 156.5zM952 20l-16 62v932q0 29 27 28h73q27 0 27 -28 v-985q0 -29 -27 -29h-41q-35 0 -43 20z" glyph-name="mu" horiz-adv-x="1273" unicode="μ"/><glyph d="M352 883h127v-854q0 -29 -28 -29h-70q-29 0 -29 29v854zM862 883h127v-439q0 -190 57.5 -270t190.5 -80q92 0 149 31q16 10 23.5 7t11.5 -19l13 -54q4 -23 -15 -34q-74 -47 -192 -48q-195 0 -280 116t-85 341v449zM1378 924h-1315q-29 0 -28 28v62q0 16 6 22t22 6h1315 q27 0 27 -28v-62q0 -28 -27 -28z" glyph-name="pi" horiz-adv-x="1521" unicode="π"/><glyph d="M1440 76l-35 -88q-8 -25 -21 -25h-10q-10 0 -20 25l-367 1222l-309 -1063l-60 168l334 1117q8 29 27 28h16q18 0 27 -28zM1464 139l-59 195l379 1071q10 29 37 29h100q23 0 12 -29zM659 78l-28 -90q-10 -25 -21 -25h-22q-10 0 -19 25l-528 1417q-12 29 12 29h101 q27 0 36 -29zM911 1593l-196 187q-18 14 -6 35l32 51q18 29 37 6l254 -268q29 -29 -6 -29h-68q-24 0 -47 18z" glyph-name="Wgrave" horiz-adv-x="1966" unicode="Ẁ"/><glyph d="M1192 137l-76 189l209 688q8 29 37 28h90q27 0 12 -28zM1174 78l-25 -74q-8 -27 -25 -27h-12q-16 0 -29 27l-335 860l-271 -717l-49 160l287 742q16 25 24 24h15q10 0 26 -24zM455 86l-33 -82q-12 -27 -29 -27h-22q-16 0 -25 27l-315 1010q-12 29 14 28h88q29 0 37 -24z M674 1202l-197 187q-18 14 -6 34l33 52q18 29 37 6l254 -269q29 -29 -7 -28h-67q-24 0 -47 18z" glyph-name="wgrave" horiz-adv-x="1495" unicode="ẁ"/><glyph d="M1440 76l-35 -88q-8 -25 -21 -25h-10q-10 0 -20 25l-367 1222l-309 -1063l-60 168l334 1117q8 29 27 28h16q18 0 27 -28zM1464 139l-59 195l379 1071q10 29 37 29h100q23 0 12 -29zM659 78l-28 -90q-10 -25 -21 -25h-22q-10 0 -19 25l-528 1417q-12 29 12 29h101 q27 0 36 -29zM1217 1780l-199 -187q-18 -18 -47 -18h-68q-14 0 -16 7t10 22l256 268q18 20 35 -6l33 -51q10 -21 -4 -35z" glyph-name="Wacute" horiz-adv-x="1966" unicode="Ẃ"/><glyph d="M1192 137l-76 189l209 688q8 29 37 28h90q27 0 12 -28zM1174 78l-25 -74q-8 -27 -25 -27h-12q-16 0 -29 27l-335 860l-271 -717l-49 160l287 742q16 25 24 24h15q10 0 26 -24zM455 86l-33 -82q-12 -27 -29 -27h-22q-16 0 -25 27l-315 1010q-12 29 14 28h88q29 0 37 -24z M969 1389l-199 -187q-18 -18 -47 -18h-68q-14 0 -16 7t10 21l256 269q18 20 35 -6l33 -52q10 -20 -4 -34z" glyph-name="wacute" horiz-adv-x="1495" unicode="ẃ"/><glyph d="M1440 76l-35 -88q-8 -25 -21 -25h-10q-10 0 -20 25l-367 1222l-309 -1063l-60 168l334 1117q8 29 27 28h16q18 0 27 -28zM1464 139l-59 195l379 1071q10 29 37 29h100q23 0 12 -29zM659 78l-28 -90q-10 -25 -21 -25h-22q-10 0 -19 25l-528 1417q-12 29 12 29h101 q27 0 36 -29zM709 1782q0 35 24.5 59.5t59 24.5t59.5 -24.5t25 -59.5t-25 -60.5t-59.5 -25.5t-59 25.5t-24.5 60.5zM1098 1782q0 35 24.5 59.5t59.5 24.5t59.5 -24.5t24.5 -59.5t-24.5 -60.5t-59.5 -25.5t-59.5 25.5t-24.5 60.5z" glyph-name="Wdieresis" horiz-adv-x="1966" unicode="Ẅ"/><glyph d="M1192 137l-76 189l209 688q8 29 37 28h90q27 0 12 -28zM1174 78l-25 -74q-8 -27 -25 -27h-12q-16 0 -29 27l-335 860l-271 -717l-49 160l287 742q16 25 24 24h15q10 0 26 -24zM455 86l-33 -82q-12 -27 -29 -27h-22q-16 0 -25 27l-315 1010q-12 29 14 28h88q29 0 37 -24z M469 1390.5q0 34.5 24.5 59.5t59.5 25t59.5 -25t24.5 -59.5t-24.5 -60t-59.5 -25.5t-59.5 25.5t-24.5 60zM858 1390.5q0 34.5 24.5 59.5t59.5 25t59.5 -25t24.5 -59.5t-24.5 -60t-59.5 -25.5t-59.5 25.5t-24.5 60z" glyph-name="wdieresis" horiz-adv-x="1495" unicode="ẅ"/><glyph d="M707 582l-9 -13v-540q0 -29 -26 -29h-74q-16 0 -22.5 6t-6.5 23v540l-540 836q-16 29 12 29h92q25 0 41 -29zM733 618l-74 115l437 672q18 29 39 29h92q29 0 12 -29zM627 1593l-197 187q-18 14 -6 35l33 51q18 29 37 6l254 -268q29 -29 -7 -29h-67q-27 0 -47 18z" glyph-name="Ygrave" horiz-adv-x="1259" unicode="Ỳ"/><glyph d="M590 35l-189 -424q-14 -29 -39 -29h-83q-27 0 -15 29l189 428l-435 975q-12 29 15 28h86q25 0 37 -28zM610 86l-65 150l340 778q16 29 39 28h84q27 0 14 -28zM526 1202l-196 187q-18 14 -6 34l32 52q18 29 37 6l254 -269q29 -29 -6 -28h-68q-24 0 -47 18z" glyph-name="ygrave" horiz-adv-x="1044" unicode="ỳ"/><glyph d="M696 528h-579q-16 0 -22.5 6.5t-6.5 22.5v47q0 18 6 24.5t23 6.5h579q27 0 27 -29v-51q0 -27 -27 -27z" glyph-name="endash" horiz-adv-x="811" unicode="–"/><glyph d="M1042 528h-925q-16 0 -22.5 6.5t-6.5 22.5v47q0 18 6 24.5t23 6.5h925q27 0 27 -29v-51q0 -27 -27 -27z" glyph-name="emdash" horiz-adv-x="1157" unicode="—"/><glyph d="M256 1141h18q45 -2 75 -32t30 -75t-31 -76.5t-76 -31.5q-49 0 -79.5 35.5t-30.5 99.5q0 268 221 393q12 8 20 -2l25 -37q6 -12 -6 -22q-152 -96 -166 -252z" glyph-name="quoteleft" horiz-adv-x="540" unicode="‘"/><glyph d="M283 1245h-17q-45 2 -74.5 32t-29.5 75t30.5 76.5t75.5 31.5q47 0 79 -35.5t32 -99.5q0 -266 -221 -393q-16 -8 -21 2l-24 37q-6 12 6 22q150 96 164 252z" glyph-name="quoteright" horiz-adv-x="540" unicode="’"/><glyph d="M283 -23h-17q-45 0 -74.5 31t-29.5 76q0 43 30.5 76t75.5 33q47 0 79 -37t32 -101q0 -268 -221 -391q-14 -10 -21 2l-24 37q-6 12 6 21q150 95 164 253z" glyph-name="quotesinglbase" horiz-adv-x="540" unicode="‚"/><glyph d="M643 1141h19q45 0 74.5 -31t29.5 -76q0 -43 -30.5 -74.5t-76.5 -31.5q-49 0 -79.5 35.5t-30.5 99.5q0 268 221 393q12 8 21 -2l24 -37q6 -14 -6 -22q-152 -96 -166 -254zM256 1141h18q45 0 75 -31t30 -76q0 -43 -31 -74.5t-76 -31.5q-49 0 -79.5 35.5t-30.5 99.5 q0 268 221 393q12 8 20 -2l25 -37q6 -14 -6 -22q-152 -96 -166 -254z" glyph-name="quotedblleft" horiz-adv-x="927" unicode="“"/><glyph d="M283 1245h-17q-45 2 -74.5 32t-29.5 75t30.5 76.5t75.5 31.5q47 0 79 -35.5t32 -99.5q0 -266 -221 -393q-16 -8 -21 2l-24 37q-6 12 6 22q150 96 164 252zM670 1245h-17q-45 2 -74.5 32t-29.5 75t30.5 76.5t75.5 31.5q47 0 79 -35.5t32 -99.5q0 -266 -221 -393 q-16 -8 -21 2l-24 37q-6 12 6 22q150 96 164 252z" glyph-name="quotedblright" horiz-adv-x="927" unicode="”"/><glyph d="M283 -23h-17q-45 0 -74.5 31t-29.5 76q0 43 30.5 76t75.5 33q47 0 79 -37t32 -101q0 -268 -221 -391q-14 -10 -21 2l-24 37q-6 12 6 21q150 95 164 253zM670 -23h-17q-45 0 -74.5 31t-29.5 76q0 43 30.5 76t75.5 33q47 0 79 -37t32 -101q0 -268 -221 -391q-14 -10 -21 2 l-24 37q-6 12 6 21q150 95 164 253z" glyph-name="quotedblbase" horiz-adv-x="927" unicode="„"/><glyph d="M713 864h-240l-8 -1038q0 -16 -6 -22.5t-23 -6.5h-35q-16 0 -22 6.5t-6 22.5l-8 1038h-240q-27 0 -27 29v49q0 27 27 27h240v436q0 29 26 29h55q29 0 29 -29v-436h238q29 0 28 -27v-49q0 -18 -6 -23.5t-22 -5.5z" glyph-name="dagger" horiz-adv-x="839" unicode="†"/><glyph d="M727 279h-238v-453q0 -16 -6 -22.5t-22 -6.5h-55q-27 0 -27 29v453h-240q-27 0 -26 28v49q0 27 26 27h240v541h-240q-27 0 -26 28v49q0 27 26 27h240v377q0 29 27 29h55q29 0 28 -29v-377h238q29 0 29 -27v-49q0 -18 -6.5 -23t-22.5 -5h-238v-541h238q29 0 29 -27v-49 q0 -28 -29 -28z" glyph-name="daggerdbl" horiz-adv-x="868" unicode="‡"/><glyph d="M92 702q0 53 37 91t92 38q53 0 92 -37.5t39 -91.5q0 -55 -39 -93t-92 -38q-55 0 -92 38t-37 93z" glyph-name="bullet" horiz-adv-x="442" unicode="•"/><glyph d="M162 84q0 45 30.5 77t75.5 32t76 -32t31 -77t-31 -76t-76 -31t-75.5 31t-30.5 76zM653 84q0 45 31 77t76 32t76.5 -32t31.5 -77t-31.5 -76t-76.5 -31t-76 31t-31 76zM1147 84q0 45 30.5 77t75.5 32t77 -32t32 -77t-32 -76t-77 -31t-75.5 31t-30.5 76z" glyph-name="ellipsis" horiz-adv-x="1521" unicode="…"/><glyph d="M403 1460v-88q-111 -6 -167 -82t-56 -196.5t57.5 -197.5t165.5 -83v-86q-154 6 -238.5 104.5t-84.5 262t85.5 262t237.5 104.5zM438 1372v88q152 -8 238 -105.5t86 -261t-86 -262t-238 -104.5v86q111 8 167.5 84t56.5 196.5t-57.5 197.5t-166.5 81zM1427 1405l-970 -1382 q-16 -23 -37 -23h-60q-39 0 -18 29l969 1382q16 23 37 23h61q36 0 18 -29zM1315 725v-88q-109 -6 -165 -82t-56 -196.5t55 -196.5t166 -84v-86q-152 6 -237 104.5t-85 262t85 262t237 104.5zM1350 637v88q154 -6 239.5 -104.5t85.5 -262t-86 -262t-239 -104.5v86 q111 8 168 84t57 196.5t-57 197.5t-168 81zM2140 725v-88q-109 -6 -165 -82t-56 -196.5t55.5 -196.5t165.5 -84v-86q-152 6 -236.5 104.5t-84.5 262t84.5 262t236.5 104.5zM2175 637v88q154 -6 240 -104.5t86 -262t-86 -262t-240 -104.5v86q111 8 168 84t57 196.5t-57 197.5 t-168 81z" glyph-name="perthousand" horiz-adv-x="2580" unicode="‰"/><glyph d="M115 584l346 381q18 18 37 6l51 -29q18 -14 4 -35l-336 -387l336 -387q14 -20 -4 -35l-51 -28q-20 -12 -37 6l-346 381q-31 33 -31 57v12q0 21 31 58z" glyph-name="guilsinglleft" horiz-adv-x="667" unicode="‹"/><glyph d="M207 965l346 -381q31 -37 31 -58v-12q0 -25 -31 -57l-346 -381q-16 -18 -35 -6l-53 28q-18 14 -4 35l336 387l-336 387q-14 20 4 35l53 29q17 12 35 -6z" glyph-name="guilsinglright" horiz-adv-x="667" unicode="›"/><glyph d="M856 1405l-676 -1380q-10 -25 -37 -25h-45q-37 0 -22 29l678 1380q10 25 37 25h45q34 0 20 -29z" glyph-name="fraction" horiz-adv-x="917" unicode="⁄"/><glyph glyph-name="uni2070" horiz-adv-x="0" unicode="⁰"/><glyph glyph-name="uni2080" horiz-adv-x="634" unicode="₀"/><glyph d="M41 543l143 80q20 12 37 12h39q18 0 19 -19v-598q0 -18 -19 -18h-51q-18 0 -19 18v508l-143 -61q-16 -4 -16 12v47q0 13 10 19z" glyph-name="uni2081" horiz-adv-x="368" unicode="₁"/><glyph glyph-name="uni2083" horiz-adv-x="0" unicode="₃"/><glyph glyph-name="uni2086" horiz-adv-x="0" unicode="₆"/><glyph glyph-name="uni2088" horiz-adv-x="0" unicode="₈"/><glyph glyph-name="peseta" horiz-adv-x="3162" unicode="₧"/><glyph d="M842 92v-119q-231 10 -404.5 163t-224.5 374h-162q-29 0 -28 29v18q0 29 28 29h146q-12 78 -13 139l4 88h-137q-29 0 -28 29v16q0 31 28 31h150q47 240 223 401.5t422 169.5v-119q-203 -10 -332 -142t-176 -310h639q16 0 22.5 -6t6.5 -23v-20q0 -27 -29 -27h-651l-7 -88 q0 -29 13 -139h645q16 0 22.5 -6.5t6.5 -22.5v-20q0 -27 -29 -27h-625q20 -68 59.5 -134.5t97.5 -130t145.5 -105.5t187.5 -48zM883 -27v119q152 8 225 47q25 10 35 -14l24 -62q10 -27 -10 -34q-112 -52 -274 -56zM879 1341v119q145 0 278 -55q20 -6 12 -35l-24 -63 q-8 -25 -33 -13q-96 43 -233 47z" glyph-name="Euro" horiz-adv-x="1267" unicode="€"/><glyph d="M233 475l-122 -35q-31 -10 -33 17l-6 24q-2 25 16 33q135 39 145 43v449q0 102 13.5 174.5t48.5 139t105.5 101.5t177.5 35q197 0 263 -178t-32 -401q-111 -227 -494 -373v-43q0 -197 86 -301.5t248 -104.5q29 0 84 12.5t78 28.5q25 16 33 -10l10 -23q6 -23 -12 -32 q-80 -53 -203 -54q-197 0 -301.5 124t-104.5 327v47zM737 911q47 106 49 214t-52 181.5t-156 73.5q-137 0 -200 -87t-63 -287v-420q145 53 262 141t160 184z" glyph-name="afii61289" horiz-adv-x="970" unicode="ℓ"/><glyph d="M35 1434h635q12 0 12 -15v-55q0 -16 -12 -16h-273v-691q0 -12 -16 -12h-59q-16 0 -17 12v691h-270q-14 0 -15 16v55q1 15 15 15zM1589 1241l-309 -594q-10 -16 -23 -16h-6q-12 0 -18 16l-309 594l-66 -579q-2 -16 -18 -17h-56q-14 0 -12 17l92 778q2 10 10 10h7 q8 0 14 -10l360 -680l361 680q6 10 14 10h6q8 0 11 -10l92 -778q2 -16 -15 -17h-55q-14 0 -14 17z" glyph-name="trademark" horiz-adv-x="1810" unicode="™"/><glyph d="M891 1341v119q293 -10 503 -228t210 -515q0 -174 -113 -334t-270 -266h387q29 0 28 -27v-61q0 -29 -28 -29h-529q-16 0 -22 6t-6 23v37q0 27 43 77q375 274 374 574q0 236 -169.5 423t-407.5 201zM852 1460v-119q-240 -12 -412 -200.5t-168 -423.5q2 -129 62.5 -251 t128 -193.5t145.5 -129.5q43 -51 43 -77v-37q0 -16 -6 -22.5t-22 -6.5h-478q-16 0 -22 6t-6 23v61q0 27 28 27h336q-147 100 -245.5 261t-98.5 339q0 297 209 516t506 227z" glyph-name="uni2126" horiz-adv-x="1744" unicode="Ω"/><glyph d="M309 1067v-309h1039v317q-197 293 -517 293q-176 0 -314 -93t-208 -208zM1536 668h-1227v-301q78 -123 212 -213.5t310 -90.5q129 0 249 57.5t196 139.5q23 18 39 0l31 -33q23 -23 -3 -45q-229 -209 -512 -209q-303 0 -518 218.5t-215 525.5q0 305 215 524t518.5 219 t518.5 -219t215 -524v-21q0 -18 -6.5 -23t-22.5 -5z" glyph-name="estimated" horiz-adv-x="1654" unicode="℮"/><glyph d="M983 1405l-707 -1380q-10 -25 -36 -25h-45q-35 0 -23 29l707 1380q10 25 36 25h46q36 0 22 -29zM90 1341l143 80q20 12 37 13h39q18 0 19 -19v-598q0 -18 -19 -18h-51q-20 0 -20 18v508l-142 -63q-16 -4 -16 12v49q0 12 10 18zM993 -29v72q143 6 144 119q0 57 -45 91 t-115 38q-68 -4 -113 -38t-45 -91q0 -111 139 -119v-72q-106 4 -161.5 56.5t-55.5 130.5q0 51 32 91t58.5 54t51.5 21v2q-20 4 -45 17t-52.5 50t-27.5 86q0 76 55 127t145 53v-69q-57 -4 -90.5 -36t-33.5 -77q0 -53 39.5 -84t103.5 -35q66 4 104.5 35t38.5 84q0 47 -33.5 78 t-93.5 35v69q96 -4 150.5 -55t54.5 -125q0 -49 -27.5 -86t-52 -50t-45.5 -17v-2q16 -4 34.5 -13.5t45.5 -29t44 -52t17 -71.5q0 -78 -55 -130.5t-166 -56.5z" glyph-name="oneeighth" horiz-adv-x="1294" unicode="⅛"/><glyph d="M1100 1405l-705 -1380q-10 -25 -37 -25h-45q-37 0 -22 29l706 1380q10 25 37 25h45q35 0 21 -29zM281 1460v-76q-72 -6 -136 -69q-16 -16 -28 0l-31 31q-10 14 2 24q84 88 193 90zM315 1384v76q94 -4 158 -53t64 -139q0 -55 -34 -93t-81 -55v-2q47 -12 81 -51t34 -98 q0 -88 -64.5 -136.5t-157.5 -52.5v78q141 6 142 121q0 43 -44 74.5t-112 31.5h-59q-20 0 -21 19v33q0 18 21 18h59q68 0 112 32t44 75q-1 116 -142 122zM281 858v-78q-111 6 -193 90q-12 12 -2 25l31 31q12 16 28 0q64 -64 136 -68zM1112 -29v72q141 6 141 119q0 57 -45 91 t-112 38q-70 -4 -115 -38t-45 -91q0 -111 141 -119v-72q-109 4 -164 56.5t-55 130.5q0 39 17.5 71.5t44 52t45 28.5t34.5 14v2q-20 4 -44.5 17t-52.5 50t-28 86q0 76 56.5 127t146.5 53v-69q-59 -4 -92 -36t-33 -77q0 -53 39 -84t105 -35q66 4 103.5 35t37.5 84q0 47 -33 78 t-92 35v69q96 -4 149.5 -55t53.5 -125q0 -49 -27.5 -86t-51.5 -49t-44 -18v-2q16 -4 33.5 -13.5t44 -29t44 -52t17.5 -71.5q0 -78 -54 -130.5t-165 -56.5z" glyph-name="threeeighths" horiz-adv-x="1411" unicode="⅜"/><glyph d="M1083 1405l-706 -1380q-10 -25 -37 -25h-45q-35 0 -23 29l707 1380q10 25 37 25h45q36 0 22 -29zM193 1104h-60q-14 0 -12 12l41 305q0 12 12 13h311q12 0 13 -13v-45q0 -14 -13 -14h-260zM322 772v72q139 10 139 135t-154 125h-80l9 72h71q104 0 168 -47.5t64 -147.5 q0 -98 -58.5 -151.5t-158.5 -57.5zM287 844v-72q-117 2 -203 96q-6 6 0 15l35 37q10 10 16 0q76 -72 152 -76zM1094 -29v72q143 6 143 119q0 57 -45 91t-115 38q-68 -4 -112.5 -38t-44.5 -91q0 -111 139 -119v-72q-106 4 -161.5 56.5t-55.5 130.5q0 51 31.5 91t58 54 t51.5 21v2q-20 4 -45 17t-52.5 50t-27.5 86q0 76 56.5 127t144.5 53v-69q-57 -4 -90 -36t-33 -77q0 -53 39 -84t102 -35q66 4 105 35t39 84q0 47 -34 78t-93 35v69q96 -4 150 -55t54 -125q0 -49 -27.5 -86t-51 -49t-43.5 -18v-2q25 -8 49 -20.5t57 -53.5t33 -92 q0 -78 -55 -130.5t-166 -56.5z" glyph-name="fiveeighths" horiz-adv-x="1394" unicode="⅝"/><glyph d="M926 1405l-705 -1380q-10 -25 -37 -25h-45q-37 0 -22 29l706 1380q10 25 37 25h45q35 0 21 -29zM449 1434h57q10 0 10 -11v-22q0 -12 -4 -23l-336 -567q-6 -12 -18 -12h-62q-14 0 -8 12zM408 1434l-46 -78h-270q-12 0 -12 12v53q0 12 12 13h316zM938 -29v72 q141 6 141 119q0 57 -45 91t-112 38q-70 -4 -115 -38t-45 -91q0 -111 141 -119v-72q-109 4 -164 56.5t-55 130.5q0 39 17.5 71.5t44 52t45 28.5t34.5 14v2q-20 4 -44.5 17t-52.5 50t-28 86q0 76 56.5 127t146.5 53v-69q-59 -4 -92 -36t-33 -77q0 -53 39 -84t105 -35 q66 4 103.5 35t37.5 84q0 47 -33 78t-92 35v69q96 -4 149.5 -55t53.5 -125q0 -49 -28 -86t-51.5 -49t-43.5 -18v-2q16 -4 33.5 -13.5t44 -29t44 -52t17.5 -71.5q0 -78 -54 -130.5t-165 -56.5z" glyph-name="seveneighths" horiz-adv-x="1236" unicode="⅞"/><glyph d="M561 90v-117q-221 4 -349 152.5t-128 361.5q0 211 136 332t341 117v-113q-147 -6 -246.5 -99t-99.5 -243q0 -160 90 -271.5t256 -119.5zM602 -27v117q111 4 189.5 44t115.5 100.5t52.5 116t15.5 108.5q0 135 -112.5 244.5t-260.5 119.5v109q133 -8 236.5 -84t150.5 -189 q0 487 -227 633l-125 -211q-18 -25 -39 -10l-14 8q-27 14 -13 39l121 201q-98 23 -217 16q-29 -6 -29 27v61q0 31 29 33q10 0 35 1t37 1q102 0 209 -28l65 108q14 25 37 12l16 -10q25 -14 9 -39l-60 -100q160 -90 229.5 -280.5t69.5 -502.5q0 -309 -117.5 -474t-402.5 -171z " glyph-name="partialdiff" horiz-adv-x="1245" unicode="∂"/><glyph d="M207 0l59 117h1098l-571 1122l-633 -1239h-94q-29 0 -34 11.5t9 43.5l702 1350q4 8 10.5 19.5t9.5 15.5t7 10t8 8t10 2h7q6 0 10 -2t8 -8t7 -10t9.5 -15.5t10.5 -19.5l702 -1350q14 -33 8 -44t-34 -11h-1309z" glyph-name="uni2206" horiz-adv-x="1583" unicode="∆"/><glyph d="M999 29v1405h105q29 0 29 -29v-1376q0 -16 -6.5 -22.5t-22.5 -6.5h-76q-16 0 -22.5 6.5t-6.5 22.5zM965 1434v-119h-615v-1286q0 -29 -26 -29h-78q-29 0 -29 29v1376q0 29 29 29h719z" glyph-name="product" horiz-adv-x="1349" unicode="∏"/><glyph d="M406 1315l-76 119h762q29 0 28 -29v-62q0 -29 -28 -28h-686zM182 1434h109l440 -695q18 -25 0 -47l-440 -692h-109q-27 0 -26 29l442 684l-442 692q-1 29 26 29zM330 0l73 117h689q29 0 28 -27v-61q0 -29 -28 -29h-762z" glyph-name="summation" horiz-adv-x="1239" unicode="∑"/><glyph d="M1036 539h-905q-29 0 -29 26v43q0 29 29 29h905q27 0 27 -29v-43q0 -26 -27 -26z" glyph-name="minus" horiz-adv-x="1165" unicode="−"/><glyph d="M879 1405l-678 -1380q-10 -25 -37 -25h-45q-35 0 -21 29l676 1380q10 25 37 25h45q37 0 23 -29z" glyph-name="uni2215" horiz-adv-x="966" unicode="∕"/><glyph d="M100 702q0 45 33 78t80 33q45 0 78 -31.5t33 -79t-32 -80t-79 -32.5t-80 32.5t-33 79.5z" glyph-name="uni2219" horiz-adv-x="425" unicode="∙"/><glyph d="M1395 1311h-230l-604 -1321q-14 -25 -22 -25h-7q-8 0 -22 25l-467 1024q-14 29 12 28h86q27 0 39 -28l355 -803l540 1194q14 29 39 29h281q29 0 28 -29v-68q1 -26 -28 -26z" glyph-name="radical" horiz-adv-x="1423" unicode="√"/><glyph d="M1341 760q0 -217 -95 -326.5t-247 -109.5q-74 0 -133 31.5t-94 80.5t-52.5 85t-25.5 65h-2q-8 -27 -23.5 -56.5t-48 -74.5t-88 -73t-124.5 -28q-145 0 -239.5 110.5t-94.5 295.5q0 186 94 295.5t240 109.5q70 0 125 -27.5t87.5 -71.5t47 -71.5t24.5 -54.5h4 q6 27 23.5 61.5t52.5 83t94.5 80t132.5 31.5q154 0 248 -107.5t94 -328.5zM737 760q8 -131 77 -227.5t179 -96.5q106 0 178 81t72 243q0 166 -70.5 245.5t-179.5 79.5q-111 0 -179.5 -97t-76.5 -228zM174 760q0 -131 67.5 -212t170.5 -81q104 0 167.5 85t69.5 208 q-6 125 -69.5 210t-167.5 85q-102 0 -170 -81t-68 -214z" glyph-name="infinity" horiz-adv-x="1417" unicode="∞"/><glyph d="M416 -16v1020q0 225 86 340.5t280 115.5q111 0 203 -53q18 -10 10 -35l-10 -51q-6 -20 -12 -22.5t-23 6.5q-82 39 -157 38q-133 0 -191.5 -79.5t-58.5 -270.5v-1020q0 -225 -85 -340.5t-280 -115.5q-111 0 -203 53q-18 10 -12 35l12 51q2 18 9.5 21.5t23.5 -5.5 q82 -39 158 -39q133 0 191.5 80.5t58.5 270.5z" glyph-name="integral" horiz-adv-x="1013" unicode="∫"/><glyph d="M492 772q-86 80 -148 80q-55 0 -91 -27.5t-71 -91.5q-18 -27 -43 -10l-35 33q-20 18 -2 45q31 47 55.5 74.5t73 53t105.5 25.5q90 0 192 -90q49 -45 77 -60.5t67 -15.5q55 0 91 28t71 91q18 29 43 11l34 -33q23 -16 0 -45q-31 -45 -54 -73t-71.5 -53.5t-107.5 -25.5 q-96 0 -186 84zM498 397q-86 80 -148 80q-53 0 -90 -27.5t-72 -93.5q-20 -25 -43 -8l-34 31q-23 18 -2 45q31 47 55 74.5t72.5 53.5t105.5 26q96 0 190 -91q49 -45 77 -60t67 -15q55 0 92 27.5t70 92.5q12 16 20 17.5t23 -8.5l34 -31q25 -16 3 -45q-31 -47 -55.5 -75 t-73 -53.5t-105.5 -25.5q-96 0 -186 86z" glyph-name="approxequal" horiz-adv-x="1019" unicode="≈"/><glyph d="M246 29l186 477h-301q-29 0 -29 26v50q0 16 6.5 22t22.5 6h342l117 299h-459q-16 0 -22.5 6.5t-6.5 22.5v47q0 16 6.5 22.5t22.5 6.5h500l155 395q10 25 37 25h41q14 0 20.5 -5.5t4.5 -15.5q-16 -41 -156 -399h277q27 0 26 -27v-51q0 -27 -26 -27h-318l-117 -299h435 q27 0 26 -28v-50q0 -27 -26 -26h-475l-189 -481q-10 -25 -37 -25h-43q-32 0 -20 29z" glyph-name="notequal" horiz-adv-x="1138" unicode="≠"/><glyph d="M160 1018l758 375q27 12 26 -13v-82q0 -25 -26 -36l-625 -308l625 -307q27 -12 26 -39v-80q0 -25 -26 -14l-758 377q-23 10 -23 33v61q0 19 23 33zM956 193h-815q-29 0 -28 28v51q0 31 28 31h815q29 0 29 -29v-55q0 -26 -29 -26z" glyph-name="lessequal" horiz-adv-x="1101" unicode="≤"/><glyph d="M184 1393l760 -375q20 -14 21 -33v-61q0 -20 -21 -33l-760 -377q-27 -10 -26 14v80q0 27 26 39l625 307l-625 308q-27 12 -26 36v82q-1 25 26 13zM961 193h-816q-29 0 -28 26v55q0 29 28 29h816q29 0 28 -31v-51q0 -16 -6 -22t-22 -6z" glyph-name="greaterequal" horiz-adv-x="1101" unicode="≥"/><glyph d="M203 717l493 -582l494 582l-494 581zM1284 633l-516 -604q-37 -43 -68 -43h-8q-31 0 -67 43l-516 604q-84 84 0 168l516 604q37 43 67 43h8q31 0 68 -43l516 -604q84 -84 0 -168z" glyph-name="lozenge" horiz-adv-x="1382" unicode="◊"/><glyph d="M225 799l58 84h219q20 0 20 -19v-49q0 -16 -20 -16h-277zM309 1378v82q88 -2 139.5 -50t48.5 -111.5t-44 -127.5l-271 -372h-84q-6 0 -6 6v6q0 10 8 20l271 359q55 82 32.5 133t-94.5 55zM274 1458v-80q-70 -6 -124 -61q-14 -14 -29 -2l-33 35q-10 14 2 26q84 76 184 82z " glyph-name="two.numr" horiz-adv-x="602"/><glyph d="M86 1341l143 80q20 12 37 13h39q18 0 19 -19v-598q0 -18 -19 -18h-51q-18 0 -18 18v508l-144 -61q-16 -4 -16 12v47q0 12 10 18z" glyph-name="one.numr" horiz-adv-x="479"/><glyph d="M270 1464v-75q-72 -6 -135 -70q-14 -14 -29 0l-28 31q-14 14 0 24q83 88 192 90zM305 1389v75q94 -4 158.5 -53t64.5 -139q0 -55 -33.5 -93t-82.5 -55v-2q47 -12 81.5 -51t34.5 -98q0 -88 -65.5 -136.5t-157.5 -52.5v78q143 6 144 121q0 45 -44.5 76t-113.5 31h-60 q-18 0 -18 18v33q0 18 18 18h60q70 0 114 31t44 76q-1 117 -144 123zM270 862v-78q-113 6 -192 90q-12 12 0 25l28 31q14 14 29 0q63 -64 135 -68z" glyph-name="three.numr" horiz-adv-x="604"/><glyph d="M266 1536h1155q33 0 44.5 -11.5t11.5 -43.5v-1563q0 -33 -11.5 -44t-44.5 -11h-1155q-33 0 -44 11t-11 44v1563q0 33 11 44t44 11zM846 614l266 -266q23 -25 43 0l43 41q20 20 0 43l-266 268l266 267q23 20 0 43l-43 41q-20 23 -43 0l-266 -267l-266 267q-23 23 -43 0 l-43 -41q-23 -23 0 -43l266 -267l-266 -268q-23 -23 0 -43l43 -41q20 -23 43 0z" glyph-name="glyph405" horiz-adv-x="1687"/><glyph d="M416 1079h-80v252l-258 -360h-21q-20 0 -20 20v29q0 16 16 39l256 360q10 14 27 15h61q18 0 19 -19v-336zM176 1047h340q16 0 16 -21v-35q0 -20 -16 -20h-100v-154q0 -18 -19 -18h-43q-18 0 -18 18v154h-215z" glyph-name="four.numr" horiz-adv-x="573"/><glyph d="M156 1104h-60q-12 0 -12 12l41 305q2 12 12 13h314q12 0 12 -13v-45q0 -14 -12 -14h-263zM285 772v72q141 10 141 135q0 63 -43 94t-113 31h-80l11 72h71q104 0 168 -47.5t64 -147.5q0 -98 -59.5 -151.5t-159.5 -57.5zM250 844v-72q-113 2 -203 96q-4 8 2 15l35 37 q6 12 14 0q76 -72 152 -76z" glyph-name="five.numr" horiz-adv-x="536"/><glyph d="M319 1386v74q100 -2 193 -82q6 -10 -2 -18l-33 -35q-10 -10 -18 0q-68 59 -140 61zM285 844v-72q-242 4 -242 297q0 379 242 391v-74q-84 -6 -123 -85.5t-39 -180.5q53 90 162 99v-70q-70 -2 -115 -46t-45 -108q0 -47 36 -97t124 -54zM319 772v72q61 8 93 54t32 108 q0 55 -34.5 94t-90.5 47v72q86 -4 145.5 -61.5t59.5 -147.5q0 -98 -54.5 -164t-150.5 -74z" glyph-name="six.numr" horiz-adv-x="557"/><glyph d="M416 1434h57q10 0 10 -11v-22q0 -12 -4 -23l-336 -567q-6 -12 -18 -12h-62q-14 0 -8 12zM375 1434l-45 -78h-271q-12 0 -12 12v53q0 12 12 13h316z" glyph-name="seven.numr" horiz-adv-x="509"/><glyph d="M311 772v72q143 6 144 117q0 57 -46.5 91.5t-113.5 39.5q-68 -4 -114 -39t-46 -92q0 -47 34 -81t107 -36v-72q-109 2 -164 55.5t-55 130.5q0 39 17.5 72t44 52.5t45 28.5t35.5 13q-125 45 -125 156q0 76 56 127t146 53v-71q-57 -2 -90.5 -34t-33.5 -79q0 -53 38.5 -84 t104.5 -35q66 4 104.5 35t38.5 84q0 47 -33.5 78.5t-93.5 34.5v71q96 -4 149.5 -55t53.5 -125q0 -111 -123 -156q16 -4 33.5 -13t44.5 -28.5t44 -52.5t17 -72q0 -78 -54 -130t-165 -56z" glyph-name="eight.numr" horiz-adv-x="589"/><glyph d="M256 846v-74q-104 2 -193 82q-8 8 0 16l33 37q12 8 21 0q65 -55 139 -61zM291 1389v71q240 -8 239 -299q0 -377 -239 -389v74q59 4 97 48t51.5 98.5t13.5 117.5q-51 -88 -162 -96v69q70 2 114 46.5t44 105.5q0 49 -36 99.5t-122 54.5zM256 1460v-74q-61 -8 -93 -53 t-32 -108q0 -55 34 -94t91 -48v-69q-88 4 -146.5 60t-58.5 149q0 98 53.5 163.5t151.5 73.5z" glyph-name="nine.numr" horiz-adv-x="579"/><glyph d="M336 770v88q156 14 156 256t-156 256v88q123 -6 185.5 -103.5t62.5 -240.5t-61.5 -239.5t-186.5 -104.5zM301 858v-88q-125 6 -187.5 103.5t-62.5 240.5q0 147 63.5 242.5t186.5 101.5v-88q-80 -6 -119 -75.5t-39 -180.5q0 -109 39 -179.5t119 -76.5z" glyph-name="zero.numr" horiz-adv-x="634"/><glyph d="M193 0l61 84h215q18 0 18 -18v-50q0 -16 -18 -16h-276zM276 580v82q88 -2 138.5 -50.5t48.5 -112t-43 -126.5l-270 -373h-84q-8 0 -9 6v6q0 6 9 21l272 358q55 82 31.5 133.5t-93.5 55.5zM240 659v-79q-72 -6 -123 -62q-14 -14 -29 -2l-33 35q-14 14 0 27q85 75 185 81z " glyph-name="two.dnom" horiz-adv-x="534"/><glyph d="M250 657v-77q-76 -6 -135 -70q-16 -12 -29 0l-31 33q-12 12 0 24q80 84 195 90zM285 580v77q94 -4 157.5 -54t63.5 -138q0 -57 -34 -95t-81 -53v-2q47 -14 81 -53t34 -96q0 -88 -64.5 -136t-156.5 -53v76q141 8 141 123q0 45 -44 76t-114 31h-59q-18 0 -19 18v31 q0 20 19 20h59q70 0 114 31t44 76q0 115 -141 121zM250 55v-78q-109 6 -195 89q-10 12 0 26l31 31q12 12 29 0q63 -64 135 -68z" glyph-name="three.dnom" horiz-adv-x="548"/><glyph d="M256 45v-74q-109 6 -193 82q-6 8 0 19l33 34q10 10 21 0q65 -55 139 -61zM291 590v72q240 -8 239 -300q0 -377 -239 -391v74q59 4 97 49t51.5 99.5t13.5 117.5q-53 -90 -162 -96v68q70 4 114 47t44 106q0 47 -36 97.5t-122 56.5zM256 659v-71q-61 -8 -93 -54.5 t-32 -107.5q0 -57 34 -95t91 -46v-72q-88 4 -146.5 61.5t-58.5 149.5q0 98 53.5 162.5t151.5 72.5z" glyph-name="nine.dnom" horiz-adv-x="581"/><glyph d="M416 281h-80v251l-258 -360h-21q-20 0 -20 21v28q0 16 16 39l256 361q10 14 27 14h61q18 0 19 -19v-335zM176 248h340q16 0 16 -21v-34q0 -20 -16 -21h-100v-154q0 -18 -19 -18h-43q-18 0 -18 18v154h-215z" glyph-name="four.dnom" horiz-adv-x="573"/><glyph d="M303 -29v72q143 6 143 119q0 57 -45 91t-114 38q-68 -4 -113 -38t-45 -91q0 -111 139 -119v-72q-106 4 -161.5 56.5t-55.5 130.5q0 51 32 91t58.5 54t51.5 21v2q-20 4 -45 17t-52.5 50t-27.5 86q0 76 56 127t144 53v-69q-57 -4 -90 -36t-33 -77q0 -53 39 -84t103 -35 q66 4 104.5 35t38.5 84q0 47 -34 78t-93 35v69q96 -4 150.5 -55t54.5 -125q0 -49 -27.5 -86t-51 -49t-44.5 -18v-2q25 -8 49.5 -20.5t57 -53.5t32.5 -92q0 -78 -55 -130.5t-166 -56.5z" glyph-name="eight.dnom" horiz-adv-x="575"/><glyph d="M416 635h57q10 0 10 -10v-23q0 -12 -6 -22l-334 -568q-6 -12 -18 -12h-62q-14 0 -8 12zM375 635l-45 -78h-273q-10 0 -10 12v54q0 12 10 12h318z" glyph-name="seven.dnom" horiz-adv-x="507"/><glyph d="M326 590v74q104 -2 192 -82q6 -8 0 -19l-33 -35q-12 -8 -20 0q-67 60 -139 62zM291 47v-72q-240 4 -240 297q0 379 240 392v-74q-84 -6 -122 -85t-38 -181q49 90 160 98v-70q-70 -2 -114 -46t-44 -107q0 -47 36 -97.5t122 -54.5zM326 -25v72q61 8 94 54t33 108 q0 55 -36 94t-91 47v72q86 -4 145 -61.5t59 -147.5q0 -98 -54 -164t-150 -74z" glyph-name="six.dnom" horiz-adv-x="579"/><glyph d="M156 305h-60q-12 0 -12 12l41 306q2 12 12 12h314q12 0 12 -12v-45q0 -14 -12 -15h-263zM285 -27v72q141 10 141 135q0 63 -43 94t-113 31h-80l11 72h71q104 0 168 -47t64 -148q0 -98 -59.5 -151.5t-159.5 -57.5zM250 45v-72q-113 2 -203 97q-4 8 2 14l35 37q6 12 14 0 q76 -72 152 -76z" glyph-name="five.dnom" horiz-adv-x="536"/><glyph d="M645 92v-119q-268 8 -405.5 217t-137.5 527q0 205 55.5 366.5t180.5 266t307 110.5v-119q-143 -4 -239.5 -101t-133 -229t-36.5 -294q0 -119 21.5 -222.5t67.5 -194.5t127.5 -146.5t192.5 -61.5zM686 -27v119q111 6 193 61.5t127 146.5t66.5 194.5t21.5 222.5 q0 160 -37 292t-132.5 229t-238.5 103v119q180 -6 305 -110.5t181.5 -266t56.5 -366.5t-55.5 -366t-180.5 -266.5t-307 -111.5z" glyph-name="zero.tnum" horiz-adv-x="1331"/><glyph d="M78 1241l295 170q41 23 57 23h49q29 0 29 -29v-1376q0 -16 -6 -22.5t-23 -6.5h-76q-16 0 -22 6t-6 23v1241l-285 -129q-27 -6 -27 20v51q1 19 15 29z" glyph-name="one.tnum" horiz-adv-x="747"/><glyph d="M266 0l101 117h665q29 0 29 -27v-61q0 -16 -6 -22.5t-23 -6.5h-766zM559 1460v-119q-219 -10 -371 -176q-20 -20 -41 0l-45 49q-20 20 0 37q201 201 457 209zM600 1341v119q152 -4 260.5 -65.5t151.5 -152.5t23.5 -202.5t-107.5 -210.5l-715 -829h-100q-16 0 -17 16v19 q0 16 17 39l721 827q76 86 78.5 186.5t-79 175t-233.5 78.5z" glyph-name="two.tnum" horiz-adv-x="1148"/><glyph d="M545 1460v-119q-190 -8 -344 -174q-20 -23 -39 0l-45 47q-16 20 0 37q98 98 198.5 152.5t229.5 56.5zM586 -27v119q379 6 379 316q0 115 -99.5 190.5t-253.5 75.5h-219q-16 0 -22 6t-6 22v58q0 27 28 26h225q160 0 232 78t72 160q0 141 -93.5 226t-242.5 91v119 q190 -6 328.5 -115.5t138.5 -310.5q0 -111 -72 -194.5t-160 -108.5v-2q102 -27 189.5 -109.5t87.5 -220.5q0 -207 -138 -314.5t-374 -111.5zM545 92v-119q-250 6 -457 209q-18 18 2 37l43 47q20 20 41 0q158 -166 371 -174z" glyph-name="three.tnum" horiz-adv-x="1196"/><glyph d="M969 483h-127v787l-692 -936h-31q-25 0 -25 28v58q0 27 21 55l694 942q12 16 33 17h100q27 0 27 -29v-922zM283 442h929q27 0 27 -26v-54q0 -29 -27 -28h-243v-305q0 -29 -27 -29h-72q-29 0 -28 29v305h-641z" glyph-name="four.tnum" horiz-adv-x="1325"/><glyph d="M274 727h-88q-35 0 -28 29l90 649q2 16 7 22.5t19 6.5h691q29 0 28 -29v-62q0 -29 -28 -28h-609zM575 -27v119q375 6 375 340q0 295 -383 295h-254l17 119h241q233 0 372.5 -96.5t139.5 -313.5q0 -227 -137.5 -343t-370.5 -120zM537 92v-119q-256 8 -459 211q-16 16 2 33 l45 49q18 18 37 2q172 -172 375 -176z" glyph-name="five.tnum" horiz-adv-x="1185"/><glyph d="M668 1341v119q244 0 434 -166q20 -16 -2 -39l-43 -49q-25 -25 -45 0q-84 78 -162 106.5t-182 28.5zM668 823v113q205 4 341 -117t136 -332q0 -215 -129 -363.5t-348 -150.5v117q164 4 255 118t91 273q0 150 -101.5 244t-244.5 98zM627 934v-109q-150 -14 -260.5 -123.5 t-110.5 -242.5q0 -35 7 -74t31.5 -92t63.5 -95t109 -73t160 -35v-117q-518 14 -518 645q0 819 518 842v-119q-135 -8 -224.5 -105t-125 -240.5t-35.5 -336.5q47 109 142.5 185t242.5 90z" glyph-name="six.tnum" horiz-adv-x="1245"/><glyph d="M129 27l850 1407h104q25 0 25 -23v-10q0 -16 -18 -47l-807 -1329q-16 -25 -39 -25h-94q-35 0 -21 27zM92 1434h840l-76 -125h-764q-29 2 -29 28v68q0 29 29 29z" glyph-name="seven.tnum" horiz-adv-x="1148"/><glyph d="M635 1343v117q209 -4 332 -114.5t123 -276.5q0 -233 -267 -334v-4q31 -8 72 -28.5t97.5 -60.5t94 -109.5t37.5 -155.5q0 -174 -120.5 -287t-368.5 -117v117q184 4 272 87t88 206q0 129 -113.5 209t-265.5 90q-154 -10 -268.5 -90t-114.5 -209q0 -121 91.5 -206t269.5 -87 v-117q-246 4 -369 118t-123 286q0 86 38 155.5t94.5 110.5t98.5 61.5t75 28.5v4q-33 10 -67 27.5t-86 55.5t-85 102.5t-33 146.5q0 164 124 275.5t333 115.5v-117q-143 -4 -234.5 -84.5t-91.5 -195.5q0 -121 100.5 -194.5t247.5 -82.5q145 8 245 82t100 195 q0 117 -91.5 196.5t-234.5 83.5z" glyph-name="eight.tnum" horiz-adv-x="1228"/><glyph d="M580 92v-119q-250 0 -453 177q-20 18 2 40l43 48q25 25 45 2q175 -148 363 -148zM580 610v-112q-207 -4 -343.5 116.5t-136.5 331.5q0 215 130 363.5t350 150.5v-117q-166 -6 -257.5 -118.5t-91.5 -272.5q0 -152 102 -245t247 -97zM621 500v108q147 14 258.5 124 t111.5 243q0 33 -7 72.5t-31.5 92t-63.5 94.5t-108.5 73.5t-159.5 35.5v117q516 -14 516 -645q0 -811 -516 -840v119q385 25 385 680q-45 -109 -142.5 -183.5t-242.5 -90.5z" glyph-name="nine.tnum" horiz-adv-x="1243"/><glyph d="M76 702.5q0 292.5 140 512t382 348.5q29 14 41 -13l33 -55q18 -29 -15 -45q-205 -96 -329.5 -297t-124.5 -450.5t126 -451.5t328 -296q33 -16 15 -45l-33 -55q-12 -27 -41 -13q-240 123 -381 345.5t-141 515z" glyph-name="parenleft.aalt" horiz-adv-x="786"/><glyph d="M770 702.5q0 -292.5 -141.5 -515t-380.5 -345.5q-29 -14 -41 13l-33 55q-18 29 14 45q203 94 328 296t125 451.5t-125 450.5t-328 297q-33 16 -14 45l33 55q12 27 41 13q242 -129 382 -348.5t140 -512z" glyph-name="parenright.aalt" horiz-adv-x="786"/><glyph d="M721 676h-565q-27 0 -27 29v47q0 29 27 28h565q29 0 29 -26v-52q0 -26 -29 -26z" glyph-name="hyphen.aalt" horiz-adv-x="878"/><glyph d="M643 -131v-55q0 -16 -6 -22.5t-23 -6.5h-378q-16 0 -22.5 6t-6.5 23v1779q0 16 6 22.5t23 6.5h378q16 0 22.5 -6t6.5 -23v-55q0 -29 -29 -29h-286v-1613h286q29 0 29 -27z" glyph-name="bracketleft.aalt" horiz-adv-x="784"/><glyph d="M135 -186v55q0 27 29 27h287v1613h-287q-29 0 -29 29v55q0 16 6 22.5t23 6.5h379q16 0 22 -6t6 -23v-1779q0 -16 -6 -22.5t-22 -6.5h-379q-16 0 -22.5 6.5t-6.5 22.5z" glyph-name="bracketright.aalt" horiz-adv-x="776"/><glyph d="M76 698v66q0 18 28 31q70 20 125.5 80.5t55.5 130.5v161q0 131 37.5 229.5t91 150.5t127 84t130 41t115.5 9q16 0 22.5 -6t6.5 -22v-64q0 -27 -29 -26q-41 0 -84 -7.5t-97 -33t-94 -66.5t-68.5 -115.5t-28.5 -173.5v-161q0 -106 -57.5 -179t-129.5 -94v-4 q72 -23 129.5 -93.5t57.5 -178.5v-162q0 -98 28.5 -173t68.5 -116t94 -66.5t97 -32.5t84 -7q29 0 29 -27v-63q0 -29 -29 -29q-59 0 -115.5 9t-130 41t-127 84t-91 150.5t-37.5 229.5v162q0 72 -55.5 131t-125.5 80q-28 7 -28 30z" glyph-name="braceleft.aalt" horiz-adv-x="923"/><glyph d="M203 -154v1782q0 29 28 29h56q29 0 28 -29v-1782q0 -29 -28 -28h-56q-28 -1 -28 28z" glyph-name="bar.aalt" horiz-adv-x="518"/><glyph d="M848 764v-66q0 -23 -29 -30q-70 -20 -125 -80t-55 -131v-162q0 -131 -38 -229.5t-91 -150.5t-127 -84t-130 -41t-116 -9q-29 0 -28 29v63q0 27 28 27q41 0 84 7t96.5 32.5t94.5 66.5t68.5 116t27.5 173v162q0 109 58.5 179.5t129.5 92.5v4q-72 23 -130 94.5t-58 178.5 v161q0 98 -27.5 173t-68.5 116t-94.5 66.5t-96.5 33t-84 7.5q-29 0 -28 26v64q0 16 6 22t22 6q59 0 115.5 -9t130.5 -41t127 -84t91 -150.5t38 -229.5v-161q0 -70 55.5 -130.5t124.5 -80.5q29 -13 29 -31z" glyph-name="braceright.aalt" horiz-adv-x="923"/><glyph d="M217 -158v762q0 29 29 29h41q29 0 28 -29v-762q0 -16 -6 -22t-22 -6h-41q-29 -1 -29 28zM217 895v657q0 29 29 29h41q29 0 28 -29v-657q0 -16 -6 -22.5t-22 -6.5h-41q-29 0 -29 29z" glyph-name="brokenbar.aalt" horiz-adv-x="532"/><glyph d="M106 823l347 381q20 18 36 6l54 -28q20 -14 2 -35l-334 -387l334 -387q18 -20 -2 -35l-54 -29q-18 -12 -36 6l-347 381q-29 35 -28 58v12q-1 22 28 57zM539 823l348 381q18 18 35 6l53 -28q20 -14 2 -35l-334 -387l334 -387q18 -20 -2 -35l-53 -29q-18 -12 -35 6 l-348 381q-29 35 -29 58v12q0 22 29 57z" glyph-name="guillemotleft.aalt" horiz-adv-x="1081"/><glyph d="M627 1204l346 -381q31 -37 31 -57v-12q0 -25 -31 -58l-346 -381q-16 -18 -35 -6l-53 29q-18 14 -4 35l335 387l-335 387q-14 20 4 35l53 28q17 12 35 -6zM195 1204l346 -381q31 -37 30 -57v-12q0 -25 -30 -58l-346 -381q-16 -18 -37 -6l-52 29q-18 14 -4 35l336 387 l-336 387q-14 20 4 35l52 28q19 12 37 -6z" glyph-name="periodcentered.aalt" horiz-adv-x="1081"/><glyph d="M696 676h-579q-16 0 -22.5 6t-6.5 23v47q0 16 6 22t23 6h579q27 0 27 -26v-52q0 -26 -27 -26z" glyph-name="guillemotright.aalt" horiz-adv-x="811"/><glyph d="M1042 676h-925q-16 0 -22.5 6t-6.5 23v47q0 16 6 22t23 6h925q27 0 27 -26v-52q0 -26 -27 -26z" glyph-name="endash.aalt" horiz-adv-x="1157"/><glyph d="M92 731q0 53 37 91t92 38q53 0 92 -38t39 -91q0 -55 -39 -93t-92 -38q-55 0 -92 38t-37 93z" glyph-name="emdash.aalt" horiz-adv-x="442"/><glyph d="M115 823l346 381q18 18 37 6l51 -28q18 -14 4 -35l-336 -387l336 -387q14 -20 -4 -35l-51 -29q-20 -12 -37 6l-346 381q-31 33 -31 58v12q0 20 31 57z" glyph-name="bullet.aalt" horiz-adv-x="667"/><glyph d="M207 1204l346 -381q31 -37 31 -57v-12q0 -25 -31 -58l-346 -381q-16 -18 -35 -6l-53 29q-18 14 -4 35l336 387l-336 387q-14 20 4 35l53 28q17 12 35 -6z" glyph-name="guilsinglleft.aalt" horiz-adv-x="667"/><glyph d="M109 731q0 49 34.5 84t83.5 35t84 -35t35 -84q0 -51 -35 -85t-84 -34t-83.5 34t-34.5 85z" glyph-name="guilsinglright.aalt" horiz-adv-x="456"/><glyph d="M225 967l62 84h215q20 0 20 -19v-49q0 -16 -20 -16h-277zM309 1546v82q88 -2 139.5 -50t48.5 -111.5t-44 -127.5l-271 -372h-84q-6 0 -6 6v6q0 10 8 20l271 359q55 82 32.5 133t-94.5 55zM274 1626v-80q-70 -6 -124 -61q-14 -14 -29 -2l-33 35q-10 14 2 26q84 76 184 82z " glyph-name="two.superior" horiz-adv-x="602"/><glyph d="M86 1509l143 80q20 12 37 13h39q18 0 19 -19v-598q0 -18 -19 -18h-49q-18 0 -18 18v510l-146 -61q-16 -4 -16 12v45q0 12 10 18z" glyph-name="one.superior" horiz-adv-x="479"/><glyph d="M360 938v88q158 14 158 256t-158 256v88q125 -6 187.5 -103.5t62.5 -240.5t-61.5 -239.5t-188.5 -104.5zM326 1026v-88q-123 6 -185.5 103.5t-62.5 240.5q0 147 62.5 242.5t185.5 101.5v-88q-156 -12 -156 -256t156 -256z" glyph-name="zero.superior" horiz-adv-x="686"/><glyph d="M416 1247h-80v252l-258 -360h-21q-20 0 -20 20v29q0 16 16 39l256 360q10 14 27 15h61q18 0 19 -19v-336zM176 1214h340q16 0 16 -20v-35q0 -20 -16 -20h-100v-154q0 -18 -19 -18h-43q-18 0 -18 18v154h-215z" glyph-name="four.superior" horiz-adv-x="573"/><glyph d="M156 1272h-60q-12 0 -12 12l41 305q2 12 12 13h314q12 0 12 -13v-45q0 -14 -12 -14h-263zM285 940v72q141 10 141 135q0 63 -43 94t-113 31h-80l11 71h71q104 0 168 -47t64 -147q0 -98 -59.5 -151.5t-159.5 -57.5zM250 1012v-72q-113 2 -203 96q-4 8 2 15l35 36 q6 12 14 0q76 -71 152 -75z" glyph-name="five.superior" horiz-adv-x="536"/><glyph d="M319 1554v74q100 -2 193 -82q6 -10 -2 -18l-33 -35q-10 -10 -18 0q-68 59 -140 61zM285 1012v-72q-242 4 -242 297q0 379 242 391v-74q-84 -6 -123 -85.5t-39 -180.5q53 90 162 98v-69q-70 -2 -115 -46t-45 -108q0 -47 36 -97t124 -54zM319 940v72q61 8 93 54t32 108 q0 55 -34.5 94t-90.5 47v71q86 -4 145.5 -61t59.5 -147q0 -98 -54.5 -164t-150.5 -74z" glyph-name="six.superior" horiz-adv-x="557"/><glyph d="M416 1602h57q10 0 10 -11v-22q0 -12 -4 -23l-336 -567q-6 -12 -18 -12h-62q-14 0 -8 12zM375 1602l-45 -78h-271q-12 0 -12 12v53q0 12 12 13h316z" glyph-name="seven.superior" horiz-adv-x="509"/><glyph d="M311 938v72q143 6 144 118q0 57 -45 91t-115 38q-70 -4 -115 -37.5t-45 -91.5q0 -111 141 -118v-72q-109 4 -164 56.5t-55 129.5q0 39 17.5 72t44 52.5t45 28.5t35.5 13v2q-20 6 -44 18.5t-52.5 49.5t-28.5 86q0 76 56 127t146 53v-70q-57 -4 -90.5 -35.5t-33.5 -76.5 q0 -53 39.5 -84t103.5 -35q66 4 104.5 35t38.5 84q0 47 -33.5 77.5t-93.5 34.5v70q96 -4 149.5 -55t53.5 -125q0 -49 -27.5 -86t-51 -49.5t-44.5 -18.5v-2q16 -4 33.5 -13t44.5 -28.5t44 -52.5t17 -72q0 -78 -54 -130t-165 -56z" glyph-name="eight.superior" horiz-adv-x="589"/><glyph d="M256 1012v-74q-109 6 -193 82q-6 8 0 18l33 35q12 8 21 0q65 -55 139 -61zM291 1554v72q240 -4 239 -299q0 -377 -239 -389v74q59 4 97 49t51.5 99t13.5 118q-53 -90 -162 -98v69q70 2 114 46t44 108q0 47 -36 97t-122 54zM256 1626v-72q-61 -8 -93 -54t-32 -107 q0 -57 34 -95t91 -47v-71q-88 4 -146.5 60t-58.5 149q0 98 53.5 163.5t151.5 73.5z" glyph-name="nine.superior" horiz-adv-x="579"/><glyph d="M336 -336v88q156 14 156 256t-156 256v88q123 -6 185.5 -103t62.5 -240.5t-61.5 -240t-186.5 -104.5zM301 -248v-88q-125 6 -187.5 103.5t-62.5 240.5q0 147 63.5 242.5t186.5 101.5v-88q-80 -6 -119 -75.5t-39 -180.5q0 -109 39 -178.5t119 -77.5z" glyph-name="zero.sinf" horiz-adv-x="634"/><glyph d="M193 -307l61 84h215q18 0 18 -19v-49q0 -16 -18 -16h-276zM276 272v82q88 -2 138.5 -50t48.5 -111.5t-43 -126.5l-270 -373h-84q-8 0 -9 6v6q0 6 9 21l272 358q55 82 31.5 133t-93.5 55zM240 352v-80q-72 -6 -123 -61q-14 -14 -29 -2l-33 35q-14 14 0 26q85 76 185 82z " glyph-name="two.sinf" horiz-adv-x="534"/><glyph d="M250 354v-75q-72 -6 -135 -70q-16 -16 -29 0l-31 31q-12 14 0 24q84 86 195 90zM285 279v75q92 -4 156.5 -53t64.5 -139q0 -55 -34 -93t-81 -55v-2q47 -12 81 -51t34 -98q0 -88 -64.5 -136.5t-156.5 -52.5v78q141 8 141 121q0 45 -44 76t-114 31h-59q-18 0 -19 18v33 q0 18 19 18h59q70 0 114 31t44 76q0 117 -141 123zM250 -248v-78q-111 6 -195 90q-10 12 0 25l31 31q12 16 29 0q63 -64 135 -68z" glyph-name="three.sinf" horiz-adv-x="548"/><glyph d="M256 -262v-74q-109 6 -193 82q-6 8 0 18l33 35q12 8 21 0q65 -55 139 -61zM291 281v71q240 -4 239 -299q0 -377 -239 -389v74q59 4 97 49t51.5 99.5t13.5 117.5q-53 -90 -162 -98v69q70 2 114 46.5t44 107.5q0 47 -36 97.5t-122 54.5zM256 352v-71q-61 -8 -93 -54.5 t-32 -107.5q0 -57 34 -95t91 -47v-71q-88 4 -146.5 60.5t-58.5 148.5q0 98 53.5 163.5t151.5 73.5z" glyph-name="nine.sinf" horiz-adv-x="581"/><glyph d="M416 -25h-80v250l-258 -360h-21q-20 0 -20 20v29q0 16 16 39l256 360q10 14 27 15h61q18 0 19 -19v-334zM176 -59h340q16 0 16 -21v-35q0 -20 -16 -20h-100v-154q0 -18 -19 -18h-43q-18 0 -18 18v154h-215z" glyph-name="four.sinf" horiz-adv-x="573"/><glyph d="M303 -336v72q143 6 143 119q0 57 -45 92t-114 39q-68 -4 -113 -40t-45 -91q0 -111 139 -119v-72q-106 4 -161.5 56.5t-55.5 129.5q0 51 32 91.5t58.5 54.5t51.5 20v2q-20 4 -45 17.5t-52.5 50.5t-27.5 86q0 76 56 127t144 53v-69q-57 -4 -90 -36t-33 -77q0 -53 39 -84 t103 -35q66 4 104.5 35t38.5 84q0 47 -34 78t-93 35v69q96 -4 150.5 -55t54.5 -125q0 -49 -27.5 -86t-51 -49t-44.5 -19v-2q25 -8 49.5 -20t57 -53t32.5 -93q0 -78 -55 -130t-166 -56z" glyph-name="eight.sinf" horiz-adv-x="575"/><glyph d="M416 328h57q10 0 10 -11v-22q0 -12 -4 -23l-336 -567q-6 -12 -18 -12h-62q-14 0 -8 12zM375 328l-45 -78h-271q-12 0 -12 12v53q0 12 12 13h316z" glyph-name="seven.sinf" horiz-adv-x="507"/><glyph d="M326 281v73q104 -2 192 -82q6 -8 0 -18l-33 -35q-12 -8 -20 0q-67 60 -139 62zM291 -262v-72q-240 4 -240 297q0 379 240 391v-73q-84 -6 -122 -85t-38 -182q49 90 160 99v-70q-70 -2 -114 -46t-44 -108q0 -47 36 -97t122 -54zM326 -334v72q61 8 94 54t33 108 q0 55 -36 94t-91 47v72q86 -4 145 -61.5t59 -147.5q0 -98 -54 -164t-150 -74z" glyph-name="six.sinf" horiz-adv-x="579"/><glyph d="M156 -2h-60q-12 0 -12 12l41 305q2 12 12 13h314q12 0 12 -13v-45q0 -14 -12 -14h-263zM285 -334v72q141 10 141 137q0 61 -43 92t-113 31h-80l11 72h71q104 0 168 -47.5t64 -147.5q0 -98 -59.5 -151.5t-159.5 -57.5zM250 -262v-72q-113 2 -203 96q-4 8 2 15l35 37 q6 12 14 0q76 -72 152 -76z" glyph-name="five.sinf" horiz-adv-x="536"/><glyph d="M41 236l143 79q20 12 37 13h39q18 0 19 -19v-598q0 -18 -19 -18h-49q-18 0 -18 18v510l-146 -61q-16 -4 -16 12v45q0 13 10 19z" glyph-name="one.sinf" horiz-adv-x="368"/><glyph d="M336 -29v88q156 14 156 256t-156 256v88q123 -6 185.5 -103t62.5 -240.5t-61.5 -240t-186.5 -104.5zM301 59v-88q-125 6 -187.5 103.5t-62.5 240.5q0 147 63.5 242.5t186.5 101.5v-88q-80 -6 -119 -75.5t-39 -180.5q0 -109 39 -179.5t119 -76.5z" glyph-name="zero.dnom" horiz-adv-x="634"/><glyph d="M270 1628v-78q-76 -6 -135 -69q-14 -12 -29 0l-28 32q-14 14 0 25q79 84 192 90zM305 1550v78q94 -4 158.5 -54t64.5 -138q0 -57 -33.5 -95t-82.5 -53v-2q49 -14 82.5 -52t33.5 -97q0 -88 -65.5 -136.5t-157.5 -52.5v76q143 8 144 123q0 45 -44.5 75.5t-113.5 30.5h-60 q-18 0 -18 19v33q0 18 18 18h60q70 0 114 30.5t44 76.5q0 51 -35 84.5t-109 35.5zM270 1026v-78q-113 6 -192 90q-14 10 0 25l28 31q16 12 29 0q63 -64 135 -68z" glyph-name="three.superior" horiz-adv-x="604"/></font>
</defs>
</svg>
