<?xml version="1.0" standalone="no"?>
<!DOCTYPE svg PUBLIC "-//W3C//DTD SVG 1.1//EN" "http://www.w3.org/Graphics/SVG/1.1/DTD/svg11.dtd">
<svg xmlns="http://www.w3.org/2000/svg"><metadata>This SVG WebFont was generated by YouWorkForThem.
Copyright (c) 2016 by Ufuk Aracâºoâ¬lu. All rights reserved.</metadata><defs><font horiz-adv-x="1228" id="ywftsvg"><font-face ascent="1638" bbox="-96 -847.143 2511 2478.01" cap-height="1434" descent="-410" font-family="" font-stretch="normal" font-weight="850" panose-1="2 0 5 5 0 0 0 2 0 4" underline-position="0" underline-thickness="0" unicode-range="U+000D-FB03" units-per-em="2048" x-height="1042"/><missing-glyph horiz-adv-x="518"/><glyph d="M473 1036h420v66q0 217 103.5 337t303.5 120q117 0 197 -50q23 -14 28 -25t-1 -38l-23 -123q-6 -37 -17 -41t-44 12q-47 20 -109 21q-166 0 -166 -223v-56h287q29 0 39 -10t10 -39v-117q0 -29 -10 -39t-39 -10h-287v-772q0 -29 -10 -39t-39 -10h-174q-29 0 -39 10t-10 39 v772h-420v-772q0 -29 -10 -39t-39 -10h-174q-29 0 -39 10t-10 39v772h-113q-29 0 -39 10.5t-10 38.5v117q0 29 10 39t39 10h113v66q0 217 103.5 337t303.5 120q117 0 197 -50q20 -14 25.5 -25t0.5 -38l-22 -123q-6 -37 -18.5 -42t-45.5 13q-43 20 -106 21q-166 0 -166 -223 v-56z" glyph-name="uniFB00" horiz-adv-x="1550" unicode="ff"/><glyph d="M954 823h-481v-774q0 -29 -10 -39t-39 -10h-174q-29 0 -39 10t-10 39v774h-113q-29 0 -39 10.5t-10 38.5v121q0 29 10 39t39 10h113v60q0 217 103.5 337t303.5 120q117 0 197 -50q20 -14 25.5 -25t0.5 -38l-22 -123q-6 -37 -18.5 -42t-45.5 13q-43 20 -106 21 q-166 0 -166 -223v-50h705q29 0 39 -10t10 -39v-944q0 -29 -10.5 -39t-38.5 -10h-174q-29 0 -39.5 10t-10.5 39v774zM928 1362q0 68 46 116t113.5 48t115.5 -48t48 -116t-48 -115t-115.5 -47t-113.5 47t-46 115z" glyph-name="uniFB01" horiz-adv-x="1419" unicode="fi"/><glyph d="M1647 823h-482v-774q0 -29 -10 -39t-39 -10h-174q-29 0 -39 10t-10 39v774h-420v-774q0 -29 -10 -39t-39 -10h-174q-29 0 -39 10t-10 39v774h-113q-29 0 -39 10.5t-10 38.5v121q0 29 10 39t39 10h113v60q0 217 103.5 337t303.5 120q117 0 197 -50q20 -14 25.5 -25 t0.5 -38l-22 -123q-6 -37 -18.5 -42t-45.5 13q-43 20 -106 21q-166 0 -166 -223v-50h420v60q0 217 103.5 337t303.5 120q117 0 197 -50q23 -14 28 -25t-1 -38l-23 -123q-6 -37 -17 -41t-44 12q-47 20 -109 21q-166 0 -166 -223v-50h705q29 0 39 -10t10 -39v-944 q0 -29 -10.5 -39t-38.5 -10h-174q-29 0 -39 10t-10 39v774zM1620 1362q0 68 46 116t113.5 48t116 -48t48.5 -116t-48.5 -115t-116 -47t-113.5 47t-46 115z" glyph-name="uniFB03" horiz-adv-x="2111" unicode="ffi"/><glyph d="M473 1038l754 4q29 0 40 -10t11 -39v-1020q0 -217 -104.5 -336.5t-305.5 -119.5q-119 0 -202 53q-20 14 -24.5 24.5t-0.5 36.5l23 125q6 37 17 41t44 -12q47 -25 115 -25q166 0 166 224v827v12h-533v-774q0 -29 -10 -39t-39 -10h-174q-29 0 -39 10t-10 39v774h-113 q-29 0 -39 10.5t-10 38.5v117q0 29 10 39t39 10h113v64q0 217 103.5 337t303.5 120q117 0 197 -50q20 -14 25.5 -25t0.5 -38l-22 -123q-6 -37 -18.5 -42t-45.5 13q-43 20 -106 21q-166 0 -166 -223v-54zM979 1362q0 68 46 116t113.5 48t116 -48t48.5 -116t-48.5 -115 t-116 -47t-113.5 47t-46 115z" glyph-name="f_j.liga" horiz-adv-x="1466" unicode="fj"/><glyph d="M1165 1038l756 4q29 0 39 -10t10 -39v-1020q0 -217 -104.5 -336.5t-304.5 -119.5q-119 0 -203 53q-20 14 -24.5 24.5t-0.5 36.5l23 125q6 37 17 41t44 -12q47 -25 115 -25q166 0 166 224v839h-533v-774q0 -29 -10 -39t-39 -10h-174q-29 0 -39 10t-10 39v774h-420v-774 q0 -29 -10 -39t-39 -10h-174q-29 0 -39 10t-10 39v774h-113q-29 0 -39 10.5t-10 38.5v117q0 29 10 39t39 10h113v64q0 217 103.5 337t303.5 120q117 0 197 -50q20 -14 25.5 -25t0.5 -38l-22 -123q-6 -37 -18.5 -42t-45.5 13q-43 20 -106 21q-166 0 -166 -223v-54h420v64 q0 217 103.5 337t303.5 120q117 0 197 -50q23 -14 28 -25t-1 -38l-23 -123q-6 -37 -17 -41t-44 12q-47 20 -109 21q-166 0 -166 -223v-54zM1671 1362q0 68 46 116t113.5 48t116 -48t48.5 -116t-48.5 -115t-116 -47t-113.5 47t-46 115z" glyph-name="f_f_j.liga" horiz-adv-x="2158" unicode="ffj"/><glyph glyph-name=".notdef" horiz-adv-x="518"/><glyph glyph-name="glyph1" horiz-adv-x="0"/><glyph glyph-name="glyph2" horiz-adv-x="681"/><glyph glyph-name="glyph3" horiz-adv-x="0"/><glyph glyph-name="glyph3" horiz-adv-x="0"/><glyph glyph-name="space" horiz-adv-x="518" unicode=" "/><glyph d="M217 553l-37 831q0 29 10.5 39.5t38.5 10.5h238q29 0 40 -10.5t11 -39.5l-39 -831q0 -29 -10 -39t-39 -10h-164q-29 0 -39 10t-10 39zM172 151.5q0 73.5 51 125t123 51.5q74 0 126 -51.5t52 -125t-52 -124t-126 -50.5q-72 0 -123 50.5t-51 124z" glyph-name="exclam" horiz-adv-x="696" unicode="!"/><glyph d="M111 956v428q0 29 10 39.5t39 10.5h155q63 0 47 -62l-94 -434q-8 -31 -45 -31h-63q-29 0 -39 10t-10 39zM477 956v428q0 29 10.5 39.5t38.5 10.5h158q61 0 45 -62l-94 -434q-8 -31 -43 -31h-66q-29 0 -39 10t-10 39z" glyph-name="quotedbl" horiz-adv-x="819" unicode="&quot;"/><glyph d="M254 1087h336l78 306q12 41 61 41h92q63 0 47 -50l-75 -297h340l77 306q14 41 64 41h92q63 0 47 -50l-76 -297h285q29 0 39 -10t10 -39v-100q0 -29 -10 -39t-39 -10h-336l-88 -342h299q29 0 39 -10.5t10 -38.5v-101q0 -29 -10 -39t-39 -10h-350l-78 -307 q-10 -27 -22.5 -34t-40.5 -7h-97q-33 0 -42 11.5t-1 37.5l78 299h-342l-78 -307q-8 -27 -20 -34t-43 -7h-96q-57 0 -41 49l75 299h-270q-29 0 -40 10.5t-11 38.5v101q0 29 11 39t40 10h322l86 342h-283q-29 0 -40 10t-11 39v100q0 29 11 39t40 10zM741 889l-88 -342h340 l88 342h-340z" glyph-name="numbersign" horiz-adv-x="1732" unicode="#"/><glyph d="M537 -141v125q-246 18 -441 147q-23 14 -24.5 30.5t12.5 41.5l74 121q27 47 65 22q143 -96 314 -113v365q-461 59 -461 399q0 100 44 193.5t152.5 170.5t264.5 91v115q0 29 10 39t39 10h55q29 0 39 -10.5t10 -38.5v-115q203 -14 424 -149q23 -14 24 -31t-14 -39l-71 -121 q-29 -49 -68 -25q-156 102 -295 113v-364q98 -12 174 -35t151 -68t115.5 -125t40.5 -192q0 -172 -126.5 -298t-354.5 -138v-121q0 -29 -10 -39t-39 -10h-55q-29 0 -39 10t-10 39zM889 401q0 74 -50.5 113t-148.5 59v-340q199 21 199 168zM358 1008q0 -113 179 -150v336 q-179 -24 -179 -186z" glyph-name="dollar" horiz-adv-x="1259" unicode="$"/><glyph d="M420 727q-158 0 -255 96.5t-97 270.5t97 270t255 96t255 -96t97 -270t-97 -270.5t-255 -96.5zM419.5 887q69.5 0 112.5 57t43 149.5t-43 149.5t-112.5 57t-111.5 -57t-42 -149.5t42 -149.5t111.5 -57zM1475 1384l-957 -1349q-27 -35 -63 -35h-129q-68 0 -33 49l956 1350 q27 35 64 35h129q68 -1 33 -50zM1347.5 -4q-157.5 0 -255 96t-97.5 270.5t97.5 270.5t255 96t254 -95t96.5 -271.5t-96.5 -271.5t-254 -95zM1347.5 156q69.5 0 111.5 57t42 149.5t-42 149.5t-111.5 57t-112.5 -57t-43 -149.5t43 -149.5t112.5 -57z" glyph-name="percent" horiz-adv-x="1767" unicode="%"/><glyph d="M844 377l-226 231q-244 -84 -243 -209q0 -182 217 -182q131 0 252 160zM653 879l15 -13q70 31 123 88.5t53 120.5q0 70 -45 112t-119 42q-72 0 -112 -41t-40 -113q0 -79 125 -196zM1479 608q-20 -14 -71.5 -48t-78 -53.5t-68.5 -54t-79 -73.5l342 -330q14 -14 16 -25.5 t-7 -17.5t-28 -6h-264q-6 0 -12 1t-11.5 2t-9.5 3t-9 5t-8 5t-8 7.5t-7 7.5t-9.5 9t-9.5 9l-158 160q-102 -115 -205.5 -175.5t-234.5 -60.5q-229 0 -357 117t-128 301q0 156 99 243t265 140v2q-186 168 -188 344q-2 129 108.5 234.5t321.5 105.5q213 0 327.5 -105.5 t114.5 -234.5q0 -254 -286 -403l180 -172q78 90 307 250q37 27 68 -9l96 -112q35 -39 -8 -66z" glyph-name="ampersand" horiz-adv-x="1589" unicode="&amp;"/><glyph d="M88 956v428q0 29 11.5 39.5t39.5 10.5h156q63 0 47 -62l-94 -434q-10 -31 -45 -31h-64q-29 0 -40 10t-11 39z" glyph-name="quotesingle" horiz-adv-x="436" unicode="'"/><glyph d="M68 590q0 293 141 511t389 349q45 25 74 -23l76 -131q31 -55 -35 -88q-176 -84 -272.5 -244.5t-96.5 -373.5t96.5 -374t272.5 -245q66 -33 35 -88l-76 -131q-29 -47 -74 -22q-248 131 -389 349t-141 511z" glyph-name="parenleft" horiz-adv-x="833" unicode="("/><glyph d="M778 590q0 -293 -141 -511t-389 -349q-45 -25 -74 22l-76 131q-31 55 35 88q176 84 272.5 245t96.5 374t-96.5 373.5t-272.5 244.5q-66 33 -35 88l76 131q29 47 74 23q248 -131 389 -349t141 -511z" glyph-name="parenright" horiz-adv-x="833" unicode=")"/><glyph d="M102 973l185 76l-183 75q-47 18 -22 66l41 76q27 49 65 22l187 -121l-19 222q-2 29 8.5 39t41.5 10h86q31 0 41 -10.5t8 -38.5l-21 -220l187 121q41 25 65 -22l39 -76q14 -27 10 -41t-28 -25l-185 -77l185 -74q47 -18 20 -68l-39 -76q-25 -47 -65 -22l-189 119l21 -221 q2 -29 -8.5 -39.5t-40.5 -10.5h-86q-31 0 -41.5 10.5t-8.5 39.5l19 221l-187 -121q-43 -25 -67 22l-39 76q-25 48 20 68z" glyph-name="asterisk" horiz-adv-x="894" unicode="*"/><glyph d="M633 995v-258h258q29 0 39 -10t10 -39v-123q0 -29 -10 -39t-39 -10h-258v-260q0 -29 -11.5 -39t-39.5 -10h-121q-29 0 -39 10t-10 39v260h-260q-29 0 -39.5 10.5t-10.5 38.5v121q0 29 10.5 40t39.5 11h260v258q0 29 10 39t39 10h123q29 0 39 -10t10 -39z" glyph-name="plus" horiz-adv-x="1042" unicode="+"/><glyph d="M293 -20h-8q-72 2 -121 52t-49 122q0 74 50 126t124 52q84 0 136 -63.5t52 -172.5q0 -143 -88 -263t-215 -179q-20 -10 -31 6l-49 74q-8 20 10 30q158 101 189 216z" glyph-name="comma" horiz-adv-x="591" unicode=","/><glyph d="M723 473h-565q-29 0 -39 11.5t-10 39.5v113q0 29 10 39t39 10h565q29 0 39 -10t10 -39v-115q0 -29 -10 -39t-39 -10z" glyph-name="hyphen" horiz-adv-x="880" unicode="-"/><glyph d="M115 151.5q0 73.5 50 126t123.5 52.5t126 -52.5t52.5 -126t-52.5 -124t-126 -50.5t-123.5 50.5t-50 124z" glyph-name="period" horiz-adv-x="581" unicode="."/><glyph d="M817 1384l-463 -1343q-10 -27 -22.5 -34t-40.5 -7h-156q-33 0 -42 11.5t-1 37.5l465 1344q12 41 61 41h152q63 -1 47 -50z" glyph-name="slash" horiz-adv-x="901" unicode="/"/><glyph d="M389 716.5q0 -98.5 13.5 -180t45 -155.5t91 -115t141.5 -41t141.5 41t91 115t45 155.5t13.5 180t-13.5 180.5t-45 155.5t-91 114.5t-141.5 41t-141.5 -41t-91 -114.5t-45 -155.5t-13.5 -180.5zM94 716.5q0 323.5 149.5 533.5t436.5 210t436.5 -209t149.5 -534.5 t-149.5 -534.5t-436.5 -209t-436.5 210t-149.5 533.5z" glyph-name="zero" horiz-adv-x="1359" unicode="0"/><glyph d="M96 1233l250 151q70 49 105 50h116q29 0 39 -10.5t10 -39.5v-1335q0 -29 -10 -39t-39 -10h-190q-29 0 -40 10t-11 39v1022l-207 -29q-29 0 -39 10.5t-10 37.5v90q-1 35 26 53z" glyph-name="one" horiz-adv-x="788" unicode="1"/><glyph d="M956 795l-424 -547h488q29 0 39 -10.5t10 -38.5v-150q0 -29 -10 -39t-39 -10h-942q-18 0 -19 18v27q0 12 19 39l639 815q88 113 36.5 211t-184.5 98q-180 0 -321 -145q-23 -20 -36 -18t-34 24l-102 111q-20 23 -22.5 36t16.5 33q215 211 499 211q125 0 227.5 -42 t162 -111.5t84 -154.5t3 -180t-89.5 -177z" glyph-name="two" horiz-adv-x="1144" unicode="2"/><glyph d="M596 608h-203q-29 0 -39 10.5t-10 38.5v136q0 29 10.5 39t38.5 10h182q113 0 167.5 50t54.5 116q0 201 -234 200q-94 0 -151.5 -33.5t-124.5 -107.5q-35 -35 -70 6l-98 107q-20 25 -22.5 36t16.5 33q109 106 210 158.5t240 52.5q72 0 143.5 -15t141.5 -48t122 -82 t83.5 -122t31.5 -159q0 -102 -54 -183t-132 -124v-2q223 -106 223 -315q0 -215 -155.5 -326t-403.5 -111q-262 0 -477 211q-18 20 -16 33.5t22 34.5l96 108q37 37 72 5q139 -139 303 -140q145 0 208 53.5t63 155.5q0 74 -62.5 124t-175.5 50z" glyph-name="three" horiz-adv-x="1200" unicode="3"/><glyph d="M764 1434h229q29 0 39 -10.5t10 -39.5v-839h166q29 0 39 -10.5t10 -38.5v-123q0 -29 -10 -40t-39 -11h-166v-273q0 -29 -10 -39t-39 -10h-174q-29 0 -39 10t-10 39v273h-639q-29 0 -39 11t-10 40v133q0 43 29 80l620 831q13 17 33 17zM770 1073l-397 -528h397v528z" glyph-name="four" horiz-adv-x="1323" unicode="4"/><glyph d="M262 1434h703q29 0 39 -10.5t10 -39.5v-149q0 -29 -10.5 -39t-38.5 -10h-527l-39 -283h183q530 0 530 -448q0 -238 -155.5 -360t-401.5 -122q-262 0 -477 211q-18 20 -16.5 32.5t22.5 35.5l96 108q37 37 70 5q74 -70 141.5 -105t163.5 -35q270 0 270 217q0 209 -268 209 h-383q-57 0 -51 49l90 684q4 31 12 40.5t37 9.5z" glyph-name="five" horiz-adv-x="1185" unicode="5"/><glyph d="M741 936q193 0 320 -118t127 -331q0 -215 -144.5 -364.5t-373.5 -149.5q-168 0 -284 55.5t-177.5 158t-87 221t-25.5 272.5q0 164 32 299t98.5 245.5t186 173t281.5 62.5q254 0 455 -190q18 -20 16 -32.5t-22 -37.5l-103 -110q-20 -23 -33.5 -25t-35.5 18 q-68 66 -135.5 95.5t-163.5 29.5q-135 0 -212 -119.5t-77 -314.5q98 162 358 162zM653 217q115 0 181.5 70.5t66.5 181.5q0 102 -72.5 171t-175.5 69q-109 0 -180.5 -72t-71.5 -174q0 -98 64.5 -172t187.5 -74z" glyph-name="six" horiz-adv-x="1273" unicode="6"/><glyph d="M1155 1399v-10q0 -20 -20 -56l-709 -1284q-29 -49 -80 -49h-201q-68 0 -47 49l617 1118h-604q-29 4 -39.5 12.5t-10.5 37.5v167q0 29 10.5 39.5t39.5 10.5h1005q39 0 39 -35z" glyph-name="seven" horiz-adv-x="1163" unicode="7"/><glyph d="M618 -27q-258 0 -399 118t-141 300q0 131 80 222.5t151 115.5v12q-33 18 -71.5 49t-81.5 103t-43 151q0 186 127 301t381 115q250 0 375.5 -114.5t125.5 -301.5q0 -80 -43 -151.5t-80.5 -103t-72.5 -50.5v-10q72 -25 151.5 -116t79.5 -222q0 -184 -139.5 -301 t-399.5 -117zM618 627q-258 -53 -258 -217q0 -84 68 -138.5t190 -54.5q121 0 188.5 54.5t67.5 138.5q0 164 -256 217zM618.5 1217q-104.5 0 -164 -52.5t-59.5 -136.5q0 -145 223 -186q106 20 164 68t58 118q0 84 -58.5 136.5t-163 52.5z" glyph-name="eight" horiz-adv-x="1234" unicode="8"/><glyph d="M537 498q-193 0 -321 117.5t-128 330.5q0 215 145.5 364.5t374.5 149.5q168 0 284 -55t177 -157.5t87 -221.5t26 -272q0 -164 -32 -299.5t-98.5 -246t-186.5 -173t-281 -62.5q-256 0 -459 193q-18 20 -16 33.5t22 36.5l102 110q20 23 34 25t36 -19q133 -127 303 -127 q135 0 212 120t77 314q-98 -161 -358 -161zM623 1217q-113 0 -179.5 -71t-66.5 -181q0 -102 71.5 -171t174.5 -69q109 0 181.5 71.5t72.5 174.5q0 100 -64.5 173t-189.5 73z" glyph-name="nine" horiz-adv-x="1269" unicode="9"/><glyph d="M115 151.5q0 73.5 50 126t123.5 52.5t126 -52.5t52.5 -126t-52.5 -124t-126 -50.5t-123.5 50.5t-50 124zM115 850q0 74 50 126t123.5 52t126 -52t52.5 -126t-52.5 -124t-126 -50t-123.5 50t-50 124z" glyph-name="colon" horiz-adv-x="581" unicode=":"/><glyph d="M115 850q0 74 50 126t123.5 52t126 -52t52.5 -126t-52.5 -124t-126 -50t-123.5 50t-50 124zM293 -23h-8q-72 2 -121 52.5t-49 122.5q0 74 50 126t124 52q84 0 136 -63.5t52 -172.5q0 -145 -88 -265t-215 -177q-20 -10 -31 4l-49 76q-8 16 10 30q156 96 189 215z" glyph-name="semicolon" horiz-adv-x="591" unicode=";"/><glyph d="M23 719v4q2 37 49 59l936 492q49 23 49 -21v-161q0 -47 -49 -68l-598 -305l598 -305q49 -20 49 -68v-160q0 -25 -10.5 -28.5t-38.5 8.5l-936 493q-47 23 -49 60z" glyph-name="less" horiz-adv-x="1159" unicode="&lt;"/><glyph d="M827 717h-669q-29 0 -39 10t-10 39v113q0 29 10 39t39 10h669q29 0 39.5 -10.5t10.5 -38.5v-113q0 -29 -10.5 -39t-39.5 -10zM827 313h-669q-29 0 -39 10.5t-10 38.5v115q0 29 10 39t39 10h669q29 0 39.5 -10t10.5 -39v-115q0 -27 -10.5 -38t-39.5 -11z" glyph-name="equal" horiz-adv-x="983" unicode="="/><glyph d="M1137 723v-4q-2 -37 -50 -60l-935 -493q-29 -12 -39.5 -8t-10.5 28v160q0 47 50 68l598 305l-598 305q-49 20 -50 68v161q0 43 50 21l935 -492q48 -22 50 -59z" glyph-name="greater" horiz-adv-x="1159" unicode=">"/><glyph d="M403 782q203 35 295.5 84t92.5 139.5t-73 144.5t-204 54q-156 0 -340 -127q-37 -27 -65 25l-74 121q-25 47 12 69q131 82 236.5 123t247 41t250 -40t170 -104.5t91 -138t29.5 -151.5q0 -178 -111.5 -262t-334.5 -133v-88q0 -29 -10.5 -39.5t-39.5 -10.5h-153 q-29 0 -39 10.5t-10 39.5v209q-1 28 30 34zM322 151.5q0 73.5 50 125t124 51.5q72 0 124 -51.5t52 -125t-51.5 -124t-125 -50.5t-123.5 50.5t-50 124z" glyph-name="question" horiz-adv-x="1091" unicode="?"/><glyph d="M1915 541q0 186 -62.5 328.5t-173 228.5t-253 129t-312.5 43q-360 0 -572 -206t-212 -544q0 -334 203.5 -540.5t533.5 -206.5q117 0 227 47q23 10 34 12t19.5 -4t12.5 -25l26 -118q8 -31 4 -46.5t-32 -31.5q-135 -57 -291 -58q-432 0 -704.5 278.5t-272.5 692.5 q0 203 71.5 381t202 309t325 207t425.5 76q295 0 527.5 -105.5t372.5 -324.5t140 -522q0 -135 -19 -249t-62 -214.5t-123 -156.5t-189 -54q-217 0 -317 213l-35 72q-162 -174 -373 -175q-201 0 -332 160t-131 383q0 229 130.5 387t332.5 158q190 0 332 -170l39 109 q20 39 49 38h121q29 0 39 -10t10 -39v-706q0 -207 117 -207q98 0 135 118t37 343zM1097.5 215q112.5 0 188.5 89t76 216t-76 214t-188 87q-111 0 -186.5 -87t-75.5 -214q0 -131 74.5 -218t187 -87z" glyph-name="at" horiz-adv-x="2244" unicode="@"/><glyph d="M764 973h-4l-205 -430h414zM805 1413l704 -1364q8 -18 -1 -33.5t-29 -15.5h-228q-25 0 -36 9t-27 40l-121 246h-610l-123 -246q-23 -49 -64 -49h-227q-20 0 -29.5 15.5t-1.5 33.5l707 1364q2 4 6 12.5t6 11.5t5 8t5 8t4.5 5t5.5 3t7 1h6q4 0 8 -2t8 -7t7.5 -9t8.5 -14.5 t9 -16.5z" glyph-name="A" horiz-adv-x="1521" unicode="A"/><glyph d="M778 0h-565q-29 0 -39 10t-10 39v1335q0 29 10 39.5t39 10.5h514q94 0 181 -20.5t165 -64.5t125 -125t47 -190q0 -186 -188 -297v-2q96 -41 167.5 -123t71.5 -213q0 -209 -146.5 -304t-371.5 -95zM455 242h311q125 0 183.5 45t58.5 139q0 78 -63.5 130t-172.5 52h-317 v-366zM455 842h274q109 0 168 47t59 119q0 184 -239 184h-262v-350z" glyph-name="B" horiz-adv-x="1372" unicode="B"/><glyph d="M825 225q209 0 355 156q33 33 67 -6l111 -121q20 -23 22 -36t-18 -34q-98 -96 -242.5 -153.5t-294.5 -57.5q-303 0 -519 219.5t-216 524.5t216 524t519 219q150 0 294.5 -57t242.5 -154q20 -20 18 -33.5t-22 -35.5l-111 -121q-37 -39 -69 -6q-145 156 -353 155 q-195 0 -317.5 -147.5t-122.5 -343.5q0 -195 122.5 -343.5t317.5 -148.5z" glyph-name="C" horiz-adv-x="1452" unicode="C"/><glyph d="M215 1434h520q305 0 517 -207t212 -510t-212 -510t-517 -207h-520q-29 0 -39 10t-10 39v1335q0 29 11 39.5t38 10.5zM733 1192h-276v-950h276q201 0 318.5 140t117.5 335q0 197 -117.5 336t-318.5 139z" glyph-name="D" horiz-adv-x="1554" unicode="D"/><glyph d="M1139 0h-926q-29 0 -39 10t-10 39v1335q0 29 10 39.5t39 10.5h926q29 0 39 -10.5t10 -39.5v-149q0 -29 -10.5 -39t-38.5 -10h-684v-340h655q29 0 39 -10.5t10 -38.5v-150q0 -29 -10 -39t-39 -10h-655v-350h684q29 0 39 -10.5t10 -38.5v-150q0 -29 -10 -39t-39 -10z" glyph-name="E" horiz-adv-x="1306" unicode="E"/><glyph d="M457 598v-549q0 -29 -10.5 -39t-38.5 -10h-193q-29 0 -39 10t-10 39v1335q0 29 11 39.5t38 10.5h926q27 0 38 -10.5t11 -39.5v-149q0 -27 -11.5 -38t-37.5 -11h-684v-340h663q29 0 39 -10.5t10 -38.5v-150q0 -29 -10 -39t-39 -10h-663z" glyph-name="F" horiz-adv-x="1275" unicode="F"/><glyph d="M825 1208q-195 0 -317.5 -147.5t-122.5 -343.5q0 -193 123 -342.5t317 -149.5q168 0 293 94v216h-246q-29 0 -39 11t-10 40v147q0 29 10.5 39t38.5 10h488q29 0 39 -10t10 -39v-471q0 -41 -33 -74q-100 -98 -249.5 -156.5t-301.5 -58.5q-303 0 -519 219.5t-216 524.5 t216 524t519 219q147 0 292 -57t245 -154q18 -20 16 -33.5t-22 -35.5l-111 -121q-35 -39 -69 -4q-148 153 -351 153z" glyph-name="G" horiz-adv-x="1525" unicode="G"/><glyph d="M1094 838v546q0 29 10 39.5t39 10.5h192q29 0 39 -10.5t10 -39.5v-1335q0 -29 -10 -39t-39 -10h-192q-29 0 -39 10t-10 39v537h-635v-537q0 -29 -10.5 -39t-38.5 -10h-193q-29 0 -39 10t-10 39v1335q0 29 10 39.5t39 10.5h193q29 0 39 -10.5t10 -39.5v-546h635z" glyph-name="H" horiz-adv-x="1552" unicode="H"/><glyph d="M168 49v1335q0 29 10 39.5t39 10.5h193q29 0 39 -10.5t10 -39.5v-1335q0 -29 -10.5 -39t-38.5 -10h-193q-29 0 -39 10t-10 39z" glyph-name="I" horiz-adv-x="626" unicode="I"/><glyph d="M535 1212h-263q-29 0 -39 10.5t-10 39.5v122q0 29 10.5 39.5t38.5 10.5h504q29 0 39 -10.5t10 -39.5v-827q0 -311 -174 -445.5t-501 -138.5q-37 0 -47.5 9.5t-14.5 40.5l-16 155q-6 49 55 49q225 0 316.5 75t91.5 255v655z" glyph-name="J" horiz-adv-x="956" unicode="J"/><glyph d="M731 750l608 -701q43 -49 -20 -49h-244q-23 0 -35 9t-36 40l-545 633v-633q0 -29 -10.5 -39t-38.5 -10h-193q-29 0 -39 10t-10 39v1335q0 29 10 39.5t39 10.5h193q29 0 39 -10.5t10 -39.5v-577l522 577q27 31 39 40.5t35 9.5h241q63 0 23 -50z" glyph-name="K" horiz-adv-x="1386" unicode="K"/><glyph d="M457 248h600q29 0 39 -10.5t10 -38.5v-150q0 -29 -10.5 -39t-38.5 -10h-842q-29 0 -39 10t-10 39v1335q0 29 10 39.5t39 10.5h193q29 0 39 -10.5t10 -39.5v-1136z" glyph-name="L" horiz-adv-x="1169" unicode="L"/><glyph d="M1528 766l-465 -743q-29 -49 -51 -50h-23q-18 0 -51 50l-457 737l-86 -711q-4 -31 -12 -40t-37 -9h-192q-55 0 -50 49l177 1393q2 18 18 18h14q12 0 25 -18l663 -1039l664 1039q12 18 25 18h14q16 0 18 -18l174 -1393q6 -49 -49 -49h-192q-29 0 -37 9t-12 40z" glyph-name="M" horiz-adv-x="2000" unicode="M"/><glyph d="M459 872v-823q0 -29 -10.5 -39t-38.5 -10h-193q-29 0 -39 10t-10 39v1393q0 18 18 18h19q14 0 35 -16l890 -875v815q0 29 10.5 39.5t39.5 10.5h190q29 0 40 -10.5t11 -39.5v-1392q0 -18 -18 -19h-19q-16 0 -36 19z" glyph-name="N" horiz-adv-x="1587" unicode="N"/><glyph d="M90 717q0 305 216 524t519 219t520.5 -219t217.5 -524t-217.5 -524.5t-520.5 -219.5t-519 219.5t-216 524.5zM385 717q0 -193 123 -342.5t317 -149.5q199 0 321 148.5t122 343.5q0 197 -122 344t-321 147q-195 0 -317.5 -147t-122.5 -344z" glyph-name="O" horiz-adv-x="1652" unicode="O"/><glyph d="M457 813h252q246 0 245 191q0 188 -245 188h-252v-379zM719 569h-262v-520q0 -29 -10.5 -39t-38.5 -10h-193q-29 0 -39 10t-10 39v1335q0 29 10 39.5t39 10.5h504q96 0 182 -21.5t165 -69t125 -134.5t46 -205.5t-46 -206.5t-125 -135.5t-165 -70t-182 -22.5z" glyph-name="P" horiz-adv-x="1271" unicode="P"/><glyph d="M90 717q0 305 216 524t519 219t520.5 -219t217.5 -524q0 -176 -76 -324.5t-205 -255.5l174 -231q31 -41 -12 -70l-154 -108q-41 -27 -65 14l-181 268q-115 -37 -219 -37q-303 0 -519 219.5t-216 524.5zM385 717q0 -193 123 -342.5t317 -149.5q199 0 321 148.5t122 343.5 q0 197 -122 344t-321 147q-195 0 -317.5 -147t-122.5 -344z" glyph-name="Q" horiz-adv-x="1652" unicode="Q"/><glyph d="M1237 1004q0 -313 -307 -406l356 -535q16 -35 3 -49t-46 -14h-178q-51 0 -84 49l-346 520h-178v-520q0 -29 -10.5 -39t-38.5 -10h-193q-29 0 -39 10t-10 39v1335q0 29 10 39.5t39 10.5h506q94 0 180 -21.5t164 -69t125 -134t47 -205.5zM457 813h254q244 0 243 191 q0 188 -243 188h-254v-379z" glyph-name="R" horiz-adv-x="1353" unicode="R"/><glyph d="M674 1204q-272 0 -273 -196q0 -84 74 -117t250 -53q102 -12 180 -35t153 -68t115.5 -126t40.5 -193q0 -182 -141 -310.5t-395 -128.5q-334 0 -557 154q-23 16 -24 31.5t14 40.5l71 121q27 47 68 22q182 -117 407 -117q274 0 275 172q0 94 -79 133t-259 62 q-475 57 -475 401q0 76 28.5 152t88 146.5t168 115.5t249.5 45q150 0 262.5 -37t241.5 -116q23 -14 24 -31t-14 -39l-71 -121q-27 -49 -68 -25q-96 66 -176 91.5t-178 25.5z" glyph-name="S" horiz-adv-x="1310" unicode="S"/><glyph d="M70 1434h1140q29 0 40.5 -10.5t11.5 -39.5v-161q0 -29 -11.5 -39t-40.5 -10h-424v-1125q0 -29 -10 -39t-39 -10h-192q-29 0 -39 10t-10 39v1125h-426q-29 0 -39.5 10t-10.5 39v161q0 29 10.5 39.5t39.5 10.5z" glyph-name="T" horiz-adv-x="1282" unicode="T"/><glyph d="M741.5 -27q-264.5 0 -437.5 162t-173 455v794q0 29 10.5 39.5t38.5 10.5h193q29 0 39 -10.5t10 -39.5v-784q0 -375 319.5 -375t319.5 375v784q0 29 10 39.5t39 10.5h193q29 0 39 -10.5t10 -39.5v-794q0 -293 -173 -455t-437.5 -162z" glyph-name="U" horiz-adv-x="1482" unicode="U"/><glyph d="M719 20l-707 1364q-8 18 1.5 34t29.5 16h227q41 0 64 -50l428 -860l426 860q16 31 27.5 40.5t35.5 9.5h228q25 0 32 -17.5t-2 -32.5l-704 -1364q-4 -6 -9 -16t-8.5 -14t-7.5 -9.5t-8 -7.5t-8 -2h-6q-4 0 -8.5 2t-7.5 7.5t-6 9.5t-8 13t-9 17z" glyph-name="V" horiz-adv-x="1521" unicode="V"/><glyph d="M340 1384l285 -804l309 831q18 49 35 49h37q16 0 34 -49l310 -831l284 804q8 29 21.5 39.5t42.5 10.5h235q27 0 32 -10.5t-7 -39.5l-543 -1364q-23 -49 -35 -49h-22q-14 0 -35 49l-336 883l-336 -883q-20 -49 -35 -49h-22q-12 0 -35 49l-543 1364q-12 29 -7 39.5t32 10.5 h235q29 0 42.5 -10.5t21.5 -39.5z" glyph-name="W" horiz-adv-x="1972" unicode="W"/><glyph d="M694 479l-317 -430q-23 -31 -35 -40t-37 -9h-225q-59 0 -27 49l490 660l-494 675q-35 49 23 50h227q39 0 72 -50l323 -446l322 446q23 31 36 40.5t38 9.5h225q57 0 24 -50l-491 -675l487 -660q35 -49 -22 -49h-228q-25 0 -38 9t-35 40z" glyph-name="X" horiz-adv-x="1382" unicode="X"/><glyph d="M535 530l-519 854q-27 49 25 50h221q23 0 35 -10.5t31 -39.5l348 -602l356 602q16 31 27.5 40.5t36.5 9.5h217q53 0 22 -50l-518 -854v-481q0 -29 -10 -39t-39 -10h-182q-29 0 -40 10t-11 39v481z" glyph-name="Y" horiz-adv-x="1351" unicode="Y"/><glyph d="M1141 0h-1092q-18 0 -18 18v25q0 8 16 37l731 1106h-643q-29 0 -39 11t-10 38v149q0 29 10 39.5t39 10.5h1067q18 0 19 -19v-24q0 -8 -17 -37l-731 -1106h668q29 0 39 -10.5t10 -38.5v-150q0 -29 -10 -39t-39 -10z" glyph-name="Z" horiz-adv-x="1249" unicode="Z"/><glyph d="M672 -199v-131q0 -29 -10.5 -39t-38.5 -10h-408q-29 0 -39 10.5t-10 38.5v1739q0 29 10 39t39 10h408q29 0 39 -10t10 -39v-131q0 -29 -10.5 -39t-38.5 -10h-205v-1379h205q29 0 39 -10t10 -39z" glyph-name="bracketleft" horiz-adv-x="790" unicode="["/><glyph d="M547 41l-465 1343q-16 49 47 50h152q47 0 61 -41l465 -1344q14 -49 -43 -49h-156q-29 0 -41 7t-20 34z" glyph-name="backslash" horiz-adv-x="886" unicode="\"/><glyph d="M117 -330v131q0 29 11 39t40 10h203v1379h-203q-29 0 -40 10t-11 39v131q0 29 11 39t40 10h407q29 0 39.5 -10t10.5 -39v-1739q0 -29 -10.5 -39t-39.5 -10h-407q-29 0 -40 10t-11 39z" glyph-name="bracketright" horiz-adv-x="788" unicode="]"/><glyph d="M336 1542h115q37 -2 69 -49l187 -270q31 -49 -19 -49h-108q-47 0 -74 49l-113 180l-112 -180q-29 -49 -74 -49h-107q-51 0 -20 49l186 270q33 47 70 49z" glyph-name="asciicircum" horiz-adv-x="784" unicode="^"/><glyph d="M965 -250h-815q-29 0 -40.5 10.5t-11.5 38.5v127q0 29 11.5 39t40.5 10h815q29 0 39 -10t10 -39v-127q0 -29 -11 -39t-38 -10z" glyph-name="underscore" horiz-adv-x="1112" unicode="_"/><glyph d="M238 1206l-146 115q-23 18 -24.5 32.5t10.5 35.5l65 108q37 55 70 16l256 -280q51 -57 -4 -57h-150q-44 -1 -77 30z" glyph-name="grave" horiz-adv-x="550" unicode="`"/><glyph d="M279 803q-27 -4 -37.5 6t-16.5 41l-30 117q-14 49 28 59q35 8 150.5 23.5t210.5 15.5q152 0 248 -32t144 -101.5t64.5 -152.5t16.5 -214v-516q0 -29 -10.5 -39t-38.5 -10h-103q-18 0 -29.5 10t-23.5 39l-18 74q-41 -39 -76 -64.5t-115 -53.5t-176 -28q-145 0 -251.5 89.5 t-106.5 252.5q0 160 110.5 246t276.5 86q152 0 288 -47q0 125 -43 176t-170 51q-149 1 -292 -28zM565 459q-96 0 -140 -40t-44 -100q0 -51 43 -94t131 -43q115 0 229 125v109q-143 43 -219 43z" glyph-name="a" horiz-adv-x="1183" unicode="a"/><glyph d="M428 1462v-561q33 53 120 108.5t204 55.5q205 0 339 -158.5t134 -386.5q0 -223 -135.5 -383t-337.5 -160q-213 0 -371 175l-35 -103q-12 -20 -18 -28.5t-16.5 -14.5t-24.5 -6h-82q-29 0 -39 10t-10 39v1413q0 29 10 39t39 10h174q29 0 39 -10t10 -39zM690 215 q113 0 187.5 87t74.5 218q0 127 -74.5 214t-187.5 87q-111 0 -186.5 -87t-75.5 -214t75.5 -216t186.5 -89z" glyph-name="b" horiz-adv-x="1306" unicode="b"/><glyph d="M625 221q133 0 213 76q31 31 69 -10l88 -99q18 -20 20.5 -30.5t-11.5 -26.5q-156 -154 -379.5 -154t-382 159t-158.5 384t158.5 385t382 160t379.5 -154q14 -16 12 -26.5t-21 -30.5l-88 -98q-23 -23 -35 -26t-34 15q-80 76 -213 76q-113 0 -193 -86t-80 -215t79 -214 t194 -85z" glyph-name="c" horiz-adv-x="1083" unicode="c"/><glyph d="M879 901v561q0 29 10 39t39 10h174q29 0 39 -10t10 -39v-1413q0 -29 -10.5 -39t-38.5 -10h-82q-20 0 -31.5 10t-25.5 39l-35 103q-158 -174 -373 -175q-203 0 -337 160t-134 383q0 227 134 386t337 159q117 0 204 -55.5t120 -108.5zM616.5 215q110.5 0 187.5 89t77 216 t-76 214t-189 87q-111 0 -186.5 -87t-75.5 -214q0 -131 76 -218t186.5 -87z" glyph-name="d" horiz-adv-x="1306" unicode="d"/><glyph d="M973 272l69 -86q31 -41 7 -63q-68 -68 -181.5 -107t-232.5 -39q-231 0 -391 159t-160 384t158.5 385t382.5 160q244 0 377 -168t133 -412q0 -31 -9.5 -42t-35.5 -11h-725q23 -94 100.5 -157.5t175.5 -63.5q129 0 260 65q41 18 51 13q11 -5 21 -17zM373 608h483 q-16 96 -74.5 165t-163.5 69q-109 0 -171 -70t-74 -164z" glyph-name="e" horiz-adv-x="1206" unicode="e"/><glyph d="M201 1038v64q0 217 103.5 337t303.5 120q117 0 197 -50q20 -14 25.5 -25t0.5 -38l-22 -123q-6 -37 -18.5 -42t-45.5 13q-43 20 -106 21q-166 0 -166 -223v-54h287q29 0 39 -10t10 -39v-117q0 -29 -10.5 -39t-38.5 -10h-287v-774q0 -29 -10 -39t-39 -10h-174q-29 0 -39 10 t-10 39v774h-113q-29 0 -39 10.5t-10 38.5v117q0 29 10 39t39 10h113z" glyph-name="f" horiz-adv-x="858" unicode="f"/><glyph d="M879 57v84q-33 -53 -120 -108.5t-204 -55.5q-203 0 -337 159t-134 386q0 223 134 383t337 160q215 0 373 -174l35 102q14 29 25 39t32 10h82q29 0 39 -10t10 -39v-901q0 -598 -510 -598q-219 0 -416 76q-25 10 -30 20.5t2 38.5l34 146q8 29 17.5 35t34.5 -5 q182 -74 313 -73q283 -1 283 325zM616.5 825q-110.5 0 -186.5 -87t-76 -216q0 -127 76 -214t186 -87q113 0 189 87t76 214t-77 215t-187.5 88z" glyph-name="g" horiz-adv-x="1306" unicode="g"/><glyph d="M438 1462v-526q117 129 267 129q186 0 290.5 -109.5t104.5 -367.5v-539q0 -29 -11.5 -39t-37.5 -10h-177q-29 0 -39 10t-10 39v481q0 152 -45 221.5t-145 69.5q-197 0 -197 -293v-479q0 -29 -10 -39t-39 -10h-176q-29 0 -39 10t-10 39v475v938q0 29 10 39t39 10h176 q29 0 39 -10t10 -39z" glyph-name="h" unicode="h"/><glyph d="M195 49v944q0 29 10 39t39 10h174q29 0 39 -10t10 -39v-944q0 -29 -10.5 -39t-38.5 -10h-174q-29 0 -39 10t-10 39zM168 1362q0 68 46 116t113.5 48t116 -48t48.5 -116t-48.5 -115t-116 -47t-113.5 47t-46 115z" glyph-name="i" horiz-adv-x="659" unicode="i"/><glyph d="M295 1362q0 68 46 116t113.5 48t115.5 -48t48 -116t-48 -115t-115.5 -47t-113.5 47t-46 115zM66 872v121q0 49 51 49h428q29 0 39 -10t10 -39v-1020q0 -217 -103.5 -336.5t-304.5 -119.5q-121 0 -202 53q-23 14 -27 24.5t0 36.5l23 125q6 37 17 41t44 -12q47 -25 115 -25 q166 0 166 224v827v12h-205q-51 0 -51 49z" glyph-name="j" horiz-adv-x="782" unicode="j"/><glyph d="M705 553l417 -504q43 -49 -20 -49h-242q-23 0 -35 9t-37 40l-358 438v-438q0 -29 -10 -39t-39 -10h-174q-29 0 -39 10t-10 39v1413q0 29 10 39t39 10h174q29 0 39 -10t10 -39v-862l332 393q23 29 37 39t37 10h241q27 0 32 -15t-11 -34z" glyph-name="k" horiz-adv-x="1181" unicode="k"/><glyph d="M168 49v1413q0 29 10 39t39 10h174q29 0 40 -10t11 -39v-1413q0 -29 -11 -39t-40 -10h-174q-29 0 -39 10t-10 39z" glyph-name="l" horiz-adv-x="610" unicode="l"/><glyph d="M1026 889q125 176 315 176q193 0 295.5 -108.5t102.5 -368.5v-539q0 -29 -10.5 -39t-38.5 -10h-174q-29 0 -39.5 10t-10.5 39v481q0 150 -46 220.5t-144 70.5q-190 0 -191 -274v-498q0 -29 -10 -39t-39 -10h-174q-29 0 -39 10t-10 39v481q0 150 -45 220.5t-145.5 70.5 t-146.5 -72.5t-46 -220.5v-479q0 -29 -10 -39t-39 -10h-174q-29 0 -39 10t-10 39v944q0 29 10 39t39 10h86q20 0 31.5 -10t25.5 -39l35 -102q45 55 76 86t92 59.5t135 28.5q229 0 338 -176z" glyph-name="m" horiz-adv-x="1867" unicode="m"/><glyph d="M358 993l35 -102q45 53 79 85t97.5 60.5t137.5 28.5q186 0 289.5 -109.5t103.5 -367.5v-539q0 -29 -10.5 -39t-38.5 -10h-174q-29 0 -39.5 10t-10.5 39v481q0 152 -45 221.5t-145 69.5q-199 0 -199 -293v-479q0 -29 -10 -39t-39 -10h-174q-29 0 -39 10t-10 39v475v469 q0 29 10 39t39 10h86q20 0 31.5 -10t25.5 -39z" glyph-name="n" unicode="n"/><glyph d="M84 520q0 225 159.5 385t383 160t383 -160t159.5 -385t-158.5 -384t-384 -159t-384 159t-158.5 384zM626.5 215q112.5 0 191.5 88t79 217t-79 215t-191.5 86t-192.5 -86t-80 -215t80 -217t192.5 -88z" glyph-name="o" horiz-adv-x="1253" unicode="o"/><glyph d="M428 141v-510q0 -29 -10 -39t-39 -10h-174q-29 0 -39 10.5t-10 38.5v1362q0 29 10 39t39 10h82q14 0 24.5 -6t16.5 -14t18 -29l35 -102q158 174 371 174q203 0 338 -160t135 -383q0 -227 -134.5 -386t-338.5 -159q-117 0 -204 55.5t-120 108.5zM690 825 q-111 0 -186.5 -88t-75.5 -215t76 -214t186 -87q113 0 187.5 87t74.5 214q0 131 -74.5 217t-187.5 86z" glyph-name="p" horiz-adv-x="1306" unicode="p"/><glyph d="M879 -369v510q-33 -53 -120 -108.5t-204 -55.5q-203 0 -337 159t-134 386q0 223 134 383t337 160q215 0 373 -174l35 102q14 29 25 39t32 10h82q29 0 39 -10t10 -39v-1362q0 -29 -10.5 -39t-38.5 -10h-174q-29 0 -39 10t-10 39zM616.5 825q-110.5 0 -186.5 -87t-76 -216 q0 -127 76 -214t186 -87q113 0 189 87t76 214t-77 215t-187.5 88z" glyph-name="q" horiz-adv-x="1306" unicode="q"/><glyph d="M754 795q-156 0 -236 -84t-80 -209v-453q0 -29 -10 -39t-39 -10h-174q-29 0 -39 10t-10 39v944q0 29 10 39t39 10h86q20 0 31.5 -10t25.5 -39l54 -137q57 100 138 154.5t241 54.5q33 0 40 -9t3 -36l-27 -178q-4 -29 -14 -38t-39 -9z" glyph-name="r" horiz-adv-x="864" unicode="r"/><glyph d="M514 188q96 0 148.5 31t52.5 82q0 41 -54.5 63.5t-171.5 38.5q-188 25 -294.5 96.5t-106.5 225.5t117 247t307 93q199 0 397 -117q25 -14 26 -30.5t-13 -38.5l-52 -88q-16 -29 -26 -34t-39 9q-135 88 -277 88q-182 0 -182 -113q0 -45 53.5 -66.5t171.5 -35.5 q188 -25 294 -95.5t106 -226.5q0 -154 -120 -247t-319 -93q-229 0 -426 134q-23 14 -23.5 30.5t13.5 38.5l51 88q16 29 26.5 35t41.5 -10q137 -105 299 -105z" glyph-name="s" horiz-adv-x="1048" unicode="s"/><glyph d="M805 29q-84 -51 -201 -52q-201 0 -304 119t-103 334v397h-62q-29 0 -40 10.5t-11 39.5v116q0 29 11 39t40 10h62v195q0 29 10 39t39 10h172q29 0 40 -10t11 -39v-195h287q29 0 39 -10t10 -39v-116q0 -29 -10.5 -39.5t-38.5 -10.5h-287v-383q0 -223 166 -223q66 0 110 23 q33 18 45.5 13t18.5 -42l22 -123q4 -27 -1 -38t-25 -25z" glyph-name="t" horiz-adv-x="909" unicode="t"/><glyph d="M870 49l-34 103q-43 -53 -77 -85t-97.5 -61t-137.5 -29q-186 0 -290.5 110t-104.5 368v538q0 29 10.5 39t38.5 10h174q29 0 39 -10t10 -39v-481q0 -152 46.5 -221.5t146.5 -69.5q197 0 197 293v479q0 29 10 39t39 10h174q29 0 39 -10t10 -39v-475v-469q0 -29 -10.5 -39 t-38.5 -10h-86q-20 0 -32 10t-26 39z" glyph-name="u" unicode="u"/><glyph d="M508 20l-500 973q-8 18 1 33.5t30 15.5h192q25 0 36.5 -9t27.5 -40l258 -499v-2l254 501q16 29 28.5 39t36.5 10h191q25 0 33 -17t-2 -32l-500 -973l-6 -12t-6 -11t-5.5 -8t-5.5 -8.5t-4 -5.5t-5 -3t-7 -1h-6q-4 0 -8 2t-8.5 7.5t-7.5 9.5t-8 14t-9 16z" glyph-name="v" horiz-adv-x="1101" unicode="v"/><glyph d="M315 1001l148 -469l248 490l6 12t6 11.5t7 9.5t8 8t8.5 4t11.5 2h14q6 0 11 -2t10.5 -7t7.5 -9t7 -13.5t9 -15.5l248 -490l143 461q12 49 64 49h209q27 0 32 -11t-8 -38l-325 -964q-16 -49 -39 -49h-17q-18 0 -45 49l-315 639l-318 -639q-25 -49 -45 -49h-14 q-20 0 -39 49l-325 964q-12 27 -7.5 38t31.5 11h209q47 0 59 -41z" glyph-name="w" horiz-adv-x="1527" unicode="w"/><glyph d="M524 348l-182 -299q-27 -49 -72 -49h-219q-57 0 -22 49l317 471l-317 473q-35 49 22 49h219q43 0 72 -49l182 -303l181 303q20 31 33.5 40t37.5 9h219q57 0 23 -49l-316 -473l316 -471q35 -49 -23 -49h-219q-25 0 -38 9t-33 40z" glyph-name="x" horiz-adv-x="1046" unicode="x"/><glyph d="M559 420l254 573q16 31 27.5 40t36.5 9h198q27 0 32 -10t-7 -39l-619 -1362q-16 -31 -27.5 -40t-35.5 -9h-199q-27 0 -32 10.5t8 38.5l219 484l-400 878q-25 49 23 49h199q25 0 37 -10t28 -39l256 -573h2z" glyph-name="y" horiz-adv-x="1114" unicode="y"/><glyph d="M897 0h-831q-18 0 -19 18v21q0 14 16 41l484 723h-406q-29 0 -40 11t-11 40v139q0 29 11.5 39t39.5 10h801q18 0 19 -18v-20q0 -14 -17 -41l-473 -725h426q29 0 39 -10.5t10 -39.5v-139q0 -29 -10 -39t-39 -10z" glyph-name="z" horiz-adv-x="1009" unicode="z"/><glyph d="M68 434v152q0 41 43 57q166 51 165 141v162q0 514 519 514q29 0 39 -10t10 -39v-154q0 -29 -10.5 -39t-38.5 -10q-106 0 -171 -61.5t-65 -200.5v-162q0 -104 -54 -175.5t-124 -92.5v-12q70 -20 124 -92t54 -176v-162q0 -262 236 -262q31 0 40 -10.5t9 -39.5v-153 q0 -29 -10.5 -39t-38.5 -10q-518 0 -519 514v162q0 90 -165 141q-43 16 -43 57z" glyph-name="braceleft" horiz-adv-x="919" unicode="{"/><glyph d="M164 -154v1741q0 29 10 39t39 10h129q29 0 40 -10t11 -39v-1741q0 -29 -11 -39t-40 -10h-129q-29 0 -39 10t-10 39z" glyph-name="bar" horiz-adv-x="557" unicode="|"/><glyph d="M852 586v-152q0 -41 -45 -57q-164 -53 -164 -141v-162q0 -514 -518 -514q-29 0 -40 10t-11 39v153q0 29 10 39.5t41 10.5q106 0 170.5 61t64.5 201v162q0 104 53.5 175.5t123.5 92.5v12q-70 20 -123.5 92t-53.5 176v162q0 137 -65.5 199.5t-169.5 62.5q-31 0 -41 10.5 t-10 38.5v154q0 29 11 39t40 10q518 0 518 -514v-162q0 -88 164 -141q45 -16 45 -57z" glyph-name="braceright" horiz-adv-x="919" unicode="}"/><glyph d="M578 725q-4 4 -19.5 15.5t-21 14.5t-17.5 12t-18 12t-17.5 8.5t-19.5 7.5t-18.5 4t-20.5 2q-49 0 -158 -125q-20 -18 -34.5 -17.5t-34.5 21.5l-72 80q-35 37 2 69q78 84 144.5 128t150.5 44q86 0 207 -94q6 -4 18.5 -13t18.5 -13t16 -11.5t16.5 -10.5t15.5 -8t15 -8 t15.5 -5t17.5 -3t18 -1q51 0 158 122q35 35 70 -2l71 -80q35 -37 -2 -69q-78 -84 -144.5 -128t-150.5 -44q-89 0 -206 92z" glyph-name="asciitilde" horiz-adv-x="1208" unicode="~"/><glyph d="M180 -616l37 831q0 29 10.5 39t38.5 10h164q29 0 39 -10t10 -39l39 -831q0 -29 -11 -39.5t-40 -10.5h-238q-29 0 -39 10.5t-10 39.5zM172 616.5q0 73.5 51 124t123 50.5q74 0 126 -50.5t52 -124t-52 -125t-126 -51.5q-72 0 -123 51.5t-51 125z" glyph-name="exclamdown" horiz-adv-x="696" unicode="¡"/><glyph d="M461 -268l35 260q-180 43 -296 191.5t-116 336.5q0 225 158.5 386t382.5 159h14l27 188q4 29 15 38t40 7l39 -6q29 -4 37 -15t6 -40l-27 -195q129 -35 228 -131q14 -16 12 -26.5t-21 -30.5l-88 -98q-23 -23 -35 -26t-34 15q-39 37 -93 56l-79 -578q98 6 172 74 q31 31 69 -10l88 -99q18 -20 20.5 -30.5t-11.5 -26.5q-154 -150 -369 -154l-35 -264q-6 -31 -17.5 -39t-39.5 -4l-39 4q-29 4 -37 15.5t-6 42.5zM352 520q0 -100 50.5 -175t125.5 -103l78 577q-109 -8 -181.5 -92t-72.5 -207z" glyph-name="cent" horiz-adv-x="1064" unicode="¢"/><glyph d="M139 743h103q-4 8 -24.5 41t-28 46.5t-22.5 47t-21.5 58.5t-12.5 61.5t-6 75.5q0 152 109.5 269.5t314.5 117.5q186 0 434 -151q23 -14 24 -29.5t-14 -40.5l-71 -121q-29 -51 -68 -22q-154 113 -287 112q-88 0 -128 -53t-40 -123q0 -41 17.5 -86t60.5 -116.5t49 -86.5 h330q29 0 39 -10t10 -39v-26q0 -29 -10 -40.5t-39 -11.5h-297q16 -156 -63 -368h469q29 0 39 -10.5t10 -38.5v-150q0 -29 -10.5 -39t-38.5 -10h-768q-29 0 -39 10t-10 39q0 27 45 124t79.5 219t16.5 224h-152q-29 0 -39 11.5t-10 40.5v26q0 29 10 39t39 10z" glyph-name="sterling" horiz-adv-x="1118" unicode="£"/><glyph d="M199 700q0 94 45 177l-142 143q-33 33 0 70l60 59q37 39 69 0l144 -141q84 49 176 49q96 0 178 -49l143 141q33 39 70 0l59 -59q33 -37 0 -70l-143 -143q49 -82 49 -177q0 -92 -49 -178l141 -141q33 -33 0 -70l-59 -59q-20 -23 -34.5 -23t-35.5 23l-143 141 q-80 -47 -176 -47q-94 0 -176 49l-142 -143q-35 -35 -69 0l-60 61q-33 33 0 70l142 139q-47 82 -47 178zM389 700.5q0 -69.5 47 -120t115 -50.5q70 0 117 50.5t47 120t-47 119.5t-117 50q-68 0 -115 -50t-47 -119.5z" glyph-name="currency" horiz-adv-x="1103" unicode="¤"/><glyph d="M686 782l356 602q16 31 27.5 40.5t36.5 9.5h217q31 0 35 -8.5t-12 -41.5l-359 -589h184q29 0 39.5 -10.5t10.5 -39.5v-77q0 -29 -10.5 -39.5t-39.5 -10.5h-262l-39 -14l-43 -84v-69h344q29 0 39.5 -10.5t10.5 -39.5v-77q0 -29 -10.5 -39.5t-39.5 -10.5h-344v-225 q0 -29 -10 -39t-39 -10h-182q-29 0 -40 10t-11 39v225h-342q-29 0 -39 10.5t-10 39.5v77q0 29 11 39.5t38 10.5h342v79l-53 88h-289q-29 0 -39 10.5t-10 39.5v77q0 29 11 39.5t38 10.5h184l-360 589q-27 49 24 50h221q23 0 35 -10.5t31 -39.5z" glyph-name="yen" horiz-adv-x="1376" unicode="¥"/><glyph d="M168 -106v710q0 29 10 39t39 10h88q29 0 40 -10t11 -39v-710q0 -29 -11 -39.5t-40 -10.5h-88q-29 0 -39 10.5t-10 39.5zM168 895v637q0 29 10 39t39 10h88q29 0 40 -10t11 -39v-637q0 -29 -11 -39t-40 -10h-88q-29 0 -39 10t-10 39z" glyph-name="brokenbar" horiz-adv-x="522" unicode="¦"/><glyph d="M1196 416q0 -160 -104 -275q104 -100 104 -274q0 -184 -141.5 -311t-392.5 -127q-301 0 -539 153q-25 14 -26 30.5t14 41.5l71 121q27 47 68 22q180 -117 391 -116q274 0 274 172q0 96 -79.5 134t-260.5 60q-473 57 -473 402q0 162 109 284q-109 98 -109 264q0 76 29 152 t88.5 146.5t168 115.5t249.5 45q147 0 259 -37t243 -116q37 -23 12 -70l-74 -121q-27 -49 -65 -25q-174 117 -355 117q-274 0 -274 -196q0 -84 73.5 -117t250.5 -53q102 -12 180 -35t152.5 -68t115.5 -125.5t41 -193.5zM575 596q-39 2 -108 20q-84 -49 -84 -157 q0 -84 73.5 -117t250.5 -53l122 -25q86 37 86 137q0 96 -80 134t-260 61z" glyph-name="section" horiz-adv-x="1294" unicode="§"/><glyph d="M104 1364q0 55 38 94t94 39q57 0 96 -39t39 -94q0 -57 -39 -94t-96 -37q-55 0 -93.5 37t-38.5 94zM532 1364q0 55 37 94t93 39q57 0 96 -39t39 -94q0 -57 -39 -94t-96 -37q-55 0 -92.5 37t-37.5 94z" glyph-name="dieresis" horiz-adv-x="901" unicode="¨"/><glyph d="M84 717q0 307 217 525t526 218q231 0 400.5 -110.5t245 -275.5t75.5 -357.5t-75.5 -357t-244.5 -275.5t-401 -111q-309 0 -526 217.5t-217 526.5zM166 716.5q0 -274.5 193.5 -467t467.5 -192.5q156 0 281 56.5t201.5 149.5t118.5 212t42 242t-42 241.5t-118.5 212 t-201.5 149.5t-281 56q-274 0 -467.5 -192.5t-193.5 -467zM825 473q104 0 174 76q16 16 37 -2l56 -64q14 -20 2 -34q-106 -106 -269 -107q-154 0 -262 110.5t-108 264t108.5 264.5t261.5 111q158 0 269 -107q14 -16 -2 -37l-56 -61q-20 -18 -37 -2q-70 76 -174 76 q-98 0 -158.5 -72t-60.5 -172q0 -98 60.5 -171t158.5 -73z" glyph-name="copyright" horiz-adv-x="1652" unicode="©"/><glyph d="M201 1294q-16 -2 -22.5 3.5t-10.5 25.5l-18 78q-10 27 14 37q180 23 225 22q182 0 238.5 -72.5t56.5 -238.5v-320q0 -31 -31 -30h-65q-23 0 -35 30l-8 45q-96 -90 -228 -90q-92 0 -157.5 55.5t-65.5 157.5q0 100 68.5 153.5t173.5 53.5q88 0 178 -28q0 76 -27.5 107.5 t-105.5 31.5q-67 -1 -180 -21zM377 1079q-57 0 -84 -23.5t-27 -58.5q0 -31 25.5 -57.5t79.5 -26.5q68 0 143 80v62q-76 24 -137 24z" glyph-name="ordfeminine" horiz-adv-x="811" unicode="ª"/><glyph d="M104 616l332 375q35 35 70 10l106 -61q39 -25 11 -68l-273 -352l273 -352q29 -43 -11 -68l-106 -61q-35 -25 -70 10l-332 375q-37 45 -36 88v16q-1 43 36 88zM590 616l332 375q35 35 69 10l107 -61q39 -25 10 -68l-274 -352l274 -352q29 -43 -10 -68l-107 -61 q-35 -25 -69 10l-332 375q-37 45 -37 88v16q0 43 37 88z" glyph-name="guillemotleft" horiz-adv-x="1200" unicode="«"/><glyph d="M766 174v313h-614q-29 0 -39.5 10.5t-10.5 39.5v114q0 29 10.5 39t39.5 10h778q29 0 39 -10t10 -39v-477q0 -29 -10.5 -39t-38.5 -10h-113q-29 0 -40 10t-11 39z" glyph-name="logicalnot" horiz-adv-x="1085" unicode="¬"/><glyph d="M717 473h-565q-29 0 -39.5 10.5t-10.5 38.5v115q0 29 10.5 39t39.5 10h565q29 0 39 -10t10 -39v-115q0 -29 -10 -39t-39 -10z" glyph-name="uni00AD" horiz-adv-x="868" unicode="­"/><glyph d="M1110 866q0 -162 -160 -213l189 -278q16 -33 -25 -33h-96q-29 0 -45 25l-180 274h-86v-274q0 -25 -27 -25h-102q-29 0 -29 25v700q0 25 29 25h264q111 0 189.5 -52.5t78.5 -173.5zM707 770h133q119 0 118.5 96.5t-120.5 96.5h-131v-193zM84 717q0 307 217 525t526 218 q307 0 525.5 -218t218.5 -525q0 -309 -218 -526.5t-526 -217.5q-309 0 -526 217.5t-217 526.5zM166 716.5q0 -274.5 193.5 -467t467.5 -192.5q272 0 466 192.5t194 467.5q0 272 -193.5 465.5t-466.5 193.5q-274 0 -467.5 -192.5t-193.5 -467z" glyph-name="registered" horiz-adv-x="1652" unicode="®"/><glyph d="M649 1268h-497q-29 0 -39.5 10t-10.5 39v94q0 29 10.5 39t39.5 10h497q29 0 39 -10t10 -39v-94q0 -29 -10 -39t-39 -10z" glyph-name="macron" horiz-adv-x="800" unicode="¯"/><glyph d="M84 1147q0 131 90 222t221 91q129 0 222.5 -92t93.5 -221q0 -131 -93.5 -223.5t-222.5 -92.5q-131 0 -221 91.5t-90 224.5zM264 1147q0 -55 38 -92t91 -37t90 37t37 92q0 51 -37 89t-90 38q-51 0 -90 -38t-39 -89z" glyph-name="degree" horiz-adv-x="792" unicode="°"/><glyph d="M709 1331v-258h260q29 0 39 -10t10 -39v-123q0 -29 -10.5 -39t-38.5 -10h-260v-229q0 -29 -10.5 -39.5t-39.5 -10.5h-120q-29 0 -40.5 10.5t-11.5 39.5v229h-258q-29 0 -39 10t-10 39v121q0 29 10.5 40t38.5 11h258v258q0 29 10.5 39t39.5 10h122q29 0 39.5 -10t10.5 -39 zM999 133h-802q-29 0 -40.5 10.5t-11.5 38.5v125q0 29 11.5 39t40.5 10h802q29 0 39.5 -10t10.5 -39v-125q0 -29 -10.5 -39t-39.5 -10z" glyph-name="plusminus" horiz-adv-x="1196" unicode="±"/><glyph d="M479 1321l-145 -115q-35 -31 -78 -30h-150q-55 0 -4 57l256 280q33 39 70 -16l66 -108q12 -20 10 -35t-25 -33z" glyph-name="acute" horiz-adv-x="571" unicode="´"/><glyph d="M901 49l-35 103q-53 -59 -82.5 -88t-91 -58t-135.5 -29q-72 0 -119 35v-381q0 -29 -10 -39t-39 -10h-174q-29 0 -39 10.5t-10 38.5v1362q0 29 10 39t39 10h174q29 0 39 -10t10 -39v-481q0 -147 41 -219t146 -72q197 0 196 301v471q0 27 11.5 38t37.5 11h177q29 0 39 -10 t10 -39v-944q0 -29 -10.5 -39t-38.5 -10h-86q-14 0 -24.5 6t-17 14.5t-18.5 28.5z" glyph-name="uni00B5" horiz-adv-x="1261" unicode="µ"/><glyph d="M600 -436v854q-227 0 -384 152.5t-157 375.5q0 219 151.5 353.5t373.5 134.5h946q29 0 39 -10.5t10 -39.5v-153q0 -29 -10 -39t-39 -10h-189v-1620q0 -29 -10 -39t-39 -10h-137q-29 0 -39 10t-10 39v1620h-268v-1618q0 -29 -10.5 -39t-39.5 -10h-137q-29 0 -40 10t-11 39 z" glyph-name="paragraph" horiz-adv-x="1673" unicode="¶"/><glyph d="M104 700q0 82 55.5 137.5t133.5 55.5q82 0 137 -55.5t55 -137.5q0 -80 -55 -134t-137 -54q-78 0 -133.5 54t-55.5 134z" glyph-name="periodcentered" horiz-adv-x="589" unicode="·"/><glyph d="M209 -16l117 -11l-7 -69q109 0 168.5 -54.5t59.5 -150.5t-61.5 -152.5t-176.5 -56.5q-90 0 -192 84q-29 23 -6 51l30 39q12 16 22.5 16.5t29.5 -10.5q70 -39 135 -39q74 0 73 68q0 76 -90 76h-102q-39 0 -39 45z" glyph-name="cedilla" horiz-adv-x="645" unicode="¸"/><glyph d="M68 1116.5q0 149.5 69.5 246.5t202.5 97t202.5 -97t69.5 -246.5t-69.5 -247t-202.5 -97.5t-202.5 97.5t-69.5 247zM244 1116q0 -182 96 -182q98 0 98 182t-98 182q-96 0 -96 -182z" glyph-name="ordmasculine" horiz-adv-x="679" unicode="º"/><glyph d="M764 991l332 -375q37 -45 37 -88v-16q0 -43 -37 -88l-332 -375q-35 -35 -70 -10l-106 61q-39 25 -10 68l274 352l-274 352q-29 43 10 68l106 61q35 25 70 -10zM279 991l331 -375q37 -45 37 -88v-16q0 -43 -37 -88l-331 -375q-35 -35 -70 -10l-107 61q-37 27 -10 68 l275 352l-275 352q-29 43 10 68l107 61q35 25 70 -10z" glyph-name="guillemotright" horiz-adv-x="1200" unicode="»"/><glyph d="M1106 1384l-692 -1343q-23 -41 -64 -41h-86q-70 0 -45 49l694 1344q23 41 64 41h86q68 -1 43 -50zM125 1343l131 68q39 23 53 23h80q25 0 25 -23v-590q0 -23 -25 -22h-119q-23 0 -22 22v404l-111 -13q-25 -2 -24 21v86q0 14 12 24zM1038 635h121q20 0 21 -23v-340h82 q20 0 20 -24v-76q0 -25 -20 -25h-82v-124q0 -23 -21 -23h-96q-14 0 -18.5 4t-4.5 19v124h-264q-23 0 -22 25v51q0 18 14 39l252 363q6 10 18 10zM1040 446l-122 -174h122v174z" glyph-name="onequarter" horiz-adv-x="1396" unicode="¼"/><glyph d="M1149 1384l-694 -1343q-18 -41 -64 -41h-86q-68 0 -43 49l692 1344q23 41 64 41h86q70 -1 45 -50zM125 1343l131 68q39 23 53 23h80q25 0 25 -23v-590q0 -23 -25 -22h-119q-23 0 -22 22v404l-111 -13q-25 -2 -24 21v86q0 14 12 24zM1159 152h170q14 0 18.5 -4.5 t4.5 -18.5v-106q0 -23 -23 -23h-424q-8 0 -8 8v10q0 4 8 19l240 315q31 41 39 79t-7.5 61.5t-50.5 23.5q-74 0 -125 -53q-18 -16 -34 4l-64 68q-18 18 -2 32q98 94 225 95q94 0 150.5 -51.5t56.5 -121t-41 -143.5z" glyph-name="onehalf" horiz-adv-x="1466" unicode="½"/><glyph d="M1196 1384l-694 -1343q-18 -41 -62 -41h-88q-68 0 -43 49l695 1344q18 41 61 41h88q68 -1 43 -50zM348 782q-131 0 -225 95q-16 16 2 32l59 64q18 18 35 4q63 -63 129 -64q53 0 78 27t25 59q0 31 -28 49.5t-75 18.5h-59q-25 0 -25 23v65q0 25 25 25h59q47 0 75 18.5 t28 48.5q0 33 -25 59.5t-78 26.5q-63 0 -129 -65q-18 -16 -35 4l-59 63q-16 20 -2 33q96 96 225 96q94 0 169 -51t75 -147q0 -94 -88 -142v-2q88 -47 88 -143t-75 -146.5t-169 -50.5zM1122 635h121q20 0 21 -23v-340h82q23 0 22 -24v-76q0 -25 -22 -25h-82v-124 q0 -23 -21 -23h-96q-14 0 -18.5 4t-4.5 19v124h-264q-23 0 -22 25v51q0 18 14 39l252 363q6 10 18 10zM1124 446l-123 -174h123v174z" glyph-name="threequarters" horiz-adv-x="1499" unicode="¾"/><glyph d="M688 -14q-203 -35 -295 -84t-92 -139.5t72.5 -144.5t204.5 -54q156 0 340 127q37 27 65 -25l74 -121q25 -47 -13 -69q-131 -82 -236.5 -123t-246.5 -41t-249.5 40t-170 104.5t-91.5 138t-30 151.5q0 178 112 262t335 133v88q0 29 10 39.5t39 10.5h154q29 0 39 -10.5 t10 -39.5v-209q0 -28 -31 -34zM770 616.5q0 -73.5 -50 -125t-124 -51.5q-72 0 -124 51.5t-52 125t51 124t125 50.5t124 -50.5t50 -124z" glyph-name="questiondown" horiz-adv-x="1091" unicode="¿"/><glyph d="M764 973h-4l-205 -430h414zM805 1413l704 -1364q8 -18 -1 -33.5t-29 -15.5h-228q-25 0 -36 9t-27 40l-121 246h-610l-123 -246q-23 -49 -64 -49h-227q-20 0 -29.5 15.5t-1.5 33.5l707 1364q2 4 6 12.5t6 11.5t5 8t5 8t4.5 5t5.5 3t7 1h6q4 0 8 -2t8 -7t7.5 -9t8.5 -14.5 t9 -16.5zM621 1597l-146 115q-23 18 -24.5 32.5t10.5 35.5l65 108q37 55 70 17l256 -281q51 -57 -4 -57h-150q-42 -1 -77 30z" glyph-name="Agrave" horiz-adv-x="1521" unicode="À"/><glyph d="M764 973h-4l-205 -430h414zM805 1413l704 -1364q8 -18 -1 -33.5t-29 -15.5h-228q-25 0 -36 9t-27 40l-121 246h-610l-123 -246q-23 -49 -64 -49h-227q-20 0 -29.5 15.5t-1.5 33.5l707 1364q2 4 6 12.5t6 11.5t5 8t5 8t4.5 5t5.5 3t7 1h6q4 0 8 -2t8 -7t7.5 -9t8.5 -14.5 t9 -16.5zM1038 1712l-145 -115q-33 -31 -78 -30h-149q-55 0 -4 57l256 281q33 39 69 -17l66 -108q12 -20 10 -35t-25 -33z" glyph-name="Aacute" horiz-adv-x="1521" unicode="Á"/><glyph d="M764 973h-4l-205 -430h414zM805 1413l704 -1364q8 -18 -1 -33.5t-29 -15.5h-228q-25 0 -36 9t-27 40l-121 246h-610l-123 -246q-23 -49 -64 -49h-227q-20 0 -29.5 15.5t-1.5 33.5l707 1364q2 4 6 12.5t6 11.5t5 8t5 8t4.5 5t5.5 3t7 1h6q4 0 8 -2t8 -7t7.5 -9t8.5 -14.5 t9 -16.5zM702 1933h117q35 -2 70 -49l186 -270q31 -49 -20 -49h-107q-47 0 -76 49l-110 180l-113 -180q-27 -49 -74 -49h-108q-51 0 -21 49l189 270q32 47 67 49z" glyph-name="Acircumflex" horiz-adv-x="1521" unicode="Â"/><glyph d="M764 973h-4l-205 -430h414zM805 1413l704 -1364q8 -18 -1 -33.5t-29 -15.5h-228q-25 0 -36 9t-27 40l-121 246h-610l-123 -246q-23 -49 -64 -49h-227q-20 0 -29.5 15.5t-1.5 33.5l707 1364q2 4 6 12.5t6 11.5t5 8t5 8t4.5 5t5.5 3t7 1h6q4 0 8 -2t8 -7t7.5 -9t8.5 -14.5 t9 -16.5zM903 1817q55 0 84 73q10 27 23.5 32t40.5 -5l69 -31q27 -10 33 -24.5t-4 -40.5q-74 -186 -231 -187q-88 0 -175 54l-38.5 22t-33.5 19.5t-24.5 10.5t-30.5 5q-25 0 -48 -21.5t-36 -52.5q-10 -27 -22 -32t-41 6l-68 30q-29 10 -35 24.5t7 41.5q74 186 231 186 q84 0 174 -55q12 -8 38 -22.5t34 -18.5t23.5 -9t29.5 -5z" glyph-name="Atilde" horiz-adv-x="1521" unicode="Ã"/><glyph d="M764 973h-4l-205 -430h414zM805 1413l704 -1364q8 -18 -1 -33.5t-29 -15.5h-228q-25 0 -36 9t-27 40l-121 246h-610l-123 -246q-23 -49 -64 -49h-227q-20 0 -29.5 15.5t-1.5 33.5l707 1364q2 4 6 12.5t6 11.5t5 8t5 8t4.5 5t5.5 3t7 1h6q4 0 8 -2t8 -7t7.5 -9t8.5 -14.5 t9 -16.5zM416 1755q0 55 38 94t93 39q57 0 96 -39t39 -94q0 -57 -39 -94t-96 -37q-55 0 -93 37t-38 94zM844 1755q0 55 37 94t92 39q57 0 96 -39t39 -94q0 -57 -39 -94t-96 -37q-55 0 -92 37t-37 94z" glyph-name="Adieresis" horiz-adv-x="1521" unicode="Ä"/><glyph d="M764 973h-4l-205 -430h414zM805 1413l704 -1364q8 -18 -1 -33.5t-29 -15.5h-228q-25 0 -36 9t-27 40l-121 246h-610l-123 -246q-23 -49 -64 -49h-227q-20 0 -29.5 15.5t-1.5 33.5l707 1364q2 4 6 12.5t6 11.5t5 8t5 8t4.5 5t5.5 3t7 1h6q4 0 8 -2t8 -7t7.5 -9t8.5 -14.5 t9 -16.5zM760 1567q-98 0 -165 67.5t-67 165.5t67 165t165 67q96 0 163.5 -67t67.5 -165t-67.5 -165.5t-163.5 -67.5zM760 1698q41 0 65.5 30.5t24.5 71.5t-23.5 71t-66.5 30t-67.5 -31t-24.5 -70q0 -41 24.5 -71.5t67.5 -30.5z" glyph-name="Aring" horiz-adv-x="1521" unicode="Å"/><glyph d="M913 0q-29 0 -39 10t-10 39v246h-393l-137 -246q-20 -49 -64 -49h-227q-20 0 -29.5 15.5t-1.5 33.5l768 1329q37 51 49 56h1035q29 0 39 -10.5t10 -39.5v-149q0 -29 -10.5 -39t-38.5 -10h-684v-340h632q29 0 39.5 -10.5t10.5 -38.5v-150q0 -29 -10.5 -39t-39.5 -10h-632 v-350h684q29 0 39 -10.5t10 -38.5v-150q0 -29 -10.5 -39t-38.5 -10h-951zM864 1014l-260 -471h260v471z" glyph-name="AE" horiz-adv-x="2033" unicode="Æ"/><glyph d="M674 -180l37 164q-262 41 -441.5 250.5t-179.5 482.5q0 305 216 524t519 219q150 0 294.5 -57t242.5 -154q20 -20 18 -33.5t-22 -35.5l-111 -121q-37 -39 -69 -6q-145 156 -353 155q-195 0 -317.5 -147.5t-122.5 -343.5q0 -195 123 -343.5t317 -148.5q209 0 355 156 q33 33 67 -6l111 -121q20 -23 22 -36t-18 -34q-96 -94 -238.5 -150.5t-294.5 -60.5l-6 -69q109 0 168.5 -54.5t59.5 -150.5t-61.5 -152.5t-176.5 -56.5q-90 0 -192 84q-31 25 -7 51l31 39q12 16 22.5 16.5t28.5 -10.5q70 -39 135 -39q72 0 72 68q0 76 -88 76h-104 q-37 0 -37 45z" glyph-name="Ccedilla" horiz-adv-x="1452" unicode="Ç"/><glyph d="M1137 0h-926q-29 0 -39 10t-10 39v1335q0 29 11 39.5t38 10.5h926q29 0 39 -10.5t10 -39.5v-149q0 -29 -10.5 -39t-38.5 -10h-684v-340h655q29 0 39 -10.5t10 -38.5v-150q0 -29 -10 -39t-39 -10h-655v-350h684q29 0 39 -10.5t10 -38.5v-150q0 -29 -10 -39t-39 -10z M596 1597l-145 115q-23 18 -25 32.5t10 35.5l66 108q37 55 69 17l256 -281q51 -57 -4 -57h-149q-43 -1 -78 30z" glyph-name="Egrave" horiz-adv-x="1306" unicode="È"/><glyph d="M1137 0h-926q-29 0 -39 10t-10 39v1335q0 29 11 39.5t38 10.5h926q29 0 39 -10.5t10 -39.5v-149q0 -29 -10.5 -39t-38.5 -10h-684v-340h655q29 0 39 -10.5t10 -38.5v-150q0 -29 -10 -39t-39 -10h-655v-350h684q29 0 39 -10.5t10 -38.5v-150q0 -29 -10 -39t-39 -10z M893 1712l-145 -115q-33 -31 -78 -30h-150q-55 0 -4 57l256 281q33 39 70 -17l65 -108q12 -20 10.5 -35t-24.5 -33z" glyph-name="Eacute" horiz-adv-x="1306" unicode="É"/><glyph d="M602 1933h117q35 -2 69 -49l187 -270q31 -49 -21 -49h-106q-49 0 -76 49l-110 180l-113 -180q-29 -49 -74 -49h-108q-51 0 -21 49l189 270q32 47 67 49zM1124 0h-925q-29 0 -39 10t-10 39v1335q0 29 11 39.5t38 10.5h925q29 0 39.5 -10.5t10.5 -39.5v-149 q0 -29 -10.5 -39t-39.5 -10h-684v-340h656q29 0 39 -10.5t10 -38.5v-150q0 -29 -10.5 -39t-38.5 -10h-656v-350h684q29 0 39.5 -10.5t10.5 -38.5v-150q0 -29 -10.5 -39t-39.5 -10z" glyph-name="Ecircumflex" horiz-adv-x="1265" unicode="Ê"/><glyph d="M1137 0h-926q-29 0 -39 10t-10 39v1335q0 29 11 39.5t38 10.5h926q29 0 39 -10.5t10 -39.5v-149q0 -29 -10.5 -39t-38.5 -10h-684v-340h655q29 0 39 -10.5t10 -38.5v-150q0 -29 -10 -39t-39 -10h-655v-350h684q29 0 39 -10.5t10 -38.5v-150q0 -29 -10 -39t-39 -10z M330 1755q0 55 38 94t93 39q57 0 96 -39t39 -94q0 -57 -39 -94t-96 -37q-55 0 -93 37t-38 94zM758 1755q0 55 36.5 94t92.5 39q57 0 96 -39t39 -94q0 -57 -39 -94t-96 -37q-55 0 -92 37t-37 94z" glyph-name="Edieresis" horiz-adv-x="1306" unicode="Ë"/><glyph d="M170 49v1335q0 29 10 39.5t39 10.5h193q29 0 39 -10.5t10 -39.5v-1335q0 -29 -10.5 -39t-38.5 -10h-193q-29 0 -39 10t-10 39zM209 1597l-146 115q-23 18 -24.5 32.5t10.5 35.5l66 108q37 55 69 17l256 -281q51 -57 -4 -57h-149q-45 -1 -78 30z" glyph-name="Igrave" horiz-adv-x="636" unicode="Ì"/><glyph d="M160 49v1335q0 29 10 39.5t39 10.5h192q29 0 39.5 -10.5t10.5 -39.5v-1335q0 -29 -10.5 -39t-39.5 -10h-192q-29 0 -39 10t-10 39zM559 1712l-145 -115q-35 -31 -78 -30h-150q-55 0 -4 57l256 281q33 39 70 -17l65 -108q12 -20 10.5 -35t-24.5 -33z" glyph-name="Iacute" horiz-adv-x="612" unicode="Í"/><glyph d="M160 49v1335q0 29 10 39.5t39 10.5h192q29 0 39.5 -10.5t10.5 -39.5v-1335q0 -29 -10.5 -39t-39.5 -10h-192q-29 0 -39 10t-10 39zM248 1933h117q35 -2 69 -49l187 -270q31 -49 -21 -49h-106q-47 0 -76 49l-111 180l-112 -180q-27 -49 -74 -49h-109q-51 0 -20 49l188 270 q33 47 68 49z" glyph-name="Icircumflex" horiz-adv-x="612" unicode="Î"/><glyph d="M160 49v1335q0 29 10 39.5t39 10.5h192q29 0 39.5 -10.5t10.5 -39.5v-1335q0 -29 -10.5 -39t-39.5 -10h-192q-29 0 -39 10t-10 39zM-41 1755q0 55 38 94t93 39q57 0 96 -39t39 -94q0 -57 -39 -94t-96 -37q-55 0 -93 37t-38 94zM387 1755q0 55 37 94t92 39q57 0 96 -39 t39 -94q0 -57 -39 -94t-96 -37q-55 0 -92 37t-37 94z" glyph-name="Idieresis" horiz-adv-x="612" unicode="Ï"/><glyph d="M84 842h182v542q0 29 10.5 39.5t38.5 10.5h519q305 0 517 -207t212 -510t-212 -510t-517 -207h-519q-29 0 -39 10t-10 39v559h-182q-29 0 -40 10.5t-11 38.5v136q0 29 11 39t40 10zM831 1192h-274v-350h250q29 0 39 -10.5t10 -38.5v-136q0 -29 -10 -39t-39 -10h-250v-366 h274q201 0 320 140t119 335q0 197 -119 336t-320 139z" glyph-name="Eth" horiz-adv-x="1652" unicode="Ð"/><glyph d="M459 872v-823q0 -29 -10.5 -39t-38.5 -10h-193q-29 0 -39 10t-10 39v1393q0 18 18 18h19q14 0 35 -16l890 -875v815q0 29 10.5 39.5t39.5 10.5h190q29 0 40 -10.5t11 -39.5v-1392q0 -18 -18 -19h-19q-16 0 -36 19zM918 1817q55 0 83 73q10 27 23.5 32t40.5 -5l70 -31 q27 -10 33 -24.5t-5 -40.5q-74 -186 -231 -187q-88 0 -174 54q-14 8 -39 22t-34 19.5t-24.5 10.5t-29.5 5q-25 0 -48.5 -21.5t-35.5 -52.5q-10 -27 -22.5 -32t-41.5 6l-67 30q-29 10 -35 24.5t6 41.5q74 186 231 186q86 0 175 -55q12 -8 37.5 -22.5t33.5 -18.5t24 -9t30 -5z " glyph-name="Ntilde" horiz-adv-x="1587" unicode="Ñ"/><glyph d="M90 717q0 305 216 524t519 219t520.5 -219t217.5 -524t-217.5 -524.5t-520.5 -219.5t-519 219.5t-216 524.5zM385 717q0 -193 123 -342.5t317 -149.5q199 0 321 148.5t122 343.5q0 197 -122 344t-321 147q-195 0 -317.5 -147t-122.5 -344zM725 1597l-145 115 q-23 18 -25 32.5t10 35.5l66 108q37 55 69 17l256 -281q51 -57 -4 -57h-149q-45 -1 -78 30z" glyph-name="Ograve" horiz-adv-x="1652" unicode="Ò"/><glyph d="M90 717q0 305 216 524t519 219t520.5 -219t217.5 -524t-217.5 -524.5t-520.5 -219.5t-519 219.5t-216 524.5zM385 717q0 -193 123 -342.5t317 -149.5q199 0 321 148.5t122 343.5q0 197 -122 344t-321 147q-195 0 -317.5 -147t-122.5 -344zM1083 1712l-145 -115 q-33 -31 -78 -30h-149q-55 0 -4 57l256 281q33 39 69 -17l66 -108q12 -20 10 -35t-25 -33z" glyph-name="Oacute" horiz-adv-x="1652" unicode="Ó"/><glyph d="M90 717q0 305 216 524t519 219t520.5 -219t217.5 -524t-217.5 -524.5t-520.5 -219.5t-519 219.5t-216 524.5zM385 717q0 -193 123 -342.5t317 -149.5q199 0 321 148.5t122 343.5q0 197 -122 344t-321 147q-195 0 -317.5 -147t-122.5 -344zM768 1933h117q35 -2 69 -49 l187 -270q31 -49 -21 -49h-106q-47 0 -76 49l-111 180l-112 -180q-27 -49 -74 -49h-109q-51 0 -20 49l188 270q33 47 68 49z" glyph-name="Ocircumflex" horiz-adv-x="1652" unicode="Ô"/><glyph d="M90 717q0 305 216 524t519 219t520.5 -219t217.5 -524t-217.5 -524.5t-520.5 -219.5t-519 219.5t-216 524.5zM385 717q0 -193 123 -342.5t317 -149.5q199 0 321 148.5t122 343.5q0 197 -122 344t-321 147q-195 0 -317.5 -147t-122.5 -344zM958 1817q55 0 84 73 q10 27 23.5 32t40.5 -5l70 -31q27 -10 32.5 -24.5t-4.5 -40.5q-74 -186 -231 -187q-88 0 -174 54q-14 8 -39 22t-34 19.5t-24.5 10.5t-29.5 5q-25 0 -48.5 -21.5t-35.5 -52.5q-10 -27 -22.5 -32t-41.5 6l-67 30q-29 10 -35 24.5t6 41.5q74 186 231 186q86 0 175 -55 q12 -8 37.5 -22.5t33.5 -18.5t23.5 -9t29.5 -5z" glyph-name="Otilde" horiz-adv-x="1652" unicode="Õ"/><glyph d="M90 717q0 305 216 524t519 219t520.5 -219t217.5 -524t-217.5 -524.5t-520.5 -219.5t-519 219.5t-216 524.5zM385 717q0 -193 123 -342.5t317 -149.5q199 0 321 148.5t122 343.5q0 197 -122 344t-321 147q-195 0 -317.5 -147t-122.5 -344zM479 1755q0 55 38 94t93 39 q57 0 96 -39t39 -94q0 -57 -38.5 -94t-96.5 -37q-55 0 -93 37t-38 94zM907 1755q0 55 37 94t92 39q57 0 96 -39t39 -94q0 -57 -38.5 -94t-96.5 -37q-55 0 -92 37t-37 94z" glyph-name="Odieresis" horiz-adv-x="1652" unicode="Ö"/><glyph d="M647 281l-182 184l-184 -184q-35 -35 -70 0l-86 86q-23 20 -23 34.5t23 34.5l182 185l-182 184q-23 20 -23 33.5t23 35.5l86 87q23 20 36 20t34 -20l184 -185l182 185q39 37 70 0l88 -87q20 -23 20 -36t-20 -33l-184 -184l184 -185q35 -35 0 -69l-88 -86q-33 -37 -70 0z " glyph-name="multiply" horiz-adv-x="927" unicode="×"/><glyph d="M90 717q0 305 216 524t519 219q125 0 256 -47l35 68q18 41 62 41h88q70 0 45 -52l-74 -139q143 -102 234.5 -261t91.5 -353q0 -305 -217.5 -524.5t-520.5 -219.5q-143 0 -266 54l-39 -74q-18 -41 -61 -41h-88q-68 0 -43 49l75 148q-145 104 -229 264t-84 344zM1268 717 q0 219 -156 375l-434 -838q74 -29 147 -29q199 0 321 148.5t122 343.5zM385 717q0 -205 147 -365l431 834q-76 23 -138 22q-195 0 -318.5 -148t-121.5 -343z" glyph-name="Oslash" horiz-adv-x="1652" unicode="Ø"/><glyph d="M741.5 -27q-264.5 0 -437.5 162t-173 455v794q0 29 10.5 39.5t38.5 10.5h193q29 0 39 -10.5t10 -39.5v-784q0 -375 319.5 -375t319.5 375v784q0 29 10 39.5t39 10.5h193q29 0 39 -10.5t10 -39.5v-794q0 -293 -173 -455t-437.5 -162zM633 1597l-146 115q-23 18 -24.5 32.5 t10.5 35.5l66 108q37 55 69 17l256 -281q51 -57 -4 -57h-149q-43 -1 -78 30z" glyph-name="Ugrave" horiz-adv-x="1482" unicode="Ù"/><glyph d="M741.5 -27q-264.5 0 -437.5 162t-173 455v794q0 29 10.5 39.5t38.5 10.5h193q29 0 39 -10.5t10 -39.5v-784q0 -375 319.5 -375t319.5 375v784q0 29 10 39.5t39 10.5h193q29 0 39 -10.5t10 -39.5v-794q0 -293 -173 -455t-437.5 -162zM940 1712l-145 -115q-33 -31 -78 -30 h-150q-55 0 -4 57l256 281q33 39 70 -17l65 -108q12 -20 10.5 -35t-24.5 -33z" glyph-name="Uacute" horiz-adv-x="1482" unicode="Ú"/><glyph d="M741.5 -27q-264.5 0 -437.5 162t-173 455v794q0 29 10.5 39.5t38.5 10.5h193q29 0 39 -10.5t10 -39.5v-784q0 -375 319.5 -375t319.5 375v784q0 29 10 39.5t39 10.5h193q29 0 39 -10.5t10 -39.5v-794q0 -293 -173 -455t-437.5 -162zM682 1933h117q35 -2 69 -49l187 -270 q31 -49 -21 -49h-106q-47 0 -76 49l-111 180l-112 -180q-27 -49 -74 -49h-109q-51 0 -20 49l188 270q33 47 68 49z" glyph-name="Ucircumflex" horiz-adv-x="1482" unicode="Û"/><glyph d="M741.5 -27q-264.5 0 -437.5 162t-173 455v794q0 29 10.5 39.5t38.5 10.5h193q29 0 39 -10.5t10 -39.5v-784q0 -375 319.5 -375t319.5 375v784q0 29 10 39.5t39 10.5h193q29 0 39 -10.5t10 -39.5v-794q0 -293 -173 -455t-437.5 -162zM399 1755q0 55 38 94t93 39 q57 0 96.5 -39t39.5 -94q0 -57 -39 -94t-97 -37q-55 0 -93 37t-38 94zM827 1755q0 55 37 94t92 39q57 0 96.5 -39t39.5 -94q0 -57 -39 -94t-97 -37q-55 0 -92 37t-37 94z" glyph-name="Udieresis" horiz-adv-x="1482" unicode="Ü"/><glyph d="M543 530l-518 854q-27 49 24 50h221q23 0 35 -10.5t31 -39.5l348 -602l356 602q16 31 27.5 40.5t36.5 9.5h217q53 0 22 -50l-518 -854v-481q0 -29 -10 -39t-39 -10h-182q-29 0 -40 10t-11 39v481zM895 1712l-145 -115q-33 -31 -78 -30h-150q-55 0 -4 57l256 281 q33 39 70 -17l65 -108q12 -20 10.5 -35t-24.5 -33z" glyph-name="Yacute" horiz-adv-x="1359" unicode="Ý"/><glyph d="M739 0h-329v-369q0 -29 -10.5 -39t-39.5 -10h-174q-29 0 -39 10.5t-10 38.5v1780q0 29 10.5 39t38.5 10h174q29 0 39.5 -10t10.5 -39v-369h329q203 0 338 -150.5t135 -369.5q0 -223 -135 -372.5t-338 -149.5zM410 244h266q111 0 187.5 75.5t76.5 202.5t-77 204t-187 77 h-266v-559z" glyph-name="Thorn" horiz-adv-x="1284" unicode="Þ"/><glyph d="M670 842h26q109 0 168.5 47t59.5 119q0 184 -242 184q-123 0 -182.5 -43t-59.5 -139v-420v-541q0 -29 -10 -39t-39 -10h-188q-29 0 -40 10t-11 39v985q0 109 47 190t124.5 125t163.5 64.5t181 20.5h24q94 0 181.5 -20.5t166 -64.5t125.5 -125t47 -190q0 -186 -188 -297 v-2q96 -41 168 -123t72 -213q0 -86 -31 -156.5t-82 -114.5t-119.5 -73.5t-139.5 -42t-147 -12.5h-139q-29 0 -40 10t-11 39v144q0 29 11.5 39t39.5 10h127q125 0 183.5 45t58.5 139q0 78 -63.5 130t-172.5 52h-69q-29 0 -40.5 10.5t-11.5 38.5v136q0 29 11.5 39t40.5 10z " glyph-name="germandbls" horiz-adv-x="1333" unicode="ß"/><glyph d="M252 803q-27 -4 -37 6t-16 41l-31 117q-14 49 29 59q35 8 150.5 23.5t209.5 15.5q152 0 248 -32t144 -101.5t64.5 -152.5t16.5 -214v-516q0 -29 -10 -39t-39 -10h-102q-18 0 -29.5 10t-24.5 39l-18 74q-41 -39 -76 -64.5t-114.5 -53.5t-176.5 -28q-145 0 -251.5 89.5 t-106.5 252.5q0 160 110.5 246t276.5 86q152 0 289 -47q0 125 -43 176t-170 51q-150 1 -293 -28zM539 459q-96 0 -140.5 -40t-44.5 -100q0 -51 43 -94t131 -43q115 0 230 125v109q-143 43 -219 43zM524 1206l-145 115q-23 18 -25 32.5t11 35.5l65 108q37 55 70 16l256 -280 q51 -57 -4 -57h-150q-45 -1 -78 30z" glyph-name="agrave" horiz-adv-x="1157" unicode="à"/><glyph d="M252 803q-27 -4 -37 6t-16 41l-31 117q-14 49 29 59q35 8 150.5 23.5t209.5 15.5q152 0 248 -32t144 -101.5t64.5 -152.5t16.5 -214v-516q0 -29 -10 -39t-39 -10h-102q-18 0 -29.5 10t-24.5 39l-18 74q-41 -39 -76 -64.5t-114.5 -53.5t-176.5 -28q-145 0 -251.5 89.5 t-106.5 252.5q0 160 110.5 246t276.5 86q152 0 289 -47q0 125 -43 176t-170 51q-150 1 -293 -28zM539 459q-96 0 -140.5 -40t-44.5 -100q0 -51 43 -94t131 -43q115 0 230 125v109q-143 43 -219 43zM811 1321l-145 -115q-35 -31 -78 -30h-150q-55 0 -4 57l256 280 q33 39 70 -16l65 -108q12 -20 10.5 -35t-24.5 -33z" glyph-name="aacute" horiz-adv-x="1157" unicode="á"/><glyph d="M252 803q-27 -4 -37 6t-16 41l-31 117q-14 49 29 59q35 8 150.5 23.5t209.5 15.5q152 0 248 -32t144 -101.5t64.5 -152.5t16.5 -214v-516q0 -29 -10 -39t-39 -10h-102q-18 0 -29.5 10t-24.5 39l-18 74q-41 -39 -76 -64.5t-114.5 -53.5t-176.5 -28q-145 0 -251.5 89.5 t-106.5 252.5q0 160 110.5 246t276.5 86q152 0 289 -47q0 125 -43 176t-170 51q-150 1 -293 -28zM539 459q-96 0 -140.5 -40t-44.5 -100q0 -51 43 -94t131 -43q115 0 230 125v109q-143 43 -219 43zM514 1542h117q35 -2 69 -49l187 -270q31 -49 -21 -49h-106q-47 0 -76 49 l-111 180l-112 -180q-27 -49 -74 -49h-108q-51 0 -21 49l188 270q33 47 68 49z" glyph-name="acircumflex" horiz-adv-x="1157" unicode="â"/><glyph d="M252 803q-27 -4 -37 6t-16 41l-31 117q-14 49 29 59q35 8 150.5 23.5t209.5 15.5q152 0 248 -32t144 -101.5t64.5 -152.5t16.5 -214v-516q0 -29 -10 -39t-39 -10h-102q-18 0 -29.5 10t-24.5 39l-18 74q-41 -39 -76 -64.5t-114.5 -53.5t-176.5 -28q-145 0 -251.5 89.5 t-106.5 252.5q0 160 110.5 246t276.5 86q152 0 289 -47q0 125 -43 176t-170 51q-150 1 -293 -28zM539 459q-96 0 -140.5 -40t-44.5 -100q0 -51 43 -94t131 -43q115 0 230 125v109q-143 43 -219 43zM715 1425q55 0 84 74q10 27 23.5 32t39.5 -5l70 -31q27 -10 33 -24.5 t-4 -40.5q-74 -186 -232 -187q-88 0 -174 53q-14 8 -38.5 22.5t-34 19.5t-25 10.5t-29.5 5.5q-25 0 -48.5 -21.5t-35.5 -52.5q-10 -27 -22.5 -32t-40.5 5l-68 31q-29 10 -35 24.5t6 41.5q74 186 232 186q84 0 174 -55q12 -8 37.5 -22.5t34 -18.5t24 -9.5t29.5 -5.5z" glyph-name="atilde" horiz-adv-x="1157" unicode="ã"/><glyph d="M252 803q-27 -4 -37 6t-16 41l-31 117q-14 49 29 59q35 8 150.5 23.5t209.5 15.5q152 0 248 -32t144 -101.5t64.5 -152.5t16.5 -214v-516q0 -29 -10 -39t-39 -10h-102q-18 0 -29.5 10t-24.5 39l-18 74q-41 -39 -76 -64.5t-114.5 -53.5t-176.5 -28q-145 0 -251.5 89.5 t-106.5 252.5q0 160 110.5 246t276.5 86q152 0 289 -47q0 125 -43 176t-170 51q-150 1 -293 -28zM539 459q-96 0 -140.5 -40t-44.5 -100q0 -51 43 -94t131 -43q115 0 230 125v109q-143 43 -219 43zM227 1364q0 55 38 94t93 39q57 0 96.5 -39t39.5 -94q0 -57 -39 -94t-97 -37 q-55 0 -93 37t-38 94zM655 1364q0 55 37 94t92 39q57 0 96.5 -39t39.5 -94q0 -57 -39 -94t-97 -37q-55 0 -92 37t-37 94z" glyph-name="adieresis" horiz-adv-x="1157" unicode="ä"/><glyph d="M252 803q-27 -4 -37 6t-16 41l-31 117q-14 49 29 59q35 8 150.5 23.5t209.5 15.5q152 0 248 -32t144 -101.5t64.5 -152.5t16.5 -214v-516q0 -29 -10 -39t-39 -10h-102q-18 0 -29.5 10t-24.5 39l-18 74q-41 -39 -76 -64.5t-114.5 -53.5t-176.5 -28q-145 0 -251.5 89.5 t-106.5 252.5q0 160 110.5 246t276.5 86q152 0 289 -47q0 125 -43 176t-170 51q-150 1 -293 -28zM539 459q-96 0 -140.5 -40t-44.5 -100q0 -51 43 -94t131 -43q115 0 230 125v109q-143 43 -219 43zM578 1176q-98 0 -165 67.5t-67 165.5t66.5 164.5t165.5 66.5 q96 0 163.5 -66.5t67.5 -164.5t-67.5 -165.5t-163.5 -67.5zM578 1307q41 0 65.5 30.5t24.5 71.5t-23.5 70.5t-66.5 29.5t-68 -30.5t-25 -69.5q0 -41 25 -71.5t68 -30.5z" glyph-name="aring" horiz-adv-x="1157" unicode="å"/><glyph d="M776 604v41q-6 102 -54 144t-169 42q-150 0 -293 -28q-43 -6 -55 45l-29 119q-8 27 -2 40t31 19q35 8 154.5 23.5t213.5 15.5q119 0 195 -29.5t145 -113.5q168 143 387 143q125 0 225.5 -52t161 -137t91 -184.5t30.5 -204.5v-8q0 -25 -9 -36t-36 -11h-706v-33 q31 -82 101.5 -135t156.5 -53q133 0 260 65q31 14 45 14.5t27 -18.5l69 -86q31 -41 8 -63q-70 -70 -185.5 -108t-238.5 -38q-244 0 -387 207q-70 -74 -199.5 -140.5t-271.5 -66.5q-147 0 -252.5 86.5t-105.5 250t104.5 250.5t268.5 87q61 0 161.5 -13.5t157.5 -33.5z M776 307v109q-139 43 -252 43q-96 0 -145 -40t-49 -100q0 -53 39 -95t127 -42q66 0 150.5 37t129.5 88zM1065 653v-45h465q-14 98 -70.5 166t-165.5 68q-172 -1 -229 -189z" glyph-name="ae" horiz-adv-x="1880" unicode="æ"/><glyph d="M487 -176l39 162q-190 35 -316 184t-126 350q0 225 158.5 385t382 160t379.5 -154q14 -16 12 -26.5t-21 -30.5l-88 -98q-23 -23 -35 -26t-34 15q-80 76 -213 76q-113 0 -193 -86t-80 -215t79 -214t194 -85q133 0 213 76q31 31 69 -10l88 -99q18 -20 20.5 -30.5 t-11.5 -26.5q-147 -143 -361 -154l-6 -69q109 0 168 -54.5t59 -150.5t-61.5 -152.5t-175.5 -56.5q-86 0 -193 84q-29 25 -4 51l29 39q12 16 22.5 16.5t28.5 -10.5q70 -39 137 -39q72 0 72 68q0 76 -88 76h-105q-39 0 -39 45z" glyph-name="ccedilla" horiz-adv-x="1083" unicode="ç"/><glyph d="M1042 186q31 -41 7 -63q-68 -68 -181.5 -107t-232.5 -39q-231 0 -391 159t-160 384t158.5 385t382.5 160q244 0 377 -168t133 -412q0 -31 -9.5 -42t-35.5 -11h-725q23 -94 100.5 -157.5t175.5 -63.5q129 0 260 65q4 2 12.5 6.5t10.5 5.5t8 3t8 1t7 -1t8 -2t8.5 -6 t9.5 -11zM856 608q-16 96 -74.5 165t-163.5 69q-109 0 -171 -70t-74 -164h483zM524 1206l-145 115q-23 18 -25 32.5t11 35.5l65 108q37 55 70 16l256 -280q51 -57 -4 -57h-150q-45 -1 -78 30z" glyph-name="egrave" horiz-adv-x="1206" unicode="è"/><glyph d="M973 272l69 -86q31 -41 7 -63q-68 -68 -181.5 -107t-232.5 -39q-231 0 -391 159t-160 384t158.5 385t382.5 160q244 0 377 -168t133 -412q0 -31 -9.5 -42t-35.5 -11h-725q23 -94 100.5 -157.5t175.5 -63.5q129 0 260 65q41 18 51 13q11 -5 21 -17zM373 608h483 q-16 96 -74.5 165t-163.5 69q-109 0 -171 -70t-74 -164zM868 1321l-145 -115q-35 -31 -78 -30h-149q-55 0 -4 57l256 280q33 39 69 -16l66 -108q12 -20 10 -35t-25 -33z" glyph-name="eacute" horiz-adv-x="1206" unicode="é"/><glyph d="M1042 186q31 -41 7 -63q-68 -68 -181.5 -107t-232.5 -39q-231 0 -391 159t-160 384t158.5 385t382.5 160q244 0 377 -168t133 -412q0 -31 -9.5 -42t-35.5 -11h-725q23 -94 100.5 -157.5t175.5 -63.5q129 0 260 65q4 2 12.5 6.5t10.5 5.5t8 3t8 1t7 -1t8 -2t8.5 -6 t9.5 -11zM856 608q-16 96 -74.5 165t-163.5 69q-109 0 -171 -70t-74 -164h483zM573 1542h117q35 -2 70 -49l186 -270q31 -49 -20 -49h-107q-49 0 -76 49l-110 180l-113 -180q-27 -49 -74 -49h-108q-51 0 -21 49l189 270q32 47 67 49z" glyph-name="ecircumflex" horiz-adv-x="1206" unicode="ê"/><glyph d="M1042 186q31 -41 7 -63q-68 -68 -181.5 -107t-232.5 -39q-231 0 -391 159t-160 384t158.5 385t382.5 160q244 0 377 -168t133 -412q0 -31 -9.5 -42t-35.5 -11h-725q23 -94 100.5 -157.5t175.5 -63.5q129 0 260 65q4 2 12.5 6.5t10.5 5.5t8 3t8 1t7 -1t8 -2t8.5 -6 t9.5 -11zM856 608q-16 96 -74.5 165t-163.5 69q-109 0 -171 -70t-74 -164h483zM281 1364q0 55 37.5 94t93.5 39q57 0 96 -39t39 -94q0 -57 -39 -94t-96 -37q-55 0 -93 37t-38 94zM709 1364q0 55 36.5 94t92.5 39q57 0 96 -39t39 -94q0 -57 -39 -94t-96 -37q-55 0 -92 37 t-37 94z" glyph-name="edieresis" horiz-adv-x="1206" unicode="ë"/><glyph d="M170 49v944q0 29 10 39t39 10h174q29 0 39 -10t10 -39v-944q0 -29 -10 -39t-39 -10h-174q-29 0 -39 10t-10 39zM180 1206l-145 115q-23 18 -25 32.5t10 35.5l66 108q37 55 70 16l256 -280q51 -57 -4 -57h-150q-45 -1 -78 30z" glyph-name="igrave" horiz-adv-x="606" unicode="ì"/><glyph d="M164 49v944q0 29 10 39t39 10h174q29 0 39 -10t10 -39v-944q0 -29 -10 -39t-39 -10h-174q-29 0 -39 10t-10 39zM573 1321l-145 -115q-35 -31 -78 -30h-149q-55 0 -4 57l256 280q33 39 69 -16l66 -108q12 -20 10 -35t-25 -33z" glyph-name="iacute" horiz-adv-x="610" unicode="í"/><glyph d="M164 49v944q0 29 10 39t39 10h174q29 0 39 -10t10 -39v-944q0 -29 -10 -39t-39 -10h-174q-29 0 -39 10t-10 39zM240 1542h116q35 -2 70 -49l186 -270q31 -49 -20 -49h-107q-47 0 -75 49l-111 180l-113 -180q-29 -49 -73 -49h-109q-51 0 -20 49l188 270q33 47 68 49z" glyph-name="icircumflex" horiz-adv-x="598" unicode="î"/><glyph d="M164 49v944q0 29 10 39t39 10h174q29 0 39 -10t10 -39v-944q0 -29 -10 -39t-39 -10h-174q-29 0 -39 10t-10 39zM-41 1364q0 55 38 94t93 39q57 0 96 -39t39 -94q0 -57 -39 -94t-96 -37q-55 0 -93 37t-38 94zM387 1364q0 55 37 94t92 39q57 0 96 -39t39 -94q0 -57 -39 -94 t-96 -37q-55 0 -92 37t-37 94z" glyph-name="idieresis" horiz-adv-x="598" unicode="ï"/><glyph d="M909 1475l-51 -86q305 -172 305 -709q0 -160 -26.5 -282t-90 -221t-179 -151.5t-279.5 -52.5q-229 0 -373.5 149.5t-144.5 364.5q0 213 127 331t319 118q258 0 358 -162q0 285 -147 389l-84 -139q-14 -25 -27.5 -28t-37.5 12l-21 10q-45 25 -18 67l69 117q-55 6 -121 -4 q-29 -6 -39 6.5t-10 42.5v150q0 31 10.5 44t38.5 15q45 4 72 4q92 0 184 -24l62 102q14 27 27.5 30t37.5 -12l23 -12q43 -24 16 -69zM604 217q125 0 189.5 71.5t64.5 174t-72.5 174.5t-181.5 72q-102 0 -175 -69t-73 -171q0 -111 67.5 -181.5t180.5 -70.5z" glyph-name="eth" horiz-adv-x="1257" unicode="ð"/><glyph d="M393 891q45 53 79 85t97.5 60.5t137.5 28.5q186 0 289.5 -109.5t103.5 -367.5v-539q0 -29 -10.5 -39t-38.5 -10h-174q-29 0 -39.5 10t-10.5 39v481q0 152 -45 221.5t-145 69.5q-199 0 -199 -293v-479q0 -29 -10 -39t-39 -10h-174q-29 0 -39 10t-10 39v475v469q0 29 10 39 t39 10h86q20 0 31.5 -10t25.5 -39zM770 1425q55 0 84 74q10 27 23.5 32t40.5 -5l69 -31q27 -10 33 -24.5t-4 -40.5q-74 -186 -232 -187q-88 0 -174 53q-14 8 -38.5 22.5t-34 19.5t-24.5 10.5t-30 5.5q-25 0 -48 -21.5t-36 -52.5q-10 -27 -22 -32t-41 5l-68 31 q-29 10 -35 24.5t7 41.5q74 186 231 186q86 0 174 -55q12 -8 38 -22.5t34 -18.5t23.5 -9.5t29.5 -5.5z" glyph-name="ntilde" unicode="ñ"/><glyph d="M84 520q0 225 159.5 385t383 160t383 -160t159.5 -385t-158.5 -384t-384 -159t-384 159t-158.5 384zM626.5 215q112.5 0 191.5 88t79 217t-79 215t-191.5 86t-192.5 -86t-80 -215t80 -217t192.5 -88zM535 1206l-146 115q-23 18 -25 32.5t11 35.5l65 108q37 55 70 16 l256 -280q51 -57 -4 -57h-150q-42 -1 -77 30z" glyph-name="ograve" horiz-adv-x="1253" unicode="ò"/><glyph d="M84 520q0 225 159.5 385t383 160t383 -160t159.5 -385t-158.5 -384t-384 -159t-384 159t-158.5 384zM626.5 215q112.5 0 191.5 88t79 217t-79 215t-191.5 86t-192.5 -86t-80 -215t80 -217t192.5 -88zM862 1321l-145 -115q-33 -31 -78 -30h-150q-55 0 -4 57l256 280 q33 39 70 -16l66 -108q12 -20 10 -35t-25 -33z" glyph-name="oacute" horiz-adv-x="1253" unicode="ó"/><glyph d="M84 520q0 225 159.5 385t383 160t383 -160t159.5 -385t-158.5 -384t-384 -159t-384 159t-158.5 384zM626.5 215q112.5 0 191.5 88t79 217t-79 215t-191.5 86t-192.5 -86t-80 -215t80 -217t192.5 -88zM567 1542h117q35 -2 70 -49l186 -270q31 -49 -20 -49h-107 q-47 0 -76 49l-110 180l-113 -180q-27 -49 -74 -49h-108q-51 0 -21 49l189 270q32 47 67 49z" glyph-name="ocircumflex" horiz-adv-x="1253" unicode="ô"/><glyph d="M84 520q0 225 159.5 385t383 160t383 -160t159.5 -385t-158.5 -384t-384 -159t-384 159t-158.5 384zM626.5 215q112.5 0 191.5 88t79 217t-79 215t-191.5 86t-192.5 -86t-80 -215t80 -217t192.5 -88zM768 1425q55 0 84 74q10 27 23.5 32t39.5 -5l70 -31q27 -10 33 -24.5 t-4 -40.5q-74 -186 -232 -187q-88 0 -174 53q-14 8 -38.5 22.5t-34 19.5t-24.5 10.5t-30 5.5q-25 0 -48 -21.5t-36 -52.5q-10 -27 -22.5 -32t-40.5 5l-68 31q-29 10 -35 24.5t7 41.5q74 186 231 186q84 0 174 -55q12 -8 38 -22.5t34 -18.5t23.5 -9.5t29.5 -5.5z" glyph-name="otilde" horiz-adv-x="1253" unicode="õ"/><glyph d="M84 520q0 225 159.5 385t383 160t383 -160t159.5 -385t-158.5 -384t-384 -159t-384 159t-158.5 384zM626.5 215q112.5 0 191.5 88t79 217t-79 215t-191.5 86t-192.5 -86t-80 -215t80 -217t192.5 -88zM285 1364q0 55 37.5 94t93.5 39q57 0 96 -39t39 -94q0 -57 -39 -94 t-96 -37q-55 0 -93 37t-38 94zM713 1364q0 55 36.5 94t92.5 39q57 0 96 -39t39 -94q0 -57 -39 -94t-96 -37q-55 0 -92 37t-37 94z" glyph-name="odieresis" horiz-adv-x="1253" unicode="ö"/><glyph d="M1032 528h-903q-29 0 -40 10.5t-11 39.5v96q0 29 11 39t40 10h903q29 0 39 -10.5t10 -38.5v-96q0 -29 -10 -39.5t-39 -10.5zM438 233.5q0 59.5 40 100.5t100 41q57 0 99 -42t42 -100q0 -59 -41 -99t-100.5 -40t-99.5 40t-40 99.5zM438 1013.5q0 59.5 40 100.5t100 41 q57 0 99 -41t42 -100.5t-41 -99.5t-100.5 -40t-99.5 40t-40 99.5z" glyph-name="divide" horiz-adv-x="1159" unicode="÷"/><glyph d="M72 520q0 225 160.5 385t383.5 160q92 0 166 -29l29 58q23 41 63 41h89q68 0 43 -50l-68 -129q102 -76 161.5 -190.5t59.5 -245.5q0 -225 -159.5 -384t-383.5 -159q-78 0 -172 27l-28 -55q-18 -41 -64 -41h-86q-70 0 -43 49l64 131q-98 74 -156.5 188.5t-58.5 243.5z M616 215q113 0 192 88t79 217q0 111 -74 197l-254 -492q26 -10 57 -10zM344 520q0 -104 68 -194l254 487q-29 8 -50 8q-113 0 -192.5 -87t-79.5 -214z" glyph-name="oslash" horiz-adv-x="1241" unicode="ø"/><glyph d="M836 152q-43 -53 -77 -85t-97.5 -61t-137.5 -29q-186 0 -290.5 110t-104.5 368v538q0 29 10.5 39t38.5 10h174q29 0 39 -10t10 -39v-481q0 -152 46.5 -221.5t146.5 -69.5q197 0 197 293v479q0 29 10 39t39 10h174q29 0 39 -10t10 -39v-475v-469q0 -29 -10.5 -39 t-38.5 -10h-86q-20 0 -31.5 10t-26.5 39zM489 1206l-145 115q-23 18 -25 32.5t11 35.5l65 108q37 55 70 16l256 -280q51 -57 -4 -57h-150q-43 -1 -78 30z" glyph-name="ugrave" unicode="ù"/><glyph d="M870 49l-34 103q-43 -53 -77 -85t-97.5 -61t-137.5 -29q-186 0 -290.5 110t-104.5 368v538q0 29 10.5 39t38.5 10h174q29 0 39 -10t10 -39v-481q0 -152 46.5 -221.5t146.5 -69.5q197 0 197 293v479q0 29 10 39t39 10h174q29 0 39 -10t10 -39v-475v-469q0 -29 -10.5 -39 t-38.5 -10h-86q-20 0 -32 10t-26 39zM831 1321l-145 -115q-35 -31 -78 -30h-149q-55 0 -4 57l256 280q33 39 69 -16l66 -108q12 -20 10 -35t-25 -33z" glyph-name="uacute" unicode="ú"/><glyph d="M836 152q-43 -53 -77 -85t-97.5 -61t-137.5 -29q-186 0 -290.5 110t-104.5 368v538q0 29 10.5 39t38.5 10h174q29 0 39 -10t10 -39v-481q0 -152 46.5 -221.5t146.5 -69.5q197 0 197 293v479q0 29 10 39t39 10h174q29 0 39 -10t10 -39v-475v-469q0 -29 -10.5 -39 t-38.5 -10h-86q-20 0 -31.5 10t-26.5 39zM545 1542h117q35 -2 69 -49l187 -270q31 -49 -21 -49h-106q-49 0 -76 49l-111 180l-112 -180q-29 -49 -74 -49h-109q-51 0 -20 49l188 270q33 47 68 49z" glyph-name="ucircumflex" unicode="û"/><glyph d="M836 152q-43 -53 -77 -85t-97.5 -61t-137.5 -29q-186 0 -290.5 110t-104.5 368v538q0 29 10.5 39t38.5 10h174q29 0 39 -10t10 -39v-481q0 -152 46.5 -221.5t146.5 -69.5q197 0 197 293v479q0 29 10 39t39 10h174q29 0 39 -10t10 -39v-475v-469q0 -29 -10.5 -39 t-38.5 -10h-86q-20 0 -31.5 10t-26.5 39zM258 1364q0 55 38 94t93 39q57 0 96 -39t39 -94q0 -57 -39 -94t-96 -37q-55 0 -93 37t-38 94zM686 1364q0 55 37 94t92 39q57 0 96 -39t39 -94q0 -57 -39 -94t-96 -37q-55 0 -92 37t-37 94z" glyph-name="udieresis" unicode="ü"/><glyph d="M559 420l254 573q16 31 27.5 40t36.5 9h198q27 0 32 -10t-7 -39l-619 -1362q-16 -31 -27.5 -40t-35.5 -9h-199q-27 0 -32 10.5t8 38.5l219 484l-400 878q-25 49 23 49h199q25 0 37 -10t28 -39l256 -573h2zM778 1321l-145 -115q-35 -31 -78 -30h-149q-55 0 -5 57l256 280 q33 39 70 -16l66 -108q12 -20 10 -35t-25 -33z" glyph-name="yacute" horiz-adv-x="1114" unicode="ý"/><glyph d="M760 0h-330v-369q0 -29 -10 -39t-39 -10h-174q-29 0 -39 10.5t-10 38.5v1780q0 29 10 39t39 10h174q29 0 39 -10t10 -39v-369h330q203 0 338 -150.5t135 -369.5q0 -223 -135 -372.5t-338 -149.5zM430 244h266q113 0 189 75.5t76 202.5q0 129 -77 205t-188 76h-266v-559z " glyph-name="thorn" horiz-adv-x="1316" unicode="þ"/><glyph d="M559 420l254 573q16 31 27.5 40t36.5 9h198q27 0 32 -10t-7 -39l-619 -1362q-16 -31 -27.5 -40t-35.5 -9h-199q-27 0 -32 10.5t8 38.5l219 484l-400 878q-25 49 23 49h199q25 0 37 -10t28 -39l256 -573h2zM215 1364q0 55 38 94t93 39q57 0 96 -39t39 -94q0 -57 -39 -94 t-96 -37q-55 0 -93 37t-38 94zM643 1364q0 55 37 94t92 39q57 0 96 -39t39 -94q0 -57 -39 -94t-96 -37q-55 0 -92 37t-37 94z" glyph-name="ydieresis" horiz-adv-x="1114" unicode="ÿ"/><glyph d="M764 973h-4l-205 -430h414zM805 1413l704 -1364q8 -18 -1 -33.5t-29 -15.5h-228q-25 0 -36 9t-27 40l-121 246h-610l-123 -246q-23 -49 -64 -49h-227q-20 0 -29.5 15.5t-1.5 33.5l707 1364q2 4 6 12.5t6 11.5t5 8t5 8t4.5 5t5.5 3t7 1h6q4 0 8 -2t8 -7t7.5 -9t8.5 -14.5 t9 -16.5zM1012 1659h-498q-29 0 -39 10t-10 39v94q0 29 10 39t39 10h498q29 0 39 -10t10 -39v-94q0 -29 -10 -39t-39 -10z" glyph-name="Amacron" horiz-adv-x="1521" unicode="Ā"/><glyph d="M252 803q-27 -4 -37 6t-16 41l-31 117q-14 49 29 59q35 8 150.5 23.5t209.5 15.5q152 0 248 -32t144 -101.5t64.5 -152.5t16.5 -214v-516q0 -29 -10 -39t-39 -10h-102q-18 0 -29.5 10t-24.5 39l-18 74q-41 -39 -76 -64.5t-114.5 -53.5t-176.5 -28q-145 0 -251.5 89.5 t-106.5 252.5q0 160 110.5 246t276.5 86q152 0 289 -47q0 125 -43 176t-170 51q-150 1 -293 -28zM539 459q-96 0 -140.5 -40t-44.5 -100q0 -51 43 -94t131 -43q115 0 230 125v109q-143 43 -219 43zM827 1268h-497q-29 0 -39 10t-10 39v94q0 29 10 39t39 10h497 q29 0 39.5 -10t10.5 -39v-94q0 -29 -10.5 -39t-39.5 -10z" glyph-name="amacron" horiz-adv-x="1157" unicode="ā"/><glyph d="M764 973h-4l-205 -430h414zM805 1413l704 -1364q8 -18 -1 -33.5t-29 -15.5h-228q-25 0 -36 9t-27 40l-121 246h-610l-123 -246q-23 -49 -64 -49h-227q-20 0 -29.5 15.5t-1.5 33.5l707 1364q2 4 6 12.5t6 11.5t5 8t5 8t4.5 5t5.5 3t7 1h6q4 0 8 -2t8 -7t7.5 -9t8.5 -14.5 t9 -16.5zM761.5 1610q-233.5 0 -315.5 184q-27 63 11 82l82 43q39 20 57 -18q29 -66 60.5 -92.5t105.5 -26.5t104.5 25.5t63.5 93.5q18 39 57 18l82 -43q35 -18 8 -82q-82 -184 -315.5 -184z" glyph-name="Abreve" horiz-adv-x="1521" unicode="Ă"/><glyph d="M252 803q-27 -4 -37 6t-16 41l-31 117q-14 49 29 59q35 8 150.5 23.5t209.5 15.5q152 0 248 -32t144 -101.5t64.5 -152.5t16.5 -214v-516q0 -29 -10 -39t-39 -10h-102q-18 0 -29.5 10t-24.5 39l-18 74q-41 -39 -76 -64.5t-114.5 -53.5t-176.5 -28q-145 0 -251.5 89.5 t-106.5 252.5q0 160 110.5 246t276.5 86q152 0 289 -47q0 125 -43 176t-170 51q-150 1 -293 -28zM539 459q-96 0 -140.5 -40t-44.5 -100q0 -51 43 -94t131 -43q115 0 230 125v109q-143 43 -219 43zM581.5 1219q-233.5 0 -315.5 184q-27 63 10 82l82 43q39 20 58 -19 q29 -66 60.5 -92t105 -26t104.5 25.5t64 92.5q18 39 57 19l82 -43q35 -18 8 -82q-82 -184 -315.5 -184z" glyph-name="abreve" horiz-adv-x="1157" unicode="ă"/><glyph d="M1204 23l-137 272h-610l-123 -246q-23 -49 -64 -49h-227q-20 0 -29.5 15.5t-1.5 33.5l707 1364q2 4 6 12.5t6 11.5t5 8t5 8t4.5 5t5.5 3t7 1h6q4 0 8 -2t8 -7t7.5 -9t8.5 -13.5t9 -15.5l704 -1366q8 -18 -1 -33.5t-29 -15.5h-140q-47 -20 -96 -69.5t-49 -108.5 q0 -150 113 -150q23 0 92 4q31 0 40 -7t9 -36v-36q0 -27 -9 -36.5t-40 -13.5q-55 -6 -111 -6q-106 0 -173.5 58.5t-67.5 175.5q-1 148 157 248zM762 977l-209 -434h416l-205 432z" glyph-name="Aogonek" horiz-adv-x="1521" unicode="Ą"/><glyph d="M1061 -453q-55 -6 -111 -6q-109 0 -178.5 58.5t-69.5 175.5q0 143 142 241q-12 16 -21 45l-18 54q-45 -39 -78 -61.5t-112.5 -49.5t-174.5 -27q-143 0 -249.5 89.5t-106.5 252.5q0 160 110.5 246t272.5 86q152 0 287 -47q0 125 -43 176t-168 51q-143 0 -291 -28 q-27 -4 -37 6t-16 41l-31 117q-6 27 -1 40t30 19q35 8 149.5 23.5t208.5 15.5q152 0 248 -32t144 -101.5t64.5 -152.5t16.5 -214v-516q0 -29 -9 -39t-34 -10q-47 -27 -91 -74t-44 -104q0 -150 119 -150q23 0 92 4q31 0 41 -7t10 -36v-36q0 -27 -10 -36.5t-41 -13.5zM535 459 q-92 0 -136.5 -40t-44.5 -100q0 -51 43 -94t129 -43q115 0 228 117v117q-139 43 -219 43z" glyph-name="aogonek" horiz-adv-x="1144" unicode="ą"/><glyph d="M807 225q209 0 354 156q33 33 68 -6l110 -121q20 -23 22.5 -36t-18.5 -34q-98 -96 -242.5 -153.5t-293.5 -57.5q-303 0 -519 219.5t-216 524.5t216 524t519 219q150 0 294 -57t242 -154q20 -20 18.5 -33.5t-22.5 -35.5l-110 -121q-37 -39 -70 -6q-145 156 -352 155 q-195 0 -317.5 -147.5t-122.5 -343.5q0 -195 122.5 -343.5t317.5 -148.5zM989 1712l-145 -115q-33 -31 -78 -30h-150q-55 0 -4 57l256 281q33 39 70 -17l66 -108q12 -20 10 -35t-25 -33z" glyph-name="Cacute" horiz-adv-x="1482" unicode="Ć"/><glyph d="M614 221q133 0 213 76q23 18 35 15t35 -25l88 -99q18 -20 20.5 -30.5t-12.5 -26.5q-158 -154 -379 -154q-223 0 -381.5 159t-158.5 384t158.5 385t381.5 160q221 0 379 -154q14 -16 12.5 -26.5t-20.5 -30.5l-88 -98q-23 -23 -35 -26t-35 15q-80 76 -213 76 q-113 0 -192.5 -86t-79.5 -215t78.5 -214t193.5 -85zM848 1321l-146 -115q-35 -31 -77 -30h-150q-55 0 -4 57l256 280q33 39 70 -16l65 -108q12 -20 10.5 -35t-24.5 -33z" glyph-name="cacute" horiz-adv-x="1042" unicode="ć"/><glyph d="M807 225q209 0 354 156q33 33 68 -6l110 -121q20 -23 22.5 -36t-18.5 -34q-98 -96 -242.5 -153.5t-293.5 -57.5q-303 0 -519 219.5t-216 524.5t216 524t519 219q150 0 294 -57t242 -154q20 -20 18.5 -33.5t-22.5 -35.5l-110 -121q-37 -39 -70 -6q-145 156 -352 155 q-195 0 -317.5 -147.5t-122.5 -343.5q0 -195 122.5 -343.5t317.5 -148.5zM745 1933h117q35 -2 70 -49l186 -270q31 -49 -20 -49h-107q-49 0 -76 49l-110 180l-113 -180q-29 -49 -74 -49h-108q-51 0 -21 49l189 270q32 47 67 49z" glyph-name="Ccircumflex" horiz-adv-x="1482" unicode="Ĉ"/><glyph d="M614 221q133 0 213 76q23 18 35 15t35 -25l88 -99q18 -20 20.5 -30.5t-12.5 -26.5q-158 -154 -379 -154q-223 0 -381.5 159t-158.5 384t158.5 385t381.5 160q221 0 379 -154q14 -16 12.5 -26.5t-20.5 -30.5l-88 -98q-23 -23 -35 -26t-35 15q-80 76 -213 76 q-113 0 -192.5 -86t-79.5 -215t78.5 -214t193.5 -85zM537 1542h116q35 -2 70 -49l186 -270q31 -49 -20 -49h-107q-49 0 -75 49l-111 180l-113 -180q-27 -49 -73 -49h-109q-51 0 -20 49l188 270q33 47 68 49z" glyph-name="ccircumflex" horiz-adv-x="1042" unicode="ĉ"/><glyph d="M807 225q209 0 354 156q33 33 68 -6l110 -121q20 -23 22.5 -36t-18.5 -34q-98 -96 -242.5 -153.5t-293.5 -57.5q-303 0 -519 219.5t-216 524.5t216 524t519 219q150 0 294 -57t242 -154q20 -20 18.5 -33.5t-22.5 -35.5l-110 -121q-37 -39 -70 -6q-145 156 -352 155 q-195 0 -317.5 -147.5t-122.5 -343.5q0 -195 122.5 -343.5t317.5 -148.5zM641 1753.5q0 67.5 46 115.5t113.5 48t116 -48t48.5 -115.5t-48.5 -115t-116 -47.5t-113.5 47.5t-46 115z" glyph-name="Cdotaccent" horiz-adv-x="1482" unicode="Ċ"/><glyph d="M614 221q133 0 213 76q23 18 35 15t35 -25l88 -99q18 -20 20.5 -30.5t-12.5 -26.5q-158 -154 -379 -154q-223 0 -381.5 159t-158.5 384t158.5 385t381.5 160q221 0 379 -154q14 -16 12.5 -26.5t-20.5 -30.5l-88 -98q-23 -23 -35 -26t-35 15q-80 76 -213 76 q-113 0 -192.5 -86t-79.5 -215t78.5 -214t193.5 -85zM446 1362q0 68 46.5 116t114 48t115.5 -48t48 -116t-48 -115t-115.5 -47t-114 47t-46.5 115z" glyph-name="cdotaccent" horiz-adv-x="1042" unicode="ċ"/><glyph d="M807 225q209 0 354 156q33 33 68 -6l110 -121q20 -23 22.5 -36t-18.5 -34q-98 -96 -242.5 -153.5t-293.5 -57.5q-303 0 -519 219.5t-216 524.5t216 524t519 219q150 0 294 -57t242 -154q20 -20 18.5 -33.5t-22.5 -35.5l-110 -121q-37 -39 -70 -6q-145 156 -352 155 q-195 0 -317.5 -147.5t-122.5 -343.5q0 -195 122.5 -343.5t317.5 -148.5zM848 1565h-117q-35 2 -67 49l-189 270q-31 49 21 49h108q47 0 74 -49l113 -180l110 180q29 49 76 49h106q51 0 21 -49l-186 -270q-35 -47 -70 -49z" glyph-name="Ccaron" horiz-adv-x="1482" unicode="Č"/><glyph d="M614 221q133 0 213 76q23 18 35 15t35 -25l88 -99q18 -20 20.5 -30.5t-12.5 -26.5q-158 -154 -379 -154q-223 0 -381.5 159t-158.5 384t158.5 385t381.5 160q221 0 379 -154q14 -16 12.5 -26.5t-20.5 -30.5l-88 -98q-23 -23 -35 -26t-35 15q-80 76 -213 76 q-113 0 -192.5 -86t-79.5 -215t78.5 -214t193.5 -85zM651 1174h-116q-35 2 -68 49l-188 270q-31 49 20 49h109q47 0 73 -49l113 -180l111 180q29 49 75 49h107q51 0 20 -49l-186 -270q-35 -47 -70 -49z" glyph-name="ccaron" horiz-adv-x="1042" unicode="č"/><glyph d="M203 1434h520q305 0 517 -207t212 -510t-212 -510t-517 -207h-520q-29 0 -39 10t-10 39v1335q0 29 11 39.5t38 10.5zM721 1192h-277v-950h277q201 0 318.5 140t117.5 335q0 197 -117.5 336t-318.5 139zM762 1565h-117q-35 2 -67 49l-189 270q-31 49 21 49h108 q47 0 74 -49l113 -180l110 180q29 49 76 49h106q51 0 21 -49l-187 -270q-34 -47 -69 -49z" glyph-name="Dcaron" horiz-adv-x="1533" unicode="Ď"/><glyph d="M879 901v561q0 29 10 39t39 10h174q29 0 39 -10t10 -39v-1413q0 -29 -10.5 -39t-38.5 -10h-82q-20 0 -31.5 10t-25.5 39l-35 103q-158 -174 -373 -175q-203 0 -337 160t-134 383q0 227 134 386t337 159q117 0 204 -55.5t120 -108.5zM616.5 215q110.5 0 187.5 89t77 216 t-76 214t-189 87q-111 0 -186.5 -87t-75.5 -214q0 -131 76 -218t186.5 -87zM1571 1159h-8q-72 2 -121 52.5t-49 121.5q0 74 50 126t124 52q84 0 136 -63.5t52 -171.5q0 -143 -88 -263t-215 -179q-20 -10 -31 4l-49 75q-8 18 10 31q158 100 189 215z" glyph-name="dcaron" horiz-adv-x="1644" unicode="ď"/><glyph d="M78 842h182v542q0 29 11.5 39.5t39.5 10.5h518q305 0 517.5 -207t212.5 -510t-212 -510t-518 -207h-518q-29 0 -40 10t-11 39v559h-182q-29 0 -39 11.5t-10 37.5v136q0 29 10 39t39 10zM827 1192h-276v-350h252q29 0 39 -10.5t10 -38.5v-136q0 -29 -10.5 -39t-38.5 -10 h-252v-366h276q201 0 320 140t119 335q0 197 -119 336t-320 139z" glyph-name="Dcroat" horiz-adv-x="1648" unicode="Đ"/><glyph d="M1217 1133h-66v-1084q0 -29 -10.5 -39t-38.5 -10h-82q-31 0 -59 49l-35 103q-154 -174 -371 -175q-203 0 -337 160t-134 383q0 227 134 386t337 159q117 0 204 -55.5t120 -108.5v232h-140q-29 0 -40 10t-11 39v80q0 29 11.5 39t39.5 10h140v121q0 29 10 39t39 10h174 q29 0 39 -10.5t10 -38.5v-121h66q29 0 39 -10.5t10 -38.5v-80q0 -29 -10 -39t-39 -10zM616.5 215q110.5 0 187.5 89t77 216t-76 214t-189 87q-111 0 -186.5 -87t-75.5 -214q0 -131 76 -218t186.5 -87z" glyph-name="dcroat" horiz-adv-x="1333" unicode="đ"/><glyph d="M1137 0h-926q-29 0 -39 10t-10 39v1335q0 29 11 39.5t38 10.5h926q29 0 39 -10.5t10 -39.5v-149q0 -29 -10.5 -39t-38.5 -10h-684v-340h655q29 0 39 -10.5t10 -38.5v-150q0 -29 -10 -39t-39 -10h-655v-350h684q29 0 39 -10.5t10 -38.5v-150q0 -29 -10 -39t-39 -10z M920 1667h-498q-29 0 -39 10.5t-10 38.5v94q0 29 10 39.5t39 10.5h498q29 0 39 -10.5t10 -39.5v-94q0 -29 -10 -39t-39 -10z" glyph-name="Emacron" horiz-adv-x="1306" unicode="Ē"/><glyph d="M1042 186q31 -41 7 -63q-68 -68 -181.5 -107t-232.5 -39q-231 0 -391 159t-160 384t158.5 385t382.5 160q244 0 377 -168t133 -412q0 -31 -9.5 -42t-35.5 -11h-725q23 -94 100.5 -157.5t175.5 -63.5q129 0 260 65q4 2 12.5 6.5t10.5 5.5t8 3t8 1t7 -1t8 -2t8.5 -6 t9.5 -11zM856 608q-16 96 -74.5 165t-163.5 69q-109 0 -171 -70t-74 -164h483zM874 1268h-497q-29 0 -39 10t-10 39v94q0 29 10 39t39 10h497q29 0 39.5 -10t10.5 -39v-94q0 -29 -10.5 -39t-39.5 -10z" glyph-name="emacron" horiz-adv-x="1206" unicode="ē"/><glyph d="M1137 0h-926q-29 0 -39 10t-10 39v1335q0 29 11 39.5t38 10.5h926q29 0 39 -10.5t10 -39.5v-149q0 -29 -10.5 -39t-38.5 -10h-684v-340h655q29 0 39 -10.5t10 -38.5v-150q0 -29 -10 -39t-39 -10h-655v-350h684q29 0 39 -10.5t10 -38.5v-150q0 -29 -10 -39t-39 -10z M669.5 1610q-233.5 0 -315.5 184q-27 63 11 82l81 43q39 20 58 -18q29 -66 60.5 -92.5t105 -26.5t104.5 25.5t64 93.5q18 39 57 18l82 -43q35 -18 8 -82q-82 -184 -315.5 -184z" glyph-name="Ebreve" horiz-adv-x="1306" unicode="Ĕ"/><glyph d="M1042 186q31 -41 7 -63q-68 -68 -181.5 -107t-232.5 -39q-231 0 -391 159t-160 384t158.5 385t382.5 160q244 0 377 -168t133 -412q0 -31 -9.5 -42t-35.5 -11h-725q23 -94 100.5 -157.5t175.5 -63.5q129 0 260 65q4 2 12.5 6.5t10.5 5.5t8 3t8 1t7 -1t8 -2t8.5 -6 t9.5 -11zM856 608q-16 96 -74.5 165t-163.5 69q-109 0 -171 -70t-74 -164h483zM620.5 1219q-233.5 0 -315.5 184q-27 63 10 82l82 43q39 20 58 -19q29 -66 60.5 -92t105 -26t104.5 25.5t63 92.5q18 39 58 19l82 -43q35 -18 8 -82q-82 -184 -315.5 -184z" glyph-name="ebreve" horiz-adv-x="1206" unicode="ĕ"/><glyph d="M1137 0h-926q-29 0 -39 10t-10 39v1335q0 29 11 39.5t38 10.5h926q29 0 39 -10.5t10 -39.5v-149q0 -29 -10.5 -39t-38.5 -10h-684v-340h655q29 0 39 -10.5t10 -38.5v-150q0 -29 -10 -39t-39 -10h-655v-350h684q29 0 39 -10.5t10 -38.5v-150q0 -29 -10 -39t-39 -10z M526 1753.5q0 67.5 46 115.5t114 48t116 -48t48 -115.5t-48 -115t-116 -47.5t-114 47.5t-46 115z" glyph-name="Edotaccent" horiz-adv-x="1306" unicode="Ė"/><glyph d="M1042 186q31 -41 7 -63q-68 -68 -181.5 -107t-232.5 -39q-231 0 -391 159t-160 384t158.5 385t382.5 160q244 0 377 -168t133 -412q0 -31 -9.5 -42t-35.5 -11h-725q23 -94 100.5 -157.5t175.5 -63.5q129 0 260 65q4 2 12.5 6.5t10.5 5.5t8 3t8 1t7 -1t8 -2t8.5 -6 t9.5 -11zM856 608q-16 96 -74.5 165t-163.5 69q-109 0 -171 -70t-74 -164h483zM459 1362q0 68 46 116t113.5 48t115.5 -48t48 -116t-48 -115t-115.5 -47t-113.5 47t-46 115z" glyph-name="edotaccent" horiz-adv-x="1206" unicode="ė"/><glyph d="M1174 0q-45 -20 -94.5 -69.5t-49.5 -108.5q0 -150 113 -150q23 0 92 4q31 0 40 -7t9 -36v-36q0 -27 -9 -36.5t-40 -13.5q-55 -6 -111 -6q-106 0 -173.5 58.5t-67.5 175.5q0 131 121 225h-789q-29 0 -39 10t-10 39v1335q0 29 10 39.5t39 10.5h924q29 0 40 -10.5t11 -39.5 v-149q0 -29 -11.5 -39t-39.5 -10h-682v-340h630q29 0 39.5 -10.5t10.5 -38.5v-150q0 -29 -10.5 -39t-39.5 -10h-630v-350h682q29 0 40 -10.5t11 -38.5v-150q0 -41 -16 -49z" glyph-name="Eogonek" horiz-adv-x="1316" unicode="Ę"/><glyph d="M696 -18q-102 -76 -102 -160q0 -150 119 -150q23 0 92 4q29 0 39 -7t10 -36v-36q0 -27 -10 -36.5t-39 -13.5q-55 -6 -111 -6q-109 0 -178.5 58.5t-69.5 175.5q0 121 99 211q-199 29 -330 179t-131 355q0 225 158.5 385t382.5 160q242 0 376 -162t134 -383v-35 q0 -31 -9.5 -42t-35.5 -11h-725q23 -94 100.5 -157.5t175.5 -63.5q129 0 260 65q41 18 51 13q10 -4 21 -17l69 -86q31 -41 9 -63q-128 -123 -355 -141zM373 608h483q-16 96 -74.5 165t-163.5 69q-109 0 -171 -70t-74 -164z" glyph-name="eogonek" horiz-adv-x="1206" unicode="ę"/><glyph d="M1137 0h-926q-29 0 -39 10t-10 39v1335q0 29 11 39.5t38 10.5h926q29 0 39 -10.5t10 -39.5v-149q0 -29 -10.5 -39t-38.5 -10h-684v-340h655q29 0 39 -10.5t10 -38.5v-150q0 -29 -10 -39t-39 -10h-655v-350h684q29 0 39 -10.5t10 -38.5v-150q0 -29 -10 -39t-39 -10z M723 1565h-117q-35 2 -67 49l-189 270q-31 49 21 49h108q45 0 74 -49l113 -180l110 180q27 49 76 49h106q51 0 21 -49l-186 -270q-35 -47 -70 -49z" glyph-name="Ecaron" horiz-adv-x="1325" unicode="Ě"/><glyph d="M1042 186q31 -41 7 -63q-68 -68 -181.5 -107t-232.5 -39q-231 0 -391 159t-160 384t158.5 385t382.5 160q244 0 377 -168t133 -412q0 -31 -9.5 -42t-35.5 -11h-725q23 -94 100.5 -157.5t175.5 -63.5q129 0 260 65q4 2 12.5 6.5t10.5 5.5t8 3t8 1t7 -1t8 -2t8.5 -6 t9.5 -11zM856 608q-16 96 -74.5 165t-163.5 69q-109 0 -171 -70t-74 -164h483zM664 1174h-117q-35 2 -68 49l-188 270q-31 49 20 49h109q47 0 74 -49l112 -180l111 180q29 49 76 49h106q51 0 21 -49l-187 -270q-34 -47 -69 -49z" glyph-name="ecaron" horiz-adv-x="1206" unicode="ě"/><glyph d="M825 1208q-195 0 -317.5 -147.5t-122.5 -343.5q0 -193 123 -342.5t317 -149.5q168 0 293 94v216h-246q-29 0 -39 11t-10 40v147q0 29 10.5 39t38.5 10h488q29 0 39 -10t10 -39v-471q0 -41 -33 -74q-100 -98 -249.5 -156.5t-301.5 -58.5q-303 0 -519 219.5t-216 524.5 t216 524t519 219q147 0 292 -57t245 -154q18 -20 16 -33.5t-22 -35.5l-111 -121q-35 -39 -69 -4q-148 153 -351 153zM733 1933h117q35 -2 70 -49l186 -270q31 -49 -21 -49h-106q-49 0 -76 49l-110 180l-113 -180q-29 -49 -74 -49h-108q-51 0 -21 49l189 270q32 47 67 49z " glyph-name="Gcircumflex" horiz-adv-x="1525" unicode="Ĝ"/><glyph d="M879 141q-33 -53 -120 -108.5t-204 -55.5q-203 0 -337 159t-134 386q0 223 134 383t337 160q215 0 373 -174l35 102q14 29 25 39t32 10h82q29 0 39 -10t10 -39v-901q0 -598 -510 -598q-219 0 -416 76q-25 10 -30 20.5t2 38.5l34 146q8 29 17.5 35t34.5 -5 q182 -74 313 -73q283 0 283 325v84zM616.5 825q-110.5 0 -186.5 -87t-76 -216q0 -127 76 -214t186 -87q113 0 189 87t76 214t-77 215t-187.5 88zM596 1542h117q35 -2 69 -49l187 -270q31 -49 -21 -49h-106q-47 0 -76 49l-111 180l-112 -180q-27 -49 -74 -49h-109 q-51 0 -20 49l188 270q33 47 68 49z" glyph-name="gcircumflex" horiz-adv-x="1306" unicode="ĝ"/><glyph d="M825 1208q-195 0 -317.5 -147.5t-122.5 -343.5q0 -193 123 -342.5t317 -149.5q168 0 293 94v216h-246q-29 0 -39 11t-10 40v147q0 29 10.5 39t38.5 10h488q29 0 39 -10t10 -39v-471q0 -41 -33 -74q-100 -98 -249.5 -156.5t-301.5 -58.5q-303 0 -519 219.5t-216 524.5 t216 524t519 219q147 0 292 -57t245 -154q18 -20 16 -33.5t-22 -35.5l-111 -121q-35 -39 -69 -4q-148 153 -351 153zM788.5 1610q-233.5 0 -315.5 184q-27 63 10 82l82 43q39 20 58 -18q29 -66 60.5 -92.5t105 -26.5t104.5 25.5t63 93.5q18 39 58 18l82 -43q35 -18 8 -82 q-82 -184 -315.5 -184z" glyph-name="Gbreve" horiz-adv-x="1525" unicode="Ğ"/><glyph d="M645.5 1219q-233.5 0 -315.5 184q-27 63 10 82l82 43q39 20 57 -19q29 -66 60.5 -92t105.5 -26t104.5 25.5t63.5 92.5q18 39 57 19l82 -43q35 -18 9 -82q-82 -184 -315.5 -184zM879 141q-33 -53 -120 -108.5t-204 -55.5q-203 0 -337 159t-134 386q0 223 134 383t337 160 q215 0 373 -174l35 102q14 29 25 39t32 10h82q29 0 39 -10t10 -39v-901q0 -598 -510 -598q-219 0 -416 76q-25 10 -30 20.5t2 38.5l34 146q8 29 17.5 35t34.5 -5q182 -74 313 -73q283 0 283 325v84zM616.5 825q-110.5 0 -186.5 -87t-76 -216q0 -127 76 -214t186 -87 q113 0 189 87t76 214t-77 215t-187.5 88z" glyph-name="gbreve" horiz-adv-x="1306" unicode="ğ"/><glyph d="M825 1208q-195 0 -317.5 -147.5t-122.5 -343.5q0 -193 123 -342.5t317 -149.5q168 0 293 94v216h-246q-29 0 -39 11t-10 40v147q0 29 10.5 39t38.5 10h488q29 0 39 -10t10 -39v-471q0 -41 -33 -74q-100 -98 -249.5 -156.5t-301.5 -58.5q-303 0 -519 219.5t-216 524.5 t216 524t519 219q147 0 292 -57t245 -154q18 -20 16 -33.5t-22 -35.5l-111 -121q-35 -39 -69 -4q-148 153 -351 153zM635 1753.5q0 67.5 46 115.5t113.5 48t115.5 -48t48 -115.5t-48 -115t-115.5 -47.5t-113.5 47.5t-46 115z" glyph-name="Gdotaccent" horiz-adv-x="1525" unicode="Ġ"/><glyph d="M879 141q-33 -53 -120 -108.5t-204 -55.5q-203 0 -337 159t-134 386q0 223 134 383t337 160q215 0 373 -174l35 102q14 29 25 39t32 10h82q29 0 39 -10t10 -39v-901q0 -598 -510 -598q-219 0 -416 76q-25 10 -30 20.5t2 38.5l34 146q8 29 17.5 35t34.5 -5 q182 -74 313 -73q283 0 283 325v84zM616.5 825q-110.5 0 -186.5 -87t-76 -216q0 -127 76 -214t186 -87q113 0 189 87t76 214t-77 215t-187.5 88zM471 1362q0 68 46 116t113.5 48t116 -48t48.5 -116t-48.5 -115t-116 -47t-113.5 47t-46 115z" glyph-name="gdotaccent" horiz-adv-x="1306" unicode="ġ"/><glyph d="M825 -516h-6q-72 2 -121 52t-49 122q0 74 50.5 126t123.5 52q82 0 134.5 -63.5t52.5 -171.5q0 -143 -88 -263t-215 -180q-18 -12 -29 4l-49 76q-10 18 8 31q155 96 188 215zM825 1208q-195 0 -317.5 -147.5t-122.5 -343.5q0 -193 123 -342.5t317 -149.5q168 0 293 94v216 h-246q-29 0 -39 11t-10 40v147q0 29 10.5 39t38.5 10h488q29 0 39 -10t10 -39v-471q0 -41 -33 -74q-100 -98 -249.5 -156.5t-301.5 -58.5q-303 0 -519 219.5t-216 524.5t216 524t519 219q147 0 292 -57t245 -154q18 -20 16 -33.5t-22 -35.5l-111 -121q-35 -39 -69 -4 q-148 153 -351 153z" glyph-name="Gcommaaccent" horiz-adv-x="1525" unicode="Ģ"/><glyph d="M647 1536h6q72 -2 121 -52t49 -122q0 -74 -50 -125t-124 -51q-84 0 -136 62.5t-52 170.5q0 145 89 265t214 180q25 8 31 -6l49 -76q12 -16 -10 -31q-156 -98 -187 -215zM879 141q-33 -53 -120 -108.5t-204 -55.5q-203 0 -337 159t-134 386q0 223 134 383t337 160 q215 0 373 -174l35 102q14 29 25 39t32 10h82q29 0 39 -10t10 -39v-901q0 -598 -510 -598q-219 0 -416 76q-25 10 -30 20.5t2 38.5l34 146q8 29 17.5 35t34.5 -5q182 -74 313 -73q283 0 283 325v84zM616.5 825q-110.5 0 -186.5 -87t-76 -216q0 -127 76 -214t186 -87 q113 0 189 87t76 214t-77 215t-187.5 88z" glyph-name="gcommaaccent" horiz-adv-x="1306" unicode="ģ"/><glyph d="M1094 838v546q0 29 10 39.5t39 10.5h192q29 0 39 -10.5t10 -39.5v-1335q0 -29 -10 -39t-39 -10h-192q-29 0 -39 10t-10 39v537h-635v-537q0 -29 -10.5 -39t-38.5 -10h-193q-29 0 -39 10t-10 39v1335q0 29 10 39.5t39 10.5h193q29 0 39 -10.5t10 -39.5v-546h635zM715 1933 h116q35 -2 70 -49l186 -270q31 -49 -20 -49h-106q-47 0 -76 49l-111 180l-112 -180q-27 -49 -74 -49h-109q-51 0 -20 49l188 270q33 47 68 49z" glyph-name="Hcircumflex" horiz-adv-x="1554" unicode="Ĥ"/><glyph d="M438 936q117 129 267 129q186 0 290.5 -109.5t104.5 -367.5v-539q0 -29 -11.5 -39t-37.5 -10h-177q-29 0 -39 10t-10 39v481q0 152 -45 221.5t-145 69.5q-197 0 -197 -293v-479q0 -29 -10 -39t-39 -10h-176q-29 0 -39 10t-10 39v475v938q0 29 10 39t39 10h176 q29 0 39 -10t10 -39v-526zM244 1933h116q35 -2 70 -49l186 -270q31 -49 -20 -49h-107q-47 0 -75 49l-111 180l-113 -180q-29 -49 -73 -49h-109q-51 0 -20 49l188 270q33 47 68 49z" glyph-name="hcircumflex" unicode="ĥ"/><glyph d="M1493 1008h-123v-959q0 -29 -11 -39t-40 -10h-191q-29 0 -39 10t-10 39v537h-635v-537q0 -29 -10 -39t-39 -10h-192q-29 0 -39 10t-10 39v959h-123q-29 0 -39 10t-10 39v78q0 29 10 39t39 10h123v200q0 29 10 39.5t39 10.5h192q29 0 39 -10.5t10 -39.5v-200h635v200 q0 29 10.5 39.5t38.5 10.5h191q29 0 40 -10.5t11 -39.5v-200h123q29 0 39 -10.5t10 -38.5v-78q0 -29 -10 -39t-39 -10zM1079 838v170h-635v-170h635z" glyph-name="Hbar" horiz-adv-x="1521" unicode="Ħ"/><glyph d="M229 1311v121q0 29 10.5 39t39.5 10h176q29 0 39 -10.5t10 -38.5v-121h166q29 0 39 -10.5t10 -38.5v-80q0 -29 -10.5 -39t-38.5 -10h-166v-197q125 129 264 129q188 0 289.5 -110.5t101.5 -370.5v-535q0 -29 -10 -39t-39 -10h-174q-29 0 -39 10t-10 39v479 q0 154 -44 223.5t-143 69.5q-197 0 -196 -301v-471q0 -29 -10.5 -39t-38.5 -10h-176q-29 0 -39.5 10t-10.5 39v1084h-77q-29 0 -39.5 10t-10.5 39v80q0 29 10.5 39t39.5 10h77z" glyph-name="hbar" horiz-adv-x="1273" unicode="ħ"/><glyph d="M158 49v1335q0 29 10 39.5t39 10.5h192q29 0 39.5 -10.5t10.5 -39.5v-1335q0 -29 -10.5 -39t-39.5 -10h-192q-29 0 -39 10t-10 39zM446 1817q55 0 84 73q10 27 23.5 32t40.5 -5l70 -31q27 -10 32.5 -24.5t-4.5 -40.5q-74 -186 -231 -187q-88 0 -174 54q-14 8 -39 22 t-34 19.5t-24.5 10.5t-29.5 5q-25 0 -48.5 -21.5t-35.5 -52.5q-10 -27 -22.5 -32t-41.5 6l-67 30q-29 10 -35 24.5t6 41.5q74 186 231 186q86 0 175 -55q12 -8 37.5 -22.5t33.5 -18.5t23.5 -9t29.5 -5z" glyph-name="Itilde" horiz-adv-x="608" unicode="Ĩ"/><glyph d="M164 49v944q0 29 10 39t39 10h174q29 0 39 -10t10 -39v-944q0 -29 -10 -39t-39 -10h-174q-29 0 -39 10t-10 39zM442 1425q55 0 84 74q10 27 23.5 32t40.5 -5l69 -31q27 -10 33 -24.5t-4 -40.5q-74 -186 -231 -187q-88 0 -174 53q-14 8 -39 22.5t-34 19.5t-24.5 10.5 t-29.5 5.5q-25 0 -48.5 -21.5t-35.5 -52.5q-10 -27 -22.5 -32t-41.5 5l-67 31q-29 10 -35 24.5t6 41.5q74 186 231 186q86 0 174 -55q12 -8 38 -22.5t34 -18.5t23.5 -9.5t29.5 -5.5z" glyph-name="itilde" horiz-adv-x="598" unicode="ĩ"/><glyph d="M160 49v1335q0 29 10 39.5t39 10.5h192q29 0 39.5 -10.5t10.5 -39.5v-1335q0 -29 -10.5 -39t-39.5 -10h-192q-29 0 -39 10t-10 39zM555 1659h-498q-29 0 -39 10t-10 39v94q0 29 10.5 39t38.5 10h498q29 0 39 -10t10 -39v-94q0 -29 -10 -39t-39 -10z" glyph-name="Imacron" horiz-adv-x="612" unicode="Ī"/><glyph d="M164 49v944q0 29 10 39t39 10h174q29 0 39 -10t10 -39v-944q0 -29 -10 -39t-39 -10h-174q-29 0 -39 10t-10 39zM549 1268h-498q-29 0 -39 10t-10 39v94q0 29 10.5 39t38.5 10h498q29 0 39 -10t10 -39v-94q0 -29 -10 -39t-39 -10z" glyph-name="imacron" horiz-adv-x="598" unicode="ī"/><glyph d="M168 49v1335q0 29 10 39.5t39 10.5h193q29 0 39 -10.5t10 -39.5v-1335q0 -29 -10.5 -39t-38.5 -10h-193q-29 0 -39 10t-10 39zM313.5 1610q-233.5 0 -315.5 184q-27 63 10 82l82 43q39 20 57 -18q29 -66 61 -92.5t105.5 -26.5t104.5 25.5t63 93.5q18 39 58 18l82 -43 q35 -18 8 -82q-82 -184 -315.5 -184z" glyph-name="Ibreve" horiz-adv-x="626" unicode="Ĭ"/><glyph d="M168 49v944q0 29 10 39t39 10h174q29 0 39 -10t10 -39v-944q0 -29 -10 -39t-39 -10h-174q-29 0 -39 10t-10 39zM303.5 1219q-233.5 0 -315.5 184q-27 63 10 82l82 43q39 20 57 -19q29 -66 60.5 -92t105.5 -26t104.5 25.5t63.5 92.5q18 39 57 19l82 -43q35 -18 8 -82 q-81 -184 -314.5 -184z" glyph-name="ibreve" horiz-adv-x="608" unicode="ĭ"/><glyph d="M160 53v1331q0 29 11 39.5t40 10.5h190q29 0 39.5 -10.5t10.5 -39.5v-1335q0 -29 -10.5 -39t-39.5 -10h-10q-45 -20 -93 -69.5t-48 -108.5q0 -150 112 -150q23 0 93 4q29 0 39 -7t10 -36v-36q0 -27 -10.5 -36.5t-38.5 -13.5q-55 -6 -111 -6q-106 0 -174 58.5t-68 175.5 q0 139 136 231h-31q-27 0 -37 10t-10 37z" glyph-name="Iogonek" horiz-adv-x="612" unicode="Į"/><glyph d="M164 53v940q0 29 10 39t39 10h174q29 0 39 -10t10 -39v-944q0 -29 -8 -38t-33 -11q-45 -20 -94 -69.5t-49 -108.5q0 -150 113 -150q23 0 92 4q31 0 40 -7t9 -36v-36q0 -27 -9.5 -36.5t-39.5 -13.5q-55 -6 -111 -6q-106 0 -174 58.5t-68 175.5q0 139 136 231h-29 q-27 0 -37 9t-10 38zM141 1362q0 68 46 116t114 48t116 -48t48 -116t-48 -115t-116 -47t-114 47t-46 115z" glyph-name="iogonek" horiz-adv-x="595" unicode="į"/><glyph d="M182 49v1335q0 29 10.5 39.5t38.5 10.5h193q29 0 39 -10.5t10 -39.5v-1335q0 -29 -10 -39t-39 -10h-193q-29 0 -39 10t-10 39zM168 1755.5q0 67.5 46 115.5t113.5 48t116 -48t48.5 -115.5t-48.5 -115t-116 -47.5t-113.5 47.5t-46 115z" glyph-name="Idotaccent" horiz-adv-x="659" unicode="İ"/><glyph d="M168 49v944q0 29 10 39t39 10h174q29 0 39 -10t10 -39v-944q0 -29 -10 -39t-39 -10h-174q-29 0 -39 10t-10 39z" glyph-name="dotlessi" horiz-adv-x="608" unicode="ı"/><glyph d="M168 49v1335q0 29 10 39.5t39 10.5h193q29 0 39 -10.5t10 -39.5v-1335q0 -29 -10.5 -39t-38.5 -10h-193q-29 0 -39 10t-10 39zM852 1212q-29 0 -39 10.5t-10 39.5v122q0 29 10 39.5t39 10.5h504q29 0 39 -10.5t10 -39.5v-827q0 -311 -174 -445.5t-502 -138.5 q-37 0 -47 9.5t-14 40.5l-17 155q-6 49 56 49q225 0 316 75t91 255v655h-262z" glyph-name="IJ" horiz-adv-x="1533" unicode="Ĳ"/><glyph d="M195 49v944q0 29 10 39t39 10h174q29 0 39 -10t10 -39v-944q0 -29 -10.5 -39t-38.5 -10h-174q-29 0 -39 10t-10 39zM168 1362q0 68 46 116t113.5 48t116 -48t48.5 -116t-48.5 -115t-116 -47t-113.5 47t-46 115zM967 1362q0 68 46 116t113.5 48t115.5 -48t48 -116 t-48 -115t-115.5 -47t-113.5 47t-46 115zM737 872v121q0 49 51 49h429q29 0 39 -10t10 -39v-1020q0 -217 -103.5 -336.5t-304.5 -119.5q-121 0 -203 53q-23 14 -26.5 24.5t0.5 36.5l22 125q6 37 17.5 41t44.5 -12q47 -25 114 -25q166 0 166 224v827v12h-205q-51 0 -51 49z " glyph-name="ij" horiz-adv-x="1439" unicode="ĳ"/><glyph d="M272 1212q-29 0 -39 10.5t-10 39.5v122q0 29 10.5 39.5t38.5 10.5h504q29 0 39 -10.5t10 -39.5v-827q0 -311 -174 -445.5t-501 -138.5q-37 0 -47.5 9.5t-14.5 40.5l-16 155q-6 49 55 49q225 0 316.5 75t91.5 255v655h-263zM471 1933h117q35 -2 69 -49l187 -270 q31 -49 -21 -49h-106q-49 0 -76 49l-111 180l-112 -180q-29 -49 -74 -49h-108q-51 0 -21 49l188 270q33 47 68 49z" glyph-name="Jcircumflex" horiz-adv-x="987" unicode="Ĵ"/><glyph d="M109 872v121q0 49 49 49h428q29 0 39 -10t10 -39v-1020q0 -217 -103.5 -336.5t-304.5 -119.5q-119 0 -202 53q-20 14 -24.5 24.5t-0.5 36.5l20 125q6 37 18.5 42t45.5 -13q47 -25 113 -25q168 0 168 224v827v12h-207q-49 0 -49 49zM315 1542h117q35 -2 70 -49l186 -270 q31 -49 -20 -49h-107q-49 0 -76 49l-110 180l-113 -180q-29 -49 -74 -49h-108q-51 0 -21 49l189 270q32 47 67 49z" glyph-name="jcircumflex" horiz-adv-x="862" unicode="ĵ"/><glyph d="M731 750l608 -701q43 -49 -20 -49h-244q-23 0 -35 9t-36 40l-545 633v-633q0 -29 -10.5 -39t-38.5 -10h-193q-29 0 -39 10t-10 39v1335q0 29 10 39.5t39 10.5h193q29 0 39 -10.5t10 -39.5v-577l522 577q27 31 39 40.5t35 9.5h241q63 0 23 -50zM719 -516h-6q-72 2 -122 52 t-50 122q0 74 50 126t124 52q84 0 136 -63.5t52 -171.5q0 -143 -88 -263t-215 -180q-18 -10 -31 4l-47 76q-10 18 8 31q156 96 189 215z" glyph-name="Kcommaaccent" horiz-adv-x="1386" unicode="Ķ"/><glyph d="M707 553l413 -504q43 -49 -20 -49h-242q-23 0 -36 9t-38 40l-354 438v-438q0 -29 -10 -39t-39 -10h-174q-29 0 -39 10t-10 39v1383q0 29 10 39t39 10h174q29 0 39 -10.5t10 -38.5v-832l330 393q35 49 71 49h244q27 0 33 -15t-10 -34zM623 -516h-7q-72 2 -122 52t-50 122 q0 74 50.5 126t123.5 52q84 0 136.5 -63.5t52.5 -171.5q0 -143 -88 -263t-215 -180q-18 -10 -31 4l-47 76q-10 18 8 31q156 96 189 215z" glyph-name="kcommaaccent" horiz-adv-x="1181" unicode="ķ"/><glyph d="M707 553l413 -504q43 -49 -20 -49h-242q-23 0 -36 9t-38 40l-354 438v-438q0 -29 -10 -39t-39 -10h-174q-29 0 -39 10t-10 39v944q0 29 10 39t39 10h174q29 0 39 -10t10 -39v-393l330 393q35 49 71 49h244q27 0 33 -15t-10 -34z" glyph-name="kgreenlandic" horiz-adv-x="1181" unicode="ĸ"/><glyph d="M457 248h600q29 0 39 -10.5t10 -38.5v-150q0 -29 -10.5 -39t-38.5 -10h-842q-29 0 -39 10t-10 39v1335q0 29 10 39.5t39 10.5h193q29 0 39 -10.5t10 -39.5v-1136zM635 1712l-146 -115q-35 -31 -77 -30h-150q-55 0 -4 57l256 281q33 39 70 -17l65 -108q12 -20 10.5 -35 t-24.5 -33z" glyph-name="Lacute" horiz-adv-x="1169" unicode="Ĺ"/><glyph d="M145 49v1413q0 29 10.5 39t39.5 10h174q29 0 40 -10t11 -39v-1413q0 -29 -11.5 -39t-39.5 -10h-174q-29 0 -39.5 10t-10.5 39zM557 1712l-145 -115q-33 -31 -78 -30h-150q-55 0 -4 57l256 281q33 39 70 -17l65 -108q12 -20 10.5 -35t-24.5 -33z" glyph-name="lacute" horiz-adv-x="557" unicode="ĺ"/><glyph d="M651 -516h-8q-72 2 -121 52t-49 122q0 74 50 126t124 52q84 0 136.5 -63.5t52.5 -171.5q0 -143 -88.5 -263t-215.5 -180q-20 -10 -30 4l-49 76q-8 18 10 31q155 96 188 215zM457 248h600q29 0 39 -10.5t10 -38.5v-150q0 -29 -10.5 -39t-38.5 -10h-842q-29 0 -39 10 t-10 39v1335q0 29 10 39.5t39 10.5h193q29 0 39 -10.5t10 -39.5v-1136z" glyph-name="Lcommaaccent" horiz-adv-x="1169" unicode="Ļ"/><glyph d="M281 -516h-7q-72 2 -122 52t-50 122q0 74 50.5 126t123.5 52q84 0 136.5 -63.5t52.5 -171.5q0 -143 -88 -263t-215 -180q-18 -10 -31 4l-47 76q-10 18 8 31q156 96 189 215zM139 49v1413q0 29 10.5 39t38.5 10h174q29 0 40.5 -10t11.5 -39v-1413q0 -29 -11.5 -39 t-40.5 -10h-174q-29 0 -39 10t-10 39z" glyph-name="lcommaaccent" horiz-adv-x="550" unicode="ļ"/><glyph d="M948 1087h-8q-72 2 -121 52.5t-49 122.5q0 74 50 126t124 52q84 0 136.5 -63.5t52.5 -172.5q0 -143 -88.5 -263t-215.5 -179q-20 -10 -30 4l-49 76q-8 18 10 30q157 100 188 215zM457 248h600q29 0 39 -10.5t10 -38.5v-150q0 -29 -10.5 -39t-38.5 -10h-842q-29 0 -39 10 t-10 39v1335q0 29 10 39.5t39 10.5h193q29 0 39 -10.5t10 -39.5v-1136z" glyph-name="Lcaron" horiz-adv-x="1187" unicode="Ľ"/><glyph d="M725 1159h-8q-72 2 -121 52.5t-49 121.5q0 74 50 126t124 52q84 0 136 -63.5t52 -171.5q0 -143 -88 -263t-215 -179q-20 -10 -31 4l-49 75q-8 18 11 31q157 100 188 215zM139 49v1413q0 29 10.5 39t38.5 10h174q29 0 40.5 -10t11.5 -39v-1413q0 -29 -11.5 -39t-40.5 -10 h-174q-29 0 -39 10t-10 39z" glyph-name="lcaron" horiz-adv-x="798" unicode="ľ"/><glyph d="M457 248h600q29 0 39 -10.5t10 -38.5v-150q0 -29 -10.5 -39t-38.5 -10h-842q-29 0 -39 10t-10 39v1335q0 29 10 39.5t39 10.5h193q29 0 39 -10.5t10 -39.5v-1136zM786 702.5q0 67.5 46.5 115.5t114 48t115.5 -48t48 -115.5t-48 -114.5t-115.5 -47t-114 47t-46.5 114.5z " glyph-name="Ldot" horiz-adv-x="1165" unicode="Ŀ"/><glyph d="M168 49v1413q0 29 10 39t39 10h174q29 0 40 -10t11 -39v-1413q0 -29 -11 -39t-40 -10h-174q-29 0 -39 10t-10 39zM610 708.5q0 67.5 46 115.5t114 48t116 -48t48 -115.5t-48 -114.5t-116 -47t-114 47t-46 114.5z" glyph-name="ldot" horiz-adv-x="954" unicode="ŀ"/><glyph d="M516 248h602q29 0 39 -10.5t10 -38.5v-150q0 -29 -10 -39t-39 -10h-844q-29 0 -39 10t-10 39v438l-90 -30q-27 -10 -40 -4t-23 32l-25 70q-16 47 31 63l147 52v714q0 29 10.5 39.5t38.5 10.5h193q29 0 39 -10.5t10 -39.5v-612l287 102q27 10 40 3t23 -33l23 -68 q8 -29 3 -41t-32 -22l-344 -123v-342z" glyph-name="Lslash" horiz-adv-x="1230" unicode="Ł"/><glyph d="M242 49v475l-119 -41q-27 -10 -40 -4t-24 33l-24 70q-14 47 31 63l176 62v725q0 29 10 39t39 10h174q29 0 40 -10.5t11 -38.5v-629l127 45q29 8 41 2t23 -33l24 -69q16 -47 -31 -64l-184 -63v-572q0 -29 -11 -39t-40 -10h-174q-29 0 -39 10t-10 39z" glyph-name="lslash" horiz-adv-x="765" unicode="ł"/><glyph d="M459 872v-823q0 -29 -10.5 -39t-38.5 -10h-193q-29 0 -39 10t-10 39v1393q0 18 18 18h19q14 0 35 -16l890 -875v815q0 29 10.5 39.5t39.5 10.5h190q29 0 40 -10.5t11 -39.5v-1392q0 -18 -18 -19h-19q-16 0 -36 19zM997 1712l-145 -115q-33 -31 -78 -30h-149q-55 0 -4 57 l256 281q33 39 69 -17l66 -108q12 -20 10 -35t-25 -33z" glyph-name="Nacute" horiz-adv-x="1587" unicode="Ń"/><glyph d="M358 993l35 -102q45 53 79 85t97.5 60.5t137.5 28.5q186 0 289.5 -109.5t103.5 -367.5v-539q0 -29 -10.5 -39t-38.5 -10h-174q-29 0 -39.5 10t-10.5 39v481q0 152 -45 221.5t-145 69.5q-199 0 -199 -293v-479q0 -29 -10 -39t-39 -10h-174q-29 0 -39 10t-10 39v475v469 q0 29 10 39t39 10h86q20 0 31.5 -10t25.5 -39zM823 1321l-145 -115q-35 -31 -78 -30h-149q-55 0 -5 57l256 280q33 39 70 -16l66 -108q12 -20 10 -35t-25 -33z" glyph-name="nacute" unicode="ń"/><glyph d="M809 -516h-6q-72 2 -121 52t-49 122q0 74 50 126t124 52q82 0 134 -63.5t52 -171.5q0 -143 -88 -263t-215 -180q-18 -12 -28 4l-50 76q-10 18 9 31q155 96 188 215zM459 872v-823q0 -29 -10.5 -39t-38.5 -10h-193q-29 0 -39 10t-10 39v1393q0 18 18 18h19q14 0 35 -16 l890 -875v815q0 29 10.5 39.5t39.5 10.5h190q29 0 40 -10.5t11 -39.5v-1392q0 -18 -18 -19h-19q-16 0 -36 19z" glyph-name="Ncommaaccent" horiz-adv-x="1587" unicode="Ņ"/><glyph d="M647 -516h-8q-72 2 -121 52t-49 122q0 74 50 126t124 52q84 0 136 -63.5t52 -171.5q0 -143 -88 -263t-215 -180q-20 -10 -30 4l-49 76q-8 18 10 31q155 96 188 215zM358 993l35 -102q45 53 79 85t97.5 60.5t137.5 28.5q186 0 289.5 -109.5t103.5 -367.5v-539 q0 -29 -10.5 -39t-38.5 -10h-174q-29 0 -39.5 10t-10.5 39v481q0 152 -45 221.5t-145 69.5q-199 0 -199 -293v-479q0 -29 -10 -39t-39 -10h-174q-29 0 -39 10t-10 39v475v469q0 29 10 39t39 10h86q20 0 31.5 -10t25.5 -39z" glyph-name="ncommaaccent" unicode="ņ"/><glyph d="M459 872v-823q0 -29 -10.5 -39t-38.5 -10h-193q-29 0 -39 10t-10 39v1393q0 18 18 18h19q14 0 35 -16l890 -875v815q0 29 10.5 39.5t39.5 10.5h190q29 0 40 -10.5t11 -39.5v-1392q0 -18 -18 -19h-19q-16 0 -36 19zM836 1565h-117q-35 2 -68 49l-188 270q-31 49 20 49h109 q47 0 74 -49l112 -180l111 180q29 49 76 49h106q51 0 21 -49l-187 -270q-34 -47 -69 -49z" glyph-name="Ncaron" horiz-adv-x="1587" unicode="Ň"/><glyph d="M393 891q45 53 79 85t97.5 60.5t137.5 28.5q186 0 289.5 -109.5t103.5 -367.5v-539q0 -29 -10.5 -39t-38.5 -10h-174q-29 0 -39.5 10t-10.5 39v481q0 152 -45 221.5t-145 69.5q-199 0 -199 -293v-479q0 -29 -10 -39t-39 -10h-174q-29 0 -39 10t-10 39v475v469q0 29 10 39 t39 10h86q20 0 31.5 -10t25.5 -39zM686 1174h-117q-35 2 -67 49l-189 270q-31 49 21 49h108q45 0 74 -49l113 -180l110 180q27 49 76 49h107q51 0 20 -49l-186 -270q-35 -47 -70 -49z" glyph-name="ncaron" unicode="ň"/><glyph d="M166 1386h-6q-72 2 -121 52.5t-49 122.5q0 74 50 126t124 52q84 0 136 -63.5t52 -172.5q0 -143 -89 -263t-214 -179q-23 -10 -31 4l-49 76q-10 18 11 30q155 98 186 215zM449 891q45 53 78.5 85t97 60.5t137.5 28.5q186 0 289.5 -109.5t103.5 -367.5v-539q0 -29 -10 -39 t-39 -10h-174q-29 0 -39 10t-10 39v481q0 152 -45 221.5t-146 69.5q-199 0 -198 -293v-479q0 -29 -10.5 -39t-39.5 -10h-174q-29 0 -39 10t-10 39v475v469q0 29 10.5 39t38.5 10h86q20 0 31.5 -10t26.5 -39z" glyph-name="napostrophe" horiz-adv-x="1284" unicode="ŉ"/><glyph d="M1128 190l-669 682v-823q0 -29 -10.5 -39t-38.5 -10h-193q-29 0 -39 10t-10 39v1393q0 18 18 18h19q14 0 35 -16l890 -875v815q0 29 10.5 39.5t39.5 10.5h190q29 0 40 -10.5t11 -39.5v-1368q-4 -276 -181 -411t-495 -135q-35 0 -46 9t-15 40l-16 155q-6 51 55 52 q240 0 320.5 92.5t84.5 371.5z" glyph-name="Eng" horiz-adv-x="1587" unicode="Ŋ"/><glyph d="M1100 588v-615q0 -217 -103.5 -336.5t-304.5 -119.5q-119 0 -203 53q-20 14 -24 24.5t0 36.5l22 125q4 37 16.5 42t45.5 -13q47 -25 115 -25q164 0 163 224v546q0 152 -45 221.5t-145 69.5q-199 0 -199 -293v-479q0 -29 -10 -39t-39 -10h-174q-29 0 -39 10t-10 39v475 v469q0 29 10 39t39 10h86q20 0 31.5 -10t25.5 -39l35 -102q45 53 79 85t97.5 60.5t137.5 28.5q186 0 289.5 -109.5t103.5 -367.5z" glyph-name="eng" unicode="ŋ"/><glyph d="M90 717q0 305 216 524t519 219t520.5 -219t217.5 -524t-217.5 -524.5t-520.5 -219.5t-519 219.5t-216 524.5zM385 717q0 -193 123 -342.5t317 -149.5q199 0 321 148.5t122 343.5q0 197 -122 344t-321 147q-195 0 -317.5 -147t-122.5 -344zM1075 1659h-497q-29 0 -39.5 10 t-10.5 39v94q0 29 10.5 39t39.5 10h497q29 0 39 -10t10 -39v-94q0 -29 -10 -39t-39 -10z" glyph-name="Omacron" horiz-adv-x="1652" unicode="Ō"/><glyph d="M84 520q0 225 159.5 385t383 160t383 -160t159.5 -385t-158.5 -384t-384 -159t-384 159t-158.5 384zM626.5 215q112.5 0 191.5 88t79 217t-79 215t-191.5 86t-192.5 -86t-80 -215t80 -217t192.5 -88zM877 1268h-498q-29 0 -39 10t-10 39v94q0 29 10 39t39 10h498 q29 0 39 -10t10 -39v-94q0 -29 -10 -39t-39 -10z" glyph-name="omacron" horiz-adv-x="1253" unicode="ō"/><glyph d="M90 717q0 305 216 524t519 219t520.5 -219t217.5 -524t-217.5 -524.5t-520.5 -219.5t-519 219.5t-216 524.5zM385 717q0 -193 123 -342.5t317 -149.5q199 0 321 148.5t122 343.5q0 197 -122 344t-321 147q-195 0 -317.5 -147t-122.5 -344zM827.5 1610 q-233.5 0 -315.5 184q-27 63 10 82l82 43q39 20 58 -18q29 -66 60.5 -92.5t105 -26.5t104.5 25.5t63 93.5q18 39 58 18l82 -43q35 -18 8 -82q-82 -184 -315.5 -184z" glyph-name="Obreve" horiz-adv-x="1652" unicode="Ŏ"/><glyph d="M84 520q0 225 159.5 385t383 160t383 -160t159.5 -385t-158.5 -384t-384 -159t-384 159t-158.5 384zM626.5 215q112.5 0 191.5 88t79 217t-79 215t-191.5 86t-192.5 -86t-80 -215t80 -217t192.5 -88zM626.5 1219q-233.5 0 -315.5 184q-27 63 11 82l81 43q39 20 58 -19 q29 -66 60.5 -92t105 -26t104.5 25.5t64 92.5q18 39 57 19l82 -43q35 -18 8 -82q-82 -184 -315.5 -184z" glyph-name="obreve" horiz-adv-x="1253" unicode="ŏ"/><glyph d="M90 717q0 305 216 524t519 219t520.5 -219t217.5 -524t-217.5 -524.5t-520.5 -219.5t-519 219.5t-216 524.5zM385 717q0 -193 123 -342.5t317 -149.5q199 0 321 148.5t122 343.5q0 197 -122 344t-321 147q-195 0 -317.5 -147t-122.5 -344zM899 1761l-137 -166 q-18 -31 -80 -30h-125q-53 0 -2 57l254 285q33 39 70 -17l28 -43q23 -43 -8 -86zM1214 1761l-135 -166q-20 -31 -80 -30h-125q-57 0 -2 57l254 285q33 41 70 -17l27 -43q14 -23 12.5 -41t-21.5 -45z" glyph-name="Ohungarumlaut" horiz-adv-x="1652" unicode="Ő"/><glyph d="M84 520q0 225 159.5 385t383 160t383 -160t159.5 -385t-158.5 -384t-384 -159t-384 159t-158.5 384zM626.5 215q112.5 0 191.5 88t79 217t-79 215t-191.5 86t-192.5 -86t-80 -215t80 -217t192.5 -88zM694 1370l-137 -166q-18 -31 -80 -30h-125q-53 0 -2 57l254 285 q33 39 70 -17l28 -43q23 -43 -8 -86zM1010 1370l-136 -166q-20 -31 -79 -30h-125q-57 0 -2 57l254 285q33 41 69 -17l27 -43q14 -23 13 -41t-21 -45z" glyph-name="ohungarumlaut" horiz-adv-x="1253" unicode="ő"/><glyph d="M385 717q0 -195 122 -343.5t316 -148.5q199 0 320 148.5t121 343.5q0 197 -121 344t-320 147q-195 0 -316.5 -147t-121.5 -344zM2064 598h-516q-31 -193 -170 -352l738 2q29 0 39 -10.5t10 -38.5v-150q0 -29 -10.5 -39t-38.5 -10h-932q-57 0 -181 -13.5t-180 -13.5 q-303 0 -518 219.5t-215 524.5t215 524t518 219q53 0 178 -13t183 -13h932q29 0 39 -10.5t10 -39.5v-149q0 -29 -10.5 -39t-38.5 -10h-654h-84q59 -59 106.5 -150.5t59.5 -189.5h520q29 0 39.5 -10.5t10.5 -38.5v-150q0 -29 -10.5 -39t-39.5 -10z" glyph-name="OE" horiz-adv-x="2283" unicode="Œ"/><glyph d="M1143 432v-47q20 -84 94 -129t162 -45q131 0 260 65q41 18 51 13q10 -4 21 -17l69 -86q31 -41 8 -63q-72 -72 -184.5 -109t-230.5 -37q-229 0 -387 154q-158 -154 -379 -154q-225 0 -384 159t-159 384t159.5 385t383.5 160q219 0 379 -154q160 154 376 154q166 0 286 -91 t172 -219t52 -270q0 -31 -9 -42t-36 -11h-704zM1149 657v-49h465q-16 98 -74.5 166t-163.5 68q-166 -1 -227 -185zM879 469v102q-10 113 -79 181.5t-173 68.5q-113 0 -193 -86t-80 -215t80 -217t193 -88q104 0 173 70.5t79 183.5z" glyph-name="oe" horiz-adv-x="1964" unicode="œ"/><glyph d="M1237 1004q0 -313 -307 -406l356 -535q16 -35 3 -49t-46 -14h-178q-51 0 -84 49l-346 520h-178v-520q0 -29 -10.5 -39t-38.5 -10h-193q-29 0 -39 10t-10 39v1335q0 29 10 39.5t39 10.5h506q94 0 180 -21.5t164 -69t125 -134t47 -205.5zM457 813h254q244 0 243 191 q0 188 -243 188h-254v-379zM877 1712l-146 -115q-35 -31 -78 -30h-149q-55 0 -4 57l256 281q33 39 69 -17l66 -108q12 -20 10.5 -35t-24.5 -33z" glyph-name="Racute" horiz-adv-x="1353" unicode="Ŕ"/><glyph d="M754 795q-156 0 -236 -84t-80 -209v-453q0 -29 -10 -39t-39 -10h-174q-29 0 -39 10t-10 39v944q0 29 10 39t39 10h86q20 0 31.5 -10t25.5 -39l54 -137q57 100 138 154.5t241 54.5q33 0 40 -9t3 -36l-27 -178q-4 -29 -14 -38t-39 -9zM760 1321l-146 -115q-33 -31 -77 -30 h-150q-55 0 -4 57l256 280q33 39 70 -16l65 -108q12 -20 10.5 -35t-24.5 -33z" glyph-name="racute" horiz-adv-x="864" unicode="ŕ"/><glyph d="M711 -516h-6q-72 2 -122.5 52t-50.5 122q0 74 50.5 126t124.5 52q84 0 136 -63.5t52 -171.5q0 -143 -88 -263t-215 -180q-18 -10 -31 4l-47 76q-10 18 8 31q156 96 189 215zM1237 1004q0 -313 -307 -406l356 -535q16 -35 3 -49t-46 -14h-178q-51 0 -84 49l-346 520h-178 v-520q0 -29 -10.5 -39t-38.5 -10h-193q-29 0 -39 10t-10 39v1335q0 29 10 39.5t39 10.5h506q94 0 180 -21.5t164 -69t125 -134t47 -205.5zM457 813h254q244 0 243 191q0 188 -243 188h-254v-379z" glyph-name="Rcommaaccent" horiz-adv-x="1353" unicode="Ŗ"/><glyph d="M287 -516h-8q-72 2 -121 52t-49 122q0 74 50 126t124 52q84 0 136 -63.5t52 -171.5q0 -143 -88 -263t-215 -180q-20 -10 -31 4l-49 76q-8 18 10 31q156 96 189 215zM719 795q-156 0 -236 -84t-80 -209v-453q0 -29 -10 -39t-39 -10h-174q-29 0 -39 10t-10 39v944 q0 29 10.5 39t38.5 10h86q20 0 31.5 -10t26.5 -39l53 -137q57 100 139 154.5t240 54.5q33 0 40 -9t3 -36l-27 -178q-4 -29 -14 -38t-39 -9z" glyph-name="rcommaaccent" horiz-adv-x="829" unicode="ŗ"/><glyph d="M1237 1004q0 -313 -307 -406l356 -535q16 -35 3 -49t-46 -14h-178q-51 0 -84 49l-346 520h-178v-520q0 -29 -10.5 -39t-38.5 -10h-193q-29 0 -39 10t-10 39v1335q0 29 10 39.5t39 10.5h506q94 0 180 -21.5t164 -69t125 -134t47 -205.5zM457 813h254q244 0 243 191 q0 188 -243 188h-254v-379zM717 1565h-117q-35 2 -68 49l-188 270q-31 49 21 49h108q47 0 74 -49l112 -180l111 180q29 49 76 49h106q51 0 21 -49l-187 -270q-34 -47 -69 -49z" glyph-name="Rcaron" horiz-adv-x="1353" unicode="Ř"/><glyph d="M707 795q-156 0 -236 -84t-80 -209v-453q0 -29 -10 -39t-39 -10h-174q-29 0 -39 10t-10 39v944q0 29 10 39t39 10h86q20 0 31.5 -10t25.5 -39l54 -137q57 100 139 154.5t239 54.5q33 0 40.5 -9t2.5 -36l-26 -178q-4 -29 -14 -38t-39 -9zM504 1174h-117q-35 2 -68 49 l-188 270q-31 49 21 49h108q47 0 74 -49l112 -180l111 180q29 49 76 49h106q51 0 21 -49l-187 -270q-34 -47 -69 -49z" glyph-name="rcaron" horiz-adv-x="808" unicode="ř"/><glyph d="M674 1204q-272 0 -273 -196q0 -84 74 -117t250 -53q102 -12 180 -35t153 -68t115.5 -126t40.5 -193q0 -182 -141 -310.5t-395 -128.5q-334 0 -557 154q-23 16 -24 31.5t14 40.5l71 121q27 47 68 22q182 -117 407 -117q274 0 275 172q0 94 -79 133t-259 62 q-475 57 -475 401q0 76 28.5 152t88 146.5t168 115.5t249.5 45q150 0 262.5 -37t241.5 -116q23 -14 24 -31t-14 -39l-71 -121q-27 -49 -68 -25q-96 66 -176 91.5t-178 25.5zM885 1712l-146 -115q-35 -31 -77 -30h-150q-55 0 -4 57l256 281q33 39 70 -17l65 -108 q12 -20 10.5 -35t-24.5 -33z" glyph-name="Sacute" horiz-adv-x="1310" unicode="Ś"/><glyph d="M514 188q96 0 148.5 31t52.5 82q0 41 -54.5 63.5t-171.5 38.5q-188 25 -294.5 96.5t-106.5 225.5t117 247t307 93q199 0 397 -117q25 -14 26 -30.5t-13 -38.5l-52 -88q-16 -29 -26 -34t-39 9q-135 88 -277 88q-182 0 -182 -113q0 -45 53.5 -66.5t171.5 -35.5 q188 -25 294 -95.5t106 -226.5q0 -154 -120 -247t-319 -93q-229 0 -426 134q-23 14 -23.5 30.5t13.5 38.5l51 88q16 29 26.5 35t41.5 -10q137 -105 299 -105zM758 1321l-146 -115q-35 -31 -77 -30h-150q-55 0 -4 57l256 280q33 39 70 -16l65 -108q12 -20 10.5 -35t-24.5 -33 z" glyph-name="sacute" horiz-adv-x="1048" unicode="ś"/><glyph d="M674 1204q-272 0 -273 -196q0 -84 74 -117t250 -53q102 -12 180 -35t153 -68t115.5 -126t40.5 -193q0 -182 -141 -310.5t-395 -128.5q-334 0 -557 154q-23 16 -24 31.5t14 40.5l71 121q27 47 68 22q182 -117 407 -117q274 0 275 172q0 94 -79 133t-259 62 q-475 57 -475 401q0 76 28.5 152t88 146.5t168 115.5t249.5 45q150 0 262.5 -37t241.5 -116q23 -14 24 -31t-14 -39l-71 -121q-27 -49 -68 -25q-96 66 -176 91.5t-178 25.5zM596 1931h117q35 -2 69 -49l187 -270q31 -49 -21 -49h-106q-47 0 -76 49l-111 180l-112 -180 q-27 -49 -74 -49h-109q-51 0 -20 49l188 270q33 47 68 49z" glyph-name="Scircumflex" horiz-adv-x="1310" unicode="Ŝ"/><glyph d="M514 188q96 0 148.5 31t52.5 82q0 41 -54.5 63.5t-171.5 38.5q-188 25 -294.5 96.5t-106.5 225.5t117 247t307 93q199 0 397 -117q25 -14 26 -30.5t-13 -38.5l-52 -88q-16 -29 -26 -34t-39 9q-135 88 -277 88q-182 0 -182 -113q0 -45 53.5 -66.5t171.5 -35.5 q188 -25 294 -95.5t106 -226.5q0 -154 -120 -247t-319 -93q-229 0 -426 134q-23 14 -23.5 30.5t13.5 38.5l51 88q16 29 26.5 35t41.5 -10q137 -105 299 -105zM463 1542h117q35 -2 69 -49l187 -270q31 -49 -21 -49h-106q-49 0 -76 49l-111 180l-112 -180q-27 -49 -74 -49 h-109q-51 0 -20 49l188 270q33 47 68 49z" glyph-name="scircumflex" horiz-adv-x="1048" unicode="ŝ"/><glyph d="M657 1204q-274 0 -274 -196q0 -84 73.5 -117t250.5 -53q102 -12 180 -35t152.5 -68t115.5 -126t41 -193q0 -180 -139 -308t-387 -131l-6 -69q109 0 168 -54.5t59 -150.5t-61.5 -152.5t-176.5 -56.5q-86 0 -192 84q-29 25 -4 51l28 39q12 16 22.5 16.5t29.5 -10.5 q70 -39 137 -39q72 0 71 68q0 76 -88 76h-104q-39 0 -39 45l39 160q-238 18 -430 147q-25 14 -26 30.5t14 41.5l71 121q27 47 68 22q182 -117 391 -117q274 0 274 172q0 94 -78.5 133t-258.5 62q-475 55 -476 401q0 76 29 152t88.5 146.5t168 115.5t249.5 45q147 0 259 -37 t243 -116q37 -23 12 -70l-74 -121q-27 -49 -65 -25q-175 117 -355 117z" glyph-name="Scedilla" horiz-adv-x="1294" unicode="Ş"/><glyph d="M401 -174l37 160q-190 29 -332 125q-23 14 -23.5 30.5t13.5 38.5l51 88q16 29 26.5 35t41.5 -10q137 -104 299 -105q96 0 148.5 31t52.5 82q0 41 -54.5 63.5t-171.5 38.5q-188 25 -294.5 96.5t-106.5 225.5t117 247t307 93q225 0 420 -131q23 -14 23.5 -30.5t-11.5 -39.5 l-53 -88q-25 -51 -66 -24q-158 102 -297 102q-182 0 -182 -113q0 -45 53.5 -66.5t171.5 -35.5q193 -27 296.5 -96.5t103.5 -225.5q0 -150 -113 -240.5t-301 -96.5l-8 -70q109 0 168 -54.5t59 -150.5t-61.5 -152.5t-175.5 -56.5q-86 0 -191 84q-31 25 -6 51l29 39 q12 16 22 16.5t29 -10.5q78 -39 137 -38q72 0 72 67q0 76 -88 76h-105q-37 0 -37 45z" glyph-name="scedilla" horiz-adv-x="1048" unicode="ş"/><glyph d="M678 1204q-272 0 -272 -196q0 -84 73.5 -117t249.5 -53q102 -12 180 -35t153 -68t116 -126t41 -193q0 -182 -141.5 -310.5t-395.5 -128.5q-334 0 -557 154q-23 16 -24 31.5t14 40.5l71 121q27 47 68 22q182 -117 408 -117q274 0 274 172q0 94 -79 133t-259 62 q-475 57 -475 401q0 76 28.5 152t88 146.5t168 115.5t249.5 45q150 0 262.5 -37t241.5 -116q23 -14 24 -31t-14 -39l-71 -121q-27 -49 -68 -25q-96 66 -176 91.5t-178 25.5zM705 1565h-117q-35 2 -68 49l-188 270q-31 49 20 49h109q47 0 74 -49l112 -180l111 180 q29 49 76 49h106q51 0 21 -49l-187 -270q-34 -47 -69 -49z" glyph-name="Scaron" horiz-adv-x="1314" unicode="Š"/><glyph d="M514 188q96 0 148.5 31t52.5 82q0 41 -54.5 63.5t-171.5 38.5q-188 25 -294.5 96.5t-106.5 225.5t117 247t307 93q199 0 397 -117q25 -14 26 -30.5t-13 -38.5l-52 -88q-16 -29 -26 -34t-39 9q-135 88 -277 88q-182 0 -182 -113q0 -45 53.5 -66.5t171.5 -35.5 q188 -25 294 -95.5t106 -226.5q0 -154 -120 -247t-319 -93q-229 0 -426 134q-23 14 -23.5 30.5t13.5 38.5l51 88q16 29 26.5 35t41.5 -10q137 -105 299 -105zM571 1174h-116q-35 2 -68 49l-188 270q-31 49 20 49h109q45 0 73 -49l113 -180l111 180q27 49 75 49h107 q51 0 20 -49l-186 -270q-35 -47 -70 -49z" glyph-name="scaron" horiz-adv-x="1048" unicode="š"/><glyph d="M635 -516h-8q-72 2 -121 52t-49 122q0 74 50 126t124 52q84 0 136 -63.5t52 -171.5q0 -143 -88 -263t-215 -180q-20 -10 -31 4l-49 76q-10 18 10 31q154 96 189 215zM70 1434h1140q29 0 40.5 -10.5t11.5 -39.5v-161q0 -29 -11.5 -39t-40.5 -10h-424v-1125q0 -29 -10 -39 t-39 -10h-192q-29 0 -39 10t-10 39v1125h-426q-29 0 -39.5 10t-10.5 39v161q0 29 10.5 39.5t39.5 10.5z" glyph-name="Tcommaaccent" horiz-adv-x="1282" unicode="Ţ"/><glyph d="M399 -516h-8q-72 2 -121 52t-49 122q0 74 50.5 126t123.5 52q84 0 136.5 -63.5t52.5 -171.5q0 -143 -88 -263t-215 -180q-20 -10 -31 4l-49 76q-8 18 10 31q155 96 188 215zM805 29q-84 -51 -201 -52q-201 0 -304 119t-103 334v397h-62q-29 0 -40 10.5t-11 39.5v116 q0 29 11 39t40 10h62v195q0 29 10 39t39 10h172q29 0 40 -10t11 -39v-195h287q29 0 39 -10t10 -39v-116q0 -29 -10.5 -39.5t-38.5 -10.5h-287v-383q0 -223 166 -223q66 0 110 23q33 18 45.5 13t18.5 -42l22 -123q4 -27 -1 -38t-25 -25z" glyph-name="tcommaaccent" horiz-adv-x="909" unicode="ţ"/><glyph d="M70 1434h1140q29 0 40.5 -10.5t11.5 -39.5v-161q0 -29 -11.5 -39t-40.5 -10h-424v-1125q0 -29 -10 -39t-39 -10h-192q-29 0 -39 10t-10 39v1125h-426q-29 0 -39.5 10t-10.5 39v161q0 29 10.5 39.5t39.5 10.5zM698 1565h-116q-35 2 -68 49l-188 270q-31 49 20 49h109 q45 0 73 -49l113 -180l111 180q27 49 75 49h107q51 0 20 -49l-186 -270q-35 -47 -70 -49z" glyph-name="Tcaron" horiz-adv-x="1282" unicode="Ť"/><glyph d="M1038 1384h-6q-74 2 -123 52.5t-49 122.5q0 74 50.5 126t123.5 52q84 0 136.5 -63.5t52.5 -172.5q0 -143 -88 -263t-215 -179q-20 -10 -31 4l-49 76q-8 18 10 30q157 100 188 215zM805 29q-84 -51 -201 -52q-201 0 -304 119t-103 334v397h-62q-29 0 -40 10.5t-11 39.5 v116q0 29 11 39t40 10h62v195q0 29 10 39t39 10h172q29 0 40 -10t11 -39v-195h287q29 0 39 -10t10 -39v-116q0 -29 -10.5 -39.5t-38.5 -10.5h-287v-383q0 -223 166 -223q66 0 110 23q33 18 45.5 13t18.5 -42l22 -123q4 -27 -1 -38t-25 -25z" glyph-name="tcaron" horiz-adv-x="1015" unicode="ť"/><glyph d="M1178 659h-390v-610q0 -29 -10 -39t-39 -10h-192q-29 0 -39 10t-10 39v610h-389q-29 0 -39.5 10.5t-10.5 39.5v135q0 29 11.5 39t38.5 10h389v281h-428q-29 0 -39.5 10t-10.5 39v161q0 29 10.5 39.5t39.5 10.5h1147q29 0 39 -10.5t10 -39.5v-161q0 -29 -10.5 -39 t-38.5 -10h-429v-281h390q27 0 38 -10.5t11 -38.5v-135q0 -29 -10 -39.5t-39 -10.5z" glyph-name="Tbar" horiz-adv-x="1286" unicode="Ŧ"/><glyph d="M811 442h-287q0 -37 13 -90q31 -131 153 -131q61 0 113 25q33 16 45 11t18 -40l21 -125q4 -16 3 -27.5t-7 -17.5t-21 -16q-84 -53 -203 -54q-324 0 -391 310q-12 63 -16 155h-113q-29 0 -40 10.5t-11 39.5v116q0 29 11.5 39t39.5 10h113v170h-113q-29 0 -40 10.5 t-11 39.5v116q0 29 11.5 39t39.5 10h113v175q0 29 10 39t39 10h172q29 0 40 -10.5t11 -38.5v-175h287q29 0 39 -10t10 -39v-116q0 -29 -10 -39.5t-39 -10.5h-287v-170h287q29 0 39 -10t10 -39v-116q0 -29 -10 -39.5t-39 -10.5z" glyph-name="tbar" horiz-adv-x="972" unicode="ŧ"/><glyph d="M741.5 -27q-264.5 0 -437.5 162t-173 455v794q0 29 10.5 39.5t38.5 10.5h193q29 0 39 -10.5t10 -39.5v-784q0 -375 319.5 -375t319.5 375v784q0 29 10 39.5t39 10.5h193q29 0 39 -10.5t10 -39.5v-794q0 -293 -173 -455t-437.5 -162zM883 1817q55 0 84 73q10 27 23.5 32 t39.5 -5l70 -31q27 -10 33 -24.5t-5 -40.5q-74 -186 -231 -187q-88 0 -174 54q-14 8 -39 22t-34 19.5t-24.5 10.5t-29.5 5q-25 0 -48.5 -21.5t-35.5 -52.5q-10 -27 -22.5 -32t-40.5 6l-68 30q-29 10 -35 24.5t6 41.5q74 186 232 186q84 0 174 -55q12 -8 37.5 -22.5t34 -18.5 t24 -9t29.5 -5z" glyph-name="Utilde" horiz-adv-x="1482" unicode="Ũ"/><glyph d="M836 152q-43 -53 -77 -85t-97.5 -61t-137.5 -29q-186 0 -290.5 110t-104.5 368v538q0 29 10.5 39t38.5 10h174q29 0 39 -10t10 -39v-481q0 -152 46.5 -221.5t146.5 -69.5q197 0 197 293v479q0 29 10 39t39 10h174q29 0 39 -10t10 -39v-475v-469q0 -29 -10.5 -39 t-38.5 -10h-86q-20 0 -31.5 10t-26.5 39zM745 1425q55 0 84 74q10 27 23.5 32t40.5 -5l70 -31q27 -10 32.5 -24.5t-4.5 -40.5q-74 -186 -231 -187q-88 0 -174 53q-14 8 -39 22.5t-34 19.5t-24.5 10.5t-29.5 5.5q-25 0 -48.5 -21.5t-35.5 -52.5q-10 -27 -22.5 -32t-41.5 5 l-67 31q-29 10 -35 24.5t6 41.5q74 186 231 186q86 0 175 -55q12 -8 37.5 -22.5t33.5 -18.5t23.5 -9.5t29.5 -5.5z" glyph-name="utilde" unicode="ũ"/><glyph d="M741.5 -27q-264.5 0 -437.5 162t-173 455v794q0 29 10.5 39.5t38.5 10.5h193q29 0 39 -10.5t10 -39.5v-784q0 -375 319.5 -375t319.5 375v784q0 29 10 39.5t39 10.5h193q29 0 39 -10.5t10 -39.5v-794q0 -293 -173 -455t-437.5 -162zM991 1659h-497q-29 0 -39.5 10 t-10.5 39v94q0 29 10.5 39t39.5 10h497q29 0 39 -10t10 -39v-94q0 -29 -10 -39t-39 -10z" glyph-name="Umacron" horiz-adv-x="1482" unicode="Ū"/><glyph d="M836 152q-43 -53 -77 -85t-97.5 -61t-137.5 -29q-186 0 -290.5 110t-104.5 368v538q0 29 10.5 39t38.5 10h174q29 0 39 -10t10 -39v-481q0 -152 46.5 -221.5t146.5 -69.5q197 0 197 293v479q0 29 10 39t39 10h174q29 0 39 -10t10 -39v-475v-469q0 -29 -10.5 -39 t-38.5 -10h-86q-20 0 -31.5 10t-26.5 39zM848 1268h-498q-29 0 -39 10t-10 39v94q0 29 10.5 39t38.5 10h498q29 0 39 -10t10 -39v-94q0 -29 -10 -39t-39 -10z" glyph-name="umacron" unicode="ū"/><glyph d="M741.5 -27q-264.5 0 -437.5 162t-173 455v794q0 29 10.5 39.5t38.5 10.5h193q29 0 39 -10.5t10 -39.5v-784q0 -375 319.5 -375t319.5 375v784q0 29 10 39.5t39 10.5h193q29 0 39 -10.5t10 -39.5v-794q0 -293 -173 -455t-437.5 -162zM741.5 1610q-233.5 0 -315.5 184 q-27 63 10 82l82 43q39 20 57 -18q29 -66 61 -92.5t105.5 -26.5t104.5 25.5t63 93.5q18 39 58 18l82 -43q35 -18 8 -82q-82 -184 -315.5 -184z" glyph-name="Ubreve" horiz-adv-x="1482" unicode="Ŭ"/><glyph d="M836 152q-43 -53 -77 -85t-97.5 -61t-137.5 -29q-186 0 -290.5 110t-104.5 368v538q0 29 10.5 39t38.5 10h174q29 0 39 -10t10 -39v-481q0 -152 46.5 -221.5t146.5 -69.5q197 0 197 293v479q0 29 10 39t39 10h174q29 0 39 -10t10 -39v-475v-469q0 -29 -10.5 -39 t-38.5 -10h-86q-20 0 -31.5 10t-26.5 39zM602.5 1219q-233.5 0 -315.5 184q-27 63 10 82l82 43q39 20 57 -19q29 -66 60.5 -92t105.5 -26t104.5 25.5t63.5 92.5q18 39 57 19l82 -43q35 -18 9 -82q-82 -184 -315.5 -184z" glyph-name="ubreve" unicode="ŭ"/><glyph d="M741.5 -27q-264.5 0 -437.5 162t-173 455v794q0 29 10.5 39.5t38.5 10.5h193q29 0 39 -10.5t10 -39.5v-784q0 -375 319.5 -375t319.5 375v784q0 29 10 39.5t39 10.5h193q29 0 39 -10.5t10 -39.5v-794q0 -293 -173 -455t-437.5 -162zM741 1567q-98 0 -164.5 67.5 t-66.5 165.5t66.5 165t164.5 67q96 0 164 -67t68 -165t-68 -165.5t-164 -67.5zM741 1698q41 0 65.5 30.5t24.5 71.5t-23.5 71t-66.5 30t-67.5 -31t-24.5 -70q0 -41 24.5 -71.5t67.5 -30.5z" glyph-name="Uring" horiz-adv-x="1482" unicode="Ů"/><glyph d="M836 152q-43 -53 -77 -85t-97.5 -61t-137.5 -29q-186 0 -290.5 110t-104.5 368v538q0 29 10.5 39t38.5 10h174q29 0 39 -10t10 -39v-481q0 -152 46.5 -221.5t146.5 -69.5q197 0 197 293v479q0 29 10 39t39 10h174q29 0 39 -10t10 -39v-475v-469q0 -29 -10.5 -39 t-38.5 -10h-86q-20 0 -31.5 10t-26.5 39zM602 1176q-98 0 -164.5 67.5t-66.5 165.5t66.5 164.5t164.5 66.5q96 0 164 -66.5t68 -164.5t-68 -165.5t-164 -67.5zM602 1307q41 0 65.5 30.5t24.5 71.5t-23.5 70.5t-66.5 29.5t-67.5 -30.5t-24.5 -69.5q0 -41 24.5 -71.5 t67.5 -30.5z" glyph-name="uring" unicode="ů"/><glyph d="M741.5 -27q-264.5 0 -437.5 162t-173 455v794q0 29 10.5 39.5t38.5 10.5h193q29 0 39 -10.5t10 -39.5v-784q0 -375 319.5 -375t319.5 375v784q0 29 10 39.5t39 10.5h193q29 0 39 -10.5t10 -39.5v-794q0 -293 -173 -455t-437.5 -162zM788 1761l-137 -166q-18 -31 -80 -30 h-125q-53 0 -2 57l254 285q33 39 70 -17l29 -43q22 -43 -9 -86zM1104 1761l-135 -166q-20 -31 -80 -30h-125q-57 0 -2 57l254 285q33 41 69 -17l27 -43q14 -23 13 -41t-21 -45z" glyph-name="Uhungarumlaut" horiz-adv-x="1482" unicode="Ű"/><glyph d="M836 152q-43 -53 -77 -85t-97.5 -61t-137.5 -29q-186 0 -290.5 110t-104.5 368v538q0 29 10.5 39t38.5 10h174q29 0 39 -10t10 -39v-481q0 -152 46.5 -221.5t146.5 -69.5q197 0 197 293v479q0 29 10 39t39 10h174q29 0 39 -10t10 -39v-475v-469q0 -29 -10.5 -39 t-38.5 -10h-86q-20 0 -31.5 10t-26.5 39zM659 1370l-137 -166q-18 -31 -80 -30h-125q-53 0 -2 57l254 285q33 39 70 -17l29 -43q22 -43 -9 -86zM975 1370l-135 -166q-20 -31 -80 -30h-125q-57 0 -2 57l254 285q33 41 69 -17l27 -43q14 -23 13 -41t-21 -45z" glyph-name="uhungarumlaut" unicode="ű"/><glyph d="M557 -229q0 113 100 209q-233 25 -379.5 183.5t-146.5 426.5v794q0 29 10.5 39.5t38.5 10.5h193q29 0 39 -10.5t10 -39.5v-784q0 -375 319.5 -375t319.5 375v784q0 29 10 39.5t39 10.5h193q29 0 39 -10.5t10 -39.5v-794q0 -272 -151.5 -432t-387.5 -181 q-106 -72 -106 -159q0 -150 110 -150q23 0 92 4q31 0 41.5 -7t10.5 -34v-39q0 -27 -10.5 -36t-41.5 -13q-55 -6 -110 -6q-106 0 -174 58.5t-68 175.5z" glyph-name="Uogonek" horiz-adv-x="1482" unicode="Ų"/><glyph d="M889 23l-53 129q-43 -53 -77 -85t-97.5 -61t-137.5 -29q-186 0 -290.5 110t-104.5 368v538q0 29 10.5 39t38.5 10h174q29 0 39 -10t10 -39v-481q0 -152 46.5 -221.5t146.5 -69.5q197 0 197 293v479q0 29 10 39t39 10h174q29 0 39 -10t10 -39v-944q0 -29 -9.5 -39 t-33.5 -10q-141 -74 -141 -178q0 -150 112 -150q14 0 92 4q29 0 39.5 -7t10.5 -36v-36q0 -27 -10.5 -36.5t-39.5 -13.5q-55 -6 -110 -6q-109 0 -176.5 58.5t-67.5 175.5q0 139 150 241z" glyph-name="uogonek" horiz-adv-x="1298" unicode="ų"/><glyph d="M625 580l309 831q18 49 35 49h37q16 0 34 -49l310 -831l284 804q8 29 21.5 39.5t42.5 10.5h235q27 0 32 -10.5t-7 -39.5l-543 -1364q-23 -49 -35 -49h-22q-14 0 -35 49l-336 883l-336 -883q-20 -49 -35 -49h-22q-12 0 -35 49l-543 1364q-12 29 -7 39.5t32 10.5h235 q29 0 42.5 -10.5t21.5 -39.5zM928 1933h116q35 -2 70 -49l186 -270q31 -49 -20 -49h-106q-47 0 -76 49l-111 180l-113 -180q-27 -49 -73 -49h-109q-51 0 -20 49l188 270q33 47 68 49z" glyph-name="Wcircumflex" horiz-adv-x="1972" unicode="Ŵ"/><glyph d="M463 532l248 490l6 12t6 11.5t7 9.5t8 8t8.5 4t11.5 2h14q6 0 11 -2t10.5 -7t7.5 -9t7 -13.5t9 -15.5l248 -490l143 461q12 49 64 49h209q27 0 32 -11t-8 -38l-325 -964q-16 -49 -39 -49h-17q-18 0 -45 49l-315 639l-318 -639q-25 -49 -45 -49h-14q-20 0 -39 49l-325 964 q-12 27 -7.5 38t31.5 11h209q47 0 59 -41zM707 1542h116q35 -2 70 -49l186 -270q31 -49 -20 -49h-107q-47 0 -75 49l-111 180l-113 -180q-27 -49 -73 -49h-109q-51 0 -20 49l188 270q33 47 68 49z" glyph-name="wcircumflex" horiz-adv-x="1527" unicode="ŵ"/><glyph d="M16 1384q-27 49 25 50h221q23 0 35 -10.5t31 -39.5l348 -602l356 602q16 31 27.5 40.5t36.5 9.5h217q53 0 22 -50l-518 -854v-481q0 -29 -10 -39t-39 -10h-182q-29 0 -40 10t-11 39v481zM618 1933h117q35 -2 70 -49l186 -270q31 -49 -20 -49h-107q-49 0 -76 49l-110 180 l-113 -180q-29 -49 -73 -49h-109q-51 0 -21 49l189 270q32 47 67 49z" glyph-name="Ycircumflex" horiz-adv-x="1351" unicode="Ŷ"/><glyph d="M559 420l254 573q16 31 27.5 40t36.5 9h198q27 0 32 -10t-7 -39l-619 -1362q-16 -31 -27.5 -40t-35.5 -9h-199q-27 0 -32 10.5t8 38.5l219 484l-400 878q-25 49 23 49h199q25 0 37 -10t28 -39l256 -573h2zM504 1542h117q35 -2 69 -49l187 -270q31 -49 -21 -49h-106 q-49 0 -76 49l-111 180l-112 -180q-29 -49 -74 -49h-109q-51 0 -20 49l188 270q33 47 68 49z" glyph-name="ycircumflex" horiz-adv-x="1114" unicode="ŷ"/><glyph d="M16 1384q-27 49 25 50h221q23 0 35 -10.5t31 -39.5l348 -602l356 602q16 31 27.5 40.5t36.5 9.5h217q53 0 22 -50l-518 -854v-481q0 -29 -10 -39t-39 -10h-182q-29 0 -40 10t-11 39v481zM330 1755q0 55 38 94t93 39q57 0 96 -39t39 -94q0 -57 -39 -94t-96 -37 q-55 0 -93 37t-38 94zM758 1755q0 55 36.5 94t92.5 39q57 0 96 -39t39 -94q0 -57 -39 -94t-96 -37q-55 0 -92 37t-37 94z" glyph-name="Ydieresis" horiz-adv-x="1351" unicode="Ÿ"/><glyph d="M1141 0h-1092q-18 0 -18 18v25q0 8 16 37l731 1106h-643q-29 0 -39 11t-10 38v149q0 29 10 39.5t39 10.5h1067q18 0 19 -19v-24q0 -8 -17 -37l-731 -1106h668q29 0 39 -10.5t10 -38.5v-150q0 -29 -10 -39t-39 -10zM874 1712l-145 -115q-33 -31 -78 -30h-149q-55 0 -4 57 l256 281q33 39 69 -17l66 -108q12 -20 10 -35t-25 -33z" glyph-name="Zacute" horiz-adv-x="1249" unicode="Ź"/><glyph d="M897 0h-831q-18 0 -19 18v21q0 14 16 41l484 723h-406q-29 0 -40 11t-11 40v139q0 29 11.5 39t39.5 10h801q18 0 19 -18v-20q0 -14 -17 -41l-473 -725h426q29 0 39 -10.5t10 -39.5v-139q0 -29 -10 -39t-39 -10zM760 1321l-146 -115q-33 -31 -77 -30h-150q-55 0 -4 57 l256 280q33 39 70 -16l65 -108q12 -20 10.5 -35t-24.5 -33z" glyph-name="zacute" horiz-adv-x="1009" unicode="ź"/><glyph d="M1141 0h-1092q-18 0 -18 18v25q0 8 16 37l731 1106h-643q-29 0 -39 11t-10 38v149q0 29 10 39.5t39 10.5h1067q18 0 19 -19v-24q0 -8 -17 -37l-731 -1106h668q29 0 39 -10.5t10 -38.5v-150q0 -29 -10 -39t-39 -10zM483 1753.5q0 67.5 46 115.5t114 48t116 -48t48 -115.5 t-48 -115t-116 -47.5t-114 47.5t-46 115z" glyph-name="Zdotaccent" horiz-adv-x="1249" unicode="Ż"/><glyph d="M897 0h-831q-18 0 -19 18v21q0 14 16 41l484 723h-406q-29 0 -40 11t-11 40v139q0 29 11.5 39t39.5 10h801q18 0 19 -18v-20q0 -14 -17 -41l-473 -725h426q29 0 39 -10.5t10 -39.5v-139q0 -29 -10 -39t-39 -10zM367 1362q0 68 46 116t113.5 48t115.5 -48t48 -116 t-48 -115t-115.5 -47t-113.5 47t-46 115z" glyph-name="zdotaccent" horiz-adv-x="1009" unicode="ż"/><glyph d="M1141 0h-1092q-18 0 -18 18v25q0 8 16 37l731 1106h-643q-29 0 -39 11t-10 38v149q0 29 10 39.5t39 10.5h1067q18 0 19 -19v-24q0 -8 -17 -37l-731 -1106h668q29 0 39 -10.5t10 -38.5v-150q0 -29 -10 -39t-39 -10zM686 1565h-117q-35 2 -67 49l-189 270q-31 49 21 49h108 q45 0 74 -49l113 -180l110 180q27 49 76 49h107q51 0 20 -49l-186 -270q-35 -47 -70 -49z" glyph-name="Zcaron" horiz-adv-x="1249" unicode="Ž"/><glyph d="M897 0h-831q-18 0 -19 18v21q0 14 16 41l484 723h-406q-29 0 -40 11t-11 40v139q0 29 11.5 39t39.5 10h801q18 0 19 -18v-20q0 -14 -17 -41l-473 -725h426q29 0 39 -10.5t10 -39.5v-139q0 -29 -10 -39t-39 -10zM578 1174h-117q-35 2 -68 49l-188 270q-31 49 20 49h109 q47 0 74 -49l112 -180l111 180q29 49 76 49h106q51 0 21 -49l-187 -270q-34 -47 -69 -49z" glyph-name="zcaron" horiz-adv-x="1009" unicode="ž"/><glyph d="M201 1038v64q0 217 103.5 337t303.5 120q117 0 197 -50q20 -14 25.5 -25t0.5 -38l-22 -123q-6 -37 -18.5 -42t-45.5 13q-43 20 -106 21q-166 0 -166 -223v-1043q0 -29 -10 -39t-39 -10h-174q-29 0 -39 10t-10 39v774h-113q-29 0 -39 10.5t-10 38.5v117q0 29 10 39t39 10 h113z" glyph-name="longs" horiz-adv-x="858" unicode="ſ"/><glyph d="M604 823v-850q0 -221 -101.5 -338.5t-291.5 -117.5q-119 0 -203 53q-20 14 -24 24.5t0 36.5l22 125q4 37 16.5 42t45.5 -13q47 -25 114 -25q150 0 150 224v839h-180q-29 0 -39.5 10.5t-10.5 38.5v117q0 29 10.5 39t39.5 10h180v64q0 217 103.5 337t303.5 120 q119 0 203 -54q33 -20 27 -61l-23 -125q-6 -37 -18.5 -42t-44.5 13q-45 25 -113 25q-166 0 -166 -223v-54h287q29 0 39 -10t10 -39v-117q0 -29 -10 -39t-39 -10h-287z" glyph-name="florin" horiz-adv-x="995" unicode="ƒ"/><glyph d="M764 973h-4l-205 -430h414zM805 1413l704 -1364q8 -18 -1 -33.5t-29 -15.5h-228q-25 0 -36 9t-27 40l-121 246h-610l-123 -246q-23 -49 -64 -49h-227q-20 0 -29.5 15.5t-1.5 33.5l707 1364q2 4 6 12.5t6 11.5t5 8t5 8t4.5 5t5.5 3t7 1h6q4 0 8 -2t8 -7t7.5 -9t8.5 -14.5 t9 -16.5zM760 1567q-98 0 -165 67.5t-67 165.5t67 165t165 67q96 0 163.5 -67t67.5 -165t-67.5 -165.5t-163.5 -67.5zM760 1698q41 0 65.5 30.5t24.5 71.5t-23.5 71t-66.5 30t-67.5 -31t-24.5 -70q0 -41 24.5 -71.5t67.5 -30.5zM1004 2269l-146 -115q-35 -31 -78 -30h-149 q-55 0 -4 57l256 281q33 39 69 -17l66 -108q12 -20 10.5 -35t-24.5 -33z" glyph-name="Aringacute" horiz-adv-x="1521" unicode="Ǻ"/><glyph d="M252 803q-27 -4 -37 6t-16 41l-31 117q-14 49 29 59q35 8 150.5 23.5t209.5 15.5q152 0 248 -32t144 -101.5t64.5 -152.5t16.5 -214v-516q0 -29 -10 -39t-39 -10h-102q-18 0 -29.5 10t-24.5 39l-18 74q-41 -39 -76 -64.5t-114.5 -53.5t-176.5 -28q-145 0 -251.5 89.5 t-106.5 252.5q0 160 110.5 246t276.5 86q152 0 289 -47q0 125 -43 176t-170 51q-150 1 -293 -28zM539 459q-96 0 -140.5 -40t-44.5 -100q0 -51 43 -94t131 -43q115 0 230 125v109q-143 43 -219 43zM578 1176q-98 0 -165 67.5t-67 165.5t66.5 164.5t165.5 66.5 q96 0 163.5 -66.5t67.5 -164.5t-67.5 -165.5t-163.5 -67.5zM578 1307q41 0 65.5 30.5t24.5 71.5t-23.5 70.5t-66.5 29.5t-68 -30.5t-25 -69.5q0 -41 25 -71.5t68 -30.5zM811 1892l-145 -114q-33 -31 -78 -31h-150q-55 0 -4 57l256 281q33 39 70 -17l65 -108q12 -20 10.5 -35 t-24.5 -33z" glyph-name="aringacute" horiz-adv-x="1157" unicode="ǻ"/><glyph d="M913 0q-29 0 -39 10t-10 39v246h-393l-137 -246q-20 -49 -64 -49h-227q-20 0 -29.5 15.5t-1.5 33.5l768 1329q37 51 49 56h1035q29 0 39 -10.5t10 -39.5v-149q0 -29 -10.5 -39t-38.5 -10h-684v-340h632q29 0 39.5 -10.5t10.5 -38.5v-150q0 -29 -10.5 -39t-39.5 -10h-632 v-350h684q29 0 39 -10.5t10 -38.5v-150q0 -29 -10.5 -39t-38.5 -10h-951zM864 1014l-260 -471h260v471zM1399 1712l-146 -115q-33 -31 -77 -30h-150q-55 0 -4 57l256 281q33 39 70 -17l65 -108q12 -20 10.5 -35t-24.5 -33z" glyph-name="AEacute" horiz-adv-x="2033" unicode="Ǽ"/><glyph d="M776 604v41q-6 102 -54 144t-169 42q-150 0 -293 -28q-43 -6 -55 45l-29 119q-8 27 -2 40t31 19q35 8 154.5 23.5t213.5 15.5q119 0 195 -29.5t145 -113.5q168 143 387 143q125 0 225.5 -52t161 -137t91 -184.5t30.5 -204.5v-8q0 -25 -9 -36t-36 -11h-706v-33 q31 -82 101.5 -135t156.5 -53q133 0 260 65q31 14 45 14.5t27 -18.5l69 -86q31 -41 8 -63q-70 -70 -185.5 -108t-238.5 -38q-244 0 -387 207q-70 -74 -199.5 -140.5t-271.5 -66.5q-147 0 -252.5 86.5t-105.5 250t104.5 250.5t268.5 87q61 0 161.5 -13.5t157.5 -33.5z M776 307v109q-139 43 -252 43q-96 0 -145 -40t-49 -100q0 -53 39 -95t127 -42q66 0 150.5 37t129.5 88zM1065 653v-45h465q-14 98 -70.5 166t-165.5 68q-172 -1 -229 -189zM1137 1321l-146 -115q-33 -31 -78 -30h-149q-55 0 -4 57l256 280q33 39 69 -16l66 -108 q12 -20 10.5 -35t-24.5 -33z" glyph-name="aeacute" horiz-adv-x="1880" unicode="ǽ"/><glyph d="M90 717q0 305 216 524t519 219q125 0 256 -47l35 68q18 41 62 41h88q70 0 45 -52l-74 -139q143 -102 234.5 -261t91.5 -353q0 -305 -217.5 -524.5t-520.5 -219.5q-137 0 -266 54l-39 -74q-18 -41 -61 -41h-88q-68 0 -43 49l75 148q-145 104 -229 264t-84 344zM1268 717 q0 219 -156 375l-434 -838q74 -29 147 -29q199 0 321 148.5t122 343.5zM385 717q0 -205 147 -365l431 834q-76 23 -138 22q-195 0 -318.5 -148t-121.5 -343zM1087 1712l-145 -115q-33 -31 -78 -30h-149q-55 0 -4 57l256 281q33 39 69 -17l66 -108q12 -20 10 -35t-25 -33z " glyph-name="Oslashacute" horiz-adv-x="1652" unicode="Ǿ"/><glyph d="M72 520q0 225 160.5 385t383.5 160q92 0 166 -29l29 58q23 41 63 41h89q68 0 43 -50l-68 -129q102 -76 161.5 -190.5t59.5 -245.5q0 -225 -159.5 -384t-383.5 -159q-78 0 -172 27l-28 -55q-18 -41 -64 -41h-86q-70 0 -43 49l64 131q-98 74 -156.5 188.5t-58.5 243.5z M616 215q113 0 192 88t79 217q0 111 -74 197l-254 -492q26 -10 57 -10zM344 520q0 -104 68 -194l254 487q-29 8 -50 8q-113 0 -192.5 -87t-79.5 -214zM846 1321l-146 -115q-33 -31 -77 -30h-150q-55 0 -4 57l256 280q33 39 70 -16l65 -108q12 -20 10.5 -35t-24.5 -33z" glyph-name="oslashacute" horiz-adv-x="1253" unicode="ǿ"/><glyph d="M678 -516h-8q-72 2 -121 52t-49 122q0 74 50 126t124 52q84 0 136 -63.5t52 -171.5q0 -143 -88 -263t-215 -180q-20 -10 -31 4l-49 76q-8 18 10 31q156 96 189 215zM674 1204q-272 0 -273 -196q0 -84 74 -117t250 -53q102 -12 180 -35t153 -68t115.5 -126t40.5 -193 q0 -182 -141 -310.5t-395 -128.5q-334 0 -557 154q-23 16 -24 31.5t14 40.5l71 121q27 47 68 22q182 -117 407 -117q274 0 275 172q0 94 -79 133t-259 62q-475 57 -475 401q0 76 28.5 152t88 146.5t168 115.5t249.5 45q150 0 262.5 -37t241.5 -116q23 -14 24 -31t-14 -39 l-71 -121q-27 -49 -68 -25q-96 66 -176 91.5t-178 25.5z" glyph-name="Scommaaccent" horiz-adv-x="1310" unicode="Ș"/><glyph d="M545 -516h-6q-72 2 -122 52t-50 122q0 74 50 126t124 52q84 0 136 -63.5t52 -171.5q0 -143 -88 -263t-215 -180q-20 -10 -31 4l-47 76q-10 18 8 31q156 96 189 215zM514 188q96 0 148.5 31t52.5 82q0 41 -54.5 63.5t-171.5 38.5q-188 25 -294.5 96.5t-106.5 225.5 t117 247t307 93q199 0 397 -117q25 -14 26 -30.5t-13 -38.5l-52 -88q-16 -29 -26 -34t-39 9q-135 88 -277 88q-182 0 -182 -113q0 -45 53.5 -66.5t171.5 -35.5q188 -25 294 -95.5t106 -226.5q0 -154 -120 -247t-319 -93q-229 0 -426 134q-23 14 -23.5 30.5t13.5 38.5l51 88 q16 29 26.5 35t41.5 -10q137 -105 299 -105z" glyph-name="scommaaccent" horiz-adv-x="1048" unicode="ș"/><glyph d="M635 -516h-8q-72 2 -121 52t-49 122q0 74 50 126t124 52q84 0 136 -63.5t52 -171.5q0 -143 -88 -263t-215 -180q-20 -10 -31 4l-49 76q-10 18 10 31q154 96 189 215zM70 1434h1140q29 0 40.5 -10.5t11.5 -39.5v-161q0 -29 -11.5 -39t-40.5 -10h-424v-1125q0 -29 -10 -39 t-39 -10h-192q-29 0 -39 10t-10 39v1125h-426q-29 0 -39.5 10t-10.5 39v161q0 29 10.5 39.5t39.5 10.5z" glyph-name="uni021A" horiz-adv-x="1282" unicode="Ț"/><glyph d="M418 -516h-8q-72 2 -121 52t-49 122q0 74 50 126t124 52q84 0 136 -63.5t52 -171.5q0 -143 -88 -263t-215 -180q-20 -10 -31 4l-49 76q-8 18 10 31q156 96 189 215zM805 29q-84 -51 -201 -52q-201 0 -304 119t-103 334v397h-62q-29 0 -40 10.5t-11 39.5v116q0 29 11 39 t40 10h62v195q0 29 10 39t39 10h172q29 0 40 -10t11 -39v-195h287q29 0 39 -10t10 -39v-116q0 -29 -10.5 -39.5t-38.5 -10.5h-287v-383q0 -223 166 -223q66 0 110 23q33 18 45.5 13t18.5 -42l22 -123q4 -27 -1 -38t-25 -25z" glyph-name="uni021B" horiz-adv-x="909" unicode="ț"/><glyph d="M348 1542h117q35 -2 70 -49l186 -270q31 -49 -21 -49h-106q-49 0 -76 49l-110 180l-113 -180q-29 -49 -74 -49h-108q-51 0 -21 49l189 270q32 47 67 49z" glyph-name="circumflex" horiz-adv-x="813" unicode="ˆ"/><glyph d="M465 1174h-117q-35 2 -67 49l-189 270q-31 49 21 49h108q45 0 74 -49l113 -180l110 180q27 49 76 49h106q51 0 21 -49l-186 -270q-35 -47 -70 -49z" glyph-name="caron" horiz-adv-x="813" unicode="ˇ"/><glyph d="M655 1268h-497q-29 0 -39 10t-10 39v94q0 29 10 39t39 10h497q29 0 39.5 -10t10.5 -39v-94q0 -29 -10.5 -39t-39.5 -10z" glyph-name="uni02C9" horiz-adv-x="811" unicode="ˉ"/><glyph d="M393.5 1219q-233.5 0 -315.5 184q-27 63 10 82l82 43q39 20 57 -19q29 -66 60.5 -92t105.5 -26t104.5 25.5t63.5 92.5q18 39 57 19l82 -43q35 -18 9 -82q-82 -184 -315.5 -184z" glyph-name="breve" horiz-adv-x="788" unicode="˘"/><glyph d="M72 1362q0 68 46 116t113.5 48t115.5 -48t48 -116t-48 -115t-115.5 -47t-113.5 47t-46 115z" glyph-name="dotaccent" horiz-adv-x="464" unicode="˙"/><glyph d="M309 1176q-98 0 -164.5 67.5t-66.5 165.5t66.5 164.5t164.5 66.5q96 0 164 -66.5t68 -164.5t-68 -165.5t-164 -67.5zM309 1307q41 0 65.5 30.5t24.5 71.5t-23.5 70.5t-66.5 29.5t-67.5 -30.5t-24.5 -69.5q0 -41 24.5 -71.5t67.5 -30.5z" glyph-name="ring" horiz-adv-x="618" unicode="˚"/><glyph d="M223 23l135 -23q-47 -20 -96 -69.5t-49 -108.5q0 -150 113 -150q23 0 92 4q31 0 40 -7t9 -36v-36q0 -27 -9 -36.5t-40 -13.5q-55 -6 -111 -6q-106 0 -173.5 58.5t-67.5 175.5q-1 148 157 248z" glyph-name="ogonek" horiz-adv-x="532" unicode="˛"/><glyph d="M606 1425q55 0 84 74q10 27 23.5 32t40.5 -5l69 -31q27 -10 33 -24.5t-4 -40.5q-74 -186 -231 -187q-88 0 -175 53q-14 8 -38.5 22.5t-33.5 19.5t-24.5 10.5t-30.5 5.5q-25 0 -48 -21.5t-35 -52.5q-10 -27 -22.5 -32t-41.5 5l-68 31q-29 10 -35 24.5t7 41.5 q74 186 231 186q86 0 174 -55q12 -8 38 -22.5t34 -18.5t23.5 -9.5t29.5 -5.5z" glyph-name="tilde" horiz-adv-x="925" unicode="˜"/><glyph d="M436 1370l-137 -166q-18 -31 -80 -30h-125q-53 0 -2 57l254 285q33 39 70 -17l28 -43q23 -43 -8 -86zM752 1370l-136 -166q-20 -31 -79 -30h-125q-57 0 -2 57l254 285q33 41 69 -17l27 -43q14 -23 13 -41t-21 -45z" glyph-name="hungarumlaut" horiz-adv-x="827" unicode="˝"/><glyph d="M1518 0h-1471q-29 0 -35 11.5t8 43.5l713 1350q4 8 10.5 19.5t9.5 15.5t7 10t8 8t10 2h6q6 0 10.5 -2t8.5 -8t7 -10t9 -15.5t10 -19.5l715 -1350q14 -33 8.5 -44t-34.5 -11zM1124 248l-342 667l-342 -667h684z" glyph-name="Delta" horiz-adv-x="1562" unicode="Δ"/><glyph d="M1313 717q0 197 -122 344t-321 147q-195 0 -318.5 -148.5t-123.5 -342.5q2 -190 176 -418q78 -117 78 -168v-82q0 -29 -10 -39t-39 -10h-498q-29 0 -39 10t-10 39v150q0 29 10 39t39 10h234q-121 90 -178.5 221t-57.5 248q0 305 217 524t520.5 219t520.5 -219t217 -524 q0 -115 -61.5 -247t-182.5 -222h244q29 0 39 -10.5t10 -38.5v-150q0 -29 -10.5 -39t-38.5 -10h-508q-29 0 -39 10t-10 39v82q0 51 77 168q92 121 138.5 215t46.5 203z" glyph-name="Omega" horiz-adv-x="1740" unicode="Ω"/><glyph d="M901 49l-35 103q-53 -59 -82.5 -88t-91 -58t-135.5 -29q-72 0 -119 35v-381q0 -29 -10 -39t-39 -10h-174q-29 0 -39 10.5t-10 38.5v1362q0 29 10 39t39 10h174q29 0 39 -10t10 -39v-481q0 -147 41 -219t146 -72q197 0 196 301v471q0 27 11.5 38t37.5 11h177q29 0 39 -10 t10 -39v-944q0 -29 -10.5 -39t-38.5 -10h-86q-14 0 -24.5 6t-17 14.5t-18.5 28.5z" glyph-name="mu" horiz-adv-x="1261" unicode="μ"/><glyph d="M74 1042h1315q29 0 39 -11t10 -38v-149q0 -29 -10.5 -39t-38.5 -10h-289v-351q0 -223 166 -223q66 0 112 23q33 18 45.5 13t16.5 -42l22 -123q8 -43 -24 -63q-80 -51 -201 -52q-201 0 -305.5 119t-104.5 334v365h-264v-746q0 -29 -10 -39t-39 -10h-174q-29 0 -39 10 t-10 39v746h-217q-29 0 -40 10t-11 39v149q0 29 11 39t40 10z" glyph-name="pi" horiz-adv-x="1540" unicode="π"/><glyph d="M625 580l309 831q18 49 35 49h37q16 0 34 -49l310 -831l284 804q8 29 21.5 39.5t42.5 10.5h235q27 0 32 -10.5t-7 -39.5l-543 -1364q-23 -49 -35 -49h-22q-14 0 -35 49l-336 883l-336 -883q-20 -49 -35 -49h-22q-12 0 -35 49l-543 1364q-12 29 -7 39.5t32 10.5h235 q29 0 42.5 -10.5t21.5 -39.5zM836 1597l-146 115q-23 18 -24.5 32.5t10.5 35.5l65 108q37 55 70 17l256 -281q51 -57 -4 -57h-150q-44 -1 -77 30z" glyph-name="Wgrave" horiz-adv-x="1972" unicode="Ẁ"/><glyph d="M463 532l248 490l6 12t6 11.5t7 9.5t8 8t8.5 4t11.5 2h14q6 0 11 -2t10.5 -7t7.5 -9t7 -13.5t9 -15.5l248 -490l143 461q12 49 64 49h209q27 0 32 -11t-8 -38l-325 -964q-16 -49 -39 -49h-17q-18 0 -45 49l-315 639l-318 -639q-25 -49 -45 -49h-14q-20 0 -39 49l-325 964 q-12 27 -7.5 38t31.5 11h209q47 0 59 -41zM614 1206l-145 115q-23 18 -25 32.5t11 35.5l65 108q37 55 70 16l256 -280q51 -57 -4 -57h-150q-45 -1 -78 30z" glyph-name="wgrave" horiz-adv-x="1527" unicode="ẁ"/><glyph d="M340 1384l285 -804l309 831q18 49 35 49h37q16 0 34 -49l310 -831l284 804q8 29 21.5 39.5t42.5 10.5h235q27 0 32 -10.5t-7 -39.5l-543 -1364q-23 -49 -35 -49h-22q-14 0 -35 49l-336 883l-336 -883q-20 -49 -35 -49h-22q-12 0 -35 49l-543 1364q-12 29 -7 39.5t32 10.5 h235q29 0 42.5 -10.5t21.5 -39.5zM1251 1712l-145 -115q-33 -31 -78 -30h-149q-55 0 -5 57l256 281q33 39 70 -17l66 -108q12 -20 10 -35t-25 -33z" glyph-name="Wacute" horiz-adv-x="1972" unicode="Ẃ"/><glyph d="M315 1001l148 -469l248 490l6 12t6 11.5t7 9.5t8 8t8.5 4t11.5 2h14q6 0 11 -2t10.5 -7t7.5 -9t7 -13.5t9 -15.5l248 -490l143 461q12 49 64 49h209q27 0 32 -11t-8 -38l-325 -964q-16 -49 -39 -49h-17q-18 0 -45 49l-315 639l-318 -639q-25 -49 -45 -49h-14 q-20 0 -39 49l-325 964q-12 27 -7.5 38t31.5 11h209q47 0 59 -41zM1020 1321l-146 -115q-35 -31 -77 -30h-150q-55 0 -4 57l256 280q33 39 70 -16l65 -108q12 -20 10.5 -35t-24.5 -33z" glyph-name="wacute" horiz-adv-x="1527" unicode="ẃ"/><glyph d="M625 580l309 831q18 49 35 49h37q16 0 34 -49l310 -831l284 804q8 29 21.5 39.5t42.5 10.5h235q27 0 32 -10.5t-7 -39.5l-543 -1364q-23 -49 -35 -49h-22q-14 0 -35 49l-336 883l-336 -883q-20 -49 -35 -49h-22q-12 0 -35 49l-543 1364q-12 29 -7 39.5t32 10.5h235 q29 0 42.5 -10.5t21.5 -39.5zM647 1755q0 55 38 94t93 39q57 0 96 -39t39 -94q0 -57 -38.5 -94t-96.5 -37q-55 0 -93 37t-38 94zM1075 1755q0 55 37 94t92 39q57 0 96 -39t39 -94q0 -57 -38.5 -94t-96.5 -37q-55 0 -92 37t-37 94z" glyph-name="Wdieresis" horiz-adv-x="1972" unicode="Ẅ"/><glyph d="M463 532l248 490l6 12t6 11.5t7 9.5t8 8t8.5 4t11.5 2h14q6 0 11 -2t10.5 -7t7.5 -9t7 -13.5t9 -15.5l248 -490l143 461q12 49 64 49h209q27 0 32 -11t-8 -38l-325 -964q-16 -49 -39 -49h-17q-18 0 -45 49l-315 639l-318 -639q-25 -49 -45 -49h-14q-20 0 -39 49l-325 964 q-12 27 -7.5 38t31.5 11h209q47 0 59 -41zM422 1364q0 55 38 94t93 39q57 0 96 -39t39 -94q0 -57 -39 -94t-96 -37q-55 0 -93 37t-38 94zM850 1364q0 55 37 94t92 39q57 0 96 -39t39 -94q0 -57 -39 -94t-96 -37q-55 0 -92 37t-37 94z" glyph-name="wdieresis" horiz-adv-x="1527" unicode="ẅ"/><glyph d="M16 1384q-27 49 25 50h221q23 0 35 -10.5t31 -39.5l348 -602l356 602q16 31 27.5 40.5t36.5 9.5h217q53 0 22 -50l-518 -854v-481q0 -29 -10 -39t-39 -10h-182q-29 0 -40 10t-11 39v481zM621 1597l-146 115q-23 18 -24.5 32.5t10.5 35.5l65 108q37 55 70 17l256 -281 q51 -57 -4 -57h-150q-42 -1 -77 30z" glyph-name="Ygrave" horiz-adv-x="1351" unicode="Ỳ"/><glyph d="M559 420l254 573q16 31 27.5 40t36.5 9h198q27 0 32 -10t-7 -39l-619 -1362q-16 -31 -27.5 -40t-35.5 -9h-199q-27 0 -32 10.5t8 38.5l219 484l-400 878q-25 49 23 49h199q25 0 37 -10t28 -39l256 -573h2zM504 1206l-146 115q-23 18 -24.5 32.5t10.5 35.5l66 108 q37 55 69 16l256 -280q51 -57 -4 -57h-149q-45 -1 -78 30z" glyph-name="ygrave" horiz-adv-x="1114" unicode="ỳ"/><glyph d="M729 473h-579q-29 0 -40.5 10.5t-11.5 38.5v115q0 29 11.5 39t40.5 10h579q29 0 39 -10t10 -39v-115q0 -27 -10 -38t-39 -11z" glyph-name="endash" horiz-adv-x="876" unicode="–"/><glyph d="M1075 473h-925q-29 0 -40.5 10.5t-11.5 38.5v115q0 29 11.5 39t40.5 10h925q29 0 39 -10t10 -39v-115q0 -27 -11 -38t-38 -11z" glyph-name="emdash" horiz-adv-x="1222" unicode="—"/><glyph d="M299 1128h8q72 -2 121 -52t49 -122q0 -74 -50 -126t-124 -52q-84 0 -136 63.5t-52 172.5q0 143 88 263t215 179q20 10 31 -6l49 -74q8 -20 -11 -31q-157 -100 -188 -215z" glyph-name="quoteleft" horiz-adv-x="591" unicode="‘"/><glyph d="M293 1108h-8q-72 2 -121 52t-49 122q0 74 50 126t124 52q84 0 136 -63.5t52 -171.5q0 -143 -88 -263t-215 -180q-20 -10 -31 4l-49 76q-8 18 10 31q158 100 189 215z" glyph-name="quoteright" horiz-adv-x="591" unicode="’"/><glyph d="M293 -23h-8q-72 2 -121 52.5t-49 122.5q0 74 50 126t124 52q84 0 136 -63.5t52 -172.5q0 -145 -88 -265t-215 -177q-20 -10 -31 4l-49 76q-8 16 10 30q156 96 189 215z" glyph-name="quotesinglbase" horiz-adv-x="591" unicode="‚"/><glyph d="M754 1128h8q72 -2 121 -52t49 -122q0 -74 -50.5 -126t-123.5 -52q-84 0 -136.5 63.5t-52.5 172.5q0 143 88 263t215 179q20 10 31 -4l49 -76q8 -18 -10 -31q-155 -96 -188 -215zM299 1128h8q72 -2 121 -52t49 -122q0 -74 -50 -126t-124 -52q-84 0 -136 63.5t-52 172.5 q0 143 88 263t215 179q20 10 31 -4l49 -76q8 -18 -11 -31q-155 -96 -188 -215z" glyph-name="quotedblleft" horiz-adv-x="1046" unicode="“"/><glyph d="M293 1108h-8q-72 2 -121 52t-49 122q0 74 50 126t124 52q84 0 136 -63.5t52 -171.5q0 -143 -88 -263t-215 -180q-20 -10 -31 4l-49 76q-8 18 10 31q158 100 189 215zM748 1108h-9q-72 2 -121 52t-49 122q0 74 50.5 126t123.5 52q84 0 136.5 -63.5t52.5 -171.5 q0 -143 -88 -263t-215 -180q-20 -10 -31 4l-49 76q-8 18 10 31q158 100 189 215z" glyph-name="quotedblright" horiz-adv-x="1046" unicode="”"/><glyph d="M293 -23h-8q-72 2 -121 52.5t-49 122.5q0 74 50 126t124 52q84 0 136 -63.5t52 -172.5q0 -145 -88 -265t-215 -177q-20 -10 -31 4l-49 76q-8 16 10 30q156 96 189 215zM748 -23h-9q-72 2 -121 52.5t-49 122.5q0 74 50.5 126t123.5 52q84 0 136.5 -63.5t52.5 -172.5 q0 -145 -88 -265t-215 -177q-20 -10 -31 4l-49 76q-8 16 10 30q156 96 189 215z" glyph-name="quotedblbase" horiz-adv-x="1046" unicode="„"/><glyph d="M725 811h-182l-25 -965q0 -29 -10 -39t-39 -10h-76q-29 0 -39 10.5t-10 38.5l-25 965h-182q-29 0 -39 10t-10 39v115q0 29 11.5 39t37.5 10h180v360q0 29 10.5 39.5t39.5 10.5h129q29 0 40 -10.5t11 -39.5v-360h178q29 0 39 -10t10 -39v-115q0 -29 -10 -39t-39 -10z" glyph-name="dagger" horiz-adv-x="864" unicode="†"/><glyph d="M729 221h-180v-375q0 -29 -10.5 -39t-38.5 -10h-129q-29 0 -39 10.5t-10 38.5v375h-181q-29 0 -39 11.5t-10 39.5v113q0 29 10.5 39t38.5 10h181v432h-181q-29 0 -39 11.5t-10 40.5v112q0 29 10.5 39t38.5 10h181v305q0 29 10 39.5t39 10.5h129q29 0 39 -10.5t10 -39.5 v-305h180q29 0 39 -10t10 -39v-112q0 -29 -10 -40.5t-39 -11.5h-180v-432h180q29 0 39 -10t10 -39v-113q0 -29 -10 -40t-39 -11z" glyph-name="daggerdbl" horiz-adv-x="870" unicode="‡"/><glyph d="M72 700.5q0 94.5 63.5 160t157.5 65.5t160.5 -65.5t66.5 -160t-66.5 -159t-160.5 -64.5t-157.5 64.5t-63.5 159z" glyph-name="bullet" horiz-adv-x="589" unicode="•"/><glyph d="M115 151.5q0 73.5 50 126t123.5 52.5t126 -52.5t52.5 -126t-52.5 -124t-126 -50.5t-123.5 50.5t-50 124zM606 151.5q0 73.5 50.5 126t124 52.5t125.5 -52.5t52 -126t-52 -124t-125.5 -50.5t-124 50.5t-50.5 124zM1098 151.5q0 73.5 51 126t123 52.5q74 0 126 -52.5 t52 -126t-52 -124t-126 -50.5q-72 0 -123 50.5t-51 124z" glyph-name="ellipsis" horiz-adv-x="1564" unicode="…"/><glyph d="M420 727q-158 0 -255 96.5t-97 270.5t97 270t255 96t255 -96t97 -270t-97 -270.5t-255 -96.5zM419.5 887q69.5 0 112.5 57t43 149.5t-43 149.5t-112.5 57t-111.5 -57t-42 -149.5t42 -149.5t111.5 -57zM1475 1384l-957 -1349q-27 -35 -63 -35h-129q-68 0 -33 49l956 1350 q27 35 64 35h129q68 -1 33 -50zM1347.5 -4q-157.5 0 -255 96t-97.5 270.5t97.5 270.5t255 96t254 -95t96.5 -271.5t-96.5 -271.5t-254 -95zM1347.5 156q69.5 0 111.5 57t42 149.5t-42 149.5t-111.5 57t-112.5 -57t-43 -149.5t43 -149.5t112.5 -57zM2160.5 -4 q-157.5 0 -255 96t-97.5 270.5t97.5 270.5t255 96t254 -95t96.5 -271.5t-96.5 -271.5t-254 -95zM2160.5 156q69.5 0 111.5 57t42 149.5t-42 149.5t-111.5 57t-112.5 -57t-43 -149.5t43 -149.5t112.5 -57z" glyph-name="perthousand" horiz-adv-x="2580" unicode="‰"/><glyph d="M88 616l332 375q20 20 31.5 22.5t35.5 -12.5l107 -61q41 -27 10 -68l-272 -352l272 -352q31 -41 -10 -68l-107 -61q-25 -14 -36 -12t-31 22l-332 375q-39 43 -39 88v16q0 45 39 88z" glyph-name="guilsinglleft" horiz-adv-x="694" unicode="‹"/><glyph d="M276 991l332 -375q37 -45 37 -88v-16q0 -43 -37 -88l-332 -375q-35 -35 -69 -10l-107 61q-39 25 -10 68l275 352l-275 352q-29 43 10 68l107 61q34 25 69 -10z" glyph-name="guilsinglright" horiz-adv-x="694" unicode="›"/><glyph d="M975 1384l-686 -1343q-23 -41 -64 -41h-86q-70 0 -45 49l688 1344q18 41 64 41h86q68 -1 43 -50z" glyph-name="fraction" horiz-adv-x="1042" unicode="⁄"/><glyph glyph-name="uni2070" horiz-adv-x="0" unicode="⁰"/><glyph glyph-name="uni2080" horiz-adv-x="645" unicode="₀"/><glyph d="M43 545l129 67q39 23 53 23h82q23 0 23 -23v-589q0 -23 -23 -23h-114q-23 0 -23 23v409l-117 -14q-23 0 -22 22v80q0 17 12 25z" glyph-name="uni2081" horiz-adv-x="397" unicode="₁"/><glyph glyph-name="uni2083" horiz-adv-x="0" unicode="₃"/><glyph glyph-name="uni2086" horiz-adv-x="0" unicode="₆"/><glyph glyph-name="uni2088" horiz-adv-x="0" unicode="₈"/><glyph glyph-name="peseta" horiz-adv-x="3162" unicode="₧"/><glyph d="M1004 485h-457q45 -113 133 -186.5t217 -73.5q106 0 190 39q47 20 64 -28l49 -140q23 -55 -16 -67q-131 -55 -287 -56q-231 0 -408.5 144.5t-244.5 367.5h-166q-29 0 -39 11.5t-10 38.5v26q0 29 10 40t39 11h137q-10 66 -10 125l2 51h-129q-29 0 -39 11.5t-10 38.5v26 q0 29 10 40t39 11h147q53 242 235.5 393.5t436.5 151.5q143 0 287 -55q39 -12 18 -68l-51 -139q-16 -49 -64 -29q-84 39 -190 39q-147 0 -240.5 -80.5t-134.5 -212.5h482q29 0 40 -11t11 -40v-26q0 -29 -11.5 -39.5t-39.5 -10.5h-502l-2 -51q0 -59 10 -125h494q29 0 40 -11 t11 -40v-26q0 -29 -11 -39.5t-40 -10.5z" glyph-name="Euro" horiz-adv-x="1310" unicode="€"/><glyph d="M221 446l-102 -30q-55 -18 -62 28l-6 33q-8 47 27 60q57 16 143 45v424q0 223 73 336.5t284 113.5q154 0 237.5 -91t78.5 -228.5t-75 -296.5q-61 -119 -164.5 -197t-283.5 -145v-64q0 -170 73.5 -246.5t225.5 -76.5q74 0 129 39q31 20 44 14t19 -43l4 -29q4 -16 3 -27.5 t-7 -17.5t-20 -16q-84 -53 -203 -54q-199 0 -308.5 123t-109.5 328v18zM702 905q47 104 56.5 196.5t-34.5 157t-146 64.5q-111 0 -159 -72.5t-48 -244.5v-369q255 106 331 268z" glyph-name="afii61289" horiz-adv-x="980" unicode="ℓ"/><glyph d="M47 1434h635q27 0 27 -25v-106q0 -27 -27 -27h-229v-608q0 -23 -29 -23h-121q-14 0 -19 4t-5 19v608h-232q-27 0 -27 27v106q0 25 27 25zM1559 1057l-254 -400q-23 -29 -31 -28h-12q-8 0 -27 28l-252 396l-45 -381q-2 -12 -4 -17.5t-7 -7.5t-18 -2h-108q-31 0 -25 27 l94 768q2 10 11 10h8q6 0 14 -10l365 -568l366 568q4 10 15 10h8q8 0 10 -10l94 -768q6 -27 -26 -27h-109q-16 0 -20 5t-7 22z" glyph-name="trademark" horiz-adv-x="1839" unicode="™"/><glyph d="M1313 717q0 197 -122 344t-321 147q-195 0 -318.5 -148.5t-123.5 -342.5q2 -190 176 -418q78 -117 78 -168v-82q0 -29 -10 -39t-39 -10h-498q-29 0 -39 10t-10 39v150q0 29 10 39t39 10h234q-121 90 -178.5 221t-57.5 248q0 305 217 524t520.5 219t520.5 -219t217 -524 q0 -115 -61.5 -247t-182.5 -222h244q29 0 39 -10.5t10 -38.5v-150q0 -29 -10.5 -39t-38.5 -10h-508q-29 0 -39 10t-10 39v82q0 51 77 168q92 121 138.5 215t46.5 203z" glyph-name="uni2126" horiz-adv-x="1740" unicode="Ω"/><glyph d="M401 1067v-268h811v276q-152 213 -403 213q-131 0 -236.5 -62.5t-171.5 -158.5zM1495 627h-1094v-265q68 -98 172.5 -159.5t235.5 -61.5q221 0 387 174q23 23 36 23t34 -23l55 -61q20 -23 20 -37t-20 -35q-217 -211 -512 -211q-303 0 -520 219.5t-217 526.5 q0 305 217 524t520 219t520 -219t217 -524v-41q0 -29 -11 -39t-40 -10z" glyph-name="estimated" horiz-adv-x="1615" unicode="℮"/><glyph d="M1100 1384l-694 -1343q-23 -41 -64 -41h-86q-68 0 -43 49l692 1344q23 41 64 41h86q70 -1 45 -50zM125 1343l131 68q39 23 53 23h80q25 0 25 -23v-590q0 -23 -25 -22h-119q-23 0 -22 22v404l-111 -13q-25 -2 -24 21v86q0 14 12 24zM1055 -27q-119 0 -183.5 55.5 t-64.5 137.5q0 63 37 104t71 54v4q-14 8 -32.5 22.5t-39 48t-20.5 70.5q0 86 58.5 139.5t173.5 53.5q117 0 176 -53.5t59 -139.5q0 -53 -31.5 -91t-60.5 -50v-4q35 -12 72 -53.5t37 -104.5q0 -82 -66.5 -137.5t-185.5 -55.5zM1055 274q-113 -20 -113 -100q0 -39 28.5 -62.5 t84.5 -23.5q57 0 88 23.5t31 62.5q0 80 -119 100zM1055 547q-47 0 -73 -23.5t-26 -62.5q0 -66 99 -84q102 18 102 84q0 39 -26.5 62.5t-75.5 23.5z" glyph-name="oneeighth" horiz-adv-x="1419" unicode="⅛"/><glyph d="M1186 1384l-694 -1343q-18 -41 -62 -41h-88q-68 0 -43 49l694 1344q18 41 62 41h88q68 -1 43 -50zM1143 -27q-119 0 -184.5 55.5t-65.5 137.5q0 63 37 104t71 54v4q-14 8 -32.5 22.5t-39 48t-20.5 70.5q0 86 58.5 139.5t175.5 53.5q115 0 174 -53.5t59 -139.5 q0 -53 -31.5 -90t-58.5 -51v-4q33 -12 70 -53.5t37 -104.5q0 -82 -65.5 -137.5t-184.5 -55.5zM1143 274q-115 -20 -115 -100q0 -39 29.5 -62.5t85 -23.5t86.5 23.5t31 62.5q0 80 -117 100zM1143 547q-47 0 -74 -23.5t-27 -62.5q0 -66 101 -84q100 18 100 84q0 39 -26.5 62.5 t-73.5 23.5zM348 778q-129 0 -225 96q-16 12 2 31l70 76q16 20 34 4q57 -57 119 -57q45 0 74 19.5t29 47.5q0 59 -103 60h-59q-25 0 -25 22v82q0 27 25 27h59q102 0 103 57q0 29 -29 49.5t-74 20.5q-59 0 -119 -60q-16 -14 -34 4l-70 76q-18 18 -2 33q94 94 225 94 q94 0 169 -50t75 -146.5t-88 -143.5v-2q88 -47 88 -143q0 -94 -75 -145.5t-169 -51.5z" glyph-name="threeeighths" horiz-adv-x="1505" unicode="⅜"/><glyph d="M1178 1384l-695 -1343q-23 -41 -63 -41h-86q-68 0 -43 49l692 1344q23 41 64 41h86q70 -1 45 -50zM1132.5 -27q-118.5 0 -183 55.5t-64.5 137.5q0 63 36.5 104t71.5 54v4q-14 8 -32.5 22.5t-39 48t-20.5 70.5q0 86 58.5 139.5t173.5 53.5q117 0 176 -53.5t59 -139.5 q0 -53 -31.5 -91t-60.5 -50v-4q35 -12 71.5 -53.5t36.5 -104.5q0 -82 -66.5 -137.5t-185 -55.5zM1133 274q-113 -20 -113 -100q0 -39 28.5 -62.5t84.5 -23.5q57 0 87.5 23.5t30.5 62.5q1 80 -118 100zM1133 547q-47 0 -73 -23.5t-26 -62.5q0 -66 99 -84q102 18 102 84 q0 39 -26.5 62.5t-75.5 23.5zM207 1434h317q20 0 21 -23v-70q0 -25 -21 -24h-235l-17 -123h76q242 0 242 -205q0 -106 -70.5 -161.5t-181.5 -55.5q-117 0 -217 96q-12 14 4 31l47 51q16 20 31 2q66 -61 135 -61q119 0 119 94q0 92 -117 92h-174q-27 0 -23 23l39 311 q5 23 25 23z" glyph-name="fiveeighths" horiz-adv-x="1497" unicode="⅝"/><glyph d="M1057 1384l-695 -1343q-18 -41 -61 -41h-88q-68 0 -43 49l694 1344q18 41 62 41h88q68 -1 43 -50zM1014 -27q-119 0 -184.5 55.5t-65.5 137.5q0 63 37 104t71 54v4q-14 8 -32.5 22.5t-39 48t-20.5 70.5q0 86 58.5 139.5t175.5 53.5q115 0 174 -53.5t59 -139.5 q0 -53 -31.5 -90t-58.5 -51v-4q33 -12 70 -53.5t37 -104.5q0 -82 -65.5 -137.5t-184.5 -55.5zM1014 274q-115 -20 -115 -100q0 -39 29.5 -62.5t85 -23.5t86 23.5t30.5 62.5q1 80 -116 100zM1014 547q-47 0 -74 -23.5t-27 -62.5q0 -66 101 -84q100 18 100 84q0 39 -26.5 62.5 t-73.5 23.5zM600 1419v-10q0 -10 -8 -25l-318 -563q-12 -23 -34 -22h-95q-12 0 -18 6t-2 16l268 479h-258q-23 2 -22 23v88q0 23 22 23h449q16 -1 16 -15z" glyph-name="seveneighths" horiz-adv-x="1376" unicode="⅞"/><glyph d="M532 936q260 0 359 -162q0 195 -77 314.5t-212 119.5q-168 0 -301 -127q-25 -20 -38 -18t-34 24l-102 111q-20 23 -22.5 36t16.5 34q203 193 459 192q162 0 281.5 -62.5t186 -173t98.5 -245.5t32 -299q0 -154 -26 -272.5t-87 -221t-177 -158t-284 -55.5 q-229 0 -373.5 149.5t-144.5 364.5q0 213 126.5 331t319.5 118zM621 217q123 0 187 74t64 172q0 102 -71.5 174t-179.5 72q-102 0 -175 -69t-73 -171q0 -111 67.5 -181.5t180.5 -70.5z" glyph-name="partialdiff" horiz-adv-x="1273" unicode="∂"/><glyph d="M1516 0h-1471q-29 0 -35 11.5t8 43.5l713 1350q4 8 10.5 19.5t9.5 15.5t7 10t8 8t10 2h6q6 0 10.5 -2t8.5 -8t7 -10t9 -15.5t10 -19.5l715 -1350q14 -33 8.5 -44t-34.5 -11zM1122 248l-342 667l-340 -667h682z" glyph-name="uni2206" horiz-adv-x="1560" unicode="∆"/><glyph d="M459 1186v-1137q0 -29 -10.5 -39t-38.5 -10h-193q-29 0 -39 10t-10 39v1335q0 29 10 39.5t39 10.5h913q29 0 40.5 -10.5t11.5 -39.5v-1335q0 -29 -11.5 -39t-40.5 -10h-190q-29 0 -39 10t-10 39v1137h-432z" glyph-name="product" horiz-adv-x="1347" unicode="∏"/><glyph d="M850 676l-277 -428h519q29 0 39 -10.5t10 -38.5v-150q0 -29 -10.5 -39t-38.5 -10h-926q-29 0 -39 10t-10 39l446 664l-446 671q0 29 10 39.5t39 10.5h926q29 0 39 -10.5t10 -39.5v-149q0 -29 -10.5 -39t-38.5 -10h-519l277 -434q20 -41 0 -76z" glyph-name="summation" horiz-adv-x="1255" unicode="∑"/><glyph d="M1057 492h-905q-29 0 -39.5 10t-10.5 39v96q0 29 10.5 39t39.5 10h905q29 0 39 -10t10 -39v-96q0 -29 -10 -39t-39 -10z" glyph-name="minus" horiz-adv-x="1208" unicode="−"/><glyph d="M979 1384l-686 -1343q-23 -41 -64 -41h-86q-68 0 -43 49l686 1344q23 41 64 41h86q72 -1 43 -50z" glyph-name="uni2215" horiz-adv-x="1069" unicode="∕"/><glyph d="M98 700q0 82 56.5 139.5t136.5 57.5q82 0 139 -57.5t57 -139.5t-57 -137t-139 -55q-80 0 -136.5 55t-56.5 137z" glyph-name="uni2219" horiz-adv-x="587" unicode="∙"/><glyph d="M1395 1171h-248l-567 -1146q-4 -6 -9.5 -16.5t-8.5 -14.5t-7 -9t-8 -7.5t-8 -2.5h-7q-4 0 -8 2.5t-8 7.5t-7 9t-8 14t-9 17l-474 968q-25 49 25 49h199q41 0 63 -49l232 -499l432 890q27 49 65 50h361q29 0 39 -10.5t10 -39.5v-163q0 -29 -10 -39.5t-39 -10.5z" glyph-name="radical" horiz-adv-x="1443" unicode="√"/><glyph d="M1337 756q0 -219 -100 -339t-256 -120q-115 0 -190.5 67.5t-100.5 129.5h-8q-16 -29 -43 -61t-88.5 -68.5t-128.5 -36.5q-160 0 -257 106.5t-97 323.5q0 213 98 320.5t256 107.5q68 0 129 -36t89 -68.5t42 -61.5h10q20 61 97 129t192 68q156 0 256 -119t100 -342z M778 756q45 -219 187 -219q72 0 117.5 58t45.5 160.5t-46 162t-117 59.5q-142 0 -187 -221zM274 756q0 -88 45.5 -138.5t116.5 -50.5q125 0 160 189q-35 190 -160 190q-72 0 -117 -50t-45 -140z" glyph-name="infinity" horiz-adv-x="1404" unicode="∞"/><glyph d="M328 -16v1020q0 217 103.5 336.5t303.5 119.5q119 0 203 -53q20 -14 24.5 -24.5t0.5 -36.5l-21 -125q-6 -37 -18.5 -42t-44.5 13q-53 25 -113 25q-168 0 -168 -224v-1020q0 -217 -103.5 -336.5t-304.5 -119.5q-117 0 -202 53q-20 14 -24.5 24.5t-0.5 36.5l23 125 q4 35 16 40t45 -11q53 -25 115 -25q166 1 166 224z" glyph-name="integral" horiz-adv-x="970" unicode="∫"/><glyph d="M541 725q-4 4 -19.5 15.5t-20.5 14.5t-17.5 12t-18.5 12t-17.5 8.5t-19.5 7.5t-18.5 4t-20.5 2q-49 0 -158 -125q-20 -18 -34.5 -17.5t-34.5 21.5l-72 80q-35 37 2 69q78 84 144.5 128t150.5 44q86 0 207 -94q6 -4 18.5 -13t18.5 -13t16 -11.5t16.5 -10.5t15.5 -8t15 -8 t15.5 -5t17.5 -3t18 -1q51 0 158 122q35 35 70 -2l71 -80q35 -37 -2 -69q-78 -84 -144.5 -128t-149.5 -44q-90 0 -207 92zM557 322q-2 2 -16.5 12t-16.5 12t-14 10.5t-15 10.5t-13.5 8t-15.5 8t-14.5 6t-15.5 5t-14 2t-16 1q-49 0 -158 -125q-20 -18 -34.5 -17t-35.5 21 l-72 78q-35 37 3 72q80 84 145 127t149 43q90 0 207 -92q84 -63 123 -72q14 -2 29 -2q53 0 156 123q20 20 35.5 19t35.5 -21l72 -80q35 -37 -4 -70q-80 -84 -145.5 -128t-149.5 -44q-88 1 -205 93z" glyph-name="approxequal" horiz-adv-x="1150" unicode="≈"/><glyph d="M233 49l158 402h-239q-29 0 -39.5 10t-10.5 39v114q0 29 10.5 39.5t39.5 10.5h323l74 188h-397q-29 0 -39.5 11t-10.5 40v113q0 29 10.5 39t39.5 10h481l129 328q23 41 63 41h78q49 0 49 -29q-10 -31 -133 -340h211q29 0 39 -10.5t10 -38.5v-115q0 -29 -10 -39t-39 -10 h-293l-75 -188h368q29 0 39 -10.5t10 -39.5v-114q0 -29 -10 -39t-39 -10h-452l-160 -410q-23 -41 -64 -41h-78q-63 0 -43 49z" glyph-name="notequal" horiz-adv-x="1181" unicode="≠"/><glyph d="M217 1098l698 301q49 23 50 -21v-164q0 -47 -50 -67l-454 -193l454 -192q49 -20 50 -68v-164q0 -25 -11.5 -28.5t-38.5 8.5l-698 301q-47 25 -47 59v168q0 35 47 60zM997 133h-815q-29 0 -39 10.5t-10 38.5v125q0 29 10.5 40t38.5 11h815q29 0 40.5 -11t11.5 -40v-125 q0 -29 -11.5 -39t-40.5 -10z" glyph-name="lessequal" horiz-adv-x="1173" unicode="≤"/><glyph d="M258 1399l698 -301q47 -23 50 -60v-168q-2 -37 -50 -59l-698 -301q-29 -12 -39 -8t-10 28v164q0 47 49 68l457 192l-457 193q-49 20 -49 67v164q0 44 49 21zM991 133h-815q-29 0 -39 10.5t-10 38.5v125q0 29 10 40t39 11h815q29 0 39 -11t10 -40v-125q0 -29 -10 -39 t-39 -10z" glyph-name="greaterequal" horiz-adv-x="1173" unicode="≥"/><glyph d="M367 717l340 -389l342 389l-342 389zM1307 633l-529 -604q-37 -43 -67 -43h-9q-31 0 -67 43l-526 604q-84 84 0 168l526 604q37 43 67 43h9q31 0 67 -43l529 -604q84 -84 0 -168z" glyph-name="lozenge" horiz-adv-x="1413" unicode="◊"/><glyph d="M481 1145l-131 -195h170q14 0 18.5 -4t4.5 -18v-107q0 -23 -23 -22h-426q-6 0 -6 8v10q0 8 8 19l240 315q31 41 39 79t-8.5 61.5t-51.5 23.5q-72 0 -125 -53q-14 -16 -34 4l-64 67q-16 18 0 33q98 94 223 94q94 0 150.5 -51t57.5 -120.5t-42 -143.5z" glyph-name="two.numr" horiz-adv-x="641"/><glyph d="M76 1343l131 68q39 23 53 23h80q25 0 25 -23v-590q0 -23 -25 -22h-113q-25 0 -24 22v410l-115 -14q-25 0 -25 22v80q1 14 13 24z" glyph-name="one.numr" horiz-adv-x="505"/><glyph d="M303 778q-129 0 -225 96q-16 12 2 31l59 64q16 20 35 4q63 -63 129 -64q53 0 78 27t25 59q0 31 -28 49.5t-77 18.5h-59q-23 0 -23 22v66q0 25 23 25h59q49 0 77 18t28 49q0 33 -25 59.5t-78 26.5q-66 0 -129 -63q-18 -14 -35 2l-59 65q-18 18 -2 33q94 94 225 94 q94 0 169 -50t75 -146q0 -92 -88 -144v-2q88 -51 88 -143q0 -94 -75 -145.5t-169 -51.5z" glyph-name="three.numr" horiz-adv-x="622"/><glyph d="M221 1536h1155q33 0 44.5 -11.5t11.5 -43.5v-1563q0 -33 -11.5 -44t-44.5 -11h-1155q-33 0 -44 11t-11 44v1563q0 33 11 44t44 11zM799 520l215 -215q41 -43 80 0l100 103q25 23 25 39t-25 40l-213 215l213 216q25 23 25 40t-25 39l-100 101q-39 45 -80 0l-215 -215 l-215 215q-25 25 -41.5 24.5t-38.5 -24.5l-103 -101q-41 -39 0 -79l215 -216l-215 -215q-41 -43 0 -79l103 -103q23 -23 39 -22.5t41 22.5z" glyph-name="glyph405" horiz-adv-x="1597"/><glyph d="M317 1434h121q20 0 21 -23v-340h82q20 0 20 -24v-76q0 -25 -20 -25h-82v-125q0 -23 -21 -22h-96q-14 0 -18.5 4t-4.5 18v125h-264q-23 0 -22 25v51q0 18 14 39l252 362q6 11 18 11zM319 1245l-124 -174h124v174z" glyph-name="four.numr" horiz-adv-x="618"/><glyph d="M141 1434h320q20 0 20 -23v-70q0 -25 -20 -24h-238l-14 -123h76q242 0 241 -205q0 -106 -70.5 -161.5t-181.5 -55.5q-121 0 -217 96q-12 14 2 31l50 51q14 18 30 2q66 -61 135 -61q117 0 117 94q0 92 -117 92h-174q-25 0 -20 23l39 311q4 23 22 23z" glyph-name="five.numr" horiz-adv-x="565"/><glyph d="M350 1219q88 0 147.5 -55.5t59.5 -156t-66.5 -169t-175.5 -68.5q-266 0 -266 328q0 160 66.5 261t212.5 101q121 0 213 -90q12 -14 -4 -31l-50 -55q-18 -18 -32 0q-55 53 -138 53q-59 0 -95 -53t-36 -137q53 72 164 72zM309 887q51 0 80 31.5t29 80.5q0 47 -31 78t-78 31 q-51 0 -82.5 -30.5t-31.5 -80.5q0 -45 29.5 -77.5t84.5 -32.5z" glyph-name="six.numr" horiz-adv-x="595"/><glyph d="M545 1419v-8q0 -12 -8 -27l-318 -563q-12 -23 -35 -22h-94q-12 0 -18 6t-2 16l268 479h-258q-23 2 -23 23v88q0 23 23 23h448q17 -1 17 -15z" glyph-name="seven.numr" horiz-adv-x="581"/><glyph d="M301 772q-119 0 -183.5 55.5t-64.5 137.5q0 63 37 104t70 53v4q-14 8 -31.5 22.5t-38 48.5t-20.5 71q0 86 58 139t173 53q117 0 175.5 -53t58.5 -139q0 -53 -32 -90t-59 -52v-4q33 -12 70 -53t37 -104q0 -82 -65.5 -137.5t-184.5 -55.5zM301 1073q-115 -20 -115 -100 q0 -39 30 -62.5t85 -23.5t87 23.5t32 62.5q0 80 -119 100zM301 1346q-47 0 -73.5 -24t-26.5 -62q0 -66 100 -84q102 18 102 84q0 39 -27.5 62.5t-74.5 23.5z" glyph-name="eight.numr" horiz-adv-x="604"/><glyph d="M258 1012q-88 0 -147.5 55t-59.5 155.5t66.5 169t173.5 68.5q150 0 208 -88t58 -239q0 -162 -65.5 -262.5t-212.5 -100.5q-121 0 -211 90q-14 14 2 31l51 57q18 16 33 0q57 -55 135 -55q61 0 96 53t35 137q-47 -71 -162 -71zM299 1343q-51 0 -81 -31.5t-30 -80.5 q0 -45 32 -76t79 -31q51 0 83 31t32 78q0 45 -30 77.5t-85 32.5z" glyph-name="nine.numr" horiz-adv-x="600"/><glyph d="M51 1116.5q0 149.5 69.5 246.5t203 97t202 -96t68.5 -247.5t-68.5 -248t-202 -96.5t-203 97.5t-69.5 247zM209 1116q0 -86 33.5 -142t81 -56t81 56t33.5 142q0 84 -33.5 141.5t-81 57.5t-81 -57.5t-33.5 -141.5z" glyph-name="zero.numr" horiz-adv-x="645"/><glyph d="M442 346l-133 -194h170q14 0 19.5 -4.5t5.5 -18.5v-106q0 -23 -25 -23h-424q-8 0 -8 8v10q0 4 8 19l242 315q31 41 39 79t-8.5 61.5t-51.5 23.5q-72 0 -124 -53q-16 -16 -35 4l-64 68q-16 18 -2 32q98 94 225 95q94 0 150.5 -51.5t57.5 -121t-42 -143.5z" glyph-name="two.dnom" horiz-adv-x="561"/><glyph d="M279 -23q-131 0 -226 95q-14 14 2 32l60 64q18 18 35 4q63 -63 129 -63q53 0 77.5 25.5t24.5 60.5q0 31 -27.5 49t-74.5 18h-60q-25 0 -24 23v65q0 25 24 25h60q47 0 74.5 18.5t27.5 48.5q0 35 -24.5 60.5t-77.5 25.5q-63 0 -129 -65q-18 -16 -35 4l-60 63q-16 23 -2 33 q96 96 226 96q94 0 168.5 -51t74.5 -147q0 -94 -88 -142v-2q88 -47 88 -143t-74.5 -146.5t-168.5 -50.5z" glyph-name="three.dnom" horiz-adv-x="569"/><glyph d="M258 215q-88 0 -147.5 55.5t-59.5 155.5t66.5 169t173.5 69q150 0 208 -88.5t58 -239.5q0 -162 -65.5 -262.5t-212.5 -100.5q-121 0 -211 90q-14 14 2 31l51 56q18 18 33 0q55 -53 135 -54q61 0 96 53.5t35 137.5q-47 -72 -162 -72zM299 547q-51 0 -81 -32t-30 -81 q0 -47 32 -77.5t79 -30.5q51 0 83 30.5t32 79.5q0 45 -30 78t-85 33z" glyph-name="nine.dnom" horiz-adv-x="608"/><glyph d="M317 635h121q20 0 21 -23v-340h82q20 0 20 -24v-76q0 -25 -20 -25h-82v-124q0 -23 -21 -23h-96q-14 0 -18.5 4t-4.5 19v124h-264q-23 0 -22 25v51q0 18 14 39l252 363q6 10 18 10zM319 446l-124 -174h124v174z" glyph-name="four.dnom" horiz-adv-x="618"/><glyph d="M299 -27q-119 0 -183.5 55.5t-64.5 137.5q0 63 37 104t70 54v4q-14 8 -31.5 22.5t-38 48t-20.5 70.5q0 86 58 139.5t173 53.5q117 0 176.5 -53.5t59.5 -139.5q0 -53 -32 -90t-61 -51v-4q35 -12 72 -53.5t37 -104.5q0 -82 -66.5 -137.5t-185.5 -55.5zM299 274 q-115 -20 -115 -100q0 -39 30 -62.5t85 -23.5t87 23.5t32 62.5q0 80 -119 100zM299 547q-47 0 -72.5 -23.5t-25.5 -62.5q0 -66 98 -84q102 18 102 84q0 39 -26.5 62.5t-75.5 23.5z" glyph-name="eight.dnom" horiz-adv-x="602"/><glyph d="M545 621v-11q0 -10 -8 -24l-318 -563q-12 -23 -35 -23h-94q-12 0 -18 6t-2 17l268 479h-258q-23 2 -23 22v88q0 23 23 23h448q17 0 17 -14z" glyph-name="seven.dnom" horiz-adv-x="573"/><glyph d="M350 422q88 0 147.5 -55.5t59.5 -155.5t-66.5 -169t-173.5 -69q-266 0 -266 328q0 162 65.5 262.5t213.5 100.5q121 0 213 -91q12 -14 -4 -30l-50 -58q-20 -14 -34 0q-55 55 -136 56q-61 0 -96 -53.5t-35 -137.5q47 72 162 72zM311 90q49 0 79 32t30 81q0 47 -31 76.5 t-78 29.5q-51 0 -82.5 -30.5t-31.5 -77.5q0 -45 29.5 -78t84.5 -33z" glyph-name="six.dnom" horiz-adv-x="600"/><glyph d="M141 635h320q20 0 20 -23v-69q0 -25 -20 -25h-238l-14 -123h76q242 0 241 -205q0 -106 -70.5 -161.5t-181.5 -55.5q-121 0 -217 97q-12 14 2 30l50 52q14 18 30 2q66 -61 135 -62q117 0 117 94q0 92 -117 93h-174q-25 0 -20 22l39 311q4 23 22 23z" glyph-name="five.dnom" horiz-adv-x="565"/><glyph d="M389 716.5q0 -98.5 13.5 -180t45 -155.5t91 -115t141.5 -41t141.5 41t91 115t45 155.5t13.5 180t-13.5 180.5t-45 155.5t-91 114.5t-141.5 41t-141.5 -41t-91 -114.5t-45 -155.5t-13.5 -180.5zM94 716.5q0 323.5 149.5 533.5t436.5 210t436.5 -209t149.5 -534.5 t-149.5 -534.5t-436.5 -209t-436.5 210t-149.5 533.5z" glyph-name="zero.tnum" horiz-adv-x="1359"/><glyph d="M96 1233l250 151q70 49 105 50h116q29 0 39 -10.5t10 -39.5v-1335q0 -29 -10 -39t-39 -10h-190q-29 0 -40 10t-11 39v1022l-207 -29q-29 0 -39 10.5t-10 37.5v90q-1 35 26 53z" glyph-name="one.tnum" horiz-adv-x="788"/><glyph d="M956 795l-424 -547h488q29 0 39 -10.5t10 -38.5v-150q0 -29 -10 -39t-39 -10h-942q-18 0 -19 18v27q0 12 19 39l639 815q88 113 36.5 211t-184.5 98q-180 0 -321 -145q-23 -20 -36 -18t-34 24l-102 111q-20 23 -22.5 36t16.5 33q215 211 499 211q125 0 227.5 -42 t162 -111.5t84 -154.5t3 -180t-89.5 -177z" glyph-name="two.tnum" horiz-adv-x="1144"/><glyph d="M596 608h-203q-29 0 -39 10.5t-10 38.5v136q0 29 10.5 39t38.5 10h182q113 0 167.5 50t54.5 116q0 201 -234 200q-94 0 -151.5 -33.5t-124.5 -107.5q-35 -35 -70 6l-98 107q-20 25 -22.5 36t16.5 33q109 106 210 158.5t240 52.5q72 0 143.5 -15t141.5 -48t122 -82 t83.5 -122t31.5 -159q0 -102 -54 -183t-132 -124v-2q223 -106 223 -315q0 -215 -155.5 -326t-403.5 -111q-262 0 -477 211q-18 20 -16 33.5t22 34.5l96 108q37 37 72 5q139 -139 303 -140q145 0 208 53.5t63 155.5q0 74 -62.5 124t-175.5 50z" glyph-name="three.tnum" horiz-adv-x="1200"/><glyph d="M764 1434h229q29 0 39 -10.5t10 -39.5v-839h166q29 0 39 -10.5t10 -38.5v-123q0 -29 -10 -40t-39 -11h-166v-273q0 -29 -10 -39t-39 -10h-174q-29 0 -39 10t-10 39v273h-639q-29 0 -39 11t-10 40v133q0 43 29 80l620 831q13 17 33 17zM770 1073l-397 -528h397v528z" glyph-name="four.tnum" horiz-adv-x="1323"/><glyph d="M262 1434h703q29 0 39 -10.5t10 -39.5v-149q0 -29 -10.5 -39t-38.5 -10h-527l-39 -283h183q530 0 530 -448q0 -238 -155.5 -360t-401.5 -122q-262 0 -477 211q-18 20 -16.5 32.5t22.5 35.5l96 108q37 37 70 5q74 -70 141.5 -105t163.5 -35q270 0 270 217q0 209 -268 209 h-383q-57 0 -51 49l90 684q4 31 12 40.5t37 9.5z" glyph-name="five.tnum" horiz-adv-x="1185"/><glyph d="M741 936q193 0 320 -118t127 -331q0 -215 -144.5 -364.5t-373.5 -149.5q-168 0 -284 55.5t-177.5 158t-87 221t-25.5 272.5q0 164 32 299t98.5 245.5t186 173t281.5 62.5q254 0 455 -190q18 -20 16 -32.5t-22 -37.5l-103 -110q-20 -23 -33.5 -25t-35.5 18 q-68 66 -135.5 95.5t-163.5 29.5q-135 0 -212 -119.5t-77 -314.5q98 162 358 162zM653 217q115 0 181.5 70.5t66.5 181.5q0 102 -72.5 171t-175.5 69q-109 0 -180.5 -72t-71.5 -174q0 -98 64.5 -172t187.5 -74z" glyph-name="six.tnum" horiz-adv-x="1273"/><glyph d="M1155 1399v-10q0 -20 -20 -56l-709 -1284q-29 -49 -80 -49h-201q-68 0 -47 49l617 1118h-604q-29 4 -39.5 12.5t-10.5 37.5v167q0 29 10.5 39.5t39.5 10.5h1005q39 0 39 -35z" glyph-name="seven.tnum" horiz-adv-x="1163"/><glyph d="M618 -27q-258 0 -399 118t-141 300q0 131 80 222.5t151 115.5v12q-33 18 -71.5 49t-81.5 103t-43 151q0 186 127 301t381 115q250 0 375.5 -114.5t125.5 -301.5q0 -80 -43 -151.5t-80.5 -103t-72.5 -50.5v-10q72 -25 151.5 -116t79.5 -222q0 -184 -139.5 -301 t-399.5 -117zM618 627q-258 -53 -258 -217q0 -84 68 -138.5t190 -54.5q121 0 188.5 54.5t67.5 138.5q0 164 -256 217zM618.5 1217q-104.5 0 -164 -52.5t-59.5 -136.5q0 -145 223 -186q106 20 164 68t58 118q0 84 -58.5 136.5t-163 52.5z" glyph-name="eight.tnum" horiz-adv-x="1234"/><glyph d="M537 498q-193 0 -321 117.5t-128 330.5q0 215 145.5 364.5t374.5 149.5q168 0 284 -55t177 -157.5t87 -221.5t26 -272q0 -164 -32 -299.5t-98.5 -246t-186.5 -173t-281 -62.5q-256 0 -459 193q-18 20 -16 33.5t22 36.5l102 110q20 23 34 25t36 -19q133 -127 303 -127 q135 0 212 120t77 314q-98 -161 -358 -161zM623 1217q-113 0 -179.5 -71t-66.5 -181q0 -102 71.5 -171t174.5 -69q109 0 181.5 71.5t72.5 174.5q0 100 -64.5 173t-189.5 73z" glyph-name="nine.tnum" horiz-adv-x="1269"/><glyph d="M68 702.5q0 292.5 141 511t389 349.5q45 25 74 -23l76 -131q31 -55 -35 -88q-176 -84 -272.5 -245t-96.5 -374t96.5 -373.5t272.5 -244.5q66 -33 35 -88l-76 -131q-29 -47 -74 -23q-248 131 -389 349.5t-141 511z" glyph-name="parenleft.aalt" horiz-adv-x="833"/><glyph d="M778 702.5q0 -292.5 -141 -511t-389 -349.5q-45 -25 -74 23l-76 131q-31 55 35 88q176 84 272.5 244.5t96.5 373.5t-96.5 374t-272.5 245q-66 33 -35 88l76 131q29 47 74 23q248 -131 389 -349.5t141 -511z" glyph-name="parenright.aalt" horiz-adv-x="833"/><glyph d="M723 618h-565q-29 0 -39 11.5t-10 40.5v112q0 29 10 39t39 10h565q29 0 39 -10t10 -39v-114q0 -29 -10 -39.5t-39 -10.5z" glyph-name="hyphen.aalt" horiz-adv-x="880"/><glyph d="M672 -35v-131q0 -29 -10.5 -39t-38.5 -10h-408q-29 0 -39 10t-10 39v1739q0 29 10 39t39 10h408q29 0 39 -10t10 -39v-131q0 -29 -10.5 -39t-38.5 -10h-205v-1379h205q29 0 39 -10t10 -39z" glyph-name="bracketleft.aalt" horiz-adv-x="790"/><glyph d="M117 -166v131q0 29 11 39t40 10h203v1379h-203q-29 0 -40 10t-11 39v131q0 29 11 39t40 10h407q29 0 39.5 -10t10.5 -39v-1739q0 -29 -10.5 -39t-39.5 -10h-407q-29 0 -40 10t-11 39z" glyph-name="bracketright.aalt" horiz-adv-x="788"/><glyph d="M68 655v152q0 41 43 57q166 51 165 142v161q0 514 519 514q29 0 39 -10t10 -39v-153q0 -29 -10.5 -39t-38.5 -10q-106 0 -171 -61.5t-65 -201.5v-161q0 -104 -54 -176t-124 -93v-12q70 -20 124 -92t54 -176v-162q0 -262 236 -262q31 0 40 -10.5t9 -38.5v-154 q0 -29 -10.5 -39t-38.5 -10q-518 0 -519 514v162q0 90 -165 141q-43 16 -43 57z" glyph-name="braceleft.aalt" horiz-adv-x="919"/><glyph d="M164 -133v1741q0 29 10 39t39 10h129q29 0 40 -10.5t11 -38.5v-1741q0 -29 -11 -39t-40 -10h-129q-29 0 -39 10t-10 39z" glyph-name="bar.aalt" horiz-adv-x="557"/><glyph d="M852 807v-152q0 -41 -45 -57q-164 -53 -164 -141v-162q0 -514 -518 -514q-29 0 -40 10t-11 39v154q0 29 10 39t41 10q106 0 170.5 61.5t64.5 200.5v162q0 104 53.5 176t123.5 92v12q-70 20 -123.5 92t-53.5 177v161q0 137 -65.5 200t-169.5 63q-31 0 -41 10t-10 39v153 q0 29 11 39t40 10q518 0 518 -514v-161q0 -88 164 -142q45 -16 45 -57z" glyph-name="braceright.aalt" horiz-adv-x="919"/><glyph d="M168 -106v710q0 29 10 39t39 10h88q29 0 40 -10t11 -39v-710q0 -29 -11 -39.5t-40 -10.5h-88q-29 0 -39 10.5t-10 39.5zM168 895v637q0 29 10 39t39 10h88q29 0 40 -10t11 -39v-637q0 -29 -11 -39t-40 -10h-88q-29 0 -39 10t-10 39z" glyph-name="brokenbar.aalt" horiz-adv-x="522"/><glyph d="M104 856l332 375q35 35 70 10l106 -61q39 -25 11 -68l-273 -352l273 -352q29 -43 -11 -68l-106 -61q-35 -25 -70 10l-332 375q-37 45 -36 88v16q-1 43 36 88zM590 856l332 375q35 35 69 10l107 -61q39 -25 10 -68l-274 -352l274 -352q29 -43 -10 -68l-107 -61 q-35 -25 -69 10l-332 375q-37 45 -37 88v16q0 43 37 88z" glyph-name="guillemotleft.aalt" horiz-adv-x="1200"/><glyph d="M764 1231l332 -375q37 -45 37 -88v-16q0 -43 -37 -88l-332 -375q-35 -35 -70 -10l-106 61q-39 25 -10 68l274 352l-274 352q-29 43 10 68l106 61q35 25 70 -10zM279 1231l331 -375q37 -45 37 -88v-16q0 -43 -37 -88l-331 -375q-35 -35 -70 -10l-107 61q-37 27 -10 68 l275 352l-275 352q-29 43 10 68l107 61q35 25 70 -10z" glyph-name="periodcentered.aalt" horiz-adv-x="1200"/><glyph d="M729 618h-579q-29 0 -40.5 11.5t-11.5 40.5v112q0 29 11.5 39t40.5 10h579q29 0 39 -10t10 -39v-114q0 -29 -10 -39.5t-39 -10.5z" glyph-name="guillemotright.aalt" horiz-adv-x="876"/><glyph d="M1075 618h-925q-29 0 -40.5 11.5t-11.5 40.5v112q0 29 11.5 39t40.5 10h925q29 0 39 -10t10 -39v-114q0 -29 -11 -39.5t-38 -10.5z" glyph-name="endash.aalt" horiz-adv-x="1222"/><glyph d="M72 731q0 94 63.5 159.5t157.5 65.5t160.5 -65.5t66.5 -159.5t-66.5 -158.5t-160.5 -64.5t-157.5 64.5t-63.5 158.5z" glyph-name="emdash.aalt" horiz-adv-x="589"/><glyph d="M88 856l332 375q20 20 31.5 22t35.5 -12l107 -61q41 -27 10 -68l-272 -352l272 -352q31 -41 -10 -68l-107 -61q-25 -14 -36 -12.5t-31 22.5l-332 375q-39 43 -39 88v16q0 45 39 88z" glyph-name="bullet.aalt" horiz-adv-x="694"/><glyph d="M276 1231l332 -375q37 -45 37 -88v-16q0 -43 -37 -88l-332 -375q-35 -35 -69 -10l-107 61q-39 25 -10 68l275 352l-275 352q-29 43 10 68l107 61q34 25 69 -10z" glyph-name="guilsinglleft.aalt" horiz-adv-x="694"/><glyph d="M104 731q0 80 55.5 136.5t133.5 56.5q82 0 137 -56.5t55 -136.5t-55 -135t-137 -55q-78 0 -133.5 55t-55.5 135z" glyph-name="guilsinglright.aalt" horiz-adv-x="589"/><glyph d="M481 1313l-131 -195h170q14 0 18.5 -4t4.5 -18v-107q0 -23 -23 -22h-426q-6 0 -6 8v10q0 10 8 19l240 315q31 41 39 79t-8.5 61.5t-51.5 23.5q-72 0 -125 -53q-14 -16 -34 4l-64 67q-16 18 0 33q98 94 223 94q94 0 150.5 -51t57.5 -120.5t-42 -143.5z" glyph-name="two.superior" horiz-adv-x="641"/><glyph d="M76 1511l131 68q39 23 53 23h80q25 0 25 -23v-590q0 -23 -25 -22h-111q-25 0 -24 22v412l-117 -12q-25 0 -25 22v76q1 14 13 24z" glyph-name="one.superior" horiz-adv-x="505"/><glyph d="M68 1284.5q0 149.5 69.5 246.5t202.5 97t202.5 -97t69.5 -246.5t-69.5 -247t-202.5 -97.5t-202.5 97.5t-69.5 247zM217 1284q0 -90 33 -149.5t90 -59.5t90 59.5t33 149.5q0 96 -33 152.5t-90 56.5t-90 -56.5t-33 -152.5z" glyph-name="zero.superior" horiz-adv-x="679"/><glyph d="M317 1602h121q20 0 21 -23v-340h82q20 0 20 -25v-75q0 -25 -20 -25h-82v-125q0 -23 -21 -22h-96q-14 0 -18.5 4t-4.5 18v125h-264q-23 0 -22 25v51q0 18 14 39l252 362q6 11 18 11zM319 1413l-124 -174h124v174z" glyph-name="four.superior" horiz-adv-x="618"/><glyph d="M141 1602h320q20 0 20 -23v-70q0 -25 -20 -24h-238l-14 -123h76q242 0 241 -205q0 -106 -70.5 -161.5t-181.5 -55.5q-121 0 -217 96q-12 14 2 31l50 51q14 18 30 2q66 -61 135 -61q117 0 117 94q0 92 -117 92h-174q-25 0 -20 23l39 311q4 23 22 23z" glyph-name="five.superior" horiz-adv-x="565"/><glyph d="M350 1386q88 0 147.5 -55t59.5 -155.5t-66.5 -169t-175.5 -68.5q-266 0 -266 328q0 160 66.5 261t212.5 101q121 0 213 -90q12 -14 -4 -31l-50 -55q-18 -18 -32 0q-55 53 -138 53q-59 0 -95 -53t-36 -137q53 71 164 71zM309 1055q51 0 80 31.5t29 80.5q0 47 -31 78 t-78 31q-51 0 -82.5 -31t-31.5 -80q0 -45 29.5 -77.5t84.5 -32.5z" glyph-name="six.superior" horiz-adv-x="595"/><glyph d="M545 1587v-10q0 -10 -8 -25l-318 -563q-12 -23 -35 -22h-94q-12 0 -18 6t-2 16l268 479h-258q-23 2 -23 23v88q0 23 23 23h448q17 -1 17 -15z" glyph-name="seven.superior" horiz-adv-x="581"/><glyph d="M301 940q-119 0 -183.5 55.5t-64.5 137.5q0 63 37 104t70 53v4q-14 8 -31.5 22.5t-38 48.5t-20.5 71q0 86 58 139t173 53q117 0 175.5 -53t58.5 -139q0 -53 -32 -90t-59 -52v-4q33 -12 70 -53t37 -104q0 -82 -65.5 -137.5t-184.5 -55.5zM301 1241q-115 -20 -115 -100 q0 -39 30 -62.5t85 -23.5t87 23.5t32 62.5q0 80 -119 100zM301 1513q-47 0 -73.5 -23.5t-26.5 -62.5q0 -66 100 -84q102 18 102 84q0 39 -27.5 62.5t-74.5 23.5z" glyph-name="eight.superior" horiz-adv-x="604"/><glyph d="M258 1180q-88 0 -147.5 55t-59.5 155.5t66.5 169t173.5 68.5q150 0 208 -88t58 -240q0 -162 -65.5 -262t-212.5 -100q-121 0 -211 90q-14 14 2 31l51 57q18 16 33 0q57 -55 135 -55q61 0 96 53t35 137q-47 -71 -162 -71zM299 1511q-51 0 -81 -31.5t-30 -80.5 q0 -45 32 -76t79 -31q51 0 83 31t32 78q0 45 -30 77.5t-85 32.5z" glyph-name="nine.superior" horiz-adv-x="600"/><glyph d="M51 10.5q0 149.5 69.5 246.5t203 97t202 -96t68.5 -247.5t-68.5 -248t-202 -96.5t-203 97.5t-69.5 247zM201 10q0 -90 34.5 -149.5t88 -59.5t88 59.5t34.5 149.5t-34.5 149.5t-88 59.5t-88 -59.5t-34.5 -149.5z" glyph-name="zero.sinf" horiz-adv-x="645"/><glyph d="M442 39l-133 -195h170q14 0 19.5 -4t5.5 -18v-107q0 -23 -25 -22h-424q-8 0 -8 8v10q0 4 8 19l242 315q31 41 39 79t-8.5 61.5t-51.5 23.5q-72 0 -124 -53q-16 -16 -35 4l-64 67q-16 18 -2 33q98 94 225 94q94 0 150.5 -51t57.5 -120.5t-42 -143.5z" glyph-name="two.sinf" horiz-adv-x="561"/><glyph d="M279 -328q-129 0 -226 97q-14 12 2 30l60 64q18 20 35 4q63 -63 129 -64q53 0 77.5 26t24.5 60q0 31 -27.5 49.5t-74.5 18.5h-60q-25 0 -24 23v65q0 25 24 25h60q47 0 74.5 18t27.5 49q0 35 -24.5 60.5t-77.5 25.5q-66 0 -129 -63q-16 -16 -35 2l-60 65q-16 18 -2 33 q94 94 226 94q94 0 168.5 -50t74.5 -146.5t-88 -143.5v-2q88 -47 88 -143q0 -94 -74.5 -145.5t-168.5 -51.5z" glyph-name="three.sinf" horiz-adv-x="569"/><glyph d="M258 -94q-88 0 -147.5 55t-59.5 155.5t66.5 169t173.5 68.5q150 0 208 -88t58 -239q0 -162 -65.5 -262.5t-212.5 -100.5q-121 0 -211 90q-14 14 2 31l51 57q18 16 33 0q59 -55 135 -55q61 0 96 53.5t35 136.5q-47 -71 -162 -71zM299 238q-51 0 -81 -32t-30 -81 q0 -45 32 -76t79 -31q51 0 83 31t32 78q0 45 -30 78t-85 33z" glyph-name="nine.sinf" horiz-adv-x="608"/><glyph d="M317 328h121q20 0 21 -23v-340h82q20 0 20 -24v-76q0 -25 -20 -25h-82v-125q0 -23 -21 -22h-96q-14 0 -18.5 4t-4.5 18v125h-264q-23 0 -22 25v51q0 18 14 39l252 362q6 11 18 11zM319 139l-124 -174h124v174z" glyph-name="four.sinf" horiz-adv-x="618"/><glyph d="M299 -334q-119 0 -183.5 55.5t-64.5 137.5q0 63 37 104t70 53v4q-14 8 -31.5 22.5t-38 48.5t-20.5 71q0 86 58 139t173 53q117 0 176.5 -53t59.5 -139q0 -53 -32 -90t-61 -52v-4q35 -12 72 -53t37 -104q0 -82 -66.5 -137.5t-185.5 -55.5zM299 -33q-115 -20 -115 -100 q0 -39 30 -62.5t85 -23.5t87 23.5t32 62.5q0 80 -119 100zM299 240q-47 0 -72.5 -23.5t-25.5 -62.5q0 -66 98 -84q102 18 102 84q0 39 -26.5 62.5t-75.5 23.5z" glyph-name="eight.sinf" horiz-adv-x="602"/><glyph d="M545 313v-10q0 -10 -8 -24l-318 -564q-12 -23 -35 -22h-94q-12 0 -18 6t-2 16l268 480h-258q-23 2 -23 22v88q0 23 23 23h448q17 -1 17 -15z" glyph-name="seven.sinf" horiz-adv-x="573"/><glyph d="M350 113q88 0 147.5 -55.5t59.5 -156t-66.5 -169t-173.5 -68.5q-266 0 -266 328q0 162 65.5 262t213.5 100q121 0 213 -90q12 -14 -4 -31l-50 -55q-20 -16 -34 0q-53 53 -136 53q-61 0 -96 -53t-35 -137q47 72 162 72zM311 -219q49 0 79 31.5t30 81.5q0 47 -31 77.5 t-78 30.5q-51 0 -82.5 -30.5t-31.5 -80.5q0 -45 29.5 -77.5t84.5 -32.5z" glyph-name="six.sinf" horiz-adv-x="600"/><glyph d="M141 328h320q20 0 20 -23v-69q0 -25 -20 -25h-238l-14 -123h76q242 0 241 -205q0 -106 -70.5 -161.5t-181.5 -55.5q-121 0 -217 96q-12 14 2 31l50 51q14 18 30 2q66 -61 135 -61q117 0 117 94q0 92 -117 92h-174q-25 0 -20 23l39 311q4 23 22 23z" glyph-name="five.sinf" horiz-adv-x="565"/><glyph d="M43 238l129 67q39 23 53 23h82q23 0 23 -23v-590q0 -23 -23 -22h-112q-23 0 -23 22v412l-119 -12q-23 0 -22 22v76q0 17 12 25z" glyph-name="one.sinf" horiz-adv-x="397"/><glyph d="M51 317.5q0 149.5 69.5 247t203 97.5t202 -96.5t68.5 -248t-68.5 -248t-202 -96.5t-203 97.5t-69.5 247zM209 317q0 -86 33.5 -142t81 -56t81 56t33.5 142q0 84 -33.5 141.5t-81 57.5t-81 -57.5t-33.5 -141.5z" glyph-name="zero.dnom" horiz-adv-x="645"/><glyph d="M303 946q-129 0 -225 96q-16 12 2 31l59 64q16 20 35 4q63 -63 129 -64q53 0 78 26.5t25 59.5q0 31 -28 49.5t-77 18.5h-59q-23 0 -23 22v66q0 25 23 24h59q49 0 77 18.5t28 49.5q0 33 -25 59.5t-78 26.5q-66 0 -129 -63q-18 -14 -35 2l-59 65q-18 18 -2 33q94 94 225 94 q94 0 169 -50t75 -146q0 -92 -88 -144v-2q88 -51 88 -143q0 -94 -75 -145.5t-169 -51.5z" glyph-name="three.superior" horiz-adv-x="622"/></font>
</defs>
</svg>
