<?xml version="1.0" encoding="utf-8"?>
<!-- Generator: Adobe Illustrator 21.1.0, SVG Export Plug-In . SVG Version: 6.00 Build 0)  -->
<svg version="1.1" id="Layer_1" xmlns="http://www.w3.org/2000/svg" xmlns:xlink="http://www.w3.org/1999/xlink" x="0px" y="0px"
	 width="22px" height="25px" viewBox="0 0 22 25" style="enable-background:new 0 0 22 25;" xml:space="preserve">
<style type="text/css">
	.st0{fill:#FFFFFF;}
</style>
<g>
	<g>
		<path class="st0" d="M11.2,15.8c-0.1,0-0.3-0.1-0.4-0.2c-0.2-0.3-5.2-6.3-5.2-9.2c0-3.1,2.5-5.6,5.6-5.6c3.1,0,5.6,2.5,5.6,5.6
			c0,3-5,9-5.2,9.2C11.5,15.8,11.3,15.8,11.2,15.8z M11.2,1.8c-2.5,0-4.6,2.1-4.6,4.6c0,2,3,6.2,4.6,8.1c1.6-2,4.6-6.1,4.6-8.1
			C15.8,3.9,13.7,1.8,11.2,1.8z"/>
		<path class="st0" d="M11.2,8.8c-1.3,0-2.4-1.1-2.4-2.4S9.9,4,11.2,4s2.4,1.1,2.4,2.4S12.5,8.8,11.2,8.8z M11.2,5
			c-0.8,0-1.4,0.6-1.4,1.4c0,0.8,0.6,1.4,1.4,1.4s1.4-0.6,1.4-1.4C12.6,5.7,12,5,11.2,5z"/>
	</g>
	<path class="st0" d="M21.1,24.8h-20c-0.1,0-0.3-0.1-0.4-0.2c-0.1-0.1-0.1-0.2-0.1-0.4l2-19c0-0.3,0.2-0.4,0.5-0.4h3.1
		c0.3,0,0.5,0.2,0.5,0.5S6.5,5.8,6.2,5.8H3.6l-1.9,18h18.9l-1.9-18h-2.5c-0.3,0-0.5-0.2-0.5-0.5s0.2-0.5,0.5-0.5h2.9
		c0.3,0,0.5,0.2,0.5,0.4l2,19c0,0.1,0,0.3-0.1,0.4C21.4,24.8,21.2,24.8,21.1,24.8z"/>
	<path class="st0" d="M20.5,18.8H1.7c-0.3,0-0.5-0.2-0.5-0.5s0.2-0.5,0.5-0.5h18.7c0.3,0,0.5,0.2,0.5,0.5S20.7,18.8,20.5,18.8z"/>
	<path class="st0" d="M19.7,11.8h-5.6c-0.3,0-0.5-0.2-0.5-0.5s0.2-0.5,0.5-0.5h5.6c0.3,0,0.5,0.2,0.5,0.5S20,11.8,19.7,11.8z"/>
	<path class="st0" d="M8.3,11.8H2.5c-0.3,0-0.5-0.2-0.5-0.5s0.2-0.5,0.5-0.5h5.8c0.3,0,0.5,0.2,0.5,0.5S8.5,11.8,8.3,11.8z"/>
	<path class="st0" d="M6.1,24.8C6.1,24.8,6.1,24.8,6.1,24.8c-0.3,0-0.5-0.3-0.5-0.5l1-15c0-0.3,0.3-0.5,0.5-0.5
		c0.3,0,0.5,0.3,0.5,0.5l-1,15C6.6,24.6,6.4,24.8,6.1,24.8z"/>
	<path class="st0" d="M16.3,24.8c-0.3,0-0.5-0.2-0.5-0.5l-1-15c0-0.3,0.2-0.5,0.5-0.5c0.3,0,0.5,0.2,0.5,0.5l1,15
		C16.8,24.6,16.6,24.8,16.3,24.8C16.3,24.8,16.3,24.8,16.3,24.8z"/>
</g>
</svg>
