<?xml version="1.0" encoding="utf-8"?>
<!-- Generator: Adobe Illustrator 21.1.0, SVG Export Plug-In . SVG Version: 6.00 Build 0)  -->
<svg version="1.1" id="Layer_1" xmlns="http://www.w3.org/2000/svg" xmlns:xlink="http://www.w3.org/1999/xlink" x="0px" y="0px"
	 width="25px" height="25px" viewBox="0 0 25 25" style="enable-background:new 0 0 25 25;" xml:space="preserve">
<style type="text/css">
	.st0{fill:#2c2c2b;}
</style>
<g>
	<path class="st0" d="M24.2,24.2h-23c-0.3,0-0.5-0.2-0.5-0.5v-21c0-0.3,0.2-0.5,0.5-0.5h4c0.3,0,0.5,0.2,0.5,0.5S5.5,3.2,5.2,3.2
		H1.8v20h22v-20h-3.5c-0.3,0-0.5-0.2-0.5-0.5s0.2-0.5,0.5-0.5h4c0.3,0,0.5,0.2,0.5,0.5v21C24.8,23.9,24.5,24.2,24.2,24.2z"/>
	<path class="st0" d="M8.2,5.2h-3C5,5.2,4.8,4.9,4.8,4.7v-4c0-0.3,0.2-0.5,0.5-0.5h3c0.3,0,0.5,0.2,0.5,0.5v4
		C8.8,4.9,8.5,5.2,8.2,5.2z M5.8,4.2h2v-3h-2V4.2z"/>
	<path class="st0" d="M20.2,5.2h-3c-0.3,0-0.5-0.2-0.5-0.5v-4c0-0.3,0.2-0.5,0.5-0.5h3c0.3,0,0.5,0.2,0.5,0.5v4
		C20.8,4.9,20.5,5.2,20.2,5.2z M17.8,4.2h2v-3h-2V4.2z"/>
	<path class="st0" d="M17.2,3.2h-9C8,3.2,7.8,2.9,7.8,2.7S8,2.2,8.2,2.2h9c0.3,0,0.5,0.2,0.5,0.5S17.5,3.2,17.2,3.2z"/>
	<path class="st0" d="M24.2,8.2h-23C1,8.2,0.8,7.9,0.8,7.7S1,7.2,1.2,7.2h23c0.3,0,0.5,0.2,0.5,0.5S24.5,8.2,24.2,8.2z"/>
	<path class="st0" d="M7.2,22.2c-0.3,0-0.5-0.2-0.5-0.5v-12c0-0.3,0.2-0.5,0.5-0.5s0.5,0.2,0.5,0.5v12C7.8,21.9,7.5,22.2,7.2,22.2z"
		/>
	<path class="st0" d="M12.2,22.2c-0.3,0-0.5-0.2-0.5-0.5v-12c0-0.3,0.2-0.5,0.5-0.5s0.5,0.2,0.5,0.5v12
		C12.8,21.9,12.5,22.2,12.2,22.2z"/>
	<path class="st0" d="M17.2,22.2c-0.3,0-0.5-0.2-0.5-0.5v-12c0-0.3,0.2-0.5,0.5-0.5s0.5,0.2,0.5,0.5v12
		C17.8,21.9,17.5,22.2,17.2,22.2z"/>
	<path class="st0" d="M22.2,12.2h-19c-0.3,0-0.5-0.2-0.5-0.5s0.2-0.5,0.5-0.5h19c0.3,0,0.5,0.2,0.5,0.5S22.5,12.2,22.2,12.2z"/>
	<path class="st0" d="M22.2,16.2h-19c-0.3,0-0.5-0.2-0.5-0.5s0.2-0.5,0.5-0.5h19c0.3,0,0.5,0.2,0.5,0.5S22.5,16.2,22.2,16.2z"/>
	<path class="st0" d="M22.2,20.2h-19c-0.3,0-0.5-0.2-0.5-0.5s0.2-0.5,0.5-0.5h19c0.3,0,0.5,0.2,0.5,0.5S22.5,20.2,22.2,20.2z"/>
</g>
</svg>
