<?xml version="1.0" encoding="utf-8"?>
<!-- Generator: Adobe Illustrator 21.1.0, SVG Export Plug-In . SVG Version: 6.00 Build 0)  -->
<svg version="1.1" id="Layer_1" xmlns="http://www.w3.org/2000/svg" xmlns:xlink="http://www.w3.org/1999/xlink" x="0px" y="0px"
	 width="14px" height="14px" viewBox="0 0 14 14" style="enable-background:new 0 0 14 14;" xml:space="preserve">
<style type="text/css">
	.st0{fill:#FFFFFF;}
</style>
<g>
	<path class="st0" d="M0.9,13.2c-0.1,0-0.3,0-0.4-0.1c-0.2-0.2-0.2-0.5,0-0.7l12-12c0.2-0.2,0.5-0.2,0.7,0s0.2,0.5,0,0.7l-12,12
		C1.2,13.1,1.1,13.2,0.9,13.2z"/>
</g>
<g>
	<path class="st0" d="M12.9,13.2c-0.1,0-0.3,0-0.4-0.1L0.6,1c-0.2-0.2-0.2-0.5,0-0.7s0.5-0.2,0.7,0l12,12c0.2,0.2,0.2,0.5,0,0.7
		C13.2,13.1,13.1,13.2,12.9,13.2z"/>
</g>
</svg>
