<?xml version="1.0" encoding="utf-8"?>
<!-- Generator: Adobe Illustrator 21.1.0, SVG Export Plug-In . SVG Version: 6.00 Build 0)  -->
<svg version="1.1" id="Layer_1" xmlns="http://www.w3.org/2000/svg" xmlns:xlink="http://www.w3.org/1999/xlink" x="0px" y="0px"
	 width="48.7px" height="48.7px" viewBox="0 0 48.7 48.7" style="enable-background:new 0 0 48.7 48.7;" xml:space="preserve">
<style type="text/css">
	.st0{clip-path:url(#SVGID_2_);fill:#A46935;}
	.st1{clip-path:url(#SVGID_2_);fill:none;stroke:#3C3C3B;stroke-width:0.75;stroke-miterlimit:10;}
	.st2{clip-path:url(#SVGID_2_);fill:none;stroke:#3C3C3B;stroke-width:0.75;stroke-linecap:round;stroke-miterlimit:10;}
</style>
<g>
	<defs>
		<rect id="SVGID_1_" y="0" width="48.7" height="48.7"/>
	</defs>
	<clipPath id="SVGID_2_">
		<use xlink:href="#SVGID_1_"  style="overflow:visible;"/>
	</clipPath>
	<path class="st0" d="M24.3,48.7c13.4,0,24.3-10.9,24.3-24.3S37.8,0,24.3,0S0,10.9,0,24.3S10.9,48.7,24.3,48.7"/>
	<path class="st1" d="M35.7,20.7l-3.9,1.7l3.5,8.2l3.9-1.5 M43.8,31.9l-3.1,1.2l-5.5-13.5l8.6-3.5 M13,19.8l3.9,1.7l-3.5,8.2
		l-3.9-1.5 M4.8,31l3.1,1.2l5.5-13.5l-8.6-3.5 M34.9,29.7l-3.5,1.1l-2.2-3c0,0,2.5,1.1,4.5-0.7L34.9,29.7z M33.7,27.1
		c-4.5,3-7.8-2-7.8-2c-1.6-2.2-2.7,0.1-2.7,0.1c-0.8,2-2,1.8-2.7,1.5c-0.4-0.2-0.5-0.6-0.4-1l0.5-1.8c0.2-0.8,0.8-1.5,1.6-1.8l2-0.9
		c0.7-0.3,1.4-0.2,2.3-0.1l5.3,1.3L33.7,27.1z"/>
	<path class="st2" d="M22.5,32.3l2.9,3.2c0.3,0.4,0.8,0.6,1.2,0.6c0.5,0,1.2-0.2,1.8-1.1 M24.1,30.6l3.5,3.6c0.9,1,2.6,0.6,3-0.7
		c0,0,0,0,0-0.1 M28.9,27.7l3,3.8c0.2,0.3,0.3,0.7,0.2,1c-0.3,0.9-1.4,1.1-2,0.4L26,28.6"/>
	<path class="st1" d="M22.8,35.7L22.6,36c-0.4,0.4-1.1,0.4-1.5,0c-0.4-0.4-0.4-1.1,0-1.5l0.2-0.2 M19.6,32.7l-0.5,0.5
		c-0.4,0.5-0.4,1.2,0.1,1.6c0.5,0.4,1.2,0.4,1.6-0.1l0.5-0.6 M19.6,32.7l-0.8,0.8c-0.4,0.5-1.1,0.5-1.6,0.1
		c-0.5-0.4-0.5-1.1-0.1-1.6l0.7-0.8 M16.3,29.9L16,30.3c-0.3,0.4-0.3,1,0.1,1.3c0.4,0.3,1,0.3,1.4-0.1l0.3-0.4 M14,28.2
		c0,0,4,2.7,8.3,7l1.3,1.3c0.7,0.6,1.8,0.3,2-0.6c0,0,0,0,0,0 M16.9,21.5c0,0,3.2-0.3,5.7,0.3"/>
</g>
</svg>
