<?xml version="1.0" encoding="utf-8"?>
<!-- Generator: Adobe Illustrator 21.1.0, SVG Export Plug-In . SVG Version: 6.00 Build 0)  -->
<svg version="1.1" id="Layer_1" xmlns="http://www.w3.org/2000/svg" xmlns:xlink="http://www.w3.org/1999/xlink" x="0px" y="0px"
	 width="48.7px" height="48.7px" viewBox="0 0 48.7 48.7" style="enable-background:new 0 0 48.7 48.7;" xml:space="preserve">
<style type="text/css">
	.st0{clip-path:url(#SVGID_2_);fill:#A46935;}
	.st1{clip-path:url(#SVGID_2_);fill:none;stroke:#3C3C3B;stroke-width:0.75;stroke-linecap:round;stroke-miterlimit:10;}
</style>
<g>
	<defs>
		<rect id="SVGID_1_" y="0" width="48.7" height="48.7"/>
	</defs>
	<clipPath id="SVGID_2_">
		<use xlink:href="#SVGID_1_"  style="overflow:visible;"/>
	</clipPath>
	<path class="st0" d="M24.3,48.7c13.4,0,24.3-10.9,24.3-24.3S37.8,0,24.3,0S0,10.9,0,24.3S10.9,48.7,24.3,48.7"/>
	<path class="st1" d="M33.7,32.5H36 M15,32.5h-2.3 M28.2,28.4l0.4-3.1h-4.2h-4.2l0.4,3.1 M20.5,28.4h7.7 M36.9,25l-3.7,0.5
		c-0.9,0.1-1.6,0.9-1.6,1.9v0.9h5.3 M21.4,19.8h13.2l-2.4-4.4c-0.1-0.3-0.4-0.4-0.7-0.4h-7.2h-7.2c-0.3,0-0.5,0.2-0.7,0.4l-2.4,4.4
		H21.4z M33.7,32.5v1.2c0,1.2,1,2.2,2.2,2.2h1.2c1.2,0,2.2-1,2.2-2.2V23.5l2.3-0.8c0.2-0.1,0.4-0.3,0.4-0.5v-1.8
		c0-0.3-0.2-0.5-0.5-0.5h-2.6c-0.7,0-1.4-0.4-1.8-1L34.5,14c-0.5-0.9-1.5-1.5-2.5-1.5h-7.7h-7.7c-1,0-2,0.6-2.5,1.5l-2.6,4.7
		c-0.4,0.6-1,1-1.8,1H7.2c-0.3,0-0.5,0.2-0.5,0.5v1.8c0,0.2,0.1,0.4,0.4,0.5l2.3,0.8v10.3c0,1.2,1,2.2,2.2,2.2h1.2
		c1.2,0,2.2-1,2.2-2.2v-1.2H33.7z M11.8,28.3h5.3v-0.9c0-0.9-0.7-1.7-1.6-1.9L11.8,25"/>
</g>
</svg>
