<?xml version="1.0" encoding="utf-8"?>
<!-- Generator: Adobe Illustrator 21.1.0, SVG Export Plug-In . SVG Version: 6.00 Build 0)  -->
<svg version="1.1" id="Layer_1" xmlns="http://www.w3.org/2000/svg" xmlns:xlink="http://www.w3.org/1999/xlink" x="0px" y="0px"
	 width="48.7px" height="48.7px" viewBox="0 0 48.7 48.7" style="enable-background:new 0 0 48.7 48.7;" xml:space="preserve">
<style type="text/css">
	.st0{clip-path:url(#SVGID_2_);fill:#A46935;}
	.st1{clip-path:url(#SVGID_2_);fill:none;stroke:#3C3C3B;stroke-width:0.75;stroke-linejoin:round;stroke-miterlimit:10;}
	.st2{fill:none;stroke:#3C3C3B;stroke-width:0.75;stroke-linecap:round;stroke-linejoin:round;stroke-miterlimit:10;}
	.st3{clip-path:url(#SVGID_4_);fill:none;stroke:#3C3C3B;stroke-width:0.75;stroke-linejoin:round;stroke-miterlimit:10;}
	
		.st4{clip-path:url(#SVGID_4_);fill:none;stroke:#3C3C3B;stroke-width:0.75;stroke-linecap:round;stroke-linejoin:round;stroke-miterlimit:10;}
	.st5{fill:none;stroke:#3C3C3B;stroke-width:0.75;stroke-linejoin:round;stroke-miterlimit:10;}
	
		.st6{clip-path:url(#SVGID_6_);fill:none;stroke:#3C3C3B;stroke-width:0.75;stroke-linecap:round;stroke-linejoin:round;stroke-miterlimit:10;}
	
		.st7{clip-path:url(#SVGID_8_);fill:none;stroke:#3C3C3B;stroke-width:0.75;stroke-linecap:round;stroke-linejoin:round;stroke-miterlimit:10;}
	.st8{clip-path:url(#SVGID_8_);fill:none;stroke:#3C3C3B;stroke-width:0.75;stroke-miterlimit:10;}
</style>
<g>
	<defs>
		<rect id="SVGID_1_" y="0" width="48.7" height="48.7"/>
	</defs>
	<clipPath id="SVGID_2_">
		<use xlink:href="#SVGID_1_"  style="overflow:visible;"/>
	</clipPath>
	<path class="st0" d="M24.3,48.7c13.4,0,24.3-10.9,24.3-24.3C48.7,10.9,37.8,0,24.3,0C10.9,0,0,10.9,0,24.3
		C0,37.8,10.9,48.7,24.3,48.7"/>
	<path class="st1" d="M16.9,31.7c0-0.4,0.6-6.5,0.6-6.5l4.1-2.7"/>
</g>
<line class="st2" x1="23.7" y1="28.5" x2="22.8" y2="31.7"/>
<g>
	<defs>
		<rect id="SVGID_3_" y="0" width="48.7" height="48.7"/>
	</defs>
	<clipPath id="SVGID_4_">
		<use xlink:href="#SVGID_3_"  style="overflow:visible;"/>
	</clipPath>
	<path class="st3" d="M31.8,31.7c0-0.4-0.6-6.5-0.6-6.5l-4.1-2.7"/>
	<path class="st4" d="M27,18.4c0-1.8-1.2-3.2-2.6-3.2c-1.4,0-2.6,1.4-2.6,3.2c0,1.8,1.2,3.2,2.6,3.2C25.8,21.6,27,20.1,27,18.4z
		 M27.1,29.3h2.2 M24.9,28.5l1,3.2 M27.1,22.6l-4.4,4l1,1.9h0.6h0.6l1-1.9l-4.4-4"/>
</g>
<line class="st5" x1="31.2" y1="25.3" x2="33.9" y2="24.2"/>
<g>
	<defs>
		<rect id="SVGID_5_" y="0" width="48.7" height="48.7"/>
	</defs>
	<clipPath id="SVGID_6_">
		<use xlink:href="#SVGID_5_"  style="overflow:visible;"/>
	</clipPath>
	<path class="st6" d="M37.8,20.4c0-1.4-0.9-2.5-2-2.5c-1.1,0-2,1.1-2,2.5s0.9,2.5,2,2.5C36.9,22.8,37.8,21.7,37.8,20.4z M37.7,24.1
		l-1.9,1.3v3.8 M35.8,25.5l-1.9-1.3"/>
</g>
<line class="st5" x1="17.5" y1="25.3" x2="14.7" y2="24.2"/>
<g>
	<defs>
		<rect id="SVGID_7_" y="0" width="48.7" height="48.7"/>
	</defs>
	<clipPath id="SVGID_8_">
		<use xlink:href="#SVGID_7_"  style="overflow:visible;"/>
	</clipPath>
	<path class="st7" d="M10.9,20.4c0-1.4,0.9-2.5,2-2.5s2,1.1,2,2.5s-0.9,2.5-2,2.5S10.9,21.7,10.9,20.4z M11,24.1l1.9,1.3v3.8
		 M12.8,25.5l1.9-1.3"/>
	<path class="st8" d="M37.7,24.2l2.8,1.2c0,0,0.7,6.1,0.7,6.4H7.6c0-0.3,0.7-6.4,0.7-6.4l2.8-1.2"/>
</g>
</svg>
