<?xml version="1.0" encoding="utf-8"?>
<!-- Generator: Adobe Illustrator 21.1.0, SVG Export Plug-In . SVG Version: 6.00 Build 0)  -->
<svg version="1.1" id="Layer_1" xmlns="http://www.w3.org/2000/svg" xmlns:xlink="http://www.w3.org/1999/xlink" x="0px" y="0px"
	 width="23px" height="25px" viewBox="0 0 23 25" style="enable-background:new 0 0 23 25;" xml:space="preserve">
<style type="text/css">
	.st0{fill:#2c2c2b;}
</style>
<g>
	<path class="st0" d="M9,24.2H3c-1.4,0-2.5-1.1-2.5-2.5V3.2c0-0.3,0.2-0.5,0.5-0.5s0.5,0.2,0.5,0.5v18.5c0,0.8,0.7,1.5,1.5,1.5h6
		c0.3,0,0.5,0.2,0.5,0.5S9.3,24.2,9,24.2z"/>
	<path class="st0" d="M20,9.7c-0.3,0-0.5-0.2-0.5-0.5v-4H3C1.6,5.2,0.5,4,0.5,2.7S1.6,0.2,3,0.2h17c0.3,0,0.5,0.2,0.5,0.5
		S20.3,1.2,20,1.2H3c-0.8,0-1.5,0.7-1.5,1.5S2.2,4.2,3,4.2h17c0.3,0,0.5,0.2,0.5,0.5v4.5C20.5,9.4,20.3,9.7,20,9.7z"/>
	<path class="st0" d="M16,24.2c-3.6,0-6.5-2.9-6.5-6.5s2.9-6.5,6.5-6.5s6.5,2.9,6.5,6.5S19.6,24.2,16,24.2z M16,12.2
		c-3,0-5.5,2.5-5.5,5.5s2.5,5.5,5.5,5.5s5.5-2.5,5.5-5.5S19,12.2,16,12.2z"/>
	<path class="st0" d="M16,20.7c-0.3,0-0.5-0.2-0.5-0.5v-5c0-0.3,0.2-0.5,0.5-0.5s0.5,0.2,0.5,0.5v5C16.5,20.4,16.3,20.7,16,20.7z"/>
	<path class="st0" d="M16,20.7c-0.1,0-0.3,0-0.4-0.1l-2-2c-0.2-0.2-0.2-0.5,0-0.7s0.5-0.2,0.7,0l1.6,1.6l1.6-1.6
		c0.2-0.2,0.5-0.2,0.7,0s0.2,0.5,0,0.7l-2,2C16.3,20.6,16.1,20.7,16,20.7z"/>
	<path class="st0" d="M19,3.2H3c-0.3,0-0.5-0.2-0.5-0.5S2.7,2.2,3,2.2h16c0.3,0,0.5,0.2,0.5,0.5S19.3,3.2,19,3.2z"/>
</g>
</svg>
