<?xml version="1.0" encoding="utf-8"?>
<!-- Generator: Adobe Illustrator 21.1.0, SVG Export Plug-In . SVG Version: 6.00 Build 0)  -->
<svg version="1.1" id="Layer_1" xmlns="http://www.w3.org/2000/svg" xmlns:xlink="http://www.w3.org/1999/xlink" x="0px" y="0px"
	 width="394px" height="69.4px" viewBox="0 0 394 69.4" style="enable-background:new 0 0 394 69.4;" xml:space="preserve">
<style type="text/css">
	.st0{fill:#1D1D1B;}
	.st1{fill:#E30613;}
	.st2{fill:#FFFFFF;}
</style>
<g>
	<path class="st0" d="M89.8,27.2h-8.1v-5.4h22v5.4h-8.1v21.2h-5.9V27.2z"/>
	<path class="st0" d="M105.7,35.2L105.7,35.2c0-7.6,6-13.8,14.2-13.8c8.2,0,14.1,6.1,14.1,13.7v0.1c0,7.6-6,13.8-14.2,13.8
		C111.5,48.9,105.7,42.8,105.7,35.2z M127.8,35.2L127.8,35.2c0-4.6-3.3-8.4-8.1-8.4c-4.7,0-8,3.7-8,8.3v0.1c0,4.6,3.3,8.4,8.1,8.4
		C124.5,43.5,127.8,39.8,127.8,35.2z"/>
	<path class="st0" d="M134.1,21.9h6.3l5.5,18l6-18.1h5l6,18.1l5.5-18h6.1l-9.1,26.8h-5.1l-6-17.4l-6,17.4h-5.1L134.1,21.9z"/>
	<path class="st0" d="M177.7,21.9h5.4l12.5,16.4V21.9h5.8v26.6h-5l-12.9-16.9v16.9h-5.8V21.9z"/>
	<path class="st0" d="M205.6,35.2L205.6,35.2c0-7.6,5.9-13.8,13.9-13.8c4.8,0,7.7,1.3,10.4,3.6l-3.7,4.4c-2.1-1.7-3.9-2.7-7-2.7
		c-4.3,0-7.6,3.8-7.6,8.3v0.1c0,4.9,3.3,8.4,8.1,8.4c2.1,0,4-0.5,5.5-1.6v-3.8h-5.9v-5.1h11.6v11.5c-2.7,2.3-6.5,4.2-11.4,4.2
		C211.3,48.9,205.6,43.1,205.6,35.2z"/>
	<path class="st0" d="M244.8,21.7h5.4l11.4,26.8h-6.1l-2.4-6h-11.2l-2.4,6h-6L244.8,21.7z M251,37.3l-3.5-8.6l-3.5,8.6H251z"/>
	<path class="st0" d="M267.6,27.2h-8.1v-5.4h22v5.4h-8.1v21.2h-5.9V27.2z"/>
	<path class="st0" d="M285.5,21.9h20.1v5.2h-14.2v5.4h12.5v5.2h-12.5v5.6h14.4v5.2h-20.3V21.9z"/>
	<path class="st0" d="M322.9,21.9h10c6,0,10,3.2,10,8.4v0.1c0,5.7-4.8,8.7-10.4,8.7h-6.5v9.4h-3V21.9z M332.5,36.3
		c4.4,0,7.3-2.4,7.3-5.9v-0.1c0-3.8-2.8-5.8-7.1-5.8h-6.7v11.7H332.5z"/>
	<path class="st0" d="M347.5,21.9h3v23.8h15v2.8h-18V21.9z"/>
	<path class="st0" d="M367.5,35.2L367.5,35.2c0-7.6,5.6-13.8,13.4-13.8c4.8,0,7.7,1.7,10.4,4.2l-2.1,2.2c-2.2-2.1-4.7-3.6-8.4-3.6
		c-5.9,0-10.3,4.8-10.3,10.9v0.1c0,6.2,4.4,11,10.3,11c3.6,0,6-1.4,8.6-3.8l2,1.9c-2.8,2.8-5.8,4.7-10.6,4.7
		C373.1,48.9,367.5,42.9,367.5,35.2z"/>
</g>
<circle class="st1" cx="36" cy="34.1" r="31.5"/>
<path class="st2" d="M58.3,35.6c0-3.2,1-5.9,0.9-8.2c0-2.3-0.6-5.9-5.4-6.3c-3.2-0.2-5,2.3-7.4,3.3c-2,0.8-6,1-7.9-1.1
	c-0.9-1-1.3-2.2-1.5-3.2c0,0,0,0,0-0.1c1.4-0.5,1.4-1.9,1.3-3.6c-0.1-1.8-1.1-2.9-1.9-3.2c-0.2-1.9-0.4-3.4-0.5-3.4
	c-0.1,0-0.3,1.5-0.5,3.4c-0.9,0.3-1.8,1.5-1.9,3.2c-0.1,1.7-0.1,3.1,1.3,3.6c0,0,0,0.1,0,0.1c-0.2,1-0.6,2.2-1.5,3.2
	c-1.9,2.1-5.8,1.9-7.9,1.1c-2.4-1-4.2-3.5-7.4-3.3c-4.8,0.4-5.3,4-5.4,6.3c0,2.3,0.9,5,0.9,8.2c0,2.6-1.6,4.3-1.6,4.3
	c2.7-0.5,3.7-3.9,4.2-6.3c0.5-2.4,2.1-3.8,3.8-4.4c1.7-0.6,4.3-0.6,6.7,0.4c4.9,1.9,6.4,10.3,7.3,15.9c0.9,5.3,1.6,14.2,1.9,14.2
	c0.4,0,1-8.9,1.9-14.2c0.9-5.6,2.5-13.9,7.3-15.9c2.4-0.9,4.9-1,6.7-0.4c1.7,0.6,3.3,2,3.8,4.4c0.5,2.4,1.6,5.8,4.2,6.3
	C60,39.9,58.3,38.2,58.3,35.6z"/>
</svg>
