<?xml version="1.0" encoding="utf-8"?>
<!-- Generator: Adobe Illustrator 21.1.0, SVG Export Plug-In . SVG Version: 6.00 Build 0)  -->
<svg version="1.1" id="Layer_1" xmlns="http://www.w3.org/2000/svg" xmlns:xlink="http://www.w3.org/1999/xlink" x="0px" y="0px"
	 width="23px" height="23px" viewBox="0 0 23 23" style="enable-background:new 0 0 23 23;" xml:space="preserve">
<style type="text/css">
	.st0{fill:#2c2c2b;}
</style>
<g>
	<path class="st0" d="M22,22.5c-0.1,0-0.2,0-0.3-0.1L15,17.6l-6.7,4.8c-0.2,0.1-0.4,0.1-0.6,0l-7-5c-0.1-0.1-0.2-0.2-0.2-0.4V1
		c0-0.2,0.1-0.4,0.3-0.4s0.4-0.1,0.5,0L8,5.3l6.7-4.8c0.2-0.1,0.4-0.1,0.6,0l7,5c0.1,0.1,0.2,0.2,0.2,0.4v16c0,0.2-0.1,0.4-0.3,0.4
		C22.1,22.4,22.1,22.5,22,22.5z M1.5,16.7L8,21.3l6.7-4.8c0.2-0.1,0.4-0.1,0.6,0l6.2,4.4V6.2L15,1.6L8.3,6.4c-0.2,0.1-0.4,0.1-0.6,0
		L1.5,1.9V16.7z"/>
	<path class="st0" d="M8,22.5c-0.3,0-0.5-0.2-0.5-0.5V6c0-0.3,0.2-0.5,0.5-0.5S8.5,5.7,8.5,6v16C8.5,22.2,8.3,22.5,8,22.5z"/>
	<path class="st0" d="M15,17.5c-0.3,0-0.5-0.2-0.5-0.5V1c0-0.3,0.2-0.5,0.5-0.5s0.5,0.2,0.5,0.5v16C15.5,17.2,15.3,17.5,15,17.5z"/>
</g>
</svg>
